<svg width="49" height="23" viewBox="0 0 49 23" fill="none" xmlns="http://www.w3.org/2000/svg">
<path d="M31.4925 8.1309H26.2086L24.9892 10.476C24.8632 10.7506 24.7156 11.0143 24.5477 11.2645H24.4925C24.4925 11.2645 24.2416 10.8702 24.0509 10.5016L22.8315 8.1309H17.5627L21.7125 14.7872L17.5627 21.5049H22.7563L24.1563 18.7758C24.2793 18.5344 24.3899 18.2866 24.4875 18.0334H24.5427C24.6385 18.2873 24.7491 18.5353 24.8738 18.7758L26.2989 21.5049H31.4975L27.3627 14.8486L31.4875 8.19234L31.4925 8.1309ZM8.08387 18.2075C7.7467 18.2156 7.41127 18.1558 7.09679 18.0315C6.7823 17.9072 6.49494 17.7208 6.25116 17.483C6.00738 17.2452 5.81197 16.9606 5.67612 16.6457C5.54028 16.3307 5.46666 15.9914 5.4595 15.6474C5.49322 14.6267 5.90788 13.6578 6.61864 12.9388C8.75126 13.9321 10.7032 14.6797 10.7032 15.9597C10.7032 17.4087 9.69964 18.2075 8.08387 18.2075ZM8.23441 4.79252C9.66953 4.79252 10.5226 5.60151 10.5226 6.84061C10.5025 7.8053 10.2399 8.74856 9.75986 9.57992C7.83799 8.7402 6.24731 7.99265 6.24731 6.50779C6.25233 5.57079 6.86452 4.79252 8.23441 4.79252ZM13.6036 11.5154C13.8143 11.2337 15.7362 8.83749 15.7362 6.44123C15.7362 2.3041 12.4143 0 8.35484 0C3.26165 0 1.03871 3.17453 1.03871 6.41051C1.03035 7.22725 1.20345 8.03532 1.545 8.77402C1.88655 9.51273 2.38768 10.1629 3.01075 10.6756C2.33835 11.1877 0 13.2358 0 16.0928C0 19.6411 2.77491 23 8.08387 23C13.4832 23 16.1677 19.6104 16.1677 16.2157C16.1677 13.9731 15.0538 12.5445 13.6036 11.5154ZM40.9061 18.2075C40.5689 18.2156 40.2335 18.1558 39.919 18.0315C39.6045 17.9072 39.3172 17.7208 39.0734 17.483C38.8296 17.2452 38.6342 16.9606 38.4983 16.6457C38.3625 16.3307 38.2889 15.9914 38.2817 15.6474C38.3154 14.6267 38.7301 13.6578 39.4409 12.9388C41.5735 13.9321 43.5305 14.6797 43.5305 15.9597C43.5305 17.4241 42.5269 18.2331 40.9061 18.2331V18.2075ZM41.0616 4.79252C42.4968 4.79252 43.3498 5.60151 43.3498 6.84061C43.3297 7.8053 43.0671 8.74856 42.5871 9.57992C40.6652 8.7402 39.0746 7.99265 39.0746 6.50779C39.0746 5.57079 39.6867 4.79252 41.0566 4.79252H41.0616ZM46.4308 11.5154C46.6466 11.2337 48.5634 8.83749 48.5634 6.44123C48.5634 2.3041 45.2366 0 41.1821 0C36.0889 0 33.8609 3.17453 33.8609 6.41051C33.8541 7.22803 34.029 8.03649 34.3722 8.77519C34.7155 9.5139 35.2184 10.1636 35.843 10.6756C35.1706 11.1877 32.8323 13.2358 32.8323 16.0928C32.8323 19.6411 35.6072 23 40.9161 23C46.3154 23 49 19.6104 49 16.2157C49 13.9731 47.891 12.5445 46.4258 11.5154H46.4308Z" fill="#625E60"/>
</svg>
