<svg width="367" height="262" viewBox="0 0 367 262" fill="none" xmlns="http://www.w3.org/2000/svg">
<path d="M223 64H248" stroke="#737273" stroke-miterlimit="10" stroke-linecap="round" stroke-linejoin="round"/>
<path d="M206 64H217" stroke="#737273" stroke-miterlimit="10" stroke-linecap="round" stroke-linejoin="round"/>
<path d="M243 60L248 64.5009L243 69" stroke="#737273" stroke-miterlimit="10" stroke-linecap="round" stroke-linejoin="round"/>
<path d="M96.8364 101.151C95.0683 101.151 93.406 101.628 92.0029 102.468C90.2183 98.0922 85.7314 95 80.482 95C75.2333 95 70.7636 98.0922 68.9625 102.451C67.5589 101.628 65.9132 101.151 64.1462 101.151C59.1055 101.151 55 105.033 55 109.835C55 109.886 55 109.95 55.0172 110H68.5811H73.2932H87.7058H92.3842H105.982C106 109.95 106 109.886 106 109.835C106 105.033 101.894 101.151 96.8364 101.151Z" fill="#EBEBEB" stroke="#737273" stroke-miterlimit="10" stroke-linecap="round" stroke-linejoin="round"/>
<path d="M186.255 195.231C188.061 194.541 190.082 195.449 190.769 197.254C191.458 199.06 190.551 201.08 188.746 201.769C186.94 202.459 184.919 201.551 184.23 199.746C183.543 197.94 184.448 195.918 186.255 195.231Z" stroke="#737273" stroke-miterlimit="10" stroke-linecap="round" stroke-linejoin="round"/>
<path d="M182.261 217.234C183.289 216.843 184.387 216.952 185.262 217.485C185.93 217.855 186.475 218.467 186.771 219.242C187.457 221.052 186.549 223.084 184.745 223.773C183.236 224.35 181.558 223.788 180.645 222.523C180.487 222.294 180.34 222.038 180.228 221.744C179.542 219.936 180.457 217.923 182.261 217.234V217.234Z" stroke="#737273" stroke-miterlimit="10" stroke-linecap="round" stroke-linejoin="round"/>
<path d="M243.254 229.232C243.799 229.024 244.371 228.95 244.907 229.033C246.162 229.181 247.292 229.998 247.771 231.254C248.457 233.058 247.549 235.082 245.748 235.769C245.265 235.951 244.763 236.022 244.272 235.994C242.94 235.902 241.733 235.064 241.229 233.745C240.543 231.945 241.451 229.918 243.254 229.232V229.232Z" stroke="#737273" stroke-miterlimit="10" stroke-linecap="round" stroke-linejoin="round"/>
<path d="M184.868 238.394C187.96 237.216 191.424 238.769 192.602 241.856C192.976 242.84 193.088 243.855 192.932 244.831C192.646 246.914 191.251 248.802 189.144 249.603C186.033 250.787 182.57 249.236 181.383 246.127C181.069 245.306 180.959 244.476 181.013 243.651C181.134 241.378 182.582 239.264 184.868 238.394Z" stroke="#737273" stroke-miterlimit="10" stroke-linecap="round" stroke-linejoin="round"/>
<path d="M229.191 176.393C232.538 175.218 236.292 176.768 237.568 179.856C237.975 180.838 238.094 181.852 237.927 182.831C237.618 184.913 236.104 186.799 233.822 187.603C230.453 188.787 226.699 187.235 225.413 184.128C225.075 183.305 224.956 182.474 225.014 181.65C225.145 179.378 226.712 177.265 229.191 176.393V176.393Z" stroke="#737273" stroke-miterlimit="10" stroke-linecap="round" stroke-linejoin="round"/>
<path d="M211.431 198.721C217.044 196.673 223.351 199.136 225.87 204.246C226.024 204.527 226.128 204.785 226.246 205.08C228.501 210.75 225.527 217.107 219.607 219.266C219.298 219.379 218.99 219.492 218.669 219.566C212.957 221.145 206.892 218.298 204.754 212.922C202.498 207.253 205.471 200.895 211.431 198.721V198.721Z" stroke="#737273" stroke-miterlimit="10" stroke-linecap="round" stroke-linejoin="round"/>
<path d="M191 239L208 219" stroke="#737273" stroke-miterlimit="10" stroke-linecap="round" stroke-linejoin="round"/>
<path d="M191 199L205 204" stroke="#737273" stroke-miterlimit="10" stroke-linecap="round" stroke-linejoin="round"/>
<path d="M187 219L205 213" stroke="#737273" stroke-miterlimit="10" stroke-linecap="round" stroke-linejoin="round"/>
<path d="M228 187L221 199" stroke="#737273" stroke-miterlimit="10" stroke-linecap="round" stroke-linejoin="round"/>
<path d="M241 230L225 215" stroke="#737273" stroke-miterlimit="10" stroke-linecap="round" stroke-linejoin="round"/>
<path d="M74 35.3235V47.3757C74 53.0783 78.8417 57.6991 84.8296 57.6991L83.9821 69L100.252 57.6991H113.013V50.2783C113.013 46.5896 114.73 43.2783 117.449 41.0487C119.693 39.193 122.601 38.0783 125.785 38.0783H132V35.3235C132 29.6209 127.158 25 121.183 25H84.8296C78.8417 25 74 29.6209 74 35.3235V35.3235Z" stroke="#737273" stroke-miterlimit="10" stroke-linecap="round" stroke-linejoin="round"/>
<path d="M91 34H120" stroke="#737273" stroke-miterlimit="10" stroke-linecap="round" stroke-linejoin="round"/>
<path d="M84 48H105" stroke="#737273" stroke-miterlimit="10" stroke-linecap="round" stroke-linejoin="round"/>
<path d="M84 41H99" stroke="#737273" stroke-miterlimit="10" stroke-linecap="round" stroke-linejoin="round"/>
<path d="M110 41H117" stroke="#737273" stroke-miterlimit="10" stroke-linecap="round" stroke-linejoin="round"/>
<path d="M113 50.2057V64.4506C113 71.1912 118.683 76.6459 125.68 76.6459H150.238L169.301 90L168.308 76.6459C175.328 76.6459 181 71.1912 181 64.4506V50.2057C181 43.4634 175.328 38 168.308 38H125.68C122.519 38 119.631 39.1153 117.404 40.9718C114.704 43.2024 113 46.5153 113 50.2057V50.2057Z" stroke="#737273" stroke-miterlimit="10" stroke-linecap="round" stroke-linejoin="round"/>
<path d="M160 49H127" stroke="#737273" stroke-miterlimit="10" stroke-linecap="round" stroke-linejoin="round"/>
<path d="M169 66H145" stroke="#737273" stroke-miterlimit="10" stroke-linecap="round" stroke-linejoin="round"/>
<path d="M169 57H152" stroke="#737273" stroke-miterlimit="10" stroke-linecap="round" stroke-linejoin="round"/>
<path d="M138 57H128" stroke="#737273" stroke-miterlimit="10" stroke-linecap="round" stroke-linejoin="round"/>
<path d="M246 111.453C246 113.884 245.075 116.101 243.534 117.793L243.516 117.81L242.609 118.692L242.536 118.764L227.01 134L211.52 118.8L211.465 118.764L210.486 117.793C208.926 116.101 208 113.884 208 111.453C208 106.232 212.282 102 217.542 102C222.457 102 226.502 105.691 227.01 110.426C227.499 105.691 231.562 102 236.477 102C241.737 102 246 106.232 246 111.453Z" stroke="#737273" stroke-miterlimit="10" stroke-linecap="round" stroke-linejoin="round"/>
<path d="M174 172C167.503 178.072 158.713 181.848 149 182" stroke="#737273" stroke-miterlimit="10" stroke-linecap="round" stroke-linejoin="round"/>
<path d="M148 110C148.338 110 148.665 110 149 110" stroke="#737273" stroke-miterlimit="10" stroke-linecap="round" stroke-linejoin="round"/>
<path d="M124 119C116.658 125.587 112 135.228 112 146" stroke="#737273" stroke-miterlimit="10" stroke-linecap="round" stroke-linejoin="round"/>
<path d="M123 172C129.499 178.072 138.288 181.848 148 182" stroke="#737273" stroke-miterlimit="10" stroke-linecap="round" stroke-linejoin="round"/>
<path d="M123 172C116.228 165.42 112 156.213 112 146" stroke="#737273" stroke-miterlimit="10" stroke-linecap="round" stroke-linejoin="round"/>
<path d="M148 182C148.338 182 148.665 182 149 182" stroke="#737273" stroke-miterlimit="10" stroke-linecap="round" stroke-linejoin="round"/>
<path d="M149 110C158.195 110.144 166.566 113.515 173 119" stroke="#737273" stroke-miterlimit="10" stroke-linecap="round" stroke-linejoin="round"/>
<path d="M124 119C130.434 113.515 138.804 110.144 148 110" stroke="#737273" stroke-miterlimit="10" stroke-linecap="round" stroke-linejoin="round"/>
<path d="M174.365 172C181.527 165.443 186 156.267 186 146.089C186 135.282 180.953 125.608 173 119" stroke="#737273" stroke-miterlimit="10" stroke-linecap="round" stroke-linejoin="round"/>
<path d="M135 125C138.437 119.433 143.243 114.656 149 111" stroke="#737273" stroke-miterlimit="10" stroke-linecap="round" stroke-linejoin="round"/>
<path d="M149 110C149 110.313 149 110.679 149 111" stroke="#737273" stroke-miterlimit="10" stroke-linecap="round" stroke-linejoin="round"/>
<path d="M130 146C130 152.829 131.462 159.26 134 165" stroke="#737273" stroke-miterlimit="10" stroke-linecap="round" stroke-linejoin="round"/>
<path d="M134 165C137.468 171.811 142.636 177.651 149 182" stroke="#737273" stroke-miterlimit="10" stroke-linecap="round" stroke-linejoin="round"/>
<path d="M130 146C130 138.377 131.823 131.224 135 125" stroke="#737273" stroke-miterlimit="10" stroke-linecap="round" stroke-linejoin="round"/>
<path d="M124 119C127.278 121.55 130.988 123.576 135 125" stroke="#737273" stroke-miterlimit="10" stroke-linecap="round" stroke-linejoin="round"/>
<path d="M173 119C169.721 121.55 166.011 123.576 162 125" stroke="#737273" stroke-miterlimit="10" stroke-linecap="round" stroke-linejoin="round"/>
<path d="M149 128C153.573 128 157.938 126.907 162 125" stroke="#737273" stroke-miterlimit="10" stroke-linecap="round" stroke-linejoin="round"/>
<path d="M135 125C139.376 126.907 144.077 128 149 128" stroke="#737273" stroke-miterlimit="10" stroke-linecap="round" stroke-linejoin="round"/>
<path d="M174 172C170.765 169.053 167.056 166.675 163 165" stroke="#737273" stroke-miterlimit="10" stroke-linecap="round" stroke-linejoin="round"/>
<path d="M149 163C153.946 163 158.66 163.724 163 165" stroke="#737273" stroke-miterlimit="10" stroke-linecap="round" stroke-linejoin="round"/>
<path d="M134 165C138.651 163.724 143.7 163 149 163" stroke="#737273" stroke-miterlimit="10" stroke-linecap="round" stroke-linejoin="round"/>
<path d="M123 172C126.235 169.053 129.943 166.675 134 165" stroke="#737273" stroke-miterlimit="10" stroke-linecap="round" stroke-linejoin="round"/>
<path d="M162 125C165.814 131.224 168 138.377 168 146" stroke="#737273" stroke-miterlimit="10" stroke-linecap="round" stroke-linejoin="round"/>
<path d="M148 110C148.344 110.313 148.662 110.679 149 111" stroke="#737273" stroke-miterlimit="10" stroke-linecap="round" stroke-linejoin="round"/>
<path d="M148 182C148.347 182 148.662 182 149 182" stroke="#737273" stroke-miterlimit="10" stroke-linecap="round" stroke-linejoin="round"/>
<path d="M168 146C168 152.829 166.171 159.26 163 165" stroke="#737273" stroke-miterlimit="10" stroke-linecap="round" stroke-linejoin="round"/>
<path d="M149 182C154.939 177.651 159.762 171.811 163 165" stroke="#737273" stroke-miterlimit="10" stroke-linecap="round" stroke-linejoin="round"/>
<path d="M162 125C158.81 119.433 154.346 114.656 149 111" stroke="#737273" stroke-miterlimit="10" stroke-linecap="round" stroke-linejoin="round"/>
<path d="M130 146H112" stroke="#737273" stroke-miterlimit="10" stroke-linecap="round" stroke-linejoin="round"/>
<path d="M149 146H168" stroke="#737273" stroke-miterlimit="10" stroke-linecap="round" stroke-linejoin="round"/>
<path d="M130 146H149" stroke="#737273" stroke-miterlimit="10" stroke-linecap="round" stroke-linejoin="round"/>
<path d="M185 146H168" stroke="#737273" stroke-miterlimit="10" stroke-linecap="round" stroke-linejoin="round"/>
<path d="M149 128V111" stroke="#737273" stroke-miterlimit="10" stroke-linecap="round" stroke-linejoin="round"/>
<path d="M149 128V146" stroke="#737273" stroke-miterlimit="10" stroke-linecap="round" stroke-linejoin="round"/>
<path d="M149 163V182" stroke="#737273" stroke-miterlimit="10" stroke-linecap="round" stroke-linejoin="round"/>
<path d="M149 110V111" stroke="#737273" stroke-miterlimit="10" stroke-linecap="round" stroke-linejoin="round"/>
<path d="M149 163V146" stroke="#737273" stroke-miterlimit="10" stroke-linecap="round" stroke-linejoin="round"/>
<path d="M366 240.663C365.785 240.921 365.556 241.163 365.31 241.421C360.793 245.838 353.7 246.161 348.809 242.405C345.459 244.049 341.667 245 337.659 245C335.559 245 333.522 244.742 331.568 244.258C332.406 241.824 332.865 239.196 332.865 236.471C332.865 231.359 331.274 226.619 328.563 222.7C327.809 221.604 326.954 220.573 326.019 219.62C322.817 216.284 318.68 213.849 314 212.704C317.317 202.98 326.66 196 337.659 196C351.452 196 362.617 206.964 362.617 220.492C362.617 225.296 361.187 229.762 358.758 233.536L366 240.663Z" stroke="#737273" stroke-miterlimit="10" stroke-linecap="round" stroke-linejoin="round"/>
<path d="M320.555 239.073C320.032 239.814 319.167 240.298 318.188 240.298C316.604 240.298 315.314 239.023 315.314 237.459C315.314 236.411 315.885 235.492 316.734 235.009C317.158 234.75 317.665 234.607 318.188 234.607C319.786 234.607 321.078 235.879 321.078 237.459C321.078 238.056 320.881 238.62 320.555 239.073ZM307.182 240.298C305.598 240.298 304.308 239.023 304.308 237.459C304.308 235.879 305.598 234.607 307.182 234.607C308.782 234.607 310.072 235.879 310.072 237.459C310.072 239.023 308.782 240.298 307.182 240.298ZM296.176 240.298C294.592 240.298 293.303 239.023 293.303 237.459C293.303 235.879 294.592 234.607 296.176 234.607C297.777 234.607 299.066 235.879 299.066 237.459C299.066 239.023 297.777 240.298 296.176 240.298ZM327.722 222.738C326.972 221.642 326.122 220.61 325.192 219.658C322.008 216.321 317.893 213.887 313.24 212.741C311.296 212.257 309.273 212 307.182 212C293.482 212 282.379 222.963 282.379 236.508C282.379 241.296 283.784 245.763 286.2 249.552L279 256.663C279.227 256.921 279.458 257.179 279.701 257.422C284.175 261.838 291.23 262.162 296.095 258.405C299.442 260.05 303.198 261 307.182 261C318.137 261 327.428 254.003 330.71 244.295C331.544 241.861 332 239.233 332 236.508C332 231.396 330.418 226.657 327.722 222.738V222.738Z" stroke="#737273" stroke-miterlimit="10" stroke-linecap="round" stroke-linejoin="round"/>
<path d="M299 237.007C299 238.656 297.657 240 295.992 240C294.343 240 293 238.656 293 237.007C293 235.341 294.343 234 295.992 234C297.657 234 299 235.341 299 237.007Z" stroke="#737273" stroke-miterlimit="10" stroke-linecap="round" stroke-linejoin="round"/>
<path d="M310 237.007C310 238.656 308.881 240 307.493 240C306.119 240 305 238.656 305 237.007C305 235.341 306.119 234 307.493 234C308.881 234 310 235.341 310 237.007Z" stroke="#737273" stroke-miterlimit="10" stroke-linecap="round" stroke-linejoin="round"/>
<path d="M299 237.007C299 238.656 297.657 240 295.992 240C294.343 240 293 238.656 293 237.007C293 235.341 294.343 234 295.992 234C297.657 234 299 235.341 299 237.007Z" stroke="#737273" stroke-miterlimit="10" stroke-linecap="round" stroke-linejoin="round"/>
<path d="M310 237.007C310 238.656 308.881 240 307.493 240C306.119 240 305 238.656 305 237.007C305 235.341 306.119 234 307.493 234C308.881 234 310 235.341 310 237.007Z" stroke="#737273" stroke-miterlimit="10" stroke-linecap="round" stroke-linejoin="round"/>
<path d="M321 237.007C321 237.637 320.83 238.231 320.546 238.709C320.093 239.49 319.342 240 318.493 240C317.119 240 316 238.656 316 237.007C316 235.903 316.495 234.933 317.232 234.424C317.6 234.152 318.039 234 318.493 234C319.88 234 321 235.341 321 237.007Z" stroke="#737273" stroke-miterlimit="10" stroke-linecap="round" stroke-linejoin="round"/>
<path d="M50.8762 211.743L53.8824 218.745C54.8397 220.968 56.9589 222.331 59.2218 222.459C59.7231 221.644 60.454 220.957 61.3973 220.55C62.328 220.147 63.3275 220.082 64.2614 220.278C65.7419 220.594 67.0537 221.58 67.6908 223.061L70.6112 229.86C71.6529 232.288 70.5284 235.132 68.1094 236.178L66.5367 236.86C59.4732 239.915 51.2057 236.617 48.1604 229.528L39.137 208.518C36.0917 201.429 39.3775 193.128 46.441 190.071L48.0136 189.391C50.4311 188.344 53.264 189.474 54.3072 191.902L57.2275 198.701C57.8631 200.183 57.682 201.829 56.8887 203.114C56.3905 203.929 55.6565 204.616 54.7257 205.019C53.784 205.426 52.783 205.489 51.8507 205.295C50.389 207.035 49.9204 209.518 50.8762 211.743V211.743Z" stroke="#737273" stroke-miterlimit="10" stroke-linecap="round" stroke-linejoin="round"/>
<path d="M336.571 171.735C335.279 171.735 334.064 172.101 333.039 172.748C331.735 169.38 328.456 167 324.62 167C320.785 167 317.519 169.38 316.203 172.735C315.177 172.101 313.975 171.735 312.683 171.735C309 171.735 306 174.723 306 178.419C306 178.457 306 178.507 306.013 178.545H315.924H319.367H329.899H333.317H343.253C343.267 178.507 343.267 178.457 343.267 178.419C343.267 174.723 340.267 171.735 336.571 171.735Z" stroke="#737273" stroke-miterlimit="10" stroke-linecap="round" stroke-linejoin="round"/>
<path d="M340.571 102.735C339.279 102.735 338.064 103.101 337.039 103.748C335.735 100.38 332.456 98.0001 328.62 98.0001C324.785 98.0001 321.519 100.38 320.203 103.735C319.177 103.101 317.975 102.735 316.683 102.735C313 102.735 310 105.723 310 109.419C310 109.457 310 109.507 310.013 109.545H319.924H323.367H333.899H337.317H347.253C347.267 109.507 347.267 109.457 347.267 109.419C347.267 105.723 344.267 102.735 340.571 102.735Z" fill="#EBEBEB" stroke="#737273" stroke-miterlimit="10" stroke-linecap="round" stroke-linejoin="round"/>
<path d="M31.5708 30.7347C30.2788 30.7347 29.0641 31.1014 28.0388 31.7481C26.7348 28.3801 23.4561 26.0001 19.6203 26.0001C15.7849 26.0001 12.5188 28.3801 11.2027 31.7347C10.1771 31.1014 8.97453 30.7347 7.68333 30.7347C4 30.7347 1 33.7227 1 37.4187C1 37.4574 0.999999 37.5067 1.01253 37.5454H10.924H14.3672H24.8988H28.3175H38.2535C38.2668 37.5067 38.2668 37.4574 38.2668 37.4187C38.2668 33.7227 35.2668 30.7347 31.5708 30.7347Z" stroke="#737273" stroke-miterlimit="10" stroke-linecap="round" stroke-linejoin="round"/>
<path d="M220.571 5.73473C219.279 5.73473 218.064 6.1014 217.039 6.74806C215.735 3.38006 212.456 1.00007 208.62 1.00007C204.785 1.00007 201.519 3.38007 200.203 6.73473C199.177 6.1014 197.975 5.73473 196.683 5.73473C193 5.73473 190 8.72273 190 12.4187C190 12.4574 190 12.5067 190.013 12.5454H199.924H203.367H213.899H217.317H227.253C227.267 12.5067 227.267 12.4574 227.267 12.4187C227.267 8.72273 224.267 5.73473 220.571 5.73473Z" stroke="#737273" stroke-miterlimit="10" stroke-linecap="round" stroke-linejoin="round"/>
</svg>
