<svg width="1204" height="270" viewBox="0 0 1204 270" fill="none" xmlns="http://www.w3.org/2000/svg">
<path d="M223 64H248" stroke="#737273" stroke-width="2" stroke-miterlimit="10" stroke-linecap="round" stroke-linejoin="round"/>
<path d="M206 64H217" stroke="#737273" stroke-width="2" stroke-miterlimit="10" stroke-linecap="round" stroke-linejoin="round"/>
<path d="M243 60L248 64.5009L243 69" stroke="#737273" stroke-width="2" stroke-miterlimit="10" stroke-linecap="round" stroke-linejoin="round"/>
<path d="M922 144H905V132" stroke="#737273" stroke-width="2" stroke-miterlimit="10" stroke-linecap="round" stroke-linejoin="round"/>
<path d="M911 132.596L915.068 139L922 125" stroke="#737273" stroke-width="2" stroke-miterlimit="10" stroke-linecap="round" stroke-linejoin="round"/>
<path d="M935 143H997" stroke="#737273" stroke-width="2" stroke-miterlimit="10" stroke-linecap="round" stroke-linejoin="round"/>
<path d="M935 134H963" stroke="#737273" stroke-width="2" stroke-miterlimit="10" stroke-linecap="round" stroke-linejoin="round"/>
<path d="M96.8364 101.151C95.0683 101.151 93.406 101.628 92.0029 102.468C90.2183 98.0922 85.7314 95 80.482 95C75.2333 95 70.7636 98.0922 68.9625 102.451C67.5589 101.628 65.9132 101.151 64.1462 101.151C59.1055 101.151 55 105.033 55 109.835C55 109.886 55 109.95 55.0172 110H68.5811H73.2932H87.7058H92.3842H105.982C106 109.95 106 109.886 106 109.835C106 105.033 101.894 101.151 96.8364 101.151Z" fill="#EBEBEB" stroke="#737273" stroke-width="2" stroke-miterlimit="10" stroke-linecap="round" stroke-linejoin="round"/>
<path d="M186.255 195.231C188.061 194.541 190.082 195.449 190.769 197.254C191.458 199.06 190.551 201.08 188.746 201.769C186.94 202.459 184.919 201.551 184.23 199.746C183.543 197.94 184.448 195.918 186.255 195.231Z" stroke="#737273" stroke-width="2" stroke-miterlimit="10" stroke-linecap="round" stroke-linejoin="round"/>
<path d="M182.261 217.234C183.289 216.843 184.387 216.952 185.262 217.485C185.93 217.855 186.475 218.467 186.771 219.242C187.457 221.052 186.549 223.084 184.745 223.773C183.236 224.35 181.558 223.788 180.645 222.523C180.487 222.294 180.34 222.038 180.228 221.744C179.542 219.936 180.457 217.923 182.261 217.234V217.234Z" stroke="#737273" stroke-width="2" stroke-miterlimit="10" stroke-linecap="round" stroke-linejoin="round"/>
<path d="M243.254 229.232C243.799 229.024 244.371 228.95 244.907 229.033C246.162 229.181 247.292 229.998 247.771 231.254C248.457 233.058 247.549 235.082 245.748 235.769C245.265 235.951 244.763 236.022 244.272 235.994C242.94 235.902 241.733 235.064 241.229 233.745C240.543 231.945 241.451 229.918 243.254 229.232V229.232Z" stroke="#737273" stroke-width="2" stroke-miterlimit="10" stroke-linecap="round" stroke-linejoin="round"/>
<path d="M184.868 238.394C187.96 237.216 191.424 238.769 192.602 241.856C192.976 242.84 193.088 243.855 192.932 244.831C192.646 246.914 191.251 248.802 189.144 249.603C186.033 250.787 182.57 249.236 181.383 246.127C181.069 245.306 180.959 244.476 181.013 243.651C181.134 241.378 182.582 239.264 184.868 238.394Z" stroke="#737273" stroke-width="2" stroke-miterlimit="10" stroke-linecap="round" stroke-linejoin="round"/>
<path d="M229.191 176.393C232.538 175.218 236.292 176.768 237.568 179.856C237.975 180.838 238.094 181.852 237.927 182.831C237.618 184.913 236.104 186.799 233.822 187.603C230.453 188.787 226.699 187.235 225.413 184.128C225.075 183.305 224.956 182.474 225.014 181.65C225.145 179.378 226.712 177.265 229.191 176.393V176.393Z" stroke="#737273" stroke-width="2" stroke-miterlimit="10" stroke-linecap="round" stroke-linejoin="round"/>
<path d="M211.431 198.721C217.044 196.673 223.351 199.136 225.87 204.246C226.024 204.527 226.128 204.785 226.246 205.08C228.501 210.75 225.527 217.107 219.607 219.266C219.298 219.379 218.99 219.492 218.669 219.566C212.957 221.145 206.892 218.298 204.754 212.922C202.498 207.253 205.471 200.895 211.431 198.721V198.721Z" stroke="#737273" stroke-width="2" stroke-miterlimit="10" stroke-linecap="round" stroke-linejoin="round"/>
<path d="M191 239L208 219" stroke="#737273" stroke-width="2" stroke-miterlimit="10" stroke-linecap="round" stroke-linejoin="round"/>
<path d="M191 199L205 204" stroke="#737273" stroke-width="2" stroke-miterlimit="10" stroke-linecap="round" stroke-linejoin="round"/>
<path d="M187 219L205 213" stroke="#737273" stroke-width="2" stroke-miterlimit="10" stroke-linecap="round" stroke-linejoin="round"/>
<path d="M228 187L221 199" stroke="#737273" stroke-width="2" stroke-miterlimit="10" stroke-linecap="round" stroke-linejoin="round"/>
<path d="M241 230L225 215" stroke="#737273" stroke-width="2" stroke-miterlimit="10" stroke-linecap="round" stroke-linejoin="round"/>
<path d="M604.61 146.198C605.901 145.607 607.344 146.385 607.835 147.932C608.327 149.48 607.679 151.212 606.39 151.802C605.1 152.393 603.656 151.615 603.164 150.068C602.673 148.52 603.32 146.787 604.61 146.198Z" stroke="#737273" stroke-width="2" stroke-miterlimit="10" stroke-linecap="round" stroke-linejoin="round"/>
<path d="M601.615 163.167C602.35 162.888 603.134 162.965 603.758 163.347C604.236 163.611 604.625 164.048 604.836 164.601C605.327 165.894 604.678 167.345 603.39 167.838C602.312 168.25 601.113 167.849 600.461 166.945C600.348 166.781 600.243 166.599 600.163 166.389C599.673 165.097 600.326 163.659 601.615 163.167V163.167Z" stroke="#737273" stroke-width="2" stroke-miterlimit="10" stroke-linecap="round" stroke-linejoin="round"/>
<path d="M644.61 172.166C644.999 172.017 645.408 171.964 645.791 172.024C646.687 172.129 647.494 172.713 647.836 173.61C648.327 174.898 647.678 176.344 646.391 176.835C646.047 176.965 645.688 177.016 645.337 176.996C644.386 176.93 643.523 176.331 643.164 175.389C642.673 174.103 643.322 172.656 644.61 172.166V172.166Z" stroke="#737273" stroke-width="2" stroke-miterlimit="10" stroke-linecap="round" stroke-linejoin="round"/>
<path d="M603.579 179.296C605.64 178.412 607.949 179.577 608.735 181.892C608.984 182.63 609.059 183.391 608.954 184.123C608.764 185.686 607.834 187.102 606.43 187.702C604.355 188.59 602.047 187.427 601.256 185.096C601.046 184.48 600.973 183.857 601.009 183.238C601.089 181.533 602.055 179.948 603.579 179.296Z" stroke="#737273" stroke-width="2" stroke-miterlimit="10" stroke-linecap="round" stroke-linejoin="round"/>
<path d="M634.901 132.295C637.219 131.413 639.817 132.576 640.701 134.892C640.982 135.628 641.065 136.389 640.949 137.123C640.735 138.685 639.688 140.099 638.107 140.702C635.775 141.59 633.176 140.426 632.286 138.096C632.052 137.479 631.969 136.856 632.01 136.238C632.1 134.533 633.185 132.948 634.901 132.295V132.295Z" stroke="#737273" stroke-width="2" stroke-miterlimit="10" stroke-linecap="round" stroke-linejoin="round"/>
<path d="M622.169 149.524C626.074 148.035 630.462 149.826 632.214 153.542C632.321 153.747 632.393 153.934 632.475 154.149C634.044 158.272 631.975 162.896 627.857 164.466C627.642 164.548 627.428 164.63 627.204 164.685C623.231 165.833 619.012 163.762 617.525 159.853C615.955 155.729 618.023 151.105 622.169 149.524V149.524Z" stroke="#737273" stroke-width="2" stroke-miterlimit="10" stroke-linecap="round" stroke-linejoin="round"/>
<path d="M608 180L620 165" stroke="#737273" stroke-width="2" stroke-miterlimit="10" stroke-linecap="round" stroke-linejoin="round"/>
<path d="M608 149L618 153" stroke="#737273" stroke-width="2" stroke-miterlimit="10" stroke-linecap="round" stroke-linejoin="round"/>
<path d="M605 165L618 160" stroke="#737273" stroke-width="2" stroke-miterlimit="10" stroke-linecap="round" stroke-linejoin="round"/>
<path d="M634 140L629 149" stroke="#737273" stroke-width="2" stroke-miterlimit="10" stroke-linecap="round" stroke-linejoin="round"/>
<path d="M643 173L632 162" stroke="#737273" stroke-width="2" stroke-miterlimit="10" stroke-linecap="round" stroke-linejoin="round"/>
<path d="M74 35.3235V47.3757C74 53.0783 78.8417 57.6991 84.8296 57.6991L83.9821 69L100.252 57.6991H113.013V50.2783C113.013 46.5896 114.73 43.2783 117.449 41.0487C119.693 39.193 122.601 38.0783 125.785 38.0783H132V35.3235C132 29.6209 127.158 25 121.183 25H84.8296C78.8417 25 74 29.6209 74 35.3235V35.3235Z" stroke="#737273" stroke-width="2" stroke-miterlimit="10" stroke-linecap="round" stroke-linejoin="round"/>
<path d="M91 34H120" stroke="#737273" stroke-width="2" stroke-miterlimit="10" stroke-linecap="round" stroke-linejoin="round"/>
<path d="M84 48H105" stroke="#737273" stroke-width="2" stroke-miterlimit="10" stroke-linecap="round" stroke-linejoin="round"/>
<path d="M84 41H99" stroke="#737273" stroke-width="2" stroke-miterlimit="10" stroke-linecap="round" stroke-linejoin="round"/>
<path d="M110 41H117" stroke="#737273" stroke-width="2" stroke-miterlimit="10" stroke-linecap="round" stroke-linejoin="round"/>
<path d="M113 50.2057V64.4506C113 71.1912 118.683 76.6459 125.68 76.6459H150.238L169.301 90L168.308 76.6459C175.328 76.6459 181 71.1912 181 64.4506V50.2057C181 43.4634 175.328 38 168.308 38H125.68C122.519 38 119.631 39.1153 117.404 40.9718C114.704 43.2024 113 46.5153 113 50.2057Z" stroke="#737273" stroke-width="2" stroke-miterlimit="10" stroke-linecap="round" stroke-linejoin="round"/>
<path d="M160 49H127" stroke="#737273" stroke-width="2" stroke-miterlimit="10" stroke-linecap="round" stroke-linejoin="round"/>
<path d="M169 66H145" stroke="#737273" stroke-width="2" stroke-miterlimit="10" stroke-linecap="round" stroke-linejoin="round"/>
<path d="M169 57H152" stroke="#737273" stroke-width="2" stroke-miterlimit="10" stroke-linecap="round" stroke-linejoin="round"/>
<path d="M138 57H128" stroke="#737273" stroke-width="2" stroke-miterlimit="10" stroke-linecap="round" stroke-linejoin="round"/>
<path d="M878 122.66C878 130.206 864.001 158 864.001 158C864.001 158 850 130.206 850 122.66C850 115.115 856.269 109 864.001 109C871.731 109 878 115.115 878 122.66Z" stroke="#737273" stroke-width="2" stroke-miterlimit="10" stroke-linecap="round" stroke-linejoin="round"/>
<path d="M870 123.999C870 127.315 867.313 130 864 130C860.685 130 858 127.315 858 123.999C858 120.686 860.685 118 864 118C867.313 118 870 120.686 870 123.999Z" stroke="#737273" stroke-width="2" stroke-miterlimit="10" stroke-linecap="round" stroke-linejoin="round"/>
<path d="M246 111.453C246 113.884 245.075 116.101 243.534 117.793L243.516 117.81L242.609 118.692L242.536 118.764L227.01 134L211.52 118.8L211.465 118.764L210.486 117.793C208.926 116.101 208 113.884 208 111.453C208 106.232 212.282 102 217.542 102C222.457 102 226.502 105.691 227.01 110.426C227.499 105.691 231.562 102 236.477 102C241.737 102 246 106.232 246 111.453Z" stroke="#737273" stroke-width="2" stroke-miterlimit="10" stroke-linecap="round" stroke-linejoin="round"/>
<path d="M174 172C167.503 178.072 158.713 181.848 149 182" stroke="#737273" stroke-width="2" stroke-miterlimit="10" stroke-linecap="round" stroke-linejoin="round"/>
<path d="M148 110C148.338 110 148.665 110 149 110" stroke="#737273" stroke-width="2" stroke-miterlimit="10" stroke-linecap="round" stroke-linejoin="round"/>
<path d="M124 119C116.658 125.587 112 135.228 112 146" stroke="#737273" stroke-width="2" stroke-miterlimit="10" stroke-linecap="round" stroke-linejoin="round"/>
<path d="M123 172C129.499 178.072 138.288 181.848 148 182" stroke="#737273" stroke-width="2" stroke-miterlimit="10" stroke-linecap="round" stroke-linejoin="round"/>
<path d="M123 172C116.228 165.42 112 156.213 112 146" stroke="#737273" stroke-width="2" stroke-miterlimit="10" stroke-linecap="round" stroke-linejoin="round"/>
<path d="M148 182C148.338 182 148.665 182 149 182" stroke="#737273" stroke-width="2" stroke-miterlimit="10" stroke-linecap="round" stroke-linejoin="round"/>
<path d="M149 110C158.195 110.144 166.566 113.515 173 119" stroke="#737273" stroke-width="2" stroke-miterlimit="10" stroke-linecap="round" stroke-linejoin="round"/>
<path d="M124 119C130.434 113.515 138.804 110.144 148 110" stroke="#737273" stroke-width="2" stroke-miterlimit="10" stroke-linecap="round" stroke-linejoin="round"/>
<path d="M174.365 172C181.527 165.443 186 156.267 186 146.089C186 135.282 180.953 125.608 173 119" stroke="#737273" stroke-width="2" stroke-miterlimit="10" stroke-linecap="round" stroke-linejoin="round"/>
<path d="M135 125C138.437 119.433 143.243 114.656 149 111" stroke="#737273" stroke-width="2" stroke-miterlimit="10" stroke-linecap="round" stroke-linejoin="round"/>
<path d="M149 110C149 110.313 149 110.679 149 111" stroke="#737273" stroke-width="2" stroke-miterlimit="10" stroke-linecap="round" stroke-linejoin="round"/>
<path d="M130 146C130 152.829 131.462 159.26 134 165" stroke="#737273" stroke-width="2" stroke-miterlimit="10" stroke-linecap="round" stroke-linejoin="round"/>
<path d="M134 165C137.468 171.811 142.636 177.651 149 182" stroke="#737273" stroke-width="2" stroke-miterlimit="10" stroke-linecap="round" stroke-linejoin="round"/>
<path d="M130 146C130 138.377 131.823 131.224 135 125" stroke="#737273" stroke-width="2" stroke-miterlimit="10" stroke-linecap="round" stroke-linejoin="round"/>
<path d="M124 119C127.278 121.55 130.988 123.576 135 125" stroke="#737273" stroke-width="2" stroke-miterlimit="10" stroke-linecap="round" stroke-linejoin="round"/>
<path d="M173 119C169.721 121.55 166.011 123.576 162 125" stroke="#737273" stroke-width="2" stroke-miterlimit="10" stroke-linecap="round" stroke-linejoin="round"/>
<path d="M149 128C153.573 128 157.938 126.907 162 125" stroke="#737273" stroke-width="2" stroke-miterlimit="10" stroke-linecap="round" stroke-linejoin="round"/>
<path d="M135 125C139.376 126.907 144.077 128 149 128" stroke="#737273" stroke-width="2" stroke-miterlimit="10" stroke-linecap="round" stroke-linejoin="round"/>
<path d="M174 172C170.765 169.053 167.056 166.675 163 165" stroke="#737273" stroke-width="2" stroke-miterlimit="10" stroke-linecap="round" stroke-linejoin="round"/>
<path d="M149 163C153.946 163 158.66 163.724 163 165" stroke="#737273" stroke-width="2" stroke-miterlimit="10" stroke-linecap="round" stroke-linejoin="round"/>
<path d="M134 165C138.651 163.724 143.7 163 149 163" stroke="#737273" stroke-width="2" stroke-miterlimit="10" stroke-linecap="round" stroke-linejoin="round"/>
<path d="M123 172C126.235 169.053 129.943 166.675 134 165" stroke="#737273" stroke-width="2" stroke-miterlimit="10" stroke-linecap="round" stroke-linejoin="round"/>
<path d="M162 125C165.814 131.224 168 138.377 168 146" stroke="#737273" stroke-width="2" stroke-miterlimit="10" stroke-linecap="round" stroke-linejoin="round"/>
<path d="M148 110C148.344 110.313 148.662 110.679 149 111" stroke="#737273" stroke-width="2" stroke-miterlimit="10" stroke-linecap="round" stroke-linejoin="round"/>
<path d="M148 182C148.347 182 148.662 182 149 182" stroke="#737273" stroke-width="2" stroke-miterlimit="10" stroke-linecap="round" stroke-linejoin="round"/>
<path d="M168 146C168 152.829 166.171 159.26 163 165" stroke="#737273" stroke-width="2" stroke-miterlimit="10" stroke-linecap="round" stroke-linejoin="round"/>
<path d="M149 182C154.939 177.651 159.762 171.811 163 165" stroke="#737273" stroke-width="2" stroke-miterlimit="10" stroke-linecap="round" stroke-linejoin="round"/>
<path d="M162 125C158.81 119.433 154.346 114.656 149 111" stroke="#737273" stroke-width="2" stroke-miterlimit="10" stroke-linecap="round" stroke-linejoin="round"/>
<path d="M130 146H112" stroke="#737273" stroke-width="2" stroke-miterlimit="10" stroke-linecap="round" stroke-linejoin="round"/>
<path d="M149 146H168" stroke="#737273" stroke-width="2" stroke-miterlimit="10" stroke-linecap="round" stroke-linejoin="round"/>
<path d="M130 146H149" stroke="#737273" stroke-width="2" stroke-miterlimit="10" stroke-linecap="round" stroke-linejoin="round"/>
<path d="M185 146H168" stroke="#737273" stroke-width="2" stroke-miterlimit="10" stroke-linecap="round" stroke-linejoin="round"/>
<path d="M149 128V111" stroke="#737273" stroke-width="2" stroke-miterlimit="10" stroke-linecap="round" stroke-linejoin="round"/>
<path d="M149 128V146" stroke="#737273" stroke-width="2" stroke-miterlimit="10" stroke-linecap="round" stroke-linejoin="round"/>
<path d="M149 163V182" stroke="#737273" stroke-width="2" stroke-miterlimit="10" stroke-linecap="round" stroke-linejoin="round"/>
<path d="M149 110V111" stroke="#737273" stroke-width="2" stroke-miterlimit="10" stroke-linecap="round" stroke-linejoin="round"/>
<path d="M149 163V146" stroke="#737273" stroke-width="2" stroke-miterlimit="10" stroke-linecap="round" stroke-linejoin="round"/>
<path d="M366 240.663C365.785 240.921 365.556 241.163 365.31 241.421C360.793 245.838 353.7 246.161 348.809 242.405C345.459 244.049 341.667 245 337.659 245C335.559 245 333.522 244.742 331.568 244.258C332.406 241.824 332.865 239.196 332.865 236.471C332.865 231.359 331.274 226.619 328.563 222.7C327.809 221.604 326.954 220.573 326.019 219.62C322.817 216.284 318.68 213.849 314 212.704C317.317 202.98 326.66 196 337.659 196C351.452 196 362.617 206.964 362.617 220.492C362.617 225.296 361.187 229.762 358.758 233.536L366 240.663Z" stroke="#737273" stroke-width="2" stroke-miterlimit="10" stroke-linecap="round" stroke-linejoin="round"/>
<path d="M320.555 239.073C320.032 239.814 319.167 240.298 318.188 240.298C316.604 240.298 315.314 239.023 315.314 237.459C315.314 236.411 315.885 235.492 316.734 235.009C317.158 234.75 317.665 234.607 318.188 234.607C319.786 234.607 321.078 235.879 321.078 237.459C321.078 238.056 320.881 238.62 320.555 239.073ZM307.182 240.298C305.598 240.298 304.308 239.023 304.308 237.459C304.308 235.879 305.598 234.607 307.182 234.607C308.782 234.607 310.072 235.879 310.072 237.459C310.072 239.023 308.782 240.298 307.182 240.298ZM296.176 240.298C294.592 240.298 293.303 239.023 293.303 237.459C293.303 235.879 294.592 234.607 296.176 234.607C297.777 234.607 299.066 235.879 299.066 237.459C299.066 239.023 297.777 240.298 296.176 240.298ZM327.722 222.738C326.972 221.642 326.122 220.61 325.192 219.658C322.008 216.321 317.893 213.887 313.24 212.741C311.296 212.257 309.273 212 307.182 212C293.482 212 282.379 222.963 282.379 236.508C282.379 241.296 283.784 245.763 286.2 249.552L279 256.663C279.227 256.921 279.458 257.179 279.701 257.422C284.175 261.838 291.23 262.162 296.095 258.405C299.442 260.05 303.198 261 307.182 261C318.137 261 327.428 254.003 330.71 244.295C331.544 241.861 332 239.233 332 236.508C332 231.396 330.418 226.657 327.722 222.738V222.738Z" stroke="#737273" stroke-width="2" stroke-miterlimit="10" stroke-linecap="round" stroke-linejoin="round"/>
<path d="M299 237.007C299 238.656 297.657 240 295.992 240C294.343 240 293 238.656 293 237.007C293 235.341 294.343 234 295.992 234C297.657 234 299 235.341 299 237.007Z" stroke="#737273" stroke-width="2" stroke-miterlimit="10" stroke-linecap="round" stroke-linejoin="round"/>
<path d="M310 237.007C310 238.656 308.881 240 307.493 240C306.119 240 305 238.656 305 237.007C305 235.341 306.119 234 307.493 234C308.881 234 310 235.341 310 237.007Z" stroke="#737273" stroke-width="2" stroke-miterlimit="10" stroke-linecap="round" stroke-linejoin="round"/>
<path d="M299 237.007C299 238.656 297.657 240 295.992 240C294.343 240 293 238.656 293 237.007C293 235.341 294.343 234 295.992 234C297.657 234 299 235.341 299 237.007Z" stroke="#737273" stroke-width="2" stroke-miterlimit="10" stroke-linecap="round" stroke-linejoin="round"/>
<path d="M310 237.007C310 238.656 308.881 240 307.493 240C306.119 240 305 238.656 305 237.007C305 235.341 306.119 234 307.493 234C308.881 234 310 235.341 310 237.007Z" stroke="#737273" stroke-width="2" stroke-miterlimit="10" stroke-linecap="round" stroke-linejoin="round"/>
<path d="M321 237.007C321 237.637 320.83 238.231 320.546 238.709C320.093 239.49 319.342 240 318.493 240C317.119 240 316 238.656 316 237.007C316 235.903 316.495 234.933 317.232 234.424C317.6 234.152 318.039 234 318.493 234C319.88 234 321 235.341 321 237.007Z" stroke="#737273" stroke-width="2" stroke-miterlimit="10" stroke-linecap="round" stroke-linejoin="round"/>
<path d="M394 196V184.682C394 180.457 397.376 177 401.5 177C405.624 177 409 180.457 409 184.682V196" stroke="#737273" stroke-width="2" stroke-miterlimit="10" stroke-linecap="round" stroke-linejoin="round"/>
<path d="M409 203V214.318C409 218.541 405.624 222 401.5 222C397.376 222 394 218.541 394 214.318V203" stroke="#737273" stroke-width="2" stroke-miterlimit="10" stroke-linecap="round" stroke-linejoin="round"/>
<path d="M402 188V209" stroke="#737273" stroke-width="2" stroke-miterlimit="10" stroke-linecap="round" stroke-linejoin="round"/>
<path d="M501 197.999C501 212.911 488.687 225 473.499 225C458.311 225 446 212.911 446 197.999C446 183.087 458.311 171 473.499 171C488.687 171 501 183.087 501 197.999Z" stroke="#737273" stroke-width="2" stroke-miterlimit="10" stroke-linecap="round" stroke-linejoin="round"/>
<path d="M494 198.001C494 209.046 484.822 218 473.5 218C462.178 218 453 209.046 453 198.001C453 186.954 462.178 178 473.5 178C484.822 178 494 186.954 494 198.001Z" stroke="#737273" stroke-width="2" stroke-miterlimit="10" stroke-linecap="round" stroke-linejoin="round"/>
<path d="M497 184L491 188" stroke="#737273" stroke-width="2" stroke-miterlimit="10" stroke-linecap="round" stroke-linejoin="round"/>
<path d="M456 188L450 184" stroke="#737273" stroke-width="2" stroke-miterlimit="10" stroke-linecap="round" stroke-linejoin="round"/>
<path d="M469.25 190.207C473.315 187.722 478.512 189.196 480.86 193.5C483.207 197.804 481.815 203.307 477.75 205.793C473.685 208.278 468.486 206.802 466.14 202.5C463.793 198.194 465.185 192.692 469.25 190.207Z" stroke="#737273" stroke-width="2" stroke-miterlimit="10" stroke-linecap="round" stroke-linejoin="round"/>
<path d="M479 191L474 198.673L476.731 206" stroke="#737273" stroke-width="2" stroke-miterlimit="10" stroke-linecap="round" stroke-linejoin="round"/>
<path d="M641 262H764" stroke="#737273" stroke-width="2" stroke-miterlimit="10" stroke-linecap="round" stroke-linejoin="round"/>
<path d="M666 262H652V210H666V262Z" stroke="#737273" stroke-width="2" stroke-miterlimit="10" stroke-linecap="round" stroke-linejoin="round"/>
<path d="M747 262H732V232H747V262Z" stroke="#737273" stroke-width="2" stroke-miterlimit="10" stroke-linecap="round" stroke-linejoin="round"/>
<path d="M693 262H678V182H693V262Z" stroke="#737273" stroke-width="2" stroke-miterlimit="10" stroke-linecap="round" stroke-linejoin="round"/>
<path d="M720 262H706V210H720V262Z" stroke="#737273" stroke-width="2" stroke-miterlimit="10" stroke-linecap="round" stroke-linejoin="round"/>
<path d="M713 219H720" stroke="#737273" stroke-width="2" stroke-miterlimit="10" stroke-linecap="round" stroke-linejoin="round"/>
<path d="M713 227H720" stroke="#737273" stroke-width="2" stroke-miterlimit="10" stroke-linecap="round" stroke-linejoin="round"/>
<path d="M713 234H720" stroke="#737273" stroke-width="2" stroke-miterlimit="10" stroke-linecap="round" stroke-linejoin="round"/>
<path d="M713 242H720" stroke="#737273" stroke-width="2" stroke-miterlimit="10" stroke-linecap="round" stroke-linejoin="round"/>
<path d="M713 250H720" stroke="#737273" stroke-width="2" stroke-miterlimit="10" stroke-linecap="round" stroke-linejoin="round"/>
<path d="M586.932 261.196C588.48 260.609 590.213 261.384 590.802 262.932C591.393 264.48 590.616 266.212 589.068 266.803C587.52 267.392 585.787 266.616 585.198 265.068C584.607 263.521 585.384 261.787 586.932 261.196Z" stroke="#737273" stroke-width="2" stroke-miterlimit="10" stroke-linecap="round" stroke-linejoin="round"/>
<path d="M608 250C605.242 241.886 597.109 236 587.5 236C577.891 236 569.758 241.886 567 250" stroke="#737273" stroke-width="2" stroke-miterlimit="10" stroke-linecap="round" stroke-linejoin="round"/>
<path d="M601 254C599.184 248.204 593.829 244 587.501 244C581.171 244 575.816 248.204 574 254" stroke="#737273" stroke-width="2" stroke-miterlimit="10" stroke-linecap="round" stroke-linejoin="round"/>
<path d="M595 258C593.99 255.101 591.015 253 587.501 253C583.985 253 581.01 255.101 580 258" stroke="#737273" stroke-width="2" stroke-miterlimit="10" stroke-linecap="round" stroke-linejoin="round"/>
<path d="M959.007 248.023C956.319 248.023 954.147 245.776 954.147 242.998C954.147 240.234 956.319 237.989 959.007 237.989C961.681 237.989 963.854 240.234 963.854 242.998C963.854 245.776 961.681 248.023 959.007 248.023ZM959.018 255.285C952.438 255.285 947.122 249.788 947.122 242.987C947.122 236.224 952.438 230.727 959.018 230.727C965.56 230.727 970.88 236.224 970.88 242.987C970.88 249.788 965.56 255.285 959.018 255.285ZM980.289 244.17L984 244.007L983.728 237.2L979.553 237.375C979.215 236.099 978.785 234.871 978.252 233.702L981.806 231.551L978.468 225.666L974.586 228.018C973.771 227.081 972.878 226.216 971.928 225.433L974.213 221.609L968.602 218.017L966.18 222.064C965.241 221.69 964.267 221.386 963.26 221.141V217H956.664V220.638C955.679 220.708 954.706 220.837 953.767 221.047L952.273 217.713L946.287 220.59L947.578 223.455C946.311 224.193 945.134 225.048 944.036 226.018L941.603 224.099L937.609 229.537L939.714 231.187C938.923 232.497 938.254 233.888 937.723 235.351L935.052 234.907L934 241.643L936.376 242.041C936.354 242.462 936.32 242.871 936.32 243.292C936.32 244.485 936.433 245.631 936.602 246.767L934.169 247.62L936.285 254.088L938.57 253.281C939.25 254.708 940.054 256.041 940.991 257.269L939.148 259.281L943.945 263.972L945.78 261.971C946.978 262.836 948.268 263.586 949.637 264.194L948.834 267.176L955.192 269L956.019 265.913C956.777 265.994 957.546 266.042 958.327 266.042C958.701 266.042 959.063 266.007 959.436 265.982L959.809 268.568L966.338 267.551L965.908 264.626C967.311 264.1 968.635 263.421 969.88 262.626L971.566 264.965L976.861 260.895L974.926 258.194C975.843 257.106 976.668 255.913 977.38 254.65L980.3 256.088L983.142 249.924L979.78 248.274C980.074 246.941 980.234 245.573 980.289 244.17Z" stroke="#737273" stroke-width="2" stroke-miterlimit="10" stroke-linecap="round" stroke-linejoin="round"/>
<path d="M848.227 188.027C845.196 189.954 843.129 193.356 843.006 197.302C842.813 203.56 847.578 208.795 853.65 208.994C859.722 209.194 864.801 204.283 864.994 198.023C865.126 193.802 862.995 190.056 859.734 188" stroke="#737273" stroke-width="2" stroke-miterlimit="10" stroke-linecap="round" stroke-linejoin="round"/>
<path d="M854 179V193" stroke="#737273" stroke-width="2" stroke-miterlimit="10" stroke-linecap="round" stroke-linejoin="round"/>
<path d="M908 251H864V221H908V251Z" stroke="#737273" stroke-width="2" stroke-miterlimit="10" stroke-linecap="round" stroke-linejoin="round"/>
<path d="M864 221L886.001 236L908 221" stroke="#737273" stroke-width="2" stroke-miterlimit="10" stroke-linecap="round" stroke-linejoin="round"/>
<path d="M826 251H783V221H826V251Z" stroke="#737273" stroke-width="2" stroke-miterlimit="10" stroke-linecap="round" stroke-linejoin="round"/>
<path d="M783 221L804.5 236L826 221" stroke="#737273" stroke-width="2" stroke-miterlimit="10" stroke-linecap="round" stroke-linejoin="round"/>
<path d="M826 221L804.5 206L783 221" stroke="#737273" stroke-width="2" stroke-miterlimit="10" stroke-linecap="round" stroke-linejoin="round"/>
<path d="M1158 157H1180" stroke="#737273" stroke-width="2" stroke-miterlimit="10" stroke-linecap="round" stroke-linejoin="round"/>
<path d="M1143 157H1152" stroke="#737273" stroke-width="2" stroke-miterlimit="10" stroke-linecap="round" stroke-linejoin="round"/>
<path d="M1176 153L1180 156.999L1176 161" stroke="#737273" stroke-width="2" stroke-miterlimit="10" stroke-linecap="round" stroke-linejoin="round"/>
<path d="M1028.83 238C1027.64 238 1026.5 237.534 1025.65 236.699L1011.32 222.538C1009.56 220.804 1009.56 217.996 1011.32 216.264C1013.07 214.531 1015.91 214.533 1017.67 216.264L1028.4 226.863L1044.95 205.723C1046.47 203.784 1049.29 203.428 1051.26 204.929C1053.22 206.428 1053.58 209.214 1052.06 211.152L1032.38 236.278C1031.59 237.285 1030.4 237.908 1029.11 237.991C1029.02 237.997 1028.92 238 1028.83 238V238Z" stroke="#737273" stroke-width="2" stroke-miterlimit="10" stroke-linecap="round" stroke-linejoin="round"/>
<path d="M1182.88 215.743L1185.88 222.745C1186.84 224.968 1188.96 226.331 1191.22 226.459C1191.72 225.644 1192.45 224.957 1193.4 224.55C1194.33 224.147 1195.33 224.082 1196.26 224.278C1197.74 224.594 1199.05 225.58 1199.69 227.061L1202.61 233.86C1203.65 236.288 1202.53 239.132 1200.11 240.178L1198.54 240.86C1191.47 243.915 1183.21 240.617 1180.16 233.528L1171.14 212.518C1168.09 205.429 1171.38 197.128 1178.44 194.071L1180.01 193.391C1182.43 192.344 1185.26 193.474 1186.31 195.902L1189.23 202.701C1189.86 204.183 1189.68 205.829 1188.89 207.114C1188.39 207.929 1187.66 208.616 1186.73 209.019C1185.78 209.426 1184.78 209.489 1183.85 209.295C1182.39 211.035 1181.92 213.518 1182.88 215.743V215.743Z" stroke="#737273" stroke-width="2" stroke-miterlimit="10" stroke-linecap="round" stroke-linejoin="round"/>
<path d="M50.8762 211.743L53.8824 218.745C54.8397 220.968 56.9589 222.331 59.2218 222.459C59.7231 221.644 60.454 220.957 61.3973 220.55C62.328 220.147 63.3275 220.082 64.2614 220.278C65.7419 220.594 67.0537 221.58 67.6908 223.061L70.6112 229.86C71.6529 232.288 70.5284 235.132 68.1094 236.178L66.5367 236.86C59.4732 239.915 51.2057 236.617 48.1604 229.528L39.137 208.518C36.0917 201.429 39.3775 193.128 46.441 190.071L48.0136 189.391C50.4311 188.344 53.264 189.474 54.3072 191.902L57.2275 198.701C57.8631 200.183 57.682 201.829 56.8887 203.114C56.3905 203.929 55.6565 204.616 54.7257 205.019C53.784 205.426 52.783 205.489 51.8507 205.295C50.389 207.035 49.9204 209.518 50.8762 211.743V211.743Z" stroke="#737273" stroke-width="2" stroke-miterlimit="10" stroke-linecap="round" stroke-linejoin="round"/>
<path d="M1136 138V143H1118V138" stroke="#737273" stroke-width="2" stroke-miterlimit="10" stroke-linecap="round" stroke-linejoin="round"/>
<path d="M1138 127.529L1126.99 138L1116 127.529H1123.32V100H1130.67V127.529H1138Z" stroke="#737273" stroke-width="2" stroke-miterlimit="10" stroke-linecap="round" stroke-linejoin="round"/>
<path d="M1079 149.5C1079 163.03 1068.03 174 1054.5 174C1040.97 174 1030 163.03 1030 149.5C1030 135.968 1040.97 125 1054.5 125C1068.03 125 1079 135.968 1079 149.5Z" stroke="#737273" stroke-width="2" stroke-miterlimit="10" stroke-linecap="round" stroke-linejoin="round"/>
<path d="M1055 125V149.614L1072 167" stroke="#737273" stroke-width="2" stroke-miterlimit="10" stroke-linecap="round" stroke-linejoin="round"/>
<path d="M1055 135H1063" stroke="#737273" stroke-width="2" stroke-miterlimit="10" stroke-linecap="round" stroke-linejoin="round"/>
<path d="M1055 143H1068" stroke="#737273" stroke-width="2" stroke-miterlimit="10" stroke-linecap="round" stroke-linejoin="round"/>
<path d="M1055 150H1072" stroke="#737273" stroke-width="2" stroke-miterlimit="10" stroke-linecap="round" stroke-linejoin="round"/>
<path d="M1138 245.981H1129.91L1130.04 254L1113.3 245.981H1092V176H1138V245.981Z" stroke="#737273" stroke-width="2" stroke-miterlimit="10" stroke-linecap="round" stroke-linejoin="round"/>
<path d="M1100 186H1129" stroke="#737273" stroke-width="2" stroke-miterlimit="10" stroke-linecap="round" stroke-linejoin="round"/>
<path d="M1100 194H1124" stroke="#737273" stroke-width="2" stroke-miterlimit="10" stroke-linecap="round" stroke-linejoin="round"/>
<path d="M1100 202H1118" stroke="#737273" stroke-width="2" stroke-miterlimit="10" stroke-linecap="round" stroke-linejoin="round"/>
<path d="M1100 210H1130" stroke="#737273" stroke-width="2" stroke-miterlimit="10" stroke-linecap="round" stroke-linejoin="round"/>
<path d="M1100 218H1119" stroke="#737273" stroke-width="2" stroke-miterlimit="10" stroke-linecap="round" stroke-linejoin="round"/>
<path d="M1100 226H1124" stroke="#737273" stroke-width="2" stroke-miterlimit="10" stroke-linecap="round" stroke-linejoin="round"/>
<path d="M1100 234H1119" stroke="#737273" stroke-width="2" stroke-miterlimit="10" stroke-linecap="round" stroke-linejoin="round"/>
<path d="M336.571 171.735C335.279 171.735 334.064 172.101 333.039 172.748C331.735 169.38 328.456 167 324.62 167C320.785 167 317.519 169.38 316.203 172.735C315.177 172.101 313.975 171.735 312.683 171.735C309 171.735 306 174.723 306 178.419C306 178.457 306 178.507 306.013 178.545H315.924H319.367H329.899H333.317H343.253C343.267 178.507 343.267 178.457 343.267 178.419C343.267 174.723 340.267 171.735 336.571 171.735Z" stroke="#737273" stroke-width="2" stroke-miterlimit="10" stroke-linecap="round" stroke-linejoin="round"/>
<path d="M547.571 132.735C546.279 132.735 545.064 133.101 544.039 133.748C542.735 130.38 539.456 128 535.62 128C531.785 128 528.519 130.38 527.203 133.735C526.177 133.101 524.975 132.735 523.683 132.735C520 132.735 517 135.723 517 139.419C517 139.457 517 139.507 517.013 139.545H526.924H530.367H540.899H544.317H554.253C554.267 139.507 554.267 139.457 554.267 139.419C554.267 135.723 551.267 132.735 547.571 132.735Z" stroke="#737273" stroke-width="2" stroke-miterlimit="10" stroke-linecap="round" stroke-linejoin="round"/>
<path d="M340.571 102.735C339.279 102.735 338.064 103.101 337.039 103.748C335.735 100.38 332.456 98.0001 328.62 98.0001C324.785 98.0001 321.519 100.38 320.203 103.735C319.177 103.101 317.975 102.735 316.683 102.735C313 102.735 310 105.723 310 109.419C310 109.457 310 109.507 310.013 109.545H319.924H323.367H333.899H337.317H347.253C347.267 109.507 347.267 109.457 347.267 109.419C347.267 105.723 344.267 102.735 340.571 102.735Z" fill="#EBEBEB" stroke="#737273" stroke-width="2" stroke-miterlimit="10" stroke-linecap="round" stroke-linejoin="round"/>
<path d="M31.5708 30.7347C30.2788 30.7347 29.0641 31.1014 28.0388 31.7481C26.7348 28.3801 23.4561 26.0001 19.6203 26.0001C15.7849 26.0001 12.5188 28.3801 11.2027 31.7347C10.1771 31.1014 8.97453 30.7347 7.68333 30.7347C4 30.7347 1 33.7227 1 37.4187C1 37.4574 0.999999 37.5067 1.01253 37.5454H10.924H14.3672H24.8988H28.3175H38.2535C38.2668 37.5067 38.2668 37.4574 38.2668 37.4187C38.2668 33.7227 35.2668 30.7347 31.5708 30.7347Z" stroke="#737273" stroke-width="2" stroke-miterlimit="10" stroke-linecap="round" stroke-linejoin="round"/>
<path d="M816.571 152.735C815.279 152.735 814.064 153.101 813.039 153.748C811.735 150.38 808.456 148 804.62 148C800.785 148 797.519 150.38 796.203 153.735C795.177 153.101 793.975 152.735 792.683 152.735C789 152.735 786 155.723 786 159.419C786 159.457 786 159.507 786.013 159.545H795.924H799.367H809.899H813.317H823.253C823.267 159.507 823.267 159.457 823.267 159.419C823.267 155.723 820.267 152.735 816.571 152.735Z" stroke="#737273" stroke-width="2" stroke-miterlimit="10" stroke-linecap="round" stroke-linejoin="round"/>
<path d="M1074.57 63.7347C1073.28 63.7347 1072.06 64.1014 1071.04 64.7481C1069.73 61.3801 1066.46 59.0001 1062.62 59.0001C1058.78 59.0001 1055.52 61.3801 1054.2 64.7347C1053.18 64.1014 1051.97 63.7347 1050.68 63.7347C1047 63.7347 1044 66.7227 1044 70.4187C1044 70.4574 1044 70.5067 1044.01 70.5454H1053.92H1057.37H1067.9H1071.32H1081.25C1081.27 70.5067 1081.27 70.4574 1081.27 70.4187C1081.27 66.7227 1078.27 63.7347 1074.57 63.7347Z" fill="#EBEBEB" stroke="#737273" stroke-width="2" stroke-miterlimit="10" stroke-linecap="round" stroke-linejoin="round"/>
<path d="M898.571 87.7347C897.279 87.7347 896.064 88.1014 895.039 88.7481C893.735 85.3801 890.456 83.0001 886.62 83.0001C882.785 83.0001 879.519 85.3801 878.203 88.7347C877.177 88.1014 875.975 87.7347 874.683 87.7347C871 87.7347 868 90.7227 868 94.4187C868 94.4574 868 94.5067 868.013 94.5454H877.924H881.367H891.899H895.317H905.253C905.267 94.5067 905.267 94.4574 905.267 94.4187C905.267 90.7227 902.267 87.7347 898.571 87.7347Z" fill="#EBEBEB" stroke="#737273" stroke-width="2" stroke-miterlimit="10" stroke-linecap="round" stroke-linejoin="round"/>
<path d="M220.571 5.73473C219.279 5.73473 218.064 6.1014 217.039 6.74806C215.735 3.38006 212.456 1.00007 208.62 1.00007C204.785 1.00007 201.519 3.38007 200.203 6.73473C199.177 6.1014 197.975 5.73473 196.683 5.73473C193 5.73473 190 8.72273 190 12.4187C190 12.4574 190 12.5067 190.013 12.5454H199.924H203.367H213.899H217.317H227.253C227.267 12.5067 227.267 12.4574 227.267 12.4187C227.267 8.72273 224.267 5.73473 220.571 5.73473Z" stroke="#737273" stroke-width="2" stroke-miterlimit="10" stroke-linecap="round" stroke-linejoin="round"/>
<path d="M1180.57 38.7347C1179.28 38.7347 1178.06 39.1014 1177.04 39.7481C1175.73 36.3801 1172.46 34.0001 1168.62 34.0001C1164.78 34.0001 1161.52 36.3801 1160.2 39.7347C1159.18 39.1014 1157.97 38.7347 1156.68 38.7347C1153 38.7347 1150 41.7227 1150 45.4187C1150 45.4574 1150 45.5067 1150.01 45.5454H1159.92H1163.37H1173.9H1177.32H1187.25C1187.27 45.5067 1187.27 45.4574 1187.27 45.4187C1187.27 41.7227 1184.27 38.7347 1180.57 38.7347Z" stroke="#737273" stroke-width="2" stroke-miterlimit="10" stroke-linecap="round" stroke-linejoin="round"/>
</svg>
