<svg width="112" height="29" viewBox="0 0 112 29" fill="none" xmlns="http://www.w3.org/2000/svg">
<path fill-rule="evenodd" clip-rule="evenodd" d="M17.7985 12.4527C17.7985 19.354 17.8792 25.0004 17.978 25.0004C18.0765 25.0004 19.2243 24.6922 20.5283 24.3159C26.4203 22.6144 30.8217 19.3455 30.8217 16.671C30.8217 15.0033 29.9355 13.9976 27.5893 13.0031C26.9197 12.7195 26.5757 12.4849 26.8247 12.482C27.3788 12.4755 29.9834 13.3318 30.2682 13.6141C30.3815 13.7266 30.5526 13.8185 30.6481 13.8185C30.7436 13.8185 30.8217 11.5286 30.8217 8.7298V3.64113L24.5814 1.86969C21.1493 0.895517 18.2191 0.0548596 18.0698 0.00163358C17.8549 -0.0748508 17.7985 2.5122 17.7985 12.4527ZM9.55039 15.7523V25.7371L12.6807 25.6163C14.4026 25.5499 15.9166 25.4285 16.0451 25.3466C16.316 25.1742 16.3863 6.88702 16.1163 6.88344C16.0269 6.88232 14.5372 6.63162 12.8062 6.32658C11.0752 6.02154 9.6346 5.77084 9.60465 5.76972C9.5747 5.76838 9.55039 10.2606 9.55039 15.7523ZM58.1705 14.4894V20.9749H59.3643H60.5581V14.4894V8.00387H59.3643H58.1705V14.4894ZM62.7287 14.4894V20.9749H63.9225H65.1163V14.4894V8.00387H63.9225H62.7287V14.4894ZM67.5039 14.6871C67.5039 19.5472 67.5102 19.6159 68.0202 20.2268C68.4763 20.7727 68.7181 20.8559 70.0823 20.9353L71.6279 21.0255V19.9938C71.6279 18.966 71.6253 18.9622 70.8758 18.9622C69.8348 18.9622 69.6744 18.5314 69.6744 15.7342V13.3712H70.6512H71.6279V12.3648V11.3585H70.5489C69.5134 11.3585 69.4624 11.3292 69.2883 10.6316C69.1296 9.99649 69.0057 9.89608 68.3052 9.83547L67.5039 9.76592V14.6871ZM1.30233 15.0463V19.0161L2.32595 18.1517L3.34958 17.2876L2.44273 18.4697C0.979783 20.3767 0.948527 21.8766 2.34288 23.2766C3.40211 24.34 6.03237 25.4367 7.54264 25.445L8.03101 25.4477V18.7743V12.1009L5.48062 11.727C4.0778 11.5213 2.56406 11.2907 2.11628 11.2147L1.30233 11.0762V15.0463ZM42.1272 11.5895C39.8748 12.0723 38.7863 13.5336 38.8017 16.0533C38.8173 18.6292 39.7507 20.0323 41.8752 20.6739C43.0367 21.0246 45.6426 21.0152 46.203 20.6582C46.3387 20.5719 46.4496 20.1298 46.4496 19.6758V18.8503L44.6589 18.9143C43.4985 18.9559 42.6772 18.8761 42.3256 18.6878C40.9479 17.9493 40.6161 15.2545 41.7578 14.0781C42.3019 13.5175 42.4545 13.483 44.3926 13.483H46.4496V12.6576C46.4496 12.2036 46.3745 11.7843 46.2825 11.7257C45.9146 11.4915 43.0262 11.3967 42.1272 11.5895ZM50.1395 11.4696C49.9605 11.515 49.4478 11.6138 49 11.6892C48.2229 11.8198 48.186 11.8652 48.186 12.6893V13.5526L50.3473 13.43C52.8024 13.2905 53.6124 13.5823 53.6124 14.6064C53.6124 15.1525 53.5866 15.1603 51.7605 15.1603C49.669 15.1603 48.7052 15.4768 48.0055 16.3935C47.4962 17.0603 47.3849 18.3031 47.7465 19.2829C48.242 20.6256 50.4905 21.2737 52.6357 20.692C53.7678 20.3852 54.0007 20.3805 54.4188 20.6569C54.6831 20.8318 55.147 20.9749 55.4498 20.9749H56V17.4864C56 13.3703 55.817 12.7464 54.4062 12.0528C53.5681 11.6411 50.9005 11.2764 50.1395 11.4696ZM75.46 11.6711C73.6304 12.3729 72.9302 13.6174 72.9302 16.1667C72.9302 18.0781 73.2434 19.031 74.1516 19.8822C74.9823 20.6609 75.9738 20.976 77.575 20.97C79.1571 20.9642 80.4151 20.4362 81.233 19.4347C81.9482 18.5589 82.1312 17.6156 81.9985 15.4879C81.8829 13.6302 81.2985 12.561 80.0275 11.8813C79.0876 11.3786 76.5292 11.2609 75.46 11.6711ZM82.9162 11.4144C82.9171 11.4452 83.4374 13.5837 84.0727 16.1667L85.2274 20.8631L86.324 20.9297L87.4203 20.9964L88.3126 18.4053C88.8036 16.9803 89.2657 15.5655 89.3398 15.2616C89.4138 14.9575 89.5416 14.6661 89.6234 14.614C89.7055 14.5616 90.2403 15.9766 90.8122 17.7579L91.8517 20.9968L92.953 20.93L94.0544 20.8631L95.2048 16.5021C95.8377 14.1036 96.3591 11.9598 96.3636 11.7382C96.371 11.3918 96.2128 11.3446 95.2412 11.4027L94.1104 11.4703L93.5354 14.4391C93.2194 16.0721 92.9207 17.4492 92.8719 17.4993C92.8233 17.5497 92.3012 16.1837 91.7122 14.4641L90.6412 11.3377L89.6586 11.4038L88.676 11.4703L87.6832 14.5954C87.1371 16.3141 86.637 17.6223 86.5719 17.5027C86.507 17.3828 86.1771 15.9513 85.8391 14.3217L85.2246 11.3585H84.0697C83.4346 11.3585 82.9154 11.3835 82.9162 11.4144ZM100.428 11.5629C98.1207 12.0564 96.8388 14.5169 97.4142 17.3475C97.5461 17.9972 97.8624 18.8295 98.1168 19.1977C99.0629 20.5668 101.249 21.1836 104.057 20.8736L105.488 20.7157V19.7814V18.847L103.747 18.9286C102.789 18.9733 101.66 18.9434 101.239 18.8618C100.408 18.7012 99.6279 18.0457 99.6279 17.5085C99.6279 17.2263 100.113 17.1731 102.69 17.1731H105.751L105.673 15.3992C105.59 13.5222 105.289 12.8369 104.173 11.9916C103.559 11.5269 101.63 11.3059 100.428 11.5629ZM107.442 16.1667V20.9749H108.636H109.829V17.6387V14.3022L110.56 13.8368C110.962 13.5807 111.451 13.3712 111.646 13.3712C111.922 13.3712 112 13.1453 112 12.3498C112 11.3951 111.968 11.3381 111.512 11.4781C111.243 11.5606 110.7 11.8189 110.305 12.0524C109.414 12.5791 109.469 12.5865 109.306 11.9175C109.19 11.4383 109.047 11.3585 108.306 11.3585H107.442V16.1667ZM26.1008 12.4011C25.9517 12.4632 25.7075 12.4632 25.5581 12.4011C25.409 12.3391 25.531 12.2883 25.8295 12.2883C26.1279 12.2883 26.2501 12.3391 26.1008 12.4011ZM78.9335 13.7093C79.9993 14.4288 80.1117 17.2766 79.1213 18.4632C78.688 18.9821 78.4423 19.074 77.4884 19.074C76.5344 19.074 76.2887 18.9821 75.8555 18.4632C74.9022 17.3211 74.9347 14.66 75.9128 13.7661C76.6527 13.0901 77.9793 13.065 78.9335 13.7093ZM103.085 13.9605C103.332 14.2845 103.535 14.7374 103.535 14.9669C103.535 15.3435 103.343 15.3839 101.558 15.3839H99.5808L99.7221 14.7689C99.9322 13.8549 100.616 13.3712 101.698 13.3712C102.452 13.3712 102.723 13.4864 103.085 13.9605ZM53.6124 17.7102C53.6124 18.3626 53.5149 18.5062 52.9289 18.7166C52.1544 18.9948 50.5825 19.0382 50.2322 18.7911C49.8081 18.4919 49.7336 17.9019 50.0597 17.4224C50.3381 17.0129 50.598 16.9494 51.9969 16.9494H53.6124V17.7102ZM32.7185 18.5525C32.4644 19.502 30.4916 21.5472 28.7536 22.6634C20.0011 28.2841 4.10949 29.087 0.530915 24.0895L0 23.3479V24.1224C0 25.6606 1.59687 27.2739 3.94214 28.1054C6.1155 28.8758 8.21225 29.0964 12.1021 28.964C18.5742 28.7435 23.9307 27.3341 28.1578 24.739C30.9011 23.0548 33.1359 20.1884 32.9517 18.5903L32.8785 17.9558L32.7185 18.5525Z" fill="#625E60"/>
</svg>
