<svg width="113" height="30" viewBox="0 0 113 30" fill="none" xmlns="http://www.w3.org/2000/svg">
<mask id="path-1-inside-1" fill="white">
<path fill-rule="evenodd" clip-rule="evenodd" d="M22.2513 0.194805C22.2513 0.301948 21.9568 0.38961 21.5968 0.38961C21.2369 0.38961 20.9424 0.477273 20.9424 0.584416C20.9424 0.691558 20.746 0.779221 20.5061 0.779221C20.2661 0.779221 20.0698 0.866883 20.0698 0.974026C20.0698 1.08117 19.8734 1.16883 19.6335 1.16883C19.3935 1.16883 19.1972 1.25649 19.1972 1.36364C19.1972 1.47078 19.0008 1.55844 18.7609 1.55844C18.5209 1.55844 18.3246 1.6461 18.3246 1.75325C18.3246 1.86039 18.1282 1.94805 17.8883 1.94805C17.6483 1.94805 17.452 2.03571 17.452 2.14286C17.452 2.25 17.2556 2.33766 17.0157 2.33766C16.7757 2.33766 16.5794 2.42532 16.5794 2.53247C16.5794 2.63961 16.383 2.72727 16.1431 2.72727C15.9031 2.72727 15.7068 2.81494 15.7068 2.92208C15.7068 3.02922 15.2159 3.11688 14.616 3.11688C14.0161 3.11688 13.5253 3.20455 13.5253 3.31169C13.5253 3.41883 13.7216 3.50649 13.9616 3.50649C14.2015 3.50649 14.3979 3.55227 14.3979 3.60818C14.3979 3.80045 12.0074 5.84416 11.7825 5.84416C11.4825 5.84416 6.54449 10.2618 6.54449 10.53C6.54449 10.6453 6.05365 11.1664 5.45374 11.6883C4.85383 12.2102 4.36299 12.7549 4.36299 12.8988C4.36299 13.043 4.16666 13.2871 3.92669 13.4416C3.68673 13.596 3.49039 13.859 3.49039 14.026C3.49039 14.1929 3.29406 14.4559 3.0541 14.6104C2.81413 14.7649 2.6178 15.0279 2.6178 15.1948C2.6178 15.3618 2.42146 15.6247 2.1815 15.7792C1.94153 15.9337 1.7452 16.216 1.7452 16.4067C1.7452 16.5972 1.64703 16.7532 1.52705 16.7532C1.40707 16.7532 1.3089 16.9286 1.3089 17.1429C1.3089 17.3571 1.21073 17.5325 1.09075 17.5325C0.970766 17.5325 0.872599 17.7955 0.872599 18.1169C0.872599 18.4383 0.774431 18.7013 0.654449 18.7013C0.534467 18.7013 0.436299 18.8766 0.436299 19.0909C0.436299 19.3052 0.338132 19.4805 0.21815 19.4805C0.0981673 19.4805 0 19.9188 0 20.4545C0 20.9903 0.0981673 21.4286 0.21815 21.4286C0.338132 21.4286 0.436299 21.5663 0.436299 21.7346C0.436299 22.1945 0.989309 22.5974 1.62063 22.5974C1.9291 22.5974 2.1815 22.6851 2.1815 22.7922C2.1815 23.0815 2.82133 23.0279 3.17866 22.7086C3.61059 22.3231 3.56827 21.9544 3.0541 21.6234C2.69153 21.39 2.6178 21.119 2.6178 20.0219C2.6178 19.2713 2.71204 18.7013 2.83595 18.7013C2.95593 18.7013 3.0541 18.526 3.0541 18.3117C3.0541 18.0974 3.15226 17.9221 3.27224 17.9221C3.39223 17.9221 3.49039 17.7468 3.49039 17.5325C3.49039 17.3182 3.58856 17.1429 3.70854 17.1429C3.82853 17.1429 3.92669 16.9868 3.92669 16.7963C3.92669 16.6056 4.12303 16.3233 4.36299 16.1688C4.60296 16.0144 4.79929 15.7671 4.79929 15.6195C4.79929 15.472 5.09379 15.1054 5.45374 14.8052C5.81369 14.505 6.10819 14.1561 6.10819 14.0299C6.10819 13.9038 6.50086 13.4638 6.98079 13.0519C7.46072 12.6401 7.85339 12.2075 7.85339 12.0904C7.85339 11.8144 11.4821 8.57143 11.7912 8.57143C11.9206 8.57143 12.5046 8.13312 13.089 7.5974C13.6734 7.06169 14.2833 6.62338 14.4446 6.62338C14.606 6.62338 14.8793 6.44805 15.0523 6.23377C15.2253 6.01948 15.5414 5.84416 15.755 5.84416C15.9683 5.84416 16.1431 5.75649 16.1431 5.64935C16.1431 5.54221 16.3394 5.45455 16.5794 5.45455C16.8193 5.45455 17.0157 5.36688 17.0157 5.25974C17.0157 5.1526 17.3102 5.06493 17.6701 5.06493C18.0301 5.06493 18.3246 4.97727 18.3246 4.87013C18.3246 4.76299 18.6191 4.67532 18.979 4.67532C19.339 4.67532 19.6335 4.58766 19.6335 4.48052C19.6335 4.06364 21.1723 4.27851 21.7257 4.77273L22.2711 5.25974L21.7257 5.74675C21.4258 6.01461 21.07 6.23377 20.9352 6.23377C20.8004 6.23377 20.3128 6.58442 19.8516 7.01299C19.3904 7.44156 18.9009 7.79221 18.7637 7.79221C18.6267 7.79221 18.0364 8.23052 17.452 8.76623C16.8675 9.30195 16.284 9.74026 16.1549 9.74026C15.8486 9.74026 10.9075 14.1526 10.9075 14.4261C10.9075 14.5414 10.4166 15.0625 9.81673 15.5844C9.21682 16.1063 8.72599 16.6352 8.72599 16.7599C8.72599 16.8845 8.43148 17.2323 8.07154 17.5325C7.71159 17.8327 7.41709 18.1993 7.41709 18.3468C7.41709 18.4944 7.22075 18.7416 6.98079 18.8961C6.74082 19.0506 6.54449 19.3136 6.54449 19.4805C6.54449 19.6475 6.34815 19.9105 6.10819 20.0649C5.86823 20.2194 5.67189 20.5017 5.67189 20.6924C5.67189 20.8829 5.57372 21.039 5.45374 21.039C5.33376 21.039 5.23559 21.2143 5.23559 21.4286C5.23559 21.6429 5.13742 21.8182 5.01744 21.8182C4.89746 21.8182 4.79929 21.9935 4.79929 22.2078C4.79929 22.4221 4.70112 22.5974 4.58114 22.5974C4.46116 22.5974 4.36299 22.7727 4.36299 22.987C4.36299 23.2013 4.26483 23.3766 4.14484 23.3766C4.02486 23.3766 3.92669 23.5519 3.92669 23.7662C3.92669 23.9805 3.82853 24.1558 3.70854 24.1558C3.58856 24.1558 3.49039 24.4188 3.49039 24.7403C3.49039 25.0617 3.39223 25.3247 3.27224 25.3247C3.15095 25.3247 3.0541 25.8442 3.0541 26.4935C3.0541 27.1428 3.15095 27.6623 3.27224 27.6623C3.39223 27.6623 3.49039 27.8001 3.49039 27.9684C3.49039 28.6126 4.06696 28.8312 5.76548 28.8312C6.72119 28.8312 7.41709 28.7492 7.41709 28.6364C7.41709 28.5292 7.71159 28.4416 8.07154 28.4416C8.43148 28.4416 8.72599 28.3539 8.72599 28.2468C8.72599 28.1396 8.33332 28.0519 7.85339 28.0519C7.37346 28.0519 6.98079 27.9643 6.98079 27.8571C6.98079 27.75 6.78445 27.6623 6.54449 27.6623C6.20788 27.6623 6.10819 27.5324 6.10819 27.0941C6.10819 26.7816 5.98559 26.4748 5.8355 26.4123C5.61735 26.3215 5.61735 26.2759 5.8355 26.1851C5.99933 26.1168 6.10819 25.6894 6.10819 25.1137C6.10819 24.5869 6.20636 24.1558 6.32634 24.1558C6.44632 24.1558 6.54449 23.9805 6.54449 23.7662C6.54449 23.5519 6.64266 23.3766 6.76264 23.3766C6.88262 23.3766 6.98079 23.2013 6.98079 22.987C6.98079 22.7727 7.07896 22.5974 7.19894 22.5974C7.31892 22.5974 7.41709 22.4414 7.41709 22.2508C7.41709 22.0601 7.61342 21.7779 7.85339 21.6234C8.09335 21.4689 8.28969 21.2059 8.28969 21.039C8.28969 20.872 8.48602 20.609 8.72599 20.4545C8.96595 20.3001 9.16228 20.0548 9.16228 19.9093C9.16228 19.7638 9.55495 19.3079 10.0349 18.8961C10.5148 18.4843 10.9075 18.0522 10.9075 17.9359C10.9075 17.6571 18.032 11.2987 18.3444 11.2987C18.4773 11.2987 18.861 11.0357 19.1972 10.7143C19.5333 10.3929 19.9655 10.1299 20.1572 10.1299C20.3492 10.1299 20.5061 10.0422 20.5061 9.93506C20.5061 9.82792 20.6808 9.74026 20.8942 9.74026C21.1077 9.74026 21.4238 9.56493 21.5968 9.35065C21.7698 9.13636 22.0859 8.96104 22.2995 8.96104C22.5128 8.96104 22.6876 8.87338 22.6876 8.76623C22.6876 8.65909 22.8839 8.57143 23.1239 8.57143C23.3638 8.57143 23.5602 8.48377 23.5602 8.37662C23.5602 8.26948 23.8547 8.18182 24.2146 8.18182C24.5746 8.18182 24.8691 8.09416 24.8691 7.98701C24.8691 7.87987 25.2617 7.79221 25.7417 7.79221C26.4688 7.79221 26.6143 7.85708 26.6143 8.18182C26.6143 8.40331 26.7598 8.57143 26.9513 8.57143C27.3636 8.57143 28.3595 9.43032 28.3595 9.78584C28.3595 9.92766 28.5558 10.1702 28.7958 10.3247C29.0357 10.4792 29.2321 10.7614 29.2321 10.9521C29.2321 11.1427 29.3302 11.2987 29.4502 11.2987C29.5702 11.2987 29.6684 11.474 29.6684 11.6883C29.6684 11.9026 29.7665 12.0779 29.8865 12.0779C30.0065 12.0779 30.1047 12.4286 30.1047 12.8571C30.1047 13.2857 30.2028 13.6364 30.3228 13.6364C30.4522 13.6364 30.541 14.3507 30.541 15.3896C30.541 16.4285 30.6297 17.1429 30.7591 17.1429C30.8924 17.1429 30.9772 16.2337 30.9772 14.8052C30.9772 13.3767 30.8924 12.4675 30.7591 12.4675C30.6391 12.4675 30.541 12.2045 30.541 11.8831C30.541 11.5617 30.4428 11.2987 30.3228 11.2987C30.2028 11.2987 30.1047 11.0357 30.1047 10.7143C30.1047 10.3929 30.0065 10.1299 29.8865 10.1299C29.7665 10.1299 29.6684 9.95454 29.6684 9.74026C29.6684 9.52597 29.5702 9.35065 29.4502 9.35065C29.3302 9.35065 29.2321 9.21058 29.2321 9.03916C29.2321 8.86792 28.9376 8.48201 28.5776 8.18182C28.2177 7.88162 27.9232 7.515 27.9232 7.36753C27.9232 7.21987 27.7268 6.97266 27.4869 6.81818C27.2469 6.6637 27.0506 6.41903 27.0506 6.27429C27.0506 5.9176 27.5961 5.45455 28.0167 5.45455C28.2052 5.45455 28.3595 5.36688 28.3595 5.25974C28.3595 5.1526 28.8056 5.06493 29.3509 5.06493C30.6289 5.06493 31.4135 5.69162 31.4135 6.71201C31.4135 7.09188 31.3154 7.4026 31.1954 7.4026C31.0754 7.4026 30.9772 7.65838 30.9772 7.97084C30.9772 8.28331 30.8547 8.57805 30.7046 8.62597C30.5547 8.6737 30.5008 8.77909 30.585 8.86013C30.7901 9.05727 31.4135 8.48396 31.4135 8.09825C31.4135 7.92993 31.5117 7.79221 31.6317 7.79221C31.7517 7.79221 31.8498 7.52922 31.8498 7.20779C31.8498 6.88636 31.948 6.62338 32.068 6.62338C32.188 6.62338 32.2861 6.36039 32.2861 6.03896C32.2861 5.71753 32.3843 5.45455 32.5043 5.45455C32.6243 5.45455 32.7224 5.1039 32.7224 4.67532C32.7224 4.24675 32.6243 3.8961 32.5043 3.8961C32.3843 3.8961 32.2861 3.72078 32.2861 3.50649C32.2861 3.24682 32.1406 3.11688 31.8498 3.11688C31.6099 3.11688 31.4135 3.02922 31.4135 2.92208C31.4135 2.81377 30.8317 2.72727 30.1047 2.72727C29.3776 2.72727 28.7958 2.81377 28.7958 2.92208C28.7958 3.02922 28.5013 3.11688 28.1413 3.11688C27.7814 3.11688 27.4869 3.20455 27.4869 3.31169C27.4869 3.41883 27.1924 3.50649 26.8324 3.50649C26.4725 3.50649 26.178 3.59416 26.178 3.7013C26.178 3.80844 25.9816 3.8961 25.7417 3.8961C25.5017 3.8961 25.3054 3.98377 25.3054 4.09091C25.3054 4.19805 25.1173 4.28571 24.8872 4.28571C24.6572 4.28571 24.4118 4.39519 24.3418 4.52922C24.2401 4.72403 24.1891 4.72403 24.0874 4.52922C24.0174 4.39539 23.772 4.28571 23.5421 4.28571C23.3119 4.28571 23.1239 4.19805 23.1239 4.09091C23.1239 3.98377 22.9275 3.8961 22.6876 3.8961C22.4476 3.8961 22.2513 3.80844 22.2513 3.7013C22.2513 3.59416 21.9989 3.50649 21.6904 3.50649C21.1849 3.50649 20.5061 3.1237 20.5061 2.83851C20.5061 2.77734 20.7024 2.72727 20.9424 2.72727C21.1823 2.72727 21.3787 2.63961 21.3787 2.53247C21.3787 2.42532 21.575 2.33766 21.815 2.33766C22.0549 2.33766 22.2513 2.25 22.2513 2.14286C22.2513 2.03571 22.6044 1.94805 23.0364 1.94805C23.6324 1.94805 23.9729 2.09299 24.4506 2.54961C25.013 3.08727 25.1151 3.11981 25.4107 2.85565C25.9509 2.37351 25.8361 1.04065 25.2061 0.478247C24.7665 0.0855195 24.4546 0 23.4609 0C22.7955 0 22.2513 0.0876623 22.2513 0.194805ZM41.4484 5.64935C41.4484 5.75649 41.1539 5.84416 40.794 5.84416C40.434 5.84416 40.1395 5.93182 40.1395 6.03896C40.1395 6.1461 39.9432 6.23377 39.7032 6.23377C39.4633 6.23377 39.2669 6.32143 39.2669 6.42857C39.2669 6.53571 39.1171 6.62338 38.934 6.62338C38.5281 6.62338 36.6491 8.26597 36.6491 8.62071C36.6491 8.76058 36.4528 9.00136 36.2128 9.15584C35.9729 9.31032 35.7765 9.5926 35.7765 9.78331C35.7765 9.97383 35.6784 10.1299 35.5584 10.1299C35.4384 10.1299 35.3402 10.3052 35.3402 10.5195C35.3402 10.7338 35.2421 10.9091 35.1221 10.9091C35.0021 10.9091 34.9039 11.2597 34.9039 11.6883C34.9039 12.1169 34.8058 12.4675 34.6858 12.4675C34.5525 12.4675 34.4676 13.3767 34.4676 14.8052C34.4676 16.2337 34.5525 17.1429 34.6858 17.1429C34.8058 17.1429 34.9039 17.4058 34.9039 17.7273C34.9039 18.0487 35.0021 18.3117 35.1221 18.3117C35.2421 18.3117 35.3402 18.4455 35.3402 18.609C35.3402 18.9956 37.1921 20.6493 37.6251 20.6493C37.8082 20.6493 37.958 20.737 37.958 20.8442C37.958 20.9513 38.1544 21.039 38.3943 21.039C38.6343 21.039 38.8306 21.1266 38.8306 21.2338C38.8306 21.3528 39.8487 21.4286 41.4484 21.4286C43.0481 21.4286 44.0662 21.3528 44.0662 21.2338C44.0662 21.1266 44.2626 21.039 44.5025 21.039C44.7425 21.039 44.9388 20.9513 44.9388 20.8442C44.9388 20.737 45.1352 20.6493 45.3751 20.6493C45.6151 20.6493 45.8114 20.5617 45.8114 20.4545C45.8114 20.3474 45.963 20.2597 46.1485 20.2597C46.5608 20.2597 47.5566 19.4008 47.5566 19.0453C47.5566 18.9035 47.753 18.661 47.9929 18.5065C48.2329 18.352 48.4292 18.0697 48.4292 17.879C48.4292 17.6885 48.5274 17.5325 48.6474 17.5325C48.7674 17.5325 48.8655 17.3571 48.8655 17.1429C48.8655 16.9286 48.9637 16.7532 49.0837 16.7532C49.2037 16.7532 49.3018 16.5779 49.3018 16.3636C49.3018 16.0309 49.1563 15.974 48.3047 15.974C47.2752 15.974 46.684 16.2886 46.684 16.8368C46.684 17.0051 46.5859 17.1429 46.4659 17.1429C46.3459 17.1429 46.2477 17.2773 46.2477 17.4415C46.2477 17.8293 44.835 19.0909 44.4007 19.0909C44.2168 19.0909 44.0662 19.1786 44.0662 19.2857C44.0662 19.3929 43.8699 19.4805 43.6299 19.4805C43.39 19.4805 43.1936 19.5682 43.1936 19.6753C43.1936 19.7866 42.5392 19.8701 41.6666 19.8701C40.794 19.8701 40.1395 19.7866 40.1395 19.6753C40.1395 19.5682 39.8908 19.4805 39.587 19.4805C38.9724 19.4805 37.5217 18.322 37.5217 17.8311C37.5217 17.6669 37.4236 17.5325 37.3036 17.5325C37.1836 17.5325 37.0854 17.2695 37.0854 16.9481C37.0854 16.6266 36.9873 16.3636 36.8673 16.3636C36.7401 16.3636 36.6491 15.7144 36.6491 14.8052C36.6491 13.896 36.7401 13.2468 36.8673 13.2468C36.9873 13.2468 37.0854 12.8961 37.0854 12.4675C37.0854 12.039 37.1836 11.6883 37.3036 11.6883C37.4236 11.6883 37.5217 11.513 37.5217 11.2987C37.5217 11.0844 37.6199 10.9091 37.7399 10.9091C37.8599 10.9091 37.958 10.7531 37.958 10.5625C37.958 10.3718 38.1544 10.0895 38.3943 9.93506C38.6343 9.78058 38.8306 9.53805 38.8306 9.39623C38.8306 9.06175 39.816 8.18182 40.1906 8.18182C40.3494 8.18182 40.621 8.00649 40.794 7.79221C40.9788 7.56351 41.3588 7.4026 41.7148 7.4026C42.0481 7.4026 42.321 7.31493 42.321 7.20779C42.321 7.09948 42.9028 7.01299 43.6299 7.01299C44.357 7.01299 44.9388 7.09948 44.9388 7.20779C44.9388 7.31493 45.1875 7.4026 45.4914 7.4026C46.1059 7.4026 47.5566 8.5611 47.5566 9.05201C47.5566 9.21623 47.6548 9.35065 47.7748 9.35065C47.8948 9.35065 47.9929 9.61364 47.9929 9.93506C47.9929 10.5064 48.0171 10.5195 49.0837 10.5195H50.1744V9.74026C50.1744 9.31169 50.0763 8.96104 49.9563 8.96104C49.8363 8.96104 49.7381 8.78571 49.7381 8.57143C49.7381 8.35714 49.64 8.18182 49.52 8.18182C49.4 8.18182 49.3018 8.0474 49.3018 7.88318C49.3018 7.71877 48.9615 7.28045 48.5455 6.90916C48.1297 6.53766 47.6389 6.23377 47.4548 6.23377C47.2708 6.23377 47.1203 6.1461 47.1203 6.03896C47.1203 5.93182 46.8258 5.84416 46.4659 5.84416C46.1059 5.84416 45.8114 5.75649 45.8114 5.64935C45.8114 5.53247 44.9388 5.45455 43.6299 5.45455C42.321 5.45455 41.4484 5.53247 41.4484 5.64935ZM58.9004 5.64935C58.9004 5.75649 58.6275 5.84416 58.2942 5.84416C57.9382 5.84416 57.5581 6.00506 57.3734 6.23377C57.2004 6.44805 56.9312 6.62338 56.7752 6.62338C56.3779 6.62338 54.1011 8.69318 54.1011 9.05416C54.1011 9.21721 54.0029 9.35065 53.883 9.35065C53.763 9.35065 53.6648 9.52597 53.6648 9.74026C53.6648 9.95454 53.5666 10.1299 53.4467 10.1299C53.3267 10.1299 53.2285 10.3052 53.2285 10.5195C53.2285 10.7338 53.1303 10.9091 53.0104 10.9091C52.8904 10.9091 52.7922 11.1721 52.7922 11.4935C52.7922 11.8149 52.694 12.0779 52.5741 12.0779C52.4399 12.0779 52.3559 13.0519 52.3559 14.6104C52.3559 16.1688 52.4399 17.1429 52.5741 17.1429C52.694 17.1429 52.7922 17.4058 52.7922 17.7273C52.7922 18.0487 52.8904 18.3117 53.0104 18.3117C53.1303 18.3117 53.2285 18.4455 53.2285 18.609C53.2285 18.9956 55.0804 20.6493 55.5134 20.6493C55.6964 20.6493 55.8463 20.737 55.8463 20.8442C55.8463 20.9513 56.0426 21.039 56.2826 21.039C56.5226 21.039 56.7189 21.1266 56.7189 21.2338C56.7189 21.3528 57.737 21.4286 59.3367 21.4286C60.9364 21.4286 61.9545 21.3528 61.9545 21.2338C61.9545 21.1266 62.1508 21.039 62.3908 21.039C62.6308 21.039 62.8271 20.9513 62.8271 20.8442C62.8271 20.737 63.0018 20.6493 63.2152 20.6493C63.4288 20.6493 63.7449 20.474 63.9178 20.2597C64.0908 20.0455 64.3648 19.8701 64.5269 19.8701C64.9067 19.8701 65.4449 19.3895 65.4449 19.0504C65.4449 18.9056 65.6412 18.661 65.8812 18.5065C66.1212 18.352 66.3175 18.0697 66.3175 17.879C66.3175 17.6885 66.4157 17.5325 66.5356 17.5325C66.6556 17.5325 66.7538 17.3571 66.7538 17.1429C66.7538 16.9286 66.852 16.7532 66.9719 16.7532C67.0919 16.7532 67.1901 16.5779 67.1901 16.3636C67.1901 16.0173 67.0446 15.974 65.8812 15.974C64.5954 15.974 64.5723 15.9836 64.5723 16.5154C64.5723 16.8333 64.3921 17.1727 64.136 17.3377C63.896 17.4921 63.6997 17.7347 63.6997 17.8765C63.6997 18.232 62.7038 19.0909 62.2915 19.0909C62.1061 19.0909 61.9545 19.1786 61.9545 19.2857C61.9545 19.3929 61.7582 19.4805 61.5182 19.4805C61.2782 19.4805 61.0819 19.5682 61.0819 19.6753C61.0819 19.7889 60.3548 19.8701 59.3367 19.8701C58.3186 19.8701 57.5915 19.7889 57.5915 19.6753C57.5915 19.5682 57.441 19.4805 57.2571 19.4805C56.8227 19.4805 55.41 18.219 55.41 17.8311C55.41 17.6669 55.3118 17.5325 55.1919 17.5325C55.0719 17.5325 54.9737 17.2695 54.9737 16.9481C54.9737 16.6266 54.8755 16.3636 54.7556 16.3636C54.6284 16.3636 54.5374 15.7144 54.5374 14.8052C54.5374 13.896 54.6284 13.2468 54.7556 13.2468C54.8755 13.2468 54.9737 12.8961 54.9737 12.4675C54.9737 12.039 55.0719 11.6883 55.1919 11.6883C55.3118 11.6883 55.41 11.513 55.41 11.2987C55.41 11.0844 55.5082 10.9091 55.6282 10.9091C55.7481 10.9091 55.8463 10.7338 55.8463 10.5195C55.8463 10.3052 55.9445 10.1299 56.0645 10.1299C56.1844 10.1299 56.2826 9.99604 56.2826 9.8326C56.2826 9.44591 58.1345 7.79221 58.5675 7.79221C58.7505 7.79221 58.9004 7.70455 58.9004 7.5974C58.9004 7.49026 59.1949 7.4026 59.5549 7.4026C59.9148 7.4026 60.2093 7.31493 60.2093 7.20779C60.2093 7.09948 60.7911 7.01299 61.5182 7.01299C62.2453 7.01299 62.8271 7.09948 62.8271 7.20779C62.8271 7.31493 63.0769 7.4026 63.3823 7.4026C63.9946 7.4026 65.0086 8.18669 65.0086 8.66006C65.0086 8.82565 65.1068 8.96104 65.2267 8.96104C65.3467 8.96104 65.4449 9.13636 65.4449 9.35065C65.4449 9.56493 65.5431 9.74026 65.663 9.74026C65.783 9.74026 65.8812 9.91558 65.8812 10.1299C65.8812 10.4468 66.0267 10.5195 66.6602 10.5195C67.0889 10.5195 67.5797 10.3942 67.751 10.2411C68.1085 9.92201 68.1685 9.35065 67.8445 9.35065C67.7246 9.35065 67.6264 9.10695 67.6264 8.80929C67.6264 8.49136 67.4462 8.15201 67.1901 7.98701C66.9501 7.83253 66.7538 7.58786 66.7538 7.44312C66.7538 7.10396 66.2156 6.62338 65.8358 6.62338C65.6737 6.62338 65.3997 6.44805 65.2267 6.23377C65.042 6.00506 64.662 5.84416 64.3059 5.84416C63.9726 5.84416 63.6997 5.75649 63.6997 5.64935C63.6997 5.5313 62.7545 5.45455 61.3001 5.45455C59.8456 5.45455 58.9004 5.5313 58.9004 5.64935ZM73.1347 5.74597C72.9848 5.89812 72.862 6.24545 72.862 6.51779C72.862 6.79013 72.7638 7.01299 72.6438 7.01299C72.5238 7.01299 72.4257 7.4513 72.4257 7.98701C72.4257 8.52273 72.3275 8.96104 72.2075 8.96104C72.0876 8.96104 71.9894 9.39935 71.9894 9.93506C71.9894 10.4708 71.8912 10.9091 71.7712 10.9091C71.6513 10.9091 71.5531 11.3474 71.5531 11.8831C71.5531 12.4188 71.4549 12.8571 71.3349 12.8571C71.215 12.8571 71.1168 13.2078 71.1168 13.6364C71.1168 14.0649 71.0186 14.4156 70.8986 14.4156C70.7787 14.4156 70.6805 14.8539 70.6805 15.3896C70.6805 15.9253 70.5823 16.3636 70.4623 16.3636C70.3424 16.3636 70.2442 16.8019 70.2442 17.3377C70.2442 17.8734 70.146 18.3117 70.026 18.3117C69.9061 18.3117 69.8079 18.6623 69.8079 19.0909C69.8079 19.5195 69.7097 19.8701 69.5897 19.8701C69.2586 19.8701 69.329 20.834 69.6833 21.1502C69.8546 21.3033 70.3454 21.4286 70.7741 21.4286C71.4076 21.4286 71.5531 21.3559 71.5531 21.039C71.5531 20.8247 71.6513 20.6493 71.7712 20.6493C71.8912 20.6493 71.9894 20.211 71.9894 19.6753C71.9894 19.1396 72.0876 18.7013 72.2075 18.7013C72.3275 18.7013 72.4257 18.3506 72.4257 17.9221C72.4257 17.4935 72.5238 17.1429 72.6438 17.1429C72.7638 17.1429 72.862 16.7045 72.862 16.1688C72.862 15.6331 72.9601 15.1948 73.0801 15.1948C73.2001 15.1948 73.2983 14.7565 73.2983 14.2208C73.2983 13.6851 73.3965 13.2468 73.5164 13.2468C73.6364 13.2468 73.7346 12.8084 73.7346 12.2727C73.7346 11.737 73.8327 11.2987 73.9527 11.2987C74.0727 11.2987 74.1709 10.9481 74.1709 10.5195C74.1709 10.0909 74.269 9.74026 74.389 9.74026C74.509 9.74026 74.6072 9.30195 74.6072 8.76623C74.6072 8.23052 74.7054 7.79221 74.8253 7.79221C74.9466 7.79221 75.0435 7.27266 75.0435 6.62338V5.45455L74.2254 5.46195C73.7756 5.46604 73.2848 5.59383 73.1347 5.74597ZM18.8154 14.5179C17.9009 15.3902 18.2386 17.5325 19.2908 17.5325C19.4792 17.5325 19.6335 17.6201 19.6335 17.7273C19.6335 17.8344 19.8298 17.9221 20.0698 17.9221C20.3097 17.9221 20.5061 17.8344 20.5061 17.7273C20.5061 17.6201 20.6577 17.5325 20.8431 17.5325C21.0285 17.5325 21.4212 17.3172 21.7157 17.0542C22.4598 16.3897 22.4598 15.1687 21.7157 14.5042C20.9764 13.8438 19.515 13.8508 18.8154 14.5179ZM16.8521 17.4343C16.7022 17.5864 16.5794 17.8079 16.5794 17.9266C16.5794 18.0452 16.0885 18.569 15.4886 19.0909C14.8887 19.6128 14.3979 20.1417 14.3979 20.2664C14.3979 20.391 14.1034 20.7388 13.7434 21.039C13.3835 21.3392 13.089 21.7058 13.089 21.8532C13.089 22.0009 12.8926 22.2481 12.6527 22.4026C12.4127 22.5571 12.2164 22.8393 12.2164 23.0301C12.2164 23.2206 12.1182 23.3766 11.9982 23.3766C11.8782 23.3766 11.7801 23.5327 11.7801 23.7232C11.7801 23.9139 11.5837 24.1962 11.3438 24.3506C11.0877 24.5156 10.9075 24.855 10.9075 25.1729C10.9075 25.4706 10.8093 25.7143 10.6893 25.7143C10.5694 25.7143 10.4712 25.9773 10.4712 26.2987C10.4712 26.6201 10.373 26.8831 10.253 26.8831C10.1331 26.8831 10.0349 27.3214 10.0349 27.8571C10.0349 28.3929 10.1331 28.8312 10.253 28.8312C10.373 28.8312 10.4712 29.0065 10.4712 29.2208C10.4712 29.5455 10.6167 29.6104 11.3438 29.6104C11.8237 29.6104 12.2164 29.6981 12.2164 29.8052C12.2164 29.9123 12.4127 30 12.6527 30C12.8926 30 13.089 29.9123 13.089 29.8052C13.089 29.6981 13.3835 29.6104 13.7434 29.6104C14.1034 29.6104 14.3979 29.5227 14.3979 29.4156C14.3979 29.3084 14.5942 29.2208 14.8342 29.2208C15.0741 29.2208 15.2705 29.1331 15.2705 29.026C15.2705 28.9188 15.0741 28.8312 14.8342 28.8312C14.5942 28.8312 14.3979 28.9188 14.3979 29.026C14.3979 29.1331 14.1034 29.2208 13.7434 29.2208C13.3835 29.2208 13.089 29.1331 13.089 29.026C13.089 28.9188 12.8926 28.8312 12.6527 28.8312C12.2578 28.8312 12.2164 28.7012 12.2164 27.4675C12.2164 26.6883 12.31 26.1039 12.4345 26.1039C12.5545 26.1039 12.6527 25.9286 12.6527 25.7143C12.6527 25.5 12.7508 25.3247 12.8708 25.3247C12.9908 25.3247 13.089 25.1686 13.089 24.9781C13.089 24.7874 13.2853 24.5051 13.5253 24.3506C13.7652 24.1962 13.9616 23.9332 13.9616 23.7662C13.9616 23.5993 14.1579 23.3363 14.3979 23.1818C14.6378 23.0273 14.8342 22.7801 14.8342 22.6325C14.8342 22.485 15.1287 22.1184 15.4886 21.8182C15.8486 21.518 16.1431 21.171 16.1431 21.0473C16.1431 20.9238 16.7321 20.3063 17.452 19.6753C18.8043 18.4901 19.0868 17.9221 18.3246 17.9221C18.0338 17.9221 17.8883 17.7921 17.8883 17.5325C17.8883 17.0755 17.2641 17.0162 16.8521 17.4343ZM35.3402 24.1128C35.3402 24.3035 35.5366 24.5858 35.7765 24.7403C36.0165 24.8947 36.2128 25.177 36.2128 25.3677C36.2128 25.5582 36.311 25.7143 36.431 25.7143C36.551 25.7143 36.6491 25.8896 36.6491 26.1039C36.6491 26.3182 36.7473 26.4935 36.8673 26.4935C36.9873 26.4935 37.0854 26.6688 37.0854 26.8831C37.0854 27.0974 37.1836 27.2727 37.3036 27.2727C37.4236 27.2727 37.5217 27.0974 37.5217 26.8831C37.5217 26.6688 37.4236 26.4935 37.3036 26.4935C37.1836 26.4935 37.0854 26.2305 37.0854 25.9091C37.0854 25.5877 36.9873 25.3247 36.8673 25.3247C36.7473 25.3247 36.6491 25.1494 36.6491 24.9351C36.6491 24.7208 36.551 24.5455 36.431 24.5455C36.311 24.5455 36.2128 24.3701 36.2128 24.1558C36.2128 23.8962 36.0673 23.7662 35.7765 23.7662C35.5036 23.7662 35.3402 23.8962 35.3402 24.1128ZM38.8306 24.5455C38.8306 24.974 38.7325 25.3247 38.6125 25.3247C38.4925 25.3247 38.3943 25.6753 38.3943 26.1039C38.3943 26.5325 38.2962 26.8831 38.1762 26.8831C38.0562 26.8831 37.958 27.1461 37.958 27.4675C37.958 27.789 38.0562 28.0519 38.1762 28.0519C38.2962 28.0519 38.3943 27.8766 38.3943 27.6623C38.3943 27.4481 38.4925 27.2727 38.6125 27.2727C38.7325 27.2727 38.8306 26.8344 38.8306 26.2987C38.8306 25.763 38.9288 25.3247 39.0488 25.3247C39.1688 25.3247 39.2669 24.974 39.2669 24.5455C39.2669 24.1169 39.1688 23.7662 39.0488 23.7662C38.9288 23.7662 38.8306 24.1169 38.8306 24.5455ZM40.5758 24.9351V26.1039H42.321C43.3391 26.1039 44.0662 26.0227 44.0662 25.9091C44.0662 25.7979 43.4118 25.7143 42.5392 25.7143H41.0121V24.9351V24.1558H42.7573C43.7754 24.1558 44.5025 24.0746 44.5025 23.961C44.5025 23.8455 43.7026 23.7662 42.5392 23.7662H40.5758V24.9351ZM45.8114 23.961C45.8114 24.0682 46.1059 24.1558 46.4659 24.1558C47.0477 24.1558 47.1203 24.2207 47.1203 24.7403C47.1203 25.0617 47.0222 25.3247 46.9022 25.3247C46.7809 25.3247 46.684 25.8442 46.684 26.4935C46.684 27.1428 46.7809 27.6623 46.9022 27.6623C47.0222 27.6623 47.1203 27.224 47.1203 26.6883C47.1203 26.1526 47.2185 25.7143 47.3385 25.7143C47.4585 25.7143 47.5566 25.3636 47.5566 24.9351V24.1558H48.4292C48.9092 24.1558 49.3018 24.0682 49.3018 23.961C49.3018 23.8475 48.5747 23.7662 47.5566 23.7662C46.5385 23.7662 45.8114 23.8475 45.8114 23.961ZM50.1744 25.5195C50.1744 26.5584 50.2632 27.2727 50.3926 27.2727C50.5125 27.2727 50.6107 27.4481 50.6107 27.6623C50.6107 27.922 50.7562 28.0519 51.047 28.0519C51.3378 28.0519 51.4833 27.922 51.4833 27.6623C51.4833 27.4481 51.5815 27.2727 51.7015 27.2727C51.8214 27.2727 51.9196 27.0974 51.9196 26.8831C51.9196 26.6688 52.0178 26.4935 52.1378 26.4935C52.2577 26.4935 52.3559 26.3182 52.3559 26.1039C52.3559 25.8896 52.4541 25.7143 52.5741 25.7143C52.694 25.7143 52.7922 25.539 52.7922 25.3247C52.7922 24.8632 52.9305 24.8359 53.3531 25.2134C53.5601 25.3981 53.6648 25.9221 53.6648 26.7719C53.6648 27.8057 53.7307 28.0519 54.0075 28.0519C54.1962 28.0519 54.4907 27.9267 54.662 27.7736C54.8334 27.6206 54.9737 27.3577 54.9737 27.1892C54.9737 27.0208 55.0719 26.8831 55.1919 26.8831C55.3118 26.8831 55.41 26.7078 55.41 26.4935C55.41 26.2792 55.5082 26.1039 55.6282 26.1039C55.7481 26.1039 55.8463 25.9286 55.8463 25.7143C55.8463 25.5 55.9445 25.3247 56.0645 25.3247C56.1844 25.3247 56.2826 25.1494 56.2826 24.9351C56.2826 24.7208 56.3808 24.5455 56.5008 24.5455C56.6207 24.5455 56.7189 24.3701 56.7189 24.1558C56.7189 23.9416 56.6628 23.7662 56.5943 23.7662C56.3382 23.7662 55.8463 24.3337 55.8463 24.629C55.8463 24.7973 55.7481 24.9351 55.6282 24.9351C55.5082 24.9351 55.41 25.1104 55.41 25.3247C55.41 25.539 55.3118 25.7143 55.1919 25.7143C55.0719 25.7143 54.9737 25.852 54.9737 26.0203C54.9737 26.3156 54.4818 26.8831 54.2257 26.8831C54.1572 26.8831 54.1011 26.4448 54.1011 25.9091C54.1011 25.3734 54.0029 24.9351 53.883 24.9351C53.763 24.9351 53.6648 24.7597 53.6648 24.5455C53.6648 24.3312 53.763 24.1558 53.883 24.1558C54.0029 24.1558 54.1011 24.0682 54.1011 23.961C54.1011 23.6718 53.4613 23.7253 53.104 24.0446C52.9325 24.1975 52.7922 24.4605 52.7922 24.629C52.7922 24.7973 52.694 24.9351 52.5741 24.9351C52.4541 24.9351 52.3559 25.1104 52.3559 25.3247C52.3559 25.539 52.2577 25.7143 52.1378 25.7143C52.0178 25.7143 51.9196 25.8497 51.9196 26.0153C51.9196 26.2958 50.9951 27.2727 50.7296 27.2727C50.6642 27.2727 50.6107 26.4838 50.6107 25.5195C50.6107 24.4806 50.5219 23.7662 50.3926 23.7662C50.2632 23.7662 50.1744 24.4806 50.1744 25.5195ZM57.8642 24.4558C57.2394 25.0401 57.1552 25.2466 57.1552 26.1958C57.1552 26.7881 57.2534 27.2727 57.3734 27.2727C57.4933 27.2727 57.5915 27.4481 57.5915 27.6623C57.5915 27.922 57.737 28.0519 58.0278 28.0519C58.2678 28.0519 58.4641 28.1396 58.4641 28.2468C58.4641 28.3539 58.7586 28.4416 59.1186 28.4416C59.4785 28.4416 59.773 28.3539 59.773 28.2468C59.773 28.1396 59.5232 28.0519 59.2178 28.0519C58.304 28.0519 57.5915 27.2449 57.5915 26.2101C57.5915 25.7231 57.6897 25.3247 57.8097 25.3247C57.9296 25.3247 58.0278 25.1869 58.0278 25.0186C58.0278 24.6249 58.5531 24.1558 58.994 24.1558C59.1825 24.1558 59.3367 24.0682 59.3367 23.961C59.3367 23.5535 58.5448 23.8196 57.8642 24.4558ZM60.2093 23.961C60.2093 24.0682 60.4056 24.1558 60.6456 24.1558C60.9364 24.1558 61.0819 24.2858 61.0819 24.5455C61.0819 24.7597 61.1801 24.9351 61.3001 24.9351C61.42 24.9351 61.5182 25.2857 61.5182 25.7143C61.5182 26.1429 61.42 26.4935 61.3001 26.4935C61.1801 26.4935 61.0819 26.6367 61.0819 26.8116C61.0819 26.9866 60.8699 27.294 60.6107 27.4946C60.3513 27.6955 60.1975 27.9117 60.2689 27.9752C60.3402 28.0389 60.7486 27.7782 61.1764 27.396C61.8642 26.782 61.9545 26.5864 61.9545 25.7119C61.9545 24.9212 61.847 24.6265 61.4189 24.2445C60.8768 23.7604 60.2093 23.604 60.2093 23.961ZM63.6997 24.3506C63.6997 24.6721 63.6015 24.9351 63.4815 24.9351C63.3616 24.9351 63.2634 25.2857 63.2634 25.7143C63.2634 26.1429 63.3616 26.4935 63.4815 26.4935C63.6015 26.4935 63.6997 26.4058 63.6997 26.2987C63.6997 26.0149 65.3853 26.0597 65.5359 26.3474C65.6375 26.5422 65.6886 26.5422 65.7902 26.3474C65.8603 26.2136 66.0612 26.1039 66.2366 26.1039C66.7143 26.1039 67.6264 25.2058 67.6264 24.7352C67.6264 23.9815 67.1212 23.7662 65.3513 23.7662H63.6997V24.3506ZM68.9353 24.9351C68.9353 25.5843 68.8384 26.1039 68.7171 26.1039C68.5972 26.1039 68.499 26.4545 68.499 26.8831C68.499 27.3117 68.4008 27.6623 68.2808 27.6623C68.1609 27.6623 68.0627 27.8377 68.0627 28.0519C68.0627 28.2662 68.1609 28.4416 68.2808 28.4416C68.4008 28.4416 68.499 28.2662 68.499 28.0519C68.499 27.8377 68.5972 27.6623 68.7171 27.6623C68.8371 27.6623 68.9353 27.4369 68.9353 27.1615C68.9353 26.5223 69.4039 26.1039 70.1196 26.1039C70.535 26.1039 70.6805 26.205 70.6805 26.4935C70.6805 26.7078 70.7787 26.8831 70.8986 26.8831C71.0186 26.8831 71.1168 27.0208 71.1168 27.1892C71.1168 27.4845 71.6087 28.0519 71.8648 28.0519C72.1759 28.0519 71.9449 27.3302 71.5531 27.0779C71.3131 26.9234 71.1168 26.6412 71.1168 26.4505C71.1168 26.2599 71.0186 26.1039 70.8986 26.1039C70.7787 26.1039 70.6805 25.9695 70.6805 25.8053C70.6805 25.4174 72.0932 24.1558 72.5276 24.1558C72.7115 24.1558 72.862 24.0682 72.862 23.961C72.862 23.6166 72.0961 23.7534 71.7712 24.1558C71.5982 24.3701 71.3214 24.5455 71.1561 24.5455C70.9909 24.5455 70.5804 24.8084 70.2442 25.1299C69.908 25.4513 69.574 25.7143 69.5023 25.7143C69.4303 25.7143 69.3716 25.3636 69.3716 24.9351C69.3716 24.5065 69.4698 24.1558 69.5897 24.1558C69.7097 24.1558 69.8079 24.0682 69.8079 23.961C69.8079 23.8539 69.6116 23.7662 69.3716 23.7662C68.9837 23.7662 68.9353 23.8962 68.9353 24.9351ZM76.3995 24.2649L75.901 24.7399L76.6648 25.4219C77.0849 25.7971 77.5345 26.1039 77.6639 26.1039C78.0548 26.1039 79.1006 27.1366 78.8004 27.2258C78.5402 27.3033 78.4115 28.0519 78.6584 28.0519C78.9534 28.0519 79.4065 27.4619 79.4065 27.0779C79.4065 26.5876 78.9268 26.1039 78.4403 26.1039C78.2518 26.1039 78.0976 26.0162 78.0976 25.9091C78.0976 25.8019 77.9433 25.7143 77.7549 25.7143C77.2398 25.7143 76.7887 25.2205 76.7887 24.6567C76.7887 24.1909 76.8594 24.1558 77.7994 24.1558C78.5633 24.1558 78.9097 24.2585 79.2186 24.5766C79.4436 24.8082 79.6864 24.945 79.7581 24.8807C79.8301 24.8164 79.6377 24.5394 79.3306 24.2651C78.564 23.5806 77.1176 23.5806 76.3995 24.2649ZM81.1517 24.9351C81.1517 25.5843 81.0548 26.1039 80.9335 26.1039C80.5939 26.1039 80.673 27.8472 81.0271 28.1632C81.3903 28.4877 84.2058 28.5616 84.2058 28.2468C84.2058 28.1355 83.5513 28.0519 82.6787 28.0519H81.1517V27.0779V26.1039H82.8969C83.915 26.1039 84.6421 26.0227 84.6421 25.9091C84.6421 25.7979 83.9876 25.7143 83.115 25.7143H81.588V24.9351V24.1558H83.3332C84.3513 24.1558 85.0784 24.0746 85.0784 23.961C85.0784 23.8455 84.2784 23.7662 83.115 23.7662H81.1517V24.9351ZM86.3873 24.5455C86.3873 24.974 86.2891 25.3247 86.1691 25.3247C86.0491 25.3247 85.951 25.6753 85.951 26.1039C85.951 26.5325 85.8528 26.8831 85.7328 26.8831C85.6128 26.8831 85.5147 27.1461 85.5147 27.4675C85.5147 27.789 85.6128 28.0519 85.7328 28.0519C85.8528 28.0519 85.951 27.789 85.951 27.4675C85.951 27.1461 86.0491 26.8831 86.1691 26.8831C86.2891 26.8831 86.3873 26.7078 86.3873 26.4935C86.3873 26.1766 86.5328 26.1039 87.1663 26.1039C87.9913 26.1039 88.5688 26.459 88.5688 26.9667C88.5688 27.135 88.6669 27.2727 88.7869 27.2727C88.9069 27.2727 89.0051 27.4105 89.0051 27.5788C89.0051 27.9645 89.6285 28.5378 89.8336 28.3406C89.9178 28.2596 89.8641 28.1542 89.714 28.1065C89.5642 28.0586 89.4414 27.8515 89.4414 27.6462C89.4414 27.4408 89.3432 27.2727 89.2232 27.2727C88.8921 27.2727 88.9625 26.3088 89.3168 25.9927C89.488 25.8395 89.7825 25.7143 89.9712 25.7143C90.2188 25.7143 90.314 25.5212 90.314 25.0186C90.314 23.9694 89.9448 23.7662 88.0389 23.7662H86.3873V24.5455ZM91.6228 24.5455C91.6228 24.974 91.721 25.3247 91.841 25.3247C91.961 25.3247 92.0592 25.763 92.0592 26.2987C92.0592 26.8344 92.1573 27.2727 92.2773 27.2727C92.3973 27.2727 92.4955 26.8344 92.4955 26.2987C92.4955 25.763 92.3973 25.3247 92.2773 25.3247C92.1573 25.3247 92.0592 24.974 92.0592 24.5455C92.0592 24.1169 91.961 23.7662 91.841 23.7662C91.721 23.7662 91.6228 24.1169 91.6228 24.5455ZM95.1132 24.1558C95.1132 24.3701 95.0151 24.5455 94.8951 24.5455C94.7751 24.5455 94.6769 24.7208 94.6769 24.9351C94.6769 25.1494 94.5788 25.3247 94.4588 25.3247C94.3388 25.3247 94.2406 25.5 94.2406 25.7143C94.2406 25.9286 94.1425 26.1039 94.0225 26.1039C93.9025 26.1039 93.8044 26.244 93.8044 26.4154C93.8044 26.5866 93.5098 26.9725 93.1499 27.2727C92.4102 27.8899 92.3454 28.0519 92.8382 28.0519C93.279 28.0519 93.8044 27.5829 93.8044 27.1892C93.8044 27.0208 93.9025 26.8831 94.0225 26.8831C94.1425 26.8831 94.2406 26.7078 94.2406 26.4935C94.2406 26.2792 94.3388 26.1039 94.4588 26.1039C94.5788 26.1039 94.6769 25.9286 94.6769 25.7143C94.6769 25.5 94.7751 25.3247 94.8951 25.3247C95.0151 25.3247 95.1132 25.1686 95.1132 24.9781C95.1132 24.7874 95.3096 24.5051 95.5495 24.3506C95.7895 24.1962 95.9858 24.0016 95.9858 23.918C95.9858 23.8346 95.7895 23.7662 95.5495 23.7662C95.2588 23.7662 95.1132 23.8962 95.1132 24.1558ZM96.8584 24.7403C96.8584 25.276 96.7603 25.7143 96.6403 25.7143C96.519 25.7143 96.4221 26.2338 96.4221 26.8831C96.4221 27.5324 96.519 28.0519 96.6403 28.0519C96.7603 28.0519 96.8584 27.6136 96.8584 27.0779C96.8584 26.5422 96.9566 26.1039 97.0766 26.1039C97.1966 26.1039 97.2947 25.6656 97.2947 25.1299C97.2947 24.5942 97.3929 24.1558 97.5129 24.1558C97.6329 24.1558 97.731 24.0682 97.731 23.961C97.731 23.8539 97.5347 23.7662 97.2947 23.7662C96.9167 23.7662 96.8584 23.8962 96.8584 24.7403ZM99.9125 23.961C99.9125 24.0682 99.7162 24.1558 99.4762 24.1558C99.1854 24.1558 99.0399 24.2858 99.0399 24.5455C99.0399 24.7597 98.9418 24.9351 98.8218 24.9351C98.6985 24.9351 98.6036 25.4899 98.6036 26.2101C98.6036 27.3043 98.6796 27.5531 99.1392 27.9633C99.6837 28.4497 101.221 28.659 101.221 28.2468C101.221 28.1396 101.376 28.0519 101.564 28.0519C102.005 28.0519 102.53 27.5829 102.53 27.1892C102.53 26.7491 102.349 26.8069 101.658 27.4675C100.98 28.1156 99.8957 28.2596 99.3517 27.7736C98.9928 27.4533 98.9114 25.3247 99.2581 25.3247C99.3781 25.3247 99.4762 25.1869 99.4762 25.0186C99.4762 24.1397 101.687 23.7707 102.312 24.5455C102.69 25.013 102.967 25.0482 102.967 24.629C102.967 24.0421 102.379 23.7662 101.128 23.7662C100.459 23.7662 99.9125 23.8539 99.9125 23.961ZM104.712 24.1558C104.712 24.3701 104.614 24.5455 104.494 24.5455C104.374 24.5455 104.276 24.9838 104.276 25.5195C104.276 26.0552 104.177 26.4935 104.057 26.4935C103.723 26.4935 103.798 27.8486 104.151 28.1632C104.514 28.4877 107.33 28.5616 107.33 28.2468C107.33 28.1355 106.675 28.0519 105.803 28.0519H104.276V27.3563C104.276 26.3384 104.661 26.1039 106.332 26.1039C107.143 26.1039 107.766 26.0192 107.766 25.9091C107.766 25.7979 107.111 25.7143 106.239 25.7143C104.744 25.7143 104.712 25.7038 104.712 25.2134C104.712 24.3964 105.18 24.1558 106.769 24.1558C107.579 24.1558 108.202 24.0711 108.202 23.961C108.202 23.8475 107.475 23.7662 106.457 23.7662C104.857 23.7662 104.712 23.7988 104.712 24.1558ZM109.784 24.0577C109.634 24.2098 109.511 24.5172 109.511 24.7408C109.511 25.2152 110.429 26.1039 110.919 26.1039C111.105 26.1039 111.256 26.1916 111.256 26.2987C111.256 26.4058 111.453 26.4935 111.693 26.4935C112.016 26.4935 112.129 26.6234 112.129 26.9944C112.129 28.1673 110.543 28.4538 109.511 27.4675C108.82 26.8069 108.639 26.7491 108.639 27.1892C108.639 27.5829 109.164 28.0519 109.605 28.0519C109.793 28.0519 109.947 28.1396 109.947 28.2468C109.947 28.3539 110.34 28.4416 110.82 28.4416C111.3 28.4416 111.693 28.3539 111.693 28.2468C111.693 28.1396 111.889 28.0519 112.129 28.0519C112.483 28.0519 112.565 27.922 112.565 27.3614C112.565 26.6229 111.788 25.7143 111.157 25.7143C110.972 25.7143 110.82 25.6266 110.82 25.5195C110.82 25.4123 110.624 25.3247 110.384 25.3247C109.873 25.3247 109.805 24.8396 110.259 24.4342C110.729 24.0148 111.972 24.0812 112.347 24.5455C112.52 24.7597 112.738 24.9351 112.832 24.9351C113.116 24.9351 113.021 24.3405 112.69 24.0446C112.274 23.6733 110.153 23.6831 109.784 24.0577ZM66.9311 24.4812C67.196 24.7177 67.2215 24.8283 67.0245 24.8869C66.8755 24.9314 66.7538 25.1355 66.7538 25.3408C66.7538 25.6734 66.5863 25.7143 65.2267 25.7143C63.8452 25.7143 63.6997 25.6773 63.6997 25.3247C63.6997 25.1104 63.7979 24.9351 63.9178 24.9351C64.0378 24.9351 64.136 24.7597 64.136 24.5455C64.136 24.2024 64.2815 24.1558 65.3513 24.1558C66.1958 24.1558 66.6781 24.2552 66.9311 24.4812ZM89.8777 24.6567C89.8777 25.4737 89.4099 25.7143 87.8207 25.7143C87.0105 25.7143 86.3873 25.6295 86.3873 25.5195C86.3873 25.4123 86.4854 25.3247 86.6054 25.3247C86.7254 25.3247 86.8236 25.0617 86.8236 24.7403V24.1558H88.3506C89.8454 24.1558 89.8777 24.1664 89.8777 24.6567ZM34.9039 26.1039C34.9039 26.5325 34.8058 26.8831 34.6858 26.8831C34.5658 26.8831 34.4676 27.1461 34.4676 27.4675C34.4676 27.789 34.5658 28.0519 34.6858 28.0519C34.8058 28.0519 34.9039 27.8766 34.9039 27.6623C34.9039 27.4481 35.0021 27.2727 35.1221 27.2727C35.2421 27.2727 35.3402 26.8344 35.3402 26.2987C35.3402 25.763 35.2421 25.3247 35.1221 25.3247C35.0021 25.3247 34.9039 25.6753 34.9039 26.1039ZM40.1395 27.1892C40.1395 28.207 40.5248 28.4416 42.1965 28.4416C43.0067 28.4416 43.6299 28.3568 43.6299 28.2468C43.6299 28.1355 42.9755 28.0519 42.1029 28.0519H40.5758V27.2727C40.5758 26.8442 40.4777 26.4935 40.3577 26.4935C40.2377 26.4935 40.1395 26.8066 40.1395 27.1892ZM62.8271 27.4675C62.8271 27.789 62.9253 28.0519 63.0452 28.0519C63.1652 28.0519 63.2634 27.789 63.2634 27.4675C63.2634 27.1461 63.1652 26.8831 63.0452 26.8831C62.9253 26.8831 62.8271 27.1461 62.8271 27.4675ZM65.8812 27.0779C65.8812 27.1851 65.9794 27.2727 66.0993 27.2727C66.2193 27.2727 66.3175 27.4481 66.3175 27.6623C66.3175 27.8766 66.4157 28.0519 66.5356 28.0519C66.8596 28.0519 66.7996 27.4806 66.4421 27.1615C66.0767 26.835 65.8812 26.806 65.8812 27.0779ZM75.4798 27.1892C75.4798 27.5749 76.1033 28.1482 76.3083 27.951C76.3925 27.87 76.3389 27.7646 76.1888 27.7169C76.0389 27.669 75.9161 27.4619 75.9161 27.2566C75.9161 27.0512 75.8179 26.8831 75.6979 26.8831C75.5779 26.8831 75.4798 27.0208 75.4798 27.1892ZM76.7887 28.2468C76.7887 28.3539 77.0832 28.4416 77.4431 28.4416C77.8031 28.4416 78.0976 28.3539 78.0976 28.2468C78.0976 28.1396 77.8031 28.0519 77.4431 28.0519C77.0832 28.0519 76.7887 28.1396 76.7887 28.2468Z"/>
</mask>
<path fill-rule="evenodd" clip-rule="evenodd" d="M22.2513 0.194805C22.2513 0.301948 21.9568 0.38961 21.5968 0.38961C21.2369 0.38961 20.9424 0.477273 20.9424 0.584416C20.9424 0.691558 20.746 0.779221 20.5061 0.779221C20.2661 0.779221 20.0698 0.866883 20.0698 0.974026C20.0698 1.08117 19.8734 1.16883 19.6335 1.16883C19.3935 1.16883 19.1972 1.25649 19.1972 1.36364C19.1972 1.47078 19.0008 1.55844 18.7609 1.55844C18.5209 1.55844 18.3246 1.6461 18.3246 1.75325C18.3246 1.86039 18.1282 1.94805 17.8883 1.94805C17.6483 1.94805 17.452 2.03571 17.452 2.14286C17.452 2.25 17.2556 2.33766 17.0157 2.33766C16.7757 2.33766 16.5794 2.42532 16.5794 2.53247C16.5794 2.63961 16.383 2.72727 16.1431 2.72727C15.9031 2.72727 15.7068 2.81494 15.7068 2.92208C15.7068 3.02922 15.2159 3.11688 14.616 3.11688C14.0161 3.11688 13.5253 3.20455 13.5253 3.31169C13.5253 3.41883 13.7216 3.50649 13.9616 3.50649C14.2015 3.50649 14.3979 3.55227 14.3979 3.60818C14.3979 3.80045 12.0074 5.84416 11.7825 5.84416C11.4825 5.84416 6.54449 10.2618 6.54449 10.53C6.54449 10.6453 6.05365 11.1664 5.45374 11.6883C4.85383 12.2102 4.36299 12.7549 4.36299 12.8988C4.36299 13.043 4.16666 13.2871 3.92669 13.4416C3.68673 13.596 3.49039 13.859 3.49039 14.026C3.49039 14.1929 3.29406 14.4559 3.0541 14.6104C2.81413 14.7649 2.6178 15.0279 2.6178 15.1948C2.6178 15.3618 2.42146 15.6247 2.1815 15.7792C1.94153 15.9337 1.7452 16.216 1.7452 16.4067C1.7452 16.5972 1.64703 16.7532 1.52705 16.7532C1.40707 16.7532 1.3089 16.9286 1.3089 17.1429C1.3089 17.3571 1.21073 17.5325 1.09075 17.5325C0.970766 17.5325 0.872599 17.7955 0.872599 18.1169C0.872599 18.4383 0.774431 18.7013 0.654449 18.7013C0.534467 18.7013 0.436299 18.8766 0.436299 19.0909C0.436299 19.3052 0.338132 19.4805 0.21815 19.4805C0.0981673 19.4805 0 19.9188 0 20.4545C0 20.9903 0.0981673 21.4286 0.21815 21.4286C0.338132 21.4286 0.436299 21.5663 0.436299 21.7346C0.436299 22.1945 0.989309 22.5974 1.62063 22.5974C1.9291 22.5974 2.1815 22.6851 2.1815 22.7922C2.1815 23.0815 2.82133 23.0279 3.17866 22.7086C3.61059 22.3231 3.56827 21.9544 3.0541 21.6234C2.69153 21.39 2.6178 21.119 2.6178 20.0219C2.6178 19.2713 2.71204 18.7013 2.83595 18.7013C2.95593 18.7013 3.0541 18.526 3.0541 18.3117C3.0541 18.0974 3.15226 17.9221 3.27224 17.9221C3.39223 17.9221 3.49039 17.7468 3.49039 17.5325C3.49039 17.3182 3.58856 17.1429 3.70854 17.1429C3.82853 17.1429 3.92669 16.9868 3.92669 16.7963C3.92669 16.6056 4.12303 16.3233 4.36299 16.1688C4.60296 16.0144 4.79929 15.7671 4.79929 15.6195C4.79929 15.472 5.09379 15.1054 5.45374 14.8052C5.81369 14.505 6.10819 14.1561 6.10819 14.0299C6.10819 13.9038 6.50086 13.4638 6.98079 13.0519C7.46072 12.6401 7.85339 12.2075 7.85339 12.0904C7.85339 11.8144 11.4821 8.57143 11.7912 8.57143C11.9206 8.57143 12.5046 8.13312 13.089 7.5974C13.6734 7.06169 14.2833 6.62338 14.4446 6.62338C14.606 6.62338 14.8793 6.44805 15.0523 6.23377C15.2253 6.01948 15.5414 5.84416 15.755 5.84416C15.9683 5.84416 16.1431 5.75649 16.1431 5.64935C16.1431 5.54221 16.3394 5.45455 16.5794 5.45455C16.8193 5.45455 17.0157 5.36688 17.0157 5.25974C17.0157 5.1526 17.3102 5.06493 17.6701 5.06493C18.0301 5.06493 18.3246 4.97727 18.3246 4.87013C18.3246 4.76299 18.6191 4.67532 18.979 4.67532C19.339 4.67532 19.6335 4.58766 19.6335 4.48052C19.6335 4.06364 21.1723 4.27851 21.7257 4.77273L22.2711 5.25974L21.7257 5.74675C21.4258 6.01461 21.07 6.23377 20.9352 6.23377C20.8004 6.23377 20.3128 6.58442 19.8516 7.01299C19.3904 7.44156 18.9009 7.79221 18.7637 7.79221C18.6267 7.79221 18.0364 8.23052 17.452 8.76623C16.8675 9.30195 16.284 9.74026 16.1549 9.74026C15.8486 9.74026 10.9075 14.1526 10.9075 14.4261C10.9075 14.5414 10.4166 15.0625 9.81673 15.5844C9.21682 16.1063 8.72599 16.6352 8.72599 16.7599C8.72599 16.8845 8.43148 17.2323 8.07154 17.5325C7.71159 17.8327 7.41709 18.1993 7.41709 18.3468C7.41709 18.4944 7.22075 18.7416 6.98079 18.8961C6.74082 19.0506 6.54449 19.3136 6.54449 19.4805C6.54449 19.6475 6.34815 19.9105 6.10819 20.0649C5.86823 20.2194 5.67189 20.5017 5.67189 20.6924C5.67189 20.8829 5.57372 21.039 5.45374 21.039C5.33376 21.039 5.23559 21.2143 5.23559 21.4286C5.23559 21.6429 5.13742 21.8182 5.01744 21.8182C4.89746 21.8182 4.79929 21.9935 4.79929 22.2078C4.79929 22.4221 4.70112 22.5974 4.58114 22.5974C4.46116 22.5974 4.36299 22.7727 4.36299 22.987C4.36299 23.2013 4.26483 23.3766 4.14484 23.3766C4.02486 23.3766 3.92669 23.5519 3.92669 23.7662C3.92669 23.9805 3.82853 24.1558 3.70854 24.1558C3.58856 24.1558 3.49039 24.4188 3.49039 24.7403C3.49039 25.0617 3.39223 25.3247 3.27224 25.3247C3.15095 25.3247 3.0541 25.8442 3.0541 26.4935C3.0541 27.1428 3.15095 27.6623 3.27224 27.6623C3.39223 27.6623 3.49039 27.8001 3.49039 27.9684C3.49039 28.6126 4.06696 28.8312 5.76548 28.8312C6.72119 28.8312 7.41709 28.7492 7.41709 28.6364C7.41709 28.5292 7.71159 28.4416 8.07154 28.4416C8.43148 28.4416 8.72599 28.3539 8.72599 28.2468C8.72599 28.1396 8.33332 28.0519 7.85339 28.0519C7.37346 28.0519 6.98079 27.9643 6.98079 27.8571C6.98079 27.75 6.78445 27.6623 6.54449 27.6623C6.20788 27.6623 6.10819 27.5324 6.10819 27.0941C6.10819 26.7816 5.98559 26.4748 5.8355 26.4123C5.61735 26.3215 5.61735 26.2759 5.8355 26.1851C5.99933 26.1168 6.10819 25.6894 6.10819 25.1137C6.10819 24.5869 6.20636 24.1558 6.32634 24.1558C6.44632 24.1558 6.54449 23.9805 6.54449 23.7662C6.54449 23.5519 6.64266 23.3766 6.76264 23.3766C6.88262 23.3766 6.98079 23.2013 6.98079 22.987C6.98079 22.7727 7.07896 22.5974 7.19894 22.5974C7.31892 22.5974 7.41709 22.4414 7.41709 22.2508C7.41709 22.0601 7.61342 21.7779 7.85339 21.6234C8.09335 21.4689 8.28969 21.2059 8.28969 21.039C8.28969 20.872 8.48602 20.609 8.72599 20.4545C8.96595 20.3001 9.16228 20.0548 9.16228 19.9093C9.16228 19.7638 9.55495 19.3079 10.0349 18.8961C10.5148 18.4843 10.9075 18.0522 10.9075 17.9359C10.9075 17.6571 18.032 11.2987 18.3444 11.2987C18.4773 11.2987 18.861 11.0357 19.1972 10.7143C19.5333 10.3929 19.9655 10.1299 20.1572 10.1299C20.3492 10.1299 20.5061 10.0422 20.5061 9.93506C20.5061 9.82792 20.6808 9.74026 20.8942 9.74026C21.1077 9.74026 21.4238 9.56493 21.5968 9.35065C21.7698 9.13636 22.0859 8.96104 22.2995 8.96104C22.5128 8.96104 22.6876 8.87338 22.6876 8.76623C22.6876 8.65909 22.8839 8.57143 23.1239 8.57143C23.3638 8.57143 23.5602 8.48377 23.5602 8.37662C23.5602 8.26948 23.8547 8.18182 24.2146 8.18182C24.5746 8.18182 24.8691 8.09416 24.8691 7.98701C24.8691 7.87987 25.2617 7.79221 25.7417 7.79221C26.4688 7.79221 26.6143 7.85708 26.6143 8.18182C26.6143 8.40331 26.7598 8.57143 26.9513 8.57143C27.3636 8.57143 28.3595 9.43032 28.3595 9.78584C28.3595 9.92766 28.5558 10.1702 28.7958 10.3247C29.0357 10.4792 29.2321 10.7614 29.2321 10.9521C29.2321 11.1427 29.3302 11.2987 29.4502 11.2987C29.5702 11.2987 29.6684 11.474 29.6684 11.6883C29.6684 11.9026 29.7665 12.0779 29.8865 12.0779C30.0065 12.0779 30.1047 12.4286 30.1047 12.8571C30.1047 13.2857 30.2028 13.6364 30.3228 13.6364C30.4522 13.6364 30.541 14.3507 30.541 15.3896C30.541 16.4285 30.6297 17.1429 30.7591 17.1429C30.8924 17.1429 30.9772 16.2337 30.9772 14.8052C30.9772 13.3767 30.8924 12.4675 30.7591 12.4675C30.6391 12.4675 30.541 12.2045 30.541 11.8831C30.541 11.5617 30.4428 11.2987 30.3228 11.2987C30.2028 11.2987 30.1047 11.0357 30.1047 10.7143C30.1047 10.3929 30.0065 10.1299 29.8865 10.1299C29.7665 10.1299 29.6684 9.95454 29.6684 9.74026C29.6684 9.52597 29.5702 9.35065 29.4502 9.35065C29.3302 9.35065 29.2321 9.21058 29.2321 9.03916C29.2321 8.86792 28.9376 8.48201 28.5776 8.18182C28.2177 7.88162 27.9232 7.515 27.9232 7.36753C27.9232 7.21987 27.7268 6.97266 27.4869 6.81818C27.2469 6.6637 27.0506 6.41903 27.0506 6.27429C27.0506 5.9176 27.5961 5.45455 28.0167 5.45455C28.2052 5.45455 28.3595 5.36688 28.3595 5.25974C28.3595 5.1526 28.8056 5.06493 29.3509 5.06493C30.6289 5.06493 31.4135 5.69162 31.4135 6.71201C31.4135 7.09188 31.3154 7.4026 31.1954 7.4026C31.0754 7.4026 30.9772 7.65838 30.9772 7.97084C30.9772 8.28331 30.8547 8.57805 30.7046 8.62597C30.5547 8.6737 30.5008 8.77909 30.585 8.86013C30.7901 9.05727 31.4135 8.48396 31.4135 8.09825C31.4135 7.92993 31.5117 7.79221 31.6317 7.79221C31.7517 7.79221 31.8498 7.52922 31.8498 7.20779C31.8498 6.88636 31.948 6.62338 32.068 6.62338C32.188 6.62338 32.2861 6.36039 32.2861 6.03896C32.2861 5.71753 32.3843 5.45455 32.5043 5.45455C32.6243 5.45455 32.7224 5.1039 32.7224 4.67532C32.7224 4.24675 32.6243 3.8961 32.5043 3.8961C32.3843 3.8961 32.2861 3.72078 32.2861 3.50649C32.2861 3.24682 32.1406 3.11688 31.8498 3.11688C31.6099 3.11688 31.4135 3.02922 31.4135 2.92208C31.4135 2.81377 30.8317 2.72727 30.1047 2.72727C29.3776 2.72727 28.7958 2.81377 28.7958 2.92208C28.7958 3.02922 28.5013 3.11688 28.1413 3.11688C27.7814 3.11688 27.4869 3.20455 27.4869 3.31169C27.4869 3.41883 27.1924 3.50649 26.8324 3.50649C26.4725 3.50649 26.178 3.59416 26.178 3.7013C26.178 3.80844 25.9816 3.8961 25.7417 3.8961C25.5017 3.8961 25.3054 3.98377 25.3054 4.09091C25.3054 4.19805 25.1173 4.28571 24.8872 4.28571C24.6572 4.28571 24.4118 4.39519 24.3418 4.52922C24.2401 4.72403 24.1891 4.72403 24.0874 4.52922C24.0174 4.39539 23.772 4.28571 23.5421 4.28571C23.3119 4.28571 23.1239 4.19805 23.1239 4.09091C23.1239 3.98377 22.9275 3.8961 22.6876 3.8961C22.4476 3.8961 22.2513 3.80844 22.2513 3.7013C22.2513 3.59416 21.9989 3.50649 21.6904 3.50649C21.1849 3.50649 20.5061 3.1237 20.5061 2.83851C20.5061 2.77734 20.7024 2.72727 20.9424 2.72727C21.1823 2.72727 21.3787 2.63961 21.3787 2.53247C21.3787 2.42532 21.575 2.33766 21.815 2.33766C22.0549 2.33766 22.2513 2.25 22.2513 2.14286C22.2513 2.03571 22.6044 1.94805 23.0364 1.94805C23.6324 1.94805 23.9729 2.09299 24.4506 2.54961C25.013 3.08727 25.1151 3.11981 25.4107 2.85565C25.9509 2.37351 25.8361 1.04065 25.2061 0.478247C24.7665 0.0855195 24.4546 0 23.4609 0C22.7955 0 22.2513 0.0876623 22.2513 0.194805ZM41.4484 5.64935C41.4484 5.75649 41.1539 5.84416 40.794 5.84416C40.434 5.84416 40.1395 5.93182 40.1395 6.03896C40.1395 6.1461 39.9432 6.23377 39.7032 6.23377C39.4633 6.23377 39.2669 6.32143 39.2669 6.42857C39.2669 6.53571 39.1171 6.62338 38.934 6.62338C38.5281 6.62338 36.6491 8.26597 36.6491 8.62071C36.6491 8.76058 36.4528 9.00136 36.2128 9.15584C35.9729 9.31032 35.7765 9.5926 35.7765 9.78331C35.7765 9.97383 35.6784 10.1299 35.5584 10.1299C35.4384 10.1299 35.3402 10.3052 35.3402 10.5195C35.3402 10.7338 35.2421 10.9091 35.1221 10.9091C35.0021 10.9091 34.9039 11.2597 34.9039 11.6883C34.9039 12.1169 34.8058 12.4675 34.6858 12.4675C34.5525 12.4675 34.4676 13.3767 34.4676 14.8052C34.4676 16.2337 34.5525 17.1429 34.6858 17.1429C34.8058 17.1429 34.9039 17.4058 34.9039 17.7273C34.9039 18.0487 35.0021 18.3117 35.1221 18.3117C35.2421 18.3117 35.3402 18.4455 35.3402 18.609C35.3402 18.9956 37.1921 20.6493 37.6251 20.6493C37.8082 20.6493 37.958 20.737 37.958 20.8442C37.958 20.9513 38.1544 21.039 38.3943 21.039C38.6343 21.039 38.8306 21.1266 38.8306 21.2338C38.8306 21.3528 39.8487 21.4286 41.4484 21.4286C43.0481 21.4286 44.0662 21.3528 44.0662 21.2338C44.0662 21.1266 44.2626 21.039 44.5025 21.039C44.7425 21.039 44.9388 20.9513 44.9388 20.8442C44.9388 20.737 45.1352 20.6493 45.3751 20.6493C45.6151 20.6493 45.8114 20.5617 45.8114 20.4545C45.8114 20.3474 45.963 20.2597 46.1485 20.2597C46.5608 20.2597 47.5566 19.4008 47.5566 19.0453C47.5566 18.9035 47.753 18.661 47.9929 18.5065C48.2329 18.352 48.4292 18.0697 48.4292 17.879C48.4292 17.6885 48.5274 17.5325 48.6474 17.5325C48.7674 17.5325 48.8655 17.3571 48.8655 17.1429C48.8655 16.9286 48.9637 16.7532 49.0837 16.7532C49.2037 16.7532 49.3018 16.5779 49.3018 16.3636C49.3018 16.0309 49.1563 15.974 48.3047 15.974C47.2752 15.974 46.684 16.2886 46.684 16.8368C46.684 17.0051 46.5859 17.1429 46.4659 17.1429C46.3459 17.1429 46.2477 17.2773 46.2477 17.4415C46.2477 17.8293 44.835 19.0909 44.4007 19.0909C44.2168 19.0909 44.0662 19.1786 44.0662 19.2857C44.0662 19.3929 43.8699 19.4805 43.6299 19.4805C43.39 19.4805 43.1936 19.5682 43.1936 19.6753C43.1936 19.7866 42.5392 19.8701 41.6666 19.8701C40.794 19.8701 40.1395 19.7866 40.1395 19.6753C40.1395 19.5682 39.8908 19.4805 39.587 19.4805C38.9724 19.4805 37.5217 18.322 37.5217 17.8311C37.5217 17.6669 37.4236 17.5325 37.3036 17.5325C37.1836 17.5325 37.0854 17.2695 37.0854 16.9481C37.0854 16.6266 36.9873 16.3636 36.8673 16.3636C36.7401 16.3636 36.6491 15.7144 36.6491 14.8052C36.6491 13.896 36.7401 13.2468 36.8673 13.2468C36.9873 13.2468 37.0854 12.8961 37.0854 12.4675C37.0854 12.039 37.1836 11.6883 37.3036 11.6883C37.4236 11.6883 37.5217 11.513 37.5217 11.2987C37.5217 11.0844 37.6199 10.9091 37.7399 10.9091C37.8599 10.9091 37.958 10.7531 37.958 10.5625C37.958 10.3718 38.1544 10.0895 38.3943 9.93506C38.6343 9.78058 38.8306 9.53805 38.8306 9.39623C38.8306 9.06175 39.816 8.18182 40.1906 8.18182C40.3494 8.18182 40.621 8.00649 40.794 7.79221C40.9788 7.56351 41.3588 7.4026 41.7148 7.4026C42.0481 7.4026 42.321 7.31493 42.321 7.20779C42.321 7.09948 42.9028 7.01299 43.6299 7.01299C44.357 7.01299 44.9388 7.09948 44.9388 7.20779C44.9388 7.31493 45.1875 7.4026 45.4914 7.4026C46.1059 7.4026 47.5566 8.5611 47.5566 9.05201C47.5566 9.21623 47.6548 9.35065 47.7748 9.35065C47.8948 9.35065 47.9929 9.61364 47.9929 9.93506C47.9929 10.5064 48.0171 10.5195 49.0837 10.5195H50.1744V9.74026C50.1744 9.31169 50.0763 8.96104 49.9563 8.96104C49.8363 8.96104 49.7381 8.78571 49.7381 8.57143C49.7381 8.35714 49.64 8.18182 49.52 8.18182C49.4 8.18182 49.3018 8.0474 49.3018 7.88318C49.3018 7.71877 48.9615 7.28045 48.5455 6.90916C48.1297 6.53766 47.6389 6.23377 47.4548 6.23377C47.2708 6.23377 47.1203 6.1461 47.1203 6.03896C47.1203 5.93182 46.8258 5.84416 46.4659 5.84416C46.1059 5.84416 45.8114 5.75649 45.8114 5.64935C45.8114 5.53247 44.9388 5.45455 43.6299 5.45455C42.321 5.45455 41.4484 5.53247 41.4484 5.64935ZM58.9004 5.64935C58.9004 5.75649 58.6275 5.84416 58.2942 5.84416C57.9382 5.84416 57.5581 6.00506 57.3734 6.23377C57.2004 6.44805 56.9312 6.62338 56.7752 6.62338C56.3779 6.62338 54.1011 8.69318 54.1011 9.05416C54.1011 9.21721 54.0029 9.35065 53.883 9.35065C53.763 9.35065 53.6648 9.52597 53.6648 9.74026C53.6648 9.95454 53.5666 10.1299 53.4467 10.1299C53.3267 10.1299 53.2285 10.3052 53.2285 10.5195C53.2285 10.7338 53.1303 10.9091 53.0104 10.9091C52.8904 10.9091 52.7922 11.1721 52.7922 11.4935C52.7922 11.8149 52.694 12.0779 52.5741 12.0779C52.4399 12.0779 52.3559 13.0519 52.3559 14.6104C52.3559 16.1688 52.4399 17.1429 52.5741 17.1429C52.694 17.1429 52.7922 17.4058 52.7922 17.7273C52.7922 18.0487 52.8904 18.3117 53.0104 18.3117C53.1303 18.3117 53.2285 18.4455 53.2285 18.609C53.2285 18.9956 55.0804 20.6493 55.5134 20.6493C55.6964 20.6493 55.8463 20.737 55.8463 20.8442C55.8463 20.9513 56.0426 21.039 56.2826 21.039C56.5226 21.039 56.7189 21.1266 56.7189 21.2338C56.7189 21.3528 57.737 21.4286 59.3367 21.4286C60.9364 21.4286 61.9545 21.3528 61.9545 21.2338C61.9545 21.1266 62.1508 21.039 62.3908 21.039C62.6308 21.039 62.8271 20.9513 62.8271 20.8442C62.8271 20.737 63.0018 20.6493 63.2152 20.6493C63.4288 20.6493 63.7449 20.474 63.9178 20.2597C64.0908 20.0455 64.3648 19.8701 64.5269 19.8701C64.9067 19.8701 65.4449 19.3895 65.4449 19.0504C65.4449 18.9056 65.6412 18.661 65.8812 18.5065C66.1212 18.352 66.3175 18.0697 66.3175 17.879C66.3175 17.6885 66.4157 17.5325 66.5356 17.5325C66.6556 17.5325 66.7538 17.3571 66.7538 17.1429C66.7538 16.9286 66.852 16.7532 66.9719 16.7532C67.0919 16.7532 67.1901 16.5779 67.1901 16.3636C67.1901 16.0173 67.0446 15.974 65.8812 15.974C64.5954 15.974 64.5723 15.9836 64.5723 16.5154C64.5723 16.8333 64.3921 17.1727 64.136 17.3377C63.896 17.4921 63.6997 17.7347 63.6997 17.8765C63.6997 18.232 62.7038 19.0909 62.2915 19.0909C62.1061 19.0909 61.9545 19.1786 61.9545 19.2857C61.9545 19.3929 61.7582 19.4805 61.5182 19.4805C61.2782 19.4805 61.0819 19.5682 61.0819 19.6753C61.0819 19.7889 60.3548 19.8701 59.3367 19.8701C58.3186 19.8701 57.5915 19.7889 57.5915 19.6753C57.5915 19.5682 57.441 19.4805 57.2571 19.4805C56.8227 19.4805 55.41 18.219 55.41 17.8311C55.41 17.6669 55.3118 17.5325 55.1919 17.5325C55.0719 17.5325 54.9737 17.2695 54.9737 16.9481C54.9737 16.6266 54.8755 16.3636 54.7556 16.3636C54.6284 16.3636 54.5374 15.7144 54.5374 14.8052C54.5374 13.896 54.6284 13.2468 54.7556 13.2468C54.8755 13.2468 54.9737 12.8961 54.9737 12.4675C54.9737 12.039 55.0719 11.6883 55.1919 11.6883C55.3118 11.6883 55.41 11.513 55.41 11.2987C55.41 11.0844 55.5082 10.9091 55.6282 10.9091C55.7481 10.9091 55.8463 10.7338 55.8463 10.5195C55.8463 10.3052 55.9445 10.1299 56.0645 10.1299C56.1844 10.1299 56.2826 9.99604 56.2826 9.8326C56.2826 9.44591 58.1345 7.79221 58.5675 7.79221C58.7505 7.79221 58.9004 7.70455 58.9004 7.5974C58.9004 7.49026 59.1949 7.4026 59.5549 7.4026C59.9148 7.4026 60.2093 7.31493 60.2093 7.20779C60.2093 7.09948 60.7911 7.01299 61.5182 7.01299C62.2453 7.01299 62.8271 7.09948 62.8271 7.20779C62.8271 7.31493 63.0769 7.4026 63.3823 7.4026C63.9946 7.4026 65.0086 8.18669 65.0086 8.66006C65.0086 8.82565 65.1068 8.96104 65.2267 8.96104C65.3467 8.96104 65.4449 9.13636 65.4449 9.35065C65.4449 9.56493 65.5431 9.74026 65.663 9.74026C65.783 9.74026 65.8812 9.91558 65.8812 10.1299C65.8812 10.4468 66.0267 10.5195 66.6602 10.5195C67.0889 10.5195 67.5797 10.3942 67.751 10.2411C68.1085 9.92201 68.1685 9.35065 67.8445 9.35065C67.7246 9.35065 67.6264 9.10695 67.6264 8.80929C67.6264 8.49136 67.4462 8.15201 67.1901 7.98701C66.9501 7.83253 66.7538 7.58786 66.7538 7.44312C66.7538 7.10396 66.2156 6.62338 65.8358 6.62338C65.6737 6.62338 65.3997 6.44805 65.2267 6.23377C65.042 6.00506 64.662 5.84416 64.3059 5.84416C63.9726 5.84416 63.6997 5.75649 63.6997 5.64935C63.6997 5.5313 62.7545 5.45455 61.3001 5.45455C59.8456 5.45455 58.9004 5.5313 58.9004 5.64935ZM73.1347 5.74597C72.9848 5.89812 72.862 6.24545 72.862 6.51779C72.862 6.79013 72.7638 7.01299 72.6438 7.01299C72.5238 7.01299 72.4257 7.4513 72.4257 7.98701C72.4257 8.52273 72.3275 8.96104 72.2075 8.96104C72.0876 8.96104 71.9894 9.39935 71.9894 9.93506C71.9894 10.4708 71.8912 10.9091 71.7712 10.9091C71.6513 10.9091 71.5531 11.3474 71.5531 11.8831C71.5531 12.4188 71.4549 12.8571 71.3349 12.8571C71.215 12.8571 71.1168 13.2078 71.1168 13.6364C71.1168 14.0649 71.0186 14.4156 70.8986 14.4156C70.7787 14.4156 70.6805 14.8539 70.6805 15.3896C70.6805 15.9253 70.5823 16.3636 70.4623 16.3636C70.3424 16.3636 70.2442 16.8019 70.2442 17.3377C70.2442 17.8734 70.146 18.3117 70.026 18.3117C69.9061 18.3117 69.8079 18.6623 69.8079 19.0909C69.8079 19.5195 69.7097 19.8701 69.5897 19.8701C69.2586 19.8701 69.329 20.834 69.6833 21.1502C69.8546 21.3033 70.3454 21.4286 70.7741 21.4286C71.4076 21.4286 71.5531 21.3559 71.5531 21.039C71.5531 20.8247 71.6513 20.6493 71.7712 20.6493C71.8912 20.6493 71.9894 20.211 71.9894 19.6753C71.9894 19.1396 72.0876 18.7013 72.2075 18.7013C72.3275 18.7013 72.4257 18.3506 72.4257 17.9221C72.4257 17.4935 72.5238 17.1429 72.6438 17.1429C72.7638 17.1429 72.862 16.7045 72.862 16.1688C72.862 15.6331 72.9601 15.1948 73.0801 15.1948C73.2001 15.1948 73.2983 14.7565 73.2983 14.2208C73.2983 13.6851 73.3965 13.2468 73.5164 13.2468C73.6364 13.2468 73.7346 12.8084 73.7346 12.2727C73.7346 11.737 73.8327 11.2987 73.9527 11.2987C74.0727 11.2987 74.1709 10.9481 74.1709 10.5195C74.1709 10.0909 74.269 9.74026 74.389 9.74026C74.509 9.74026 74.6072 9.30195 74.6072 8.76623C74.6072 8.23052 74.7054 7.79221 74.8253 7.79221C74.9466 7.79221 75.0435 7.27266 75.0435 6.62338V5.45455L74.2254 5.46195C73.7756 5.46604 73.2848 5.59383 73.1347 5.74597ZM18.8154 14.5179C17.9009 15.3902 18.2386 17.5325 19.2908 17.5325C19.4792 17.5325 19.6335 17.6201 19.6335 17.7273C19.6335 17.8344 19.8298 17.9221 20.0698 17.9221C20.3097 17.9221 20.5061 17.8344 20.5061 17.7273C20.5061 17.6201 20.6577 17.5325 20.8431 17.5325C21.0285 17.5325 21.4212 17.3172 21.7157 17.0542C22.4598 16.3897 22.4598 15.1687 21.7157 14.5042C20.9764 13.8438 19.515 13.8508 18.8154 14.5179ZM16.8521 17.4343C16.7022 17.5864 16.5794 17.8079 16.5794 17.9266C16.5794 18.0452 16.0885 18.569 15.4886 19.0909C14.8887 19.6128 14.3979 20.1417 14.3979 20.2664C14.3979 20.391 14.1034 20.7388 13.7434 21.039C13.3835 21.3392 13.089 21.7058 13.089 21.8532C13.089 22.0009 12.8926 22.2481 12.6527 22.4026C12.4127 22.5571 12.2164 22.8393 12.2164 23.0301C12.2164 23.2206 12.1182 23.3766 11.9982 23.3766C11.8782 23.3766 11.7801 23.5327 11.7801 23.7232C11.7801 23.9139 11.5837 24.1962 11.3438 24.3506C11.0877 24.5156 10.9075 24.855 10.9075 25.1729C10.9075 25.4706 10.8093 25.7143 10.6893 25.7143C10.5694 25.7143 10.4712 25.9773 10.4712 26.2987C10.4712 26.6201 10.373 26.8831 10.253 26.8831C10.1331 26.8831 10.0349 27.3214 10.0349 27.8571C10.0349 28.3929 10.1331 28.8312 10.253 28.8312C10.373 28.8312 10.4712 29.0065 10.4712 29.2208C10.4712 29.5455 10.6167 29.6104 11.3438 29.6104C11.8237 29.6104 12.2164 29.6981 12.2164 29.8052C12.2164 29.9123 12.4127 30 12.6527 30C12.8926 30 13.089 29.9123 13.089 29.8052C13.089 29.6981 13.3835 29.6104 13.7434 29.6104C14.1034 29.6104 14.3979 29.5227 14.3979 29.4156C14.3979 29.3084 14.5942 29.2208 14.8342 29.2208C15.0741 29.2208 15.2705 29.1331 15.2705 29.026C15.2705 28.9188 15.0741 28.8312 14.8342 28.8312C14.5942 28.8312 14.3979 28.9188 14.3979 29.026C14.3979 29.1331 14.1034 29.2208 13.7434 29.2208C13.3835 29.2208 13.089 29.1331 13.089 29.026C13.089 28.9188 12.8926 28.8312 12.6527 28.8312C12.2578 28.8312 12.2164 28.7012 12.2164 27.4675C12.2164 26.6883 12.31 26.1039 12.4345 26.1039C12.5545 26.1039 12.6527 25.9286 12.6527 25.7143C12.6527 25.5 12.7508 25.3247 12.8708 25.3247C12.9908 25.3247 13.089 25.1686 13.089 24.9781C13.089 24.7874 13.2853 24.5051 13.5253 24.3506C13.7652 24.1962 13.9616 23.9332 13.9616 23.7662C13.9616 23.5993 14.1579 23.3363 14.3979 23.1818C14.6378 23.0273 14.8342 22.7801 14.8342 22.6325C14.8342 22.485 15.1287 22.1184 15.4886 21.8182C15.8486 21.518 16.1431 21.171 16.1431 21.0473C16.1431 20.9238 16.7321 20.3063 17.452 19.6753C18.8043 18.4901 19.0868 17.9221 18.3246 17.9221C18.0338 17.9221 17.8883 17.7921 17.8883 17.5325C17.8883 17.0755 17.2641 17.0162 16.8521 17.4343ZM35.3402 24.1128C35.3402 24.3035 35.5366 24.5858 35.7765 24.7403C36.0165 24.8947 36.2128 25.177 36.2128 25.3677C36.2128 25.5582 36.311 25.7143 36.431 25.7143C36.551 25.7143 36.6491 25.8896 36.6491 26.1039C36.6491 26.3182 36.7473 26.4935 36.8673 26.4935C36.9873 26.4935 37.0854 26.6688 37.0854 26.8831C37.0854 27.0974 37.1836 27.2727 37.3036 27.2727C37.4236 27.2727 37.5217 27.0974 37.5217 26.8831C37.5217 26.6688 37.4236 26.4935 37.3036 26.4935C37.1836 26.4935 37.0854 26.2305 37.0854 25.9091C37.0854 25.5877 36.9873 25.3247 36.8673 25.3247C36.7473 25.3247 36.6491 25.1494 36.6491 24.9351C36.6491 24.7208 36.551 24.5455 36.431 24.5455C36.311 24.5455 36.2128 24.3701 36.2128 24.1558C36.2128 23.8962 36.0673 23.7662 35.7765 23.7662C35.5036 23.7662 35.3402 23.8962 35.3402 24.1128ZM38.8306 24.5455C38.8306 24.974 38.7325 25.3247 38.6125 25.3247C38.4925 25.3247 38.3943 25.6753 38.3943 26.1039C38.3943 26.5325 38.2962 26.8831 38.1762 26.8831C38.0562 26.8831 37.958 27.1461 37.958 27.4675C37.958 27.789 38.0562 28.0519 38.1762 28.0519C38.2962 28.0519 38.3943 27.8766 38.3943 27.6623C38.3943 27.4481 38.4925 27.2727 38.6125 27.2727C38.7325 27.2727 38.8306 26.8344 38.8306 26.2987C38.8306 25.763 38.9288 25.3247 39.0488 25.3247C39.1688 25.3247 39.2669 24.974 39.2669 24.5455C39.2669 24.1169 39.1688 23.7662 39.0488 23.7662C38.9288 23.7662 38.8306 24.1169 38.8306 24.5455ZM40.5758 24.9351V26.1039H42.321C43.3391 26.1039 44.0662 26.0227 44.0662 25.9091C44.0662 25.7979 43.4118 25.7143 42.5392 25.7143H41.0121V24.9351V24.1558H42.7573C43.7754 24.1558 44.5025 24.0746 44.5025 23.961C44.5025 23.8455 43.7026 23.7662 42.5392 23.7662H40.5758V24.9351ZM45.8114 23.961C45.8114 24.0682 46.1059 24.1558 46.4659 24.1558C47.0477 24.1558 47.1203 24.2207 47.1203 24.7403C47.1203 25.0617 47.0222 25.3247 46.9022 25.3247C46.7809 25.3247 46.684 25.8442 46.684 26.4935C46.684 27.1428 46.7809 27.6623 46.9022 27.6623C47.0222 27.6623 47.1203 27.224 47.1203 26.6883C47.1203 26.1526 47.2185 25.7143 47.3385 25.7143C47.4585 25.7143 47.5566 25.3636 47.5566 24.9351V24.1558H48.4292C48.9092 24.1558 49.3018 24.0682 49.3018 23.961C49.3018 23.8475 48.5747 23.7662 47.5566 23.7662C46.5385 23.7662 45.8114 23.8475 45.8114 23.961ZM50.1744 25.5195C50.1744 26.5584 50.2632 27.2727 50.3926 27.2727C50.5125 27.2727 50.6107 27.4481 50.6107 27.6623C50.6107 27.922 50.7562 28.0519 51.047 28.0519C51.3378 28.0519 51.4833 27.922 51.4833 27.6623C51.4833 27.4481 51.5815 27.2727 51.7015 27.2727C51.8214 27.2727 51.9196 27.0974 51.9196 26.8831C51.9196 26.6688 52.0178 26.4935 52.1378 26.4935C52.2577 26.4935 52.3559 26.3182 52.3559 26.1039C52.3559 25.8896 52.4541 25.7143 52.5741 25.7143C52.694 25.7143 52.7922 25.539 52.7922 25.3247C52.7922 24.8632 52.9305 24.8359 53.3531 25.2134C53.5601 25.3981 53.6648 25.9221 53.6648 26.7719C53.6648 27.8057 53.7307 28.0519 54.0075 28.0519C54.1962 28.0519 54.4907 27.9267 54.662 27.7736C54.8334 27.6206 54.9737 27.3577 54.9737 27.1892C54.9737 27.0208 55.0719 26.8831 55.1919 26.8831C55.3118 26.8831 55.41 26.7078 55.41 26.4935C55.41 26.2792 55.5082 26.1039 55.6282 26.1039C55.7481 26.1039 55.8463 25.9286 55.8463 25.7143C55.8463 25.5 55.9445 25.3247 56.0645 25.3247C56.1844 25.3247 56.2826 25.1494 56.2826 24.9351C56.2826 24.7208 56.3808 24.5455 56.5008 24.5455C56.6207 24.5455 56.7189 24.3701 56.7189 24.1558C56.7189 23.9416 56.6628 23.7662 56.5943 23.7662C56.3382 23.7662 55.8463 24.3337 55.8463 24.629C55.8463 24.7973 55.7481 24.9351 55.6282 24.9351C55.5082 24.9351 55.41 25.1104 55.41 25.3247C55.41 25.539 55.3118 25.7143 55.1919 25.7143C55.0719 25.7143 54.9737 25.852 54.9737 26.0203C54.9737 26.3156 54.4818 26.8831 54.2257 26.8831C54.1572 26.8831 54.1011 26.4448 54.1011 25.9091C54.1011 25.3734 54.0029 24.9351 53.883 24.9351C53.763 24.9351 53.6648 24.7597 53.6648 24.5455C53.6648 24.3312 53.763 24.1558 53.883 24.1558C54.0029 24.1558 54.1011 24.0682 54.1011 23.961C54.1011 23.6718 53.4613 23.7253 53.104 24.0446C52.9325 24.1975 52.7922 24.4605 52.7922 24.629C52.7922 24.7973 52.694 24.9351 52.5741 24.9351C52.4541 24.9351 52.3559 25.1104 52.3559 25.3247C52.3559 25.539 52.2577 25.7143 52.1378 25.7143C52.0178 25.7143 51.9196 25.8497 51.9196 26.0153C51.9196 26.2958 50.9951 27.2727 50.7296 27.2727C50.6642 27.2727 50.6107 26.4838 50.6107 25.5195C50.6107 24.4806 50.5219 23.7662 50.3926 23.7662C50.2632 23.7662 50.1744 24.4806 50.1744 25.5195ZM57.8642 24.4558C57.2394 25.0401 57.1552 25.2466 57.1552 26.1958C57.1552 26.7881 57.2534 27.2727 57.3734 27.2727C57.4933 27.2727 57.5915 27.4481 57.5915 27.6623C57.5915 27.922 57.737 28.0519 58.0278 28.0519C58.2678 28.0519 58.4641 28.1396 58.4641 28.2468C58.4641 28.3539 58.7586 28.4416 59.1186 28.4416C59.4785 28.4416 59.773 28.3539 59.773 28.2468C59.773 28.1396 59.5232 28.0519 59.2178 28.0519C58.304 28.0519 57.5915 27.2449 57.5915 26.2101C57.5915 25.7231 57.6897 25.3247 57.8097 25.3247C57.9296 25.3247 58.0278 25.1869 58.0278 25.0186C58.0278 24.6249 58.5531 24.1558 58.994 24.1558C59.1825 24.1558 59.3367 24.0682 59.3367 23.961C59.3367 23.5535 58.5448 23.8196 57.8642 24.4558ZM60.2093 23.961C60.2093 24.0682 60.4056 24.1558 60.6456 24.1558C60.9364 24.1558 61.0819 24.2858 61.0819 24.5455C61.0819 24.7597 61.1801 24.9351 61.3001 24.9351C61.42 24.9351 61.5182 25.2857 61.5182 25.7143C61.5182 26.1429 61.42 26.4935 61.3001 26.4935C61.1801 26.4935 61.0819 26.6367 61.0819 26.8116C61.0819 26.9866 60.8699 27.294 60.6107 27.4946C60.3513 27.6955 60.1975 27.9117 60.2689 27.9752C60.3402 28.0389 60.7486 27.7782 61.1764 27.396C61.8642 26.782 61.9545 26.5864 61.9545 25.7119C61.9545 24.9212 61.847 24.6265 61.4189 24.2445C60.8768 23.7604 60.2093 23.604 60.2093 23.961ZM63.6997 24.3506C63.6997 24.6721 63.6015 24.9351 63.4815 24.9351C63.3616 24.9351 63.2634 25.2857 63.2634 25.7143C63.2634 26.1429 63.3616 26.4935 63.4815 26.4935C63.6015 26.4935 63.6997 26.4058 63.6997 26.2987C63.6997 26.0149 65.3853 26.0597 65.5359 26.3474C65.6375 26.5422 65.6886 26.5422 65.7902 26.3474C65.8603 26.2136 66.0612 26.1039 66.2366 26.1039C66.7143 26.1039 67.6264 25.2058 67.6264 24.7352C67.6264 23.9815 67.1212 23.7662 65.3513 23.7662H63.6997V24.3506ZM68.9353 24.9351C68.9353 25.5843 68.8384 26.1039 68.7171 26.1039C68.5972 26.1039 68.499 26.4545 68.499 26.8831C68.499 27.3117 68.4008 27.6623 68.2808 27.6623C68.1609 27.6623 68.0627 27.8377 68.0627 28.0519C68.0627 28.2662 68.1609 28.4416 68.2808 28.4416C68.4008 28.4416 68.499 28.2662 68.499 28.0519C68.499 27.8377 68.5972 27.6623 68.7171 27.6623C68.8371 27.6623 68.9353 27.4369 68.9353 27.1615C68.9353 26.5223 69.4039 26.1039 70.1196 26.1039C70.535 26.1039 70.6805 26.205 70.6805 26.4935C70.6805 26.7078 70.7787 26.8831 70.8986 26.8831C71.0186 26.8831 71.1168 27.0208 71.1168 27.1892C71.1168 27.4845 71.6087 28.0519 71.8648 28.0519C72.1759 28.0519 71.9449 27.3302 71.5531 27.0779C71.3131 26.9234 71.1168 26.6412 71.1168 26.4505C71.1168 26.2599 71.0186 26.1039 70.8986 26.1039C70.7787 26.1039 70.6805 25.9695 70.6805 25.8053C70.6805 25.4174 72.0932 24.1558 72.5276 24.1558C72.7115 24.1558 72.862 24.0682 72.862 23.961C72.862 23.6166 72.0961 23.7534 71.7712 24.1558C71.5982 24.3701 71.3214 24.5455 71.1561 24.5455C70.9909 24.5455 70.5804 24.8084 70.2442 25.1299C69.908 25.4513 69.574 25.7143 69.5023 25.7143C69.4303 25.7143 69.3716 25.3636 69.3716 24.9351C69.3716 24.5065 69.4698 24.1558 69.5897 24.1558C69.7097 24.1558 69.8079 24.0682 69.8079 23.961C69.8079 23.8539 69.6116 23.7662 69.3716 23.7662C68.9837 23.7662 68.9353 23.8962 68.9353 24.9351ZM76.3995 24.2649L75.901 24.7399L76.6648 25.4219C77.0849 25.7971 77.5345 26.1039 77.6639 26.1039C78.0548 26.1039 79.1006 27.1366 78.8004 27.2258C78.5402 27.3033 78.4115 28.0519 78.6584 28.0519C78.9534 28.0519 79.4065 27.4619 79.4065 27.0779C79.4065 26.5876 78.9268 26.1039 78.4403 26.1039C78.2518 26.1039 78.0976 26.0162 78.0976 25.9091C78.0976 25.8019 77.9433 25.7143 77.7549 25.7143C77.2398 25.7143 76.7887 25.2205 76.7887 24.6567C76.7887 24.1909 76.8594 24.1558 77.7994 24.1558C78.5633 24.1558 78.9097 24.2585 79.2186 24.5766C79.4436 24.8082 79.6864 24.945 79.7581 24.8807C79.8301 24.8164 79.6377 24.5394 79.3306 24.2651C78.564 23.5806 77.1176 23.5806 76.3995 24.2649ZM81.1517 24.9351C81.1517 25.5843 81.0548 26.1039 80.9335 26.1039C80.5939 26.1039 80.673 27.8472 81.0271 28.1632C81.3903 28.4877 84.2058 28.5616 84.2058 28.2468C84.2058 28.1355 83.5513 28.0519 82.6787 28.0519H81.1517V27.0779V26.1039H82.8969C83.915 26.1039 84.6421 26.0227 84.6421 25.9091C84.6421 25.7979 83.9876 25.7143 83.115 25.7143H81.588V24.9351V24.1558H83.3332C84.3513 24.1558 85.0784 24.0746 85.0784 23.961C85.0784 23.8455 84.2784 23.7662 83.115 23.7662H81.1517V24.9351ZM86.3873 24.5455C86.3873 24.974 86.2891 25.3247 86.1691 25.3247C86.0491 25.3247 85.951 25.6753 85.951 26.1039C85.951 26.5325 85.8528 26.8831 85.7328 26.8831C85.6128 26.8831 85.5147 27.1461 85.5147 27.4675C85.5147 27.789 85.6128 28.0519 85.7328 28.0519C85.8528 28.0519 85.951 27.789 85.951 27.4675C85.951 27.1461 86.0491 26.8831 86.1691 26.8831C86.2891 26.8831 86.3873 26.7078 86.3873 26.4935C86.3873 26.1766 86.5328 26.1039 87.1663 26.1039C87.9913 26.1039 88.5688 26.459 88.5688 26.9667C88.5688 27.135 88.6669 27.2727 88.7869 27.2727C88.9069 27.2727 89.0051 27.4105 89.0051 27.5788C89.0051 27.9645 89.6285 28.5378 89.8336 28.3406C89.9178 28.2596 89.8641 28.1542 89.714 28.1065C89.5642 28.0586 89.4414 27.8515 89.4414 27.6462C89.4414 27.4408 89.3432 27.2727 89.2232 27.2727C88.8921 27.2727 88.9625 26.3088 89.3168 25.9927C89.488 25.8395 89.7825 25.7143 89.9712 25.7143C90.2188 25.7143 90.314 25.5212 90.314 25.0186C90.314 23.9694 89.9448 23.7662 88.0389 23.7662H86.3873V24.5455ZM91.6228 24.5455C91.6228 24.974 91.721 25.3247 91.841 25.3247C91.961 25.3247 92.0592 25.763 92.0592 26.2987C92.0592 26.8344 92.1573 27.2727 92.2773 27.2727C92.3973 27.2727 92.4955 26.8344 92.4955 26.2987C92.4955 25.763 92.3973 25.3247 92.2773 25.3247C92.1573 25.3247 92.0592 24.974 92.0592 24.5455C92.0592 24.1169 91.961 23.7662 91.841 23.7662C91.721 23.7662 91.6228 24.1169 91.6228 24.5455ZM95.1132 24.1558C95.1132 24.3701 95.0151 24.5455 94.8951 24.5455C94.7751 24.5455 94.6769 24.7208 94.6769 24.9351C94.6769 25.1494 94.5788 25.3247 94.4588 25.3247C94.3388 25.3247 94.2406 25.5 94.2406 25.7143C94.2406 25.9286 94.1425 26.1039 94.0225 26.1039C93.9025 26.1039 93.8044 26.244 93.8044 26.4154C93.8044 26.5866 93.5098 26.9725 93.1499 27.2727C92.4102 27.8899 92.3454 28.0519 92.8382 28.0519C93.279 28.0519 93.8044 27.5829 93.8044 27.1892C93.8044 27.0208 93.9025 26.8831 94.0225 26.8831C94.1425 26.8831 94.2406 26.7078 94.2406 26.4935C94.2406 26.2792 94.3388 26.1039 94.4588 26.1039C94.5788 26.1039 94.6769 25.9286 94.6769 25.7143C94.6769 25.5 94.7751 25.3247 94.8951 25.3247C95.0151 25.3247 95.1132 25.1686 95.1132 24.9781C95.1132 24.7874 95.3096 24.5051 95.5495 24.3506C95.7895 24.1962 95.9858 24.0016 95.9858 23.918C95.9858 23.8346 95.7895 23.7662 95.5495 23.7662C95.2588 23.7662 95.1132 23.8962 95.1132 24.1558ZM96.8584 24.7403C96.8584 25.276 96.7603 25.7143 96.6403 25.7143C96.519 25.7143 96.4221 26.2338 96.4221 26.8831C96.4221 27.5324 96.519 28.0519 96.6403 28.0519C96.7603 28.0519 96.8584 27.6136 96.8584 27.0779C96.8584 26.5422 96.9566 26.1039 97.0766 26.1039C97.1966 26.1039 97.2947 25.6656 97.2947 25.1299C97.2947 24.5942 97.3929 24.1558 97.5129 24.1558C97.6329 24.1558 97.731 24.0682 97.731 23.961C97.731 23.8539 97.5347 23.7662 97.2947 23.7662C96.9167 23.7662 96.8584 23.8962 96.8584 24.7403ZM99.9125 23.961C99.9125 24.0682 99.7162 24.1558 99.4762 24.1558C99.1854 24.1558 99.0399 24.2858 99.0399 24.5455C99.0399 24.7597 98.9418 24.9351 98.8218 24.9351C98.6985 24.9351 98.6036 25.4899 98.6036 26.2101C98.6036 27.3043 98.6796 27.5531 99.1392 27.9633C99.6837 28.4497 101.221 28.659 101.221 28.2468C101.221 28.1396 101.376 28.0519 101.564 28.0519C102.005 28.0519 102.53 27.5829 102.53 27.1892C102.53 26.7491 102.349 26.8069 101.658 27.4675C100.98 28.1156 99.8957 28.2596 99.3517 27.7736C98.9928 27.4533 98.9114 25.3247 99.2581 25.3247C99.3781 25.3247 99.4762 25.1869 99.4762 25.0186C99.4762 24.1397 101.687 23.7707 102.312 24.5455C102.69 25.013 102.967 25.0482 102.967 24.629C102.967 24.0421 102.379 23.7662 101.128 23.7662C100.459 23.7662 99.9125 23.8539 99.9125 23.961ZM104.712 24.1558C104.712 24.3701 104.614 24.5455 104.494 24.5455C104.374 24.5455 104.276 24.9838 104.276 25.5195C104.276 26.0552 104.177 26.4935 104.057 26.4935C103.723 26.4935 103.798 27.8486 104.151 28.1632C104.514 28.4877 107.33 28.5616 107.33 28.2468C107.33 28.1355 106.675 28.0519 105.803 28.0519H104.276V27.3563C104.276 26.3384 104.661 26.1039 106.332 26.1039C107.143 26.1039 107.766 26.0192 107.766 25.9091C107.766 25.7979 107.111 25.7143 106.239 25.7143C104.744 25.7143 104.712 25.7038 104.712 25.2134C104.712 24.3964 105.18 24.1558 106.769 24.1558C107.579 24.1558 108.202 24.0711 108.202 23.961C108.202 23.8475 107.475 23.7662 106.457 23.7662C104.857 23.7662 104.712 23.7988 104.712 24.1558ZM109.784 24.0577C109.634 24.2098 109.511 24.5172 109.511 24.7408C109.511 25.2152 110.429 26.1039 110.919 26.1039C111.105 26.1039 111.256 26.1916 111.256 26.2987C111.256 26.4058 111.453 26.4935 111.693 26.4935C112.016 26.4935 112.129 26.6234 112.129 26.9944C112.129 28.1673 110.543 28.4538 109.511 27.4675C108.82 26.8069 108.639 26.7491 108.639 27.1892C108.639 27.5829 109.164 28.0519 109.605 28.0519C109.793 28.0519 109.947 28.1396 109.947 28.2468C109.947 28.3539 110.34 28.4416 110.82 28.4416C111.3 28.4416 111.693 28.3539 111.693 28.2468C111.693 28.1396 111.889 28.0519 112.129 28.0519C112.483 28.0519 112.565 27.922 112.565 27.3614C112.565 26.6229 111.788 25.7143 111.157 25.7143C110.972 25.7143 110.82 25.6266 110.82 25.5195C110.82 25.4123 110.624 25.3247 110.384 25.3247C109.873 25.3247 109.805 24.8396 110.259 24.4342C110.729 24.0148 111.972 24.0812 112.347 24.5455C112.52 24.7597 112.738 24.9351 112.832 24.9351C113.116 24.9351 113.021 24.3405 112.69 24.0446C112.274 23.6733 110.153 23.6831 109.784 24.0577ZM66.9311 24.4812C67.196 24.7177 67.2215 24.8283 67.0245 24.8869C66.8755 24.9314 66.7538 25.1355 66.7538 25.3408C66.7538 25.6734 66.5863 25.7143 65.2267 25.7143C63.8452 25.7143 63.6997 25.6773 63.6997 25.3247C63.6997 25.1104 63.7979 24.9351 63.9178 24.9351C64.0378 24.9351 64.136 24.7597 64.136 24.5455C64.136 24.2024 64.2815 24.1558 65.3513 24.1558C66.1958 24.1558 66.6781 24.2552 66.9311 24.4812ZM89.8777 24.6567C89.8777 25.4737 89.4099 25.7143 87.8207 25.7143C87.0105 25.7143 86.3873 25.6295 86.3873 25.5195C86.3873 25.4123 86.4854 25.3247 86.6054 25.3247C86.7254 25.3247 86.8236 25.0617 86.8236 24.7403V24.1558H88.3506C89.8454 24.1558 89.8777 24.1664 89.8777 24.6567ZM34.9039 26.1039C34.9039 26.5325 34.8058 26.8831 34.6858 26.8831C34.5658 26.8831 34.4676 27.1461 34.4676 27.4675C34.4676 27.789 34.5658 28.0519 34.6858 28.0519C34.8058 28.0519 34.9039 27.8766 34.9039 27.6623C34.9039 27.4481 35.0021 27.2727 35.1221 27.2727C35.2421 27.2727 35.3402 26.8344 35.3402 26.2987C35.3402 25.763 35.2421 25.3247 35.1221 25.3247C35.0021 25.3247 34.9039 25.6753 34.9039 26.1039ZM40.1395 27.1892C40.1395 28.207 40.5248 28.4416 42.1965 28.4416C43.0067 28.4416 43.6299 28.3568 43.6299 28.2468C43.6299 28.1355 42.9755 28.0519 42.1029 28.0519H40.5758V27.2727C40.5758 26.8442 40.4777 26.4935 40.3577 26.4935C40.2377 26.4935 40.1395 26.8066 40.1395 27.1892ZM62.8271 27.4675C62.8271 27.789 62.9253 28.0519 63.0452 28.0519C63.1652 28.0519 63.2634 27.789 63.2634 27.4675C63.2634 27.1461 63.1652 26.8831 63.0452 26.8831C62.9253 26.8831 62.8271 27.1461 62.8271 27.4675ZM65.8812 27.0779C65.8812 27.1851 65.9794 27.2727 66.0993 27.2727C66.2193 27.2727 66.3175 27.4481 66.3175 27.6623C66.3175 27.8766 66.4157 28.0519 66.5356 28.0519C66.8596 28.0519 66.7996 27.4806 66.4421 27.1615C66.0767 26.835 65.8812 26.806 65.8812 27.0779ZM75.4798 27.1892C75.4798 27.5749 76.1033 28.1482 76.3083 27.951C76.3925 27.87 76.3389 27.7646 76.1888 27.7169C76.0389 27.669 75.9161 27.4619 75.9161 27.2566C75.9161 27.0512 75.8179 26.8831 75.6979 26.8831C75.5779 26.8831 75.4798 27.0208 75.4798 27.1892ZM76.7887 28.2468C76.7887 28.3539 77.0832 28.4416 77.4431 28.4416C77.8031 28.4416 78.0976 28.3539 78.0976 28.2468C78.0976 28.1396 77.8031 28.0519 77.4431 28.0519C77.0832 28.0519 76.7887 28.1396 76.7887 28.2468Z" fill="#625E60" stroke="#625E60" stroke-width="2" mask="url(#path-1-inside-1)"/>
</svg>
