<svg width="113" height="22" viewBox="0 0 113 22" fill="none" xmlns="http://www.w3.org/2000/svg">
<path d="M25.1659 0.217708C25.1282 0.34375 25.0152 0.469792 24.9147 0.504167C24.7515 0.561458 24.7264 1.67292 24.7264 8.68542V16.8094L25.0278 17.0615L25.3291 17.325L28.958 17.2677C32.6246 17.2104 33.0264 17.1646 34.4829 16.6833C37.1952 15.7781 39.4805 13.4177 40.259 10.7135C40.5604 9.625 40.5604 7.78021 40.2465 6.70313C39.7316 4.91563 38.5513 3.23125 37.0696 2.14271C35.8767 1.28333 34.1439 0.538542 32.9887 0.401042C32.5869 0.355208 32.386 0.275 32.386 0.160417C32.386 0.0229167 31.8335 0 28.8199 0C25.417 0 25.2412 0.0114583 25.1659 0.217708ZM32.7125 3.39167C34.1188 3.81563 35.161 4.44583 35.8893 5.31667C36.8813 6.53125 37.145 7.24167 37.1575 8.76562C37.1575 9.92292 37.032 10.3927 36.4543 11.4583C36.1781 11.974 34.5708 13.4063 34.0183 13.6469C32.612 14.2542 32.5618 14.2542 30.3267 14.2656H28.1795L28.1418 8.88021C28.1293 5.9125 28.1418 3.42604 28.1795 3.34583C28.2674 3.12813 31.9088 3.15104 32.7125 3.39167ZM5.89134 0.664583C4.99981 1.1 5.01237 0.951041 5.01237 7.68854C5.01237 11.7333 5.06259 13.8302 5.15049 14.0708C5.32629 14.5406 5.96668 14.8958 6.64474 14.8958C7.34791 14.8958 7.96319 14.4833 8.15154 13.8875C8.252 13.601 8.27711 11.55 8.252 7.44792C8.21433 1.63854 8.20177 1.42083 7.96319 1.12292C7.67439 0.779167 7.02144 0.458333 6.60707 0.458333C6.45639 0.458333 6.12991 0.55 5.89134 0.664583ZM42.5318 0.89375C42.0421 1.31771 42.017 1.375 42.0044 2.02813C41.9919 2.49792 42.0672 2.80729 42.2179 3.025C42.9964 4.10208 44.8548 4.01042 45.4701 2.86458C45.8719 2.10833 45.6459 1.27188 44.905 0.75625C44.566 0.515625 44.34 0.458333 43.7623 0.458333C43.1094 0.458333 43.0089 0.492708 42.5318 0.89375ZM63.4261 0.55C63.3382 0.607292 63.2127 0.825 63.1499 1.04271C62.9867 1.56979 62.9867 16.6146 63.1499 17.0042C63.2629 17.3021 63.288 17.3021 64.5186 17.3021C65.4854 17.3021 65.8119 17.2563 65.9626 17.1188C66.1384 16.9583 66.1635 16.076 66.1384 8.73125L66.1007 0.515625L64.845 0.48125C64.1544 0.469792 63.514 0.504167 63.4261 0.55ZM109.873 0.698958C109.622 0.951042 109.61 1.07708 109.61 3.46042C109.61 6.26771 109.61 6.26771 108.768 5.86667C107.048 5.03021 104.687 4.96146 103.005 5.67188C101.925 6.14167 101.372 6.54271 100.33 7.66563C99.9285 8.08958 99.376 9.25833 99.1876 10.0375C98.9365 11.1719 99.1374 12.9479 99.6145 13.8646C100.092 14.7698 100.268 14.9875 101.059 15.7094C102.076 16.649 103.294 17.199 104.775 17.4167C105.642 17.5312 105.931 17.5313 106.835 17.3708C107.412 17.2677 108.203 17.0385 108.593 16.8667C109.308 16.5344 109.61 16.5115 109.61 16.7865C109.61 17.176 109.986 17.3021 111.179 17.3021C112.259 17.3021 112.372 17.2792 112.548 17.05C112.724 16.8208 112.749 15.8469 112.749 8.78854C112.749 3.48333 112.787 0.813542 112.874 0.859375C112.95 0.89375 113 0.859375 113 0.767708C113 0.572917 112.962 0.561458 111.405 0.492708C110.212 0.446875 110.125 0.458333 109.873 0.698958ZM107.94 8.43333C109.296 9.25833 109.936 10.5875 109.622 11.951C109.195 13.8417 107.224 15.0677 105.202 14.6781C104.336 14.5177 103.984 14.3573 103.294 13.7615C102.716 13.2688 102.415 12.7646 102.201 11.9281C101.887 10.6906 102.578 9.22396 103.846 8.45625C104.675 7.95208 104.876 7.91771 106.182 7.96354C107.136 7.98646 107.262 8.03229 107.94 8.43333ZM10.9266 3.1625C10.3364 3.39167 10.0602 3.72396 9.97226 4.27396C9.93459 4.5375 9.90948 7.425 9.93459 10.6792L9.97226 16.6146L10.3866 16.9813C10.7508 17.325 10.8638 17.3594 11.5419 17.3594C12.2199 17.3594 12.3329 17.325 12.6971 16.9813L13.1114 16.6146L13.1491 10.6792C13.1742 7.425 13.1491 4.5375 13.1114 4.28542C13.0235 3.7125 12.6343 3.28854 12.0567 3.10521C11.5167 2.94479 11.454 2.94479 10.9266 3.1625ZM0.994224 5.23646C0.692863 5.33958 0.378945 5.62604 0.178038 5.99271C0.0273576 6.26771 -0.0103125 6.81771 0.00224422 8.63958C0.0148009 11.2635 0.0650277 11.4354 0.981667 11.9052C1.47138 12.1458 1.57183 12.1573 2.02387 12.0427C2.30012 11.9625 2.68938 11.7333 2.89029 11.5385L3.25443 11.1833V8.59375C3.24187 6.10729 3.24187 6.00417 2.96563 5.70625C2.5387 5.23646 1.63462 5.01875 0.994224 5.23646ZM52.4767 5.25938C51.1331 5.44271 49.7645 6.13021 48.7976 7.10417C46.0351 9.9 46.4495 14.025 49.7268 16.2938C50.6058 16.8896 51.2964 17.1646 52.5395 17.3823C53.8579 17.6115 55.1638 17.451 56.4321 16.8781C57.2482 16.5229 57.3236 16.5115 57.4617 16.6948C57.5496 16.7979 57.625 16.9469 57.625 17.0271C57.625 17.2448 57.9514 17.3021 59.1945 17.3021C60.2367 17.3021 60.4 17.2792 60.513 17.0729C60.6009 16.924 60.626 14.9302 60.6134 11.0917L60.5758 5.32812H57.9389L57.6501 5.75208L57.3487 6.16458L56.4823 5.76354C55.3271 5.23646 53.9709 5.06458 52.4767 5.25938ZM55.5154 8.20417C56.1307 8.51354 56.9594 9.26979 57.2734 9.79688C57.4994 10.175 57.5496 10.4385 57.5496 11.3438C57.5496 12.3865 57.537 12.4552 57.1352 13.0396C56.0428 14.6208 53.9961 15.1823 52.1879 14.3917C51.108 13.9219 50.4927 13.2115 50.1663 12.0198C49.9905 11.3552 49.9905 11.2063 50.1537 10.6219C50.5053 9.36146 51.5977 8.28438 52.7906 8.00938C53.4185 7.84896 55.0508 7.975 55.5154 8.20417ZM68.9511 5.29375C68.8381 5.39688 68.8004 7.37917 68.8004 13.5323C68.8004 17.9896 68.8381 21.7135 68.8757 21.8167C68.9385 21.9656 69.1646 22 70.1063 22C71.1611 22 71.2992 21.9771 71.5378 21.7365C71.8015 21.4844 71.814 21.3813 71.814 19.0094C71.814 17.6458 71.8517 16.5115 71.8894 16.4771C71.927 16.4427 72.3916 16.5917 72.919 16.8094C76.2591 18.2302 79.9382 17.0844 81.7087 14.0938C82.6128 12.5583 82.6128 10.0604 81.6836 8.42188C81.0306 7.26458 79.2727 5.87813 77.904 5.46563C76.347 4.99583 74.3881 5.12188 72.919 5.775C72.4293 5.99271 71.9773 6.15313 71.9396 6.13021C71.8894 6.09583 71.814 5.93542 71.7764 5.75208C71.7261 5.55729 71.5754 5.37396 71.3745 5.29375C70.9476 5.11042 69.152 5.11042 68.9511 5.29375ZM77.3139 8.26146C77.9668 8.55938 78.8081 9.43021 79.1095 10.1063C79.6996 11.424 79.1722 13.1198 77.904 13.9906C76.1586 15.1938 73.9612 14.9875 72.6679 13.4979C72.0024 12.7188 71.814 12.249 71.814 11.275C71.814 10.5875 71.8768 10.3125 72.1279 9.85417C72.6302 8.94896 73.5468 8.23854 74.5137 8.00938C75.1792 7.84896 76.7237 7.98646 77.3139 8.26146ZM89.205 5.27083C88.4768 5.3625 87.1834 5.88958 86.4174 6.40521C85.8022 6.81771 84.8228 7.89479 84.5465 8.47917C83.9815 9.65938 83.8684 10.1406 83.8684 11.2979C83.8684 12.9479 84.3079 14.1052 85.4004 15.3083C86.8193 16.8781 89.3432 17.7604 91.4401 17.4167C92.294 17.2792 92.9846 17.0729 93.4115 16.8323C94.077 16.4656 94.4161 16.4656 94.4161 16.8323C94.4161 16.9354 94.4789 17.0844 94.5668 17.1646C94.7677 17.3479 97.0781 17.3479 97.279 17.1646C97.392 17.0615 97.4297 15.5719 97.4297 11.149V5.25938L96.0861 5.29375L94.73 5.32812L94.504 5.72917C94.2528 6.1875 94.2905 6.1875 93.1855 5.71771C92.0052 5.21354 90.7119 5.06458 89.205 5.27083ZM92.4949 8.28438C93.8259 9.05208 94.4161 9.98021 94.4161 11.2865C94.4161 12.2833 94.1524 12.9365 93.4618 13.6354C91.9424 15.1594 89.5441 15.1479 87.8489 13.601C87.7108 13.475 87.4471 13.0854 87.2462 12.7188C86.2668 10.8969 87.4471 8.55938 89.6445 7.99792C89.8203 7.95208 90.4105 7.94063 90.9755 7.95208C91.8043 7.98646 92.0805 8.04375 92.4949 8.28438ZM42.5067 5.52292C42.3309 5.75208 42.3058 6.48542 42.3058 11.2865C42.3058 16.0875 42.3309 16.8208 42.5067 17.05C42.6825 17.2792 42.808 17.3021 43.8 17.3021C44.7041 17.3021 44.9427 17.2677 45.1059 17.0958C45.2943 16.901 45.3194 16.3281 45.3194 11.2635C45.3194 4.675 45.4701 5.27083 43.7749 5.27083C42.808 5.27083 42.6825 5.29375 42.5067 5.52292ZM16.0497 5.92396C15.8739 5.94688 15.5349 6.15313 15.2963 6.37083L14.8694 6.77188L14.8317 9.08646C14.7815 11.7792 14.8568 12.1229 15.5349 12.5469C16.125 12.9135 16.7654 12.925 17.3305 12.5698C18.0839 12.1115 18.1341 11.8938 18.1341 9.33854C18.1341 6.86354 18.0713 6.57708 17.4435 6.17604C17.1045 5.95833 16.552 5.86667 16.0497 5.92396Z" fill="#625E60"/>
</svg>
