<svg width="377" height="289" viewBox="0 0 377 289" fill="none" xmlns="http://www.w3.org/2000/svg">
<path d="M104.333 0H85.6667C84.429 0 83.242 0.431963 82.3668 1.20086C81.4917 1.96976 81 3.01261 81 4.1V36.9C81 37.9874 81.4917 39.0302 82.3668 39.7991C83.242 40.568 84.429 41 85.6667 41H104.333C105.571 41 106.758 40.568 107.633 39.7991C108.508 39.0302 109 37.9874 109 36.9V4.1C109 3.01261 108.508 1.96976 107.633 1.20086C106.758 0.431963 105.571 0 104.333 0ZM97.3333 38.95H92.6667V36.9H97.3333V38.95ZM104.333 34.85H85.6667V6.15H104.333V34.85Z" fill="#4A4A4A"/>
<path d="M182.625 32.4583H158.25V5.125H182.625V32.4583ZM170.438 39.2917C169.791 39.2917 169.171 39.0217 168.714 38.5411C168.257 38.0606 168 37.4088 168 36.7292C168 36.0495 168.257 35.3978 168.714 34.9172C169.171 34.4366 169.791 34.1667 170.438 34.1667C171.084 34.1667 171.704 34.4366 172.161 34.9172C172.618 35.3978 172.875 36.0495 172.875 36.7292C172.875 37.4088 172.618 38.0606 172.161 38.5411C171.704 39.0217 171.084 39.2917 170.438 39.2917ZM181.812 0H159.062C157.985 0 156.952 0.449961 156.19 1.2509C155.428 2.05183 155 3.13814 155 4.27083V36.7292C155 37.29 155.105 37.8454 155.309 38.3635C155.513 38.8817 155.813 39.3525 156.19 39.7491C156.567 40.1457 157.015 40.4603 157.508 40.6749C158.001 40.8895 158.529 41 159.062 41H181.812C182.346 41 182.874 40.8895 183.367 40.6749C183.86 40.4603 184.308 40.1457 184.685 39.7491C185.062 39.3525 185.362 38.8817 185.566 38.3635C185.77 37.8454 185.875 37.29 185.875 36.7292V4.27083C185.875 3.13814 185.447 2.05183 184.685 1.2509C183.923 0.449961 182.89 0 181.812 0Z" fill="#4A4A4A"/>
<path d="M282.5 34.125C285.112 34.125 287.25 31.9312 287.25 29.25V4.875C287.25 2.19375 285.112 0 282.5 0H244.5C241.887 0 239.75 2.19375 239.75 4.875V29.25C239.75 31.9312 241.887 34.125 244.5 34.125H235V39H292V34.125H282.5ZM244.5 4.875H282.5V29.25H244.5V4.875Z" fill="#4A4A4A"/>
<path d="M375.464 4H335.536C334.686 4 334 4.67272 334 5.50538V28.8387C334 29.6714 334.686 30.3441 335.536 30.3441H353.772V35.6129H345.518C345.096 35.6129 344.75 35.9516 344.75 36.3656V38.6237C344.75 38.8306 344.923 39 345.134 39H365.866C366.077 39 366.25 38.8306 366.25 38.6237V36.3656C366.25 35.9516 365.904 35.6129 365.482 35.6129H357.228V30.3441H375.464C376.314 30.3441 377 29.6714 377 28.8387V5.50538C377 4.67272 376.314 4 375.464 4ZM373.545 26.957H337.455V7.3871H373.545V26.957Z" fill="#4A4A4A"/>
<path d="M303.491 160.72L303.914 161.617L304.884 161.823C339.203 169.114 364 194.132 364 223.333C364 258.124 328.766 287 284.344 287H81.6556C37.2345 287 2 258.124 2 223.333C2 194.069 26.8747 169.05 61.2768 161.791L62.2489 161.585L62.6727 160.687C80.9855 121.863 127.85 94 183.082 94C238.312 94 285.178 121.895 303.491 160.72Z" stroke="#4A4A4A" stroke-width="4"/>
<path d="M202 191.417H162C159.25 191.417 157.025 193.404 157.025 195.833L157 235.583L167 226.75H202C204.75 226.75 207 224.762 207 222.333V195.833C207 193.404 204.75 191.417 202 191.417ZM192.95 215.046L187 210.85V215.708C187 216.923 185.875 217.917 184.5 217.917H169.5C168.125 217.917 167 216.923 167 215.708V202.458C167 201.244 168.125 200.25 169.5 200.25H184.5C185.875 200.25 187 201.244 187 202.458V207.317L192.95 203.121C193.317 202.862 193.759 202.7 194.226 202.654C194.692 202.608 195.164 202.679 195.587 202.858C196.01 203.038 196.367 203.32 196.617 203.671C196.867 204.022 197 204.428 197 204.843V213.323C197 215.178 194.575 216.194 192.95 215.046Z" fill="#4A4A4A"/>
<path d="M88.2083 218C92.2892 218 95.5588 214.985 95.5588 211.25L95.5833 197.75C95.5833 194.015 92.2892 191 88.2083 191C84.1275 191 80.8333 194.015 80.8333 197.75V211.25C80.8333 214.985 84.1275 218 88.2083 218ZM101.238 211.25C101.238 218 94.9933 222.725 88.2083 222.725C81.4233 222.725 75.1792 218 75.1792 211.25H71C71 218.945 77.6867 225.267 85.75 226.37V233.75H90.6667V226.37C98.73 225.29 105.417 218.945 105.417 211.25H101.238Z" fill="#4A4A4A"/>
<path d="M271.692 188C259.318 188 249 195.933 249 205.981C249 211.121 252.018 215.602 256.305 218.872C256.028 220.61 255.27 222.25 254.106 223.632C253.631 224.198 253.134 224.75 252.617 225.284C252.35 225.547 252.112 225.834 251.907 226.142C251.778 226.339 251.576 226.559 251.483 227.003C251.387 227.446 251.517 228.173 251.907 228.721L252.191 229.184L252.758 229.449C254.743 230.373 256.888 230.21 258.858 229.713C260.825 229.214 262.717 228.359 264.531 227.465C266.341 226.572 268.064 225.637 269.423 224.954C269.614 224.858 269.736 224.835 269.92 224.755C273.499 229.341 280.052 232.423 287.364 232.423C287.434 232.432 287.5 232.423 287.577 232.423C290.527 232.423 300.058 241.507 305.731 237.91C305.958 237.066 300.743 234.949 300.482 228.656C304.923 225.73 307.789 221.379 307.789 216.558C307.789 209.425 301.716 203.531 293.606 201.42C291.04 193.635 282.117 188 271.692 188ZM271.692 192.231C282.011 192.231 289.846 198.683 289.846 205.981C289.846 213.279 282.011 219.731 271.692 219.731C269.85 219.731 268.792 220.433 267.295 221.186C265.797 221.937 264.079 222.87 262.402 223.697C260.95 224.412 259.566 224.962 258.29 225.349C259.531 223.678 260.827 221.48 261.054 218.409L261.127 217.218L260.062 216.492C256.019 213.85 253.538 210.049 253.538 205.981C253.538 198.683 261.374 192.231 271.692 192.231Z" fill="#4A4A4A"/>
<rect x="25" y="44" width="1" height="134" fill="#4A4A4A"/>
<rect x="94" y="41" width="1" height="82" fill="#4A4A4A"/>
<rect x="170" y="41" width="1" height="53" fill="#4A4A4A"/>
<rect x="264" y="39" width="1" height="79" fill="#4A4A4A"/>
<rect x="355" y="39" width="1" height="157" fill="#4A4A4A"/>
<path fill-rule="evenodd" clip-rule="evenodd" d="M10.1991 38.9308C10.1991 40.346 9.03031 41.4933 7.58903 41.4933H5.60757C4.16874 41.4933 3 40.346 3 38.9308V6.6406C3 5.22786 4.1712 4.07812 5.60757 4.07812H7.58903C9.03277 4.07812 10.1991 5.22786 10.1991 6.6406V38.9308Z" fill="#4A4A4A"/>
<path fill-rule="evenodd" clip-rule="evenodd" d="M39.4582 4.00002H15.2805C14.6111 3.99735 13.9679 4.26559 13.492 4.74594C13.016 5.22628 12.7462 5.87954 12.7417 6.56249V38.8527C12.7417 40.2679 13.8785 41.4152 15.2805 41.4152H17.5493V36.3528H37.2951V41.4152H39.4582C40.8652 41.4152 41.9995 40.2679 41.9995 38.8527V6.56249C41.9995 5.14975 40.8652 4.00002 39.4582 4.00002ZM20.1077 34.111H17.5763V31.4734H20.1077V34.111ZM20.1077 29.1013H17.5763V26.4636H20.1077V29.1013ZM20.1077 24.0915H17.5763V21.494H20.1077V24.0915ZM25.0184 34.111H22.4869V31.4734H25.0184V34.111ZM25.0184 29.1013H22.4869V26.4261H25.0184V29.1013ZM25.0184 24.0915H22.4869V21.4539H25.0184V24.0915ZM29.9291 34.111H27.3976V31.5134H29.9291V34.111ZM29.9291 29.1013H27.3976V26.5037H29.9291V29.1013ZM29.9291 24.0915H27.3976V21.4163H29.9291V24.0915ZM37.3344 26.4812V29.1038H32.3083V26.4812H37.3344ZM32.3083 24.0915V21.4314H37.3344V24.0915H32.3083ZM37.3344 14.0971H17.5763V8.9321H37.3344V14.0971Z" fill="#4A4A4A"/>
<path fill-rule="evenodd" clip-rule="evenodd" d="M34.765 43.9995L34.7601 39.1226H20.1533L20.1582 43.9995H34.765Z" fill="#4A4A4A"/>
</svg>
