<svg width="472" height="474" viewBox="0 0 472 474" fill="none" xmlns="http://www.w3.org/2000/svg">
<path d="M423.555 460.949C423.555 467.878 331.331 473.494 217.566 473.494C103.8 473.494 11.5762 467.878 11.5762 460.949C11.5762 454.02 103.8 448.402 217.566 448.402C331.331 448.402 423.555 454.02 423.555 460.949Z" fill="#96C0D3"/>
<path d="M127.412 151.859C127.487 151.878 127.563 151.887 127.637 151.887C128.067 151.887 128.457 151.596 128.563 151.163C129.155 148.757 129.851 146.345 130.636 143.998C130.802 143.5 130.531 142.965 130.031 142.798C129.531 142.634 128.991 142.903 128.825 143.401C128.026 145.795 127.314 148.256 126.71 150.713C126.586 151.221 126.898 151.735 127.412 151.859" fill="#FF7B4D"/>
<path d="M125.172 166.746C125.197 166.749 125.222 166.749 125.247 166.749C125.739 166.749 126.157 166.372 126.197 165.874C126.392 163.402 126.689 160.911 127.081 158.472C127.164 157.953 126.81 157.467 126.29 157.384C125.768 157.3 125.281 157.654 125.198 158.172C124.798 160.661 124.493 163.202 124.295 165.727C124.253 166.248 124.646 166.706 125.172 166.746" fill="#FF7B4D"/>
<path d="M127.117 188.177C127.032 187.659 126.54 187.307 126.024 187.393C125.503 187.477 125.151 187.963 125.234 188.48C125.641 190.973 126.157 193.48 126.766 195.934C126.872 196.367 127.262 196.657 127.691 196.657C127.766 196.657 127.843 196.647 127.919 196.628C128.431 196.504 128.743 195.989 128.616 195.48C128.02 193.076 127.515 190.619 127.117 188.177" fill="#FF7B4D"/>
<path d="M130.706 202.639C130.54 202.143 130 201.873 129.499 202.042C129 202.208 128.731 202.745 128.898 203.242C129.705 205.637 130.62 208.028 131.617 210.348C131.771 210.708 132.124 210.923 132.494 210.923C132.62 210.923 132.746 210.9 132.869 210.847C133.353 210.642 133.578 210.084 133.37 209.602C132.394 207.33 131.498 204.987 130.706 202.639" fill="#FF7B4D"/>
<path d="M144.618 228.904C144.301 228.486 143.703 228.403 143.282 228.718C142.862 229.034 142.778 229.628 143.096 230.048C144.622 232.063 146.253 234.044 147.94 235.935C148.129 236.146 148.391 236.253 148.654 236.253C148.879 236.253 149.105 236.175 149.287 236.014C149.68 235.666 149.716 235.067 149.367 234.674C147.713 232.822 146.114 230.881 144.618 228.904" fill="#76D1D4"/>
<path d="M136.594 216.328C136.348 215.865 135.77 215.689 135.306 215.931C134.839 216.176 134.662 216.75 134.907 217.213C136.09 219.446 137.38 221.66 138.742 223.793C138.923 224.078 139.232 224.234 139.547 224.234C139.722 224.234 139.899 224.187 140.058 224.087C140.503 223.805 140.634 223.219 140.352 222.777C139.018 220.686 137.753 218.517 136.594 216.328Z" fill="#FF7B4D"/>
<path d="M125.342 181.798C125.867 181.756 126.258 181.297 126.216 180.776C126.015 178.315 125.913 175.807 125.909 173.325C125.909 172.801 125.481 172.378 124.956 172.378C124.956 172.378 124.956 172.378 124.955 172.378C124.429 172.378 124.001 172.803 124.002 173.327C124.006 175.859 124.111 178.417 124.314 180.929C124.355 181.425 124.772 181.801 125.264 181.801C125.29 181.801 125.317 181.799 125.342 181.798Z" fill="#FF7B4D"/>
<path d="M185.503 86.7112C185.615 86.7112 185.731 86.6922 185.842 86.6482C188.169 85.7664 190.56 84.9678 192.948 84.2774C193.453 84.1312 193.745 83.6036 193.596 83.1021C193.449 82.5983 192.919 82.3083 192.415 82.4557C189.978 83.1604 187.538 83.9756 185.162 84.8763C184.67 85.0629 184.424 85.6107 184.612 86.1003C184.756 86.4794 185.118 86.7112 185.503 86.7112Z" fill="#FF7B4D"/>
<path d="M171.853 93.1899C172.017 93.1899 172.181 93.1496 172.332 93.0616C174.483 91.821 176.713 90.6492 178.958 89.5833C179.433 89.3575 179.635 88.7918 179.408 88.3189C179.181 87.8459 178.611 87.6451 178.136 87.872C175.846 88.9594 173.57 90.1537 171.374 91.4217C170.919 91.6855 170.764 92.2654 171.029 92.7182C171.206 93.0212 171.525 93.1899 171.853 93.1899" fill="#FF7B4D"/>
<path d="M200.03 82.5068C200.095 82.5068 200.158 82.4997 200.222 82.4878C200.51 82.4284 200.801 82.3761 201.088 82.3191C201.372 81.5977 201.701 80.893 202.063 80.2062C201.319 80.3393 200.577 80.4783 199.84 80.628C199.324 80.7338 198.992 81.2341 199.097 81.7475C199.19 82.1967 199.587 82.5068 200.03 82.5068Z" fill="#76D1D4"/>
<path d="M132.036 137.52C132.157 137.571 132.283 137.595 132.407 137.595C132.779 137.595 133.131 137.379 133.287 137.018C134.26 134.74 135.34 132.471 136.497 130.275C136.741 129.811 136.561 129.237 136.095 128.995C135.632 128.753 135.052 128.931 134.809 129.394C133.627 131.634 132.524 133.951 131.531 136.276C131.325 136.757 131.551 137.315 132.036 137.52" fill="#FF7B4D"/>
<path d="M138.929 124.109C139.087 124.207 139.262 124.255 139.437 124.255C139.753 124.255 140.063 124.099 140.244 123.813C141.574 121.719 143.006 119.652 144.501 117.673C144.817 117.253 144.733 116.659 144.311 116.344C143.89 116.03 143.292 116.115 142.975 116.533C141.451 118.554 139.989 120.662 138.632 122.8C138.35 123.244 138.483 123.829 138.929 124.109" fill="#FF7B4D"/>
<path d="M148.523 112.212C148.787 112.212 149.048 112.104 149.238 111.892C150.888 110.036 152.632 108.224 154.424 106.507C154.804 106.144 154.815 105.543 154.449 105.166C154.085 104.79 153.48 104.779 153.102 105.141C151.273 106.893 149.493 108.741 147.808 110.636C147.46 111.029 147.497 111.627 147.892 111.974C148.074 112.134 148.298 112.212 148.523 112.212" fill="#FF7B4D"/>
<path d="M159.423 101.768C159.635 101.768 159.849 101.697 160.027 101.552C161.953 99.9815 163.966 98.4699 166.009 97.0605C166.442 96.761 166.549 96.1704 166.248 95.7402C165.948 95.31 165.353 95.2043 164.921 95.5014C162.836 96.9405 160.784 98.4817 158.818 100.085C158.41 100.418 158.351 101.014 158.684 101.421C158.874 101.649 159.146 101.768 159.423 101.768" fill="#FF7B4D"/>
<path d="M160.179 244.992C158.252 243.427 156.363 241.765 154.564 240.048C154.184 239.686 153.581 239.698 153.217 240.076C152.852 240.454 152.864 241.055 153.245 241.418C155.079 243.168 157.007 244.866 158.973 246.462C159.15 246.606 159.363 246.676 159.576 246.676C159.851 246.676 160.125 246.556 160.315 246.327C160.647 245.922 160.587 245.324 160.179 244.992" fill="#76D1D4"/>
<path d="M294.778 228.653C294.358 228.335 293.76 228.42 293.442 228.839C291.948 230.815 290.352 232.758 288.696 234.616C288.347 235.008 288.384 235.608 288.779 235.955C288.96 236.114 289.186 236.194 289.411 236.194C289.675 236.194 289.937 236.085 290.125 235.874C291.813 233.979 293.441 231.997 294.966 229.981C295.282 229.562 295.199 228.967 294.778 228.653" fill="#76D1D4"/>
<path d="M302.75 215.849C302.284 215.604 301.706 215.783 301.462 216.246C300.302 218.44 299.039 220.612 297.706 222.704C297.425 223.147 297.557 223.733 298.001 224.013C298.16 224.113 298.337 224.161 298.511 224.161C298.828 224.161 299.137 224.004 299.318 223.72C300.677 221.584 301.966 219.368 303.149 217.129C303.395 216.666 303.216 216.092 302.75 215.849" fill="#76D1D4"/>
<path d="M283.504 239.994C281.708 241.71 279.822 243.375 277.895 244.941C277.488 245.273 277.428 245.869 277.76 246.276C277.949 246.505 278.224 246.624 278.499 246.624C278.712 246.624 278.926 246.554 279.102 246.409C281.068 244.812 282.992 243.113 284.825 241.361C285.206 240.998 285.217 240.397 284.852 240.02C284.487 239.642 283.882 239.629 283.504 239.994Z" fill="#76D1D4"/>
<path d="M271.908 249.425C269.858 250.835 267.729 252.178 265.58 253.416C265.123 253.679 264.967 254.258 265.232 254.712C265.408 255.016 265.728 255.185 266.057 255.185C266.22 255.185 266.384 255.144 266.535 255.057C268.729 253.794 270.901 252.424 272.994 250.984C273.425 250.687 273.535 250.096 273.235 249.665C272.934 249.232 272.34 249.126 271.908 249.425" fill="#76D1D4"/>
<path d="M308.546 201.932C308.048 201.765 307.507 202.035 307.34 202.531C306.552 204.884 305.656 207.231 304.679 209.508C304.473 209.99 304.698 210.548 305.182 210.753C305.305 210.806 305.432 210.829 305.557 210.829C305.926 210.829 306.28 210.613 306.434 210.253C307.43 207.929 308.344 205.533 309.149 203.131C309.315 202.634 309.047 202.097 308.546 201.932Z" fill="#76D1D4"/>
<path d="M312.007 177.363C311.958 178.468 311.892 179.568 311.805 180.662C311.764 181.183 312.155 181.641 312.68 181.682C312.705 181.684 312.732 181.686 312.757 181.686C313.249 181.686 313.667 181.308 313.706 180.813C313.807 179.561 313.881 178.298 313.932 177.034C313.296 177.173 312.653 177.282 312.007 177.363" fill="#FF7B4D"/>
<path d="M312.004 187.279C311.487 187.188 310.993 187.546 310.911 188.064C310.514 190.505 310.014 192.964 309.42 195.37C309.296 195.879 309.607 196.392 310.119 196.517C310.195 196.536 310.272 196.544 310.347 196.544C310.776 196.544 311.166 196.254 311.273 195.822C311.878 193.367 312.39 190.858 312.792 188.365C312.877 187.848 312.523 187.362 312.004 187.279" fill="#FF7B4D"/>
<path d="M258.95 256.888C256.704 257.951 254.387 258.936 252.061 259.814C251.569 260 251.323 260.548 251.51 261.038C251.655 261.416 252.017 261.65 252.401 261.65C252.514 261.65 252.628 261.63 252.741 261.587C255.112 260.69 257.477 259.684 259.77 258.601C260.245 258.376 260.447 257.809 260.221 257.337C259.994 256.863 259.424 256.662 258.95 256.888" fill="#76D1D4"/>
<path d="M200.441 263.98C197.998 263.488 195.549 262.892 193.161 262.206C192.652 262.061 192.126 262.351 191.98 262.854C191.835 263.358 192.126 263.885 192.633 264.03C195.07 264.729 197.57 265.337 200.062 265.839C200.125 265.852 200.19 265.858 200.252 265.858C200.696 265.858 201.094 265.548 201.186 265.097C201.29 264.583 200.957 264.084 200.441 263.98" fill="#76D1D4"/>
<path d="M186.049 259.85C183.719 258.974 181.398 257.992 179.147 256.928C178.673 256.705 178.103 256.904 177.876 257.378C177.652 257.851 177.854 258.417 178.33 258.642C180.628 259.727 182.996 260.73 185.374 261.624C185.484 261.666 185.598 261.686 185.711 261.686C186.096 261.686 186.458 261.453 186.603 261.073C186.789 260.583 186.541 260.036 186.049 259.85Z" fill="#76D1D4"/>
<path d="M215.311 265.75C212.817 265.652 210.303 265.455 207.839 265.163C207.318 265.096 206.843 265.472 206.779 265.991C206.717 266.511 207.09 266.983 207.613 267.046C210.127 267.344 212.693 267.546 215.237 267.645C215.249 267.646 215.262 267.646 215.274 267.646C215.784 267.646 216.207 267.246 216.227 266.734C216.248 266.211 215.838 265.769 215.311 265.75Z" fill="#76D1D4"/>
<path d="M230.28 265.148C227.815 265.444 225.302 265.645 222.809 265.745C222.284 265.766 221.874 266.208 221.895 266.731C221.916 267.241 222.339 267.641 222.846 267.641C222.861 267.641 222.873 267.641 222.886 267.641C225.429 267.539 227.993 267.334 230.508 267.032C231.031 266.969 231.404 266.497 231.341 265.976C231.278 265.456 230.808 265.091 230.28 265.148" fill="#76D1D4"/>
<path d="M244.953 262.176C242.565 262.864 240.116 263.464 237.677 263.957C237.161 264.062 236.827 264.563 236.932 265.077C237.024 265.526 237.422 265.836 237.867 265.836C237.929 265.836 237.993 265.829 238.058 265.817C240.547 265.312 243.046 264.701 245.485 263.998C245.989 263.852 246.281 263.328 246.135 262.824C245.988 262.32 245.456 262.029 244.953 262.176" fill="#76D1D4"/>
<path d="M172.508 253.461C170.352 252.222 168.219 250.879 166.172 249.474C165.738 249.175 165.144 249.282 164.844 249.715C164.546 250.145 164.654 250.737 165.087 251.034C167.177 252.469 169.354 253.84 171.555 255.104C171.705 255.19 171.869 255.231 172.031 255.231C172.36 255.231 172.681 255.061 172.857 254.757C173.119 254.303 172.964 253.723 172.508 253.461" fill="#76D1D4"/>
<path d="M7.17604 173.738C4.27074 173.738 1.9072 176.089 1.9072 178.979V191.097C1.9072 193.987 4.27074 196.337 7.17604 196.337H98.8423L113.344 204.951C113.641 205.126 113.88 204.978 113.968 204.907C114.058 204.834 114.254 204.632 114.142 204.306L110.133 192.625L110.199 192.353C110.307 191.924 110.362 191.501 110.362 191.097V178.979C110.362 176.089 107.999 173.738 105.094 173.738H7.17604ZM113.628 206.929C113.196 206.929 112.761 206.814 112.366 206.58L98.3154 198.235H7.17604C3.21888 198.235 0 195.033 0 191.097V178.979C0 175.043 3.21888 171.84 7.17604 171.84H105.094C109.05 171.84 112.269 175.043 112.269 178.979V191.097C112.269 191.565 112.217 192.046 112.116 192.531L115.947 203.694C116.284 204.674 115.978 205.729 115.169 206.38C114.717 206.745 114.175 206.929 113.628 206.929" fill="#FF7B4D"/>
<path d="M99.8434 186.221H9.82304C9.29622 186.221 8.86914 185.797 8.86914 185.273C8.86914 184.749 9.29622 184.323 9.82304 184.323H99.8434C100.369 184.323 100.797 184.749 100.797 185.273C100.797 185.797 100.369 186.221 99.8434 186.221Z" fill="#FF7B4D"/>
<path d="M366.906 114.197C364.002 114.197 361.638 116.547 361.638 119.437V131.555C361.638 131.961 361.693 132.384 361.799 132.811L361.867 133.083L357.857 144.766C357.746 145.09 357.941 145.292 358.03 145.365C358.12 145.437 358.36 145.585 358.656 145.409L373.158 136.796H464.824C467.729 136.796 470.092 134.445 470.092 131.555V119.437C470.092 116.547 467.729 114.197 464.824 114.197H366.906ZM358.372 147.387C357.825 147.387 357.282 147.203 356.83 146.838C356.021 146.187 355.716 145.132 356.052 144.153L359.883 132.99C359.782 132.507 359.73 132.026 359.73 131.555V119.437C359.73 115.501 362.95 112.299 366.906 112.299H464.824C468.78 112.299 472 115.501 472 119.437V131.555C472 135.491 468.78 138.693 464.824 138.693H373.685L359.632 147.038C359.238 147.272 358.803 147.387 358.372 147.387" fill="#FF7B4D"/>
<path d="M462.177 126.679H372.157C371.63 126.679 371.204 126.254 371.204 125.731C371.204 125.207 371.63 124.781 372.157 124.781H462.177C462.704 124.781 463.13 125.207 463.13 125.731C463.13 126.254 462.704 126.679 462.177 126.679Z" fill="#FF7B4D"/>
<path d="M109.295 114.653C108.768 114.653 108.34 114.229 108.34 113.706V98.522C108.34 97.998 108.768 97.5737 109.295 97.5737C109.82 97.5737 110.248 97.998 110.248 98.522V113.706C110.248 114.229 109.82 114.653 109.295 114.653Z" fill="#FF7B4D"/>
<path d="M116.925 107.062H101.663C101.137 107.062 100.709 106.638 100.709 106.114C100.709 105.59 101.137 105.165 101.663 105.165H116.925C117.452 105.165 117.88 105.59 117.88 106.114C117.88 106.638 117.452 107.062 116.925 107.062Z" fill="#FF7B4D"/>
<path d="M412.364 174.299C411.837 174.299 411.411 173.874 411.411 173.351V158.169C411.411 157.644 411.837 157.22 412.364 157.22C412.89 157.22 413.317 157.644 413.317 158.169V173.351C413.317 173.874 412.89 174.299 412.364 174.299Z" fill="#FF7B4D"/>
<path d="M419.996 166.708H404.733C404.206 166.708 403.778 166.284 403.778 165.76C403.778 165.236 404.206 164.81 404.733 164.81H419.996C420.522 164.81 420.948 165.236 420.948 165.76C420.948 166.284 420.522 166.708 419.996 166.708Z" fill="#FF7B4D"/>
<path d="M50.4261 271.088C49.8991 271.088 49.4722 270.664 49.4722 270.139V258.752C49.4722 258.229 49.8991 257.804 50.4261 257.804C50.9519 257.804 51.3794 258.229 51.3794 258.752V270.139C51.3794 270.664 50.9519 271.088 50.4261 271.088Z" fill="#FF7B4D"/>
<path d="M56.1487 265.395H44.7018C44.175 265.395 43.748 264.971 43.748 264.446C43.748 263.923 44.175 263.497 44.7018 263.497H56.1487C56.6746 263.497 57.1015 263.923 57.1015 264.446C57.1015 264.971 56.6746 265.395 56.1487 265.395Z" fill="#FF7B4D"/>
<path d="M376.388 68.0205C373.908 68.0205 371.89 70.0277 371.89 72.4947C371.89 74.9617 373.908 76.9689 376.388 76.9689C378.868 76.9689 380.886 74.9617 380.886 72.4947C380.886 70.0277 378.868 68.0205 376.388 68.0205ZM376.388 78.8667C372.857 78.8667 369.982 76.0075 369.982 72.4947C369.982 68.9819 372.857 66.1239 376.388 66.1239C379.92 66.1239 382.792 68.9819 382.792 72.4947C382.792 76.0075 379.92 78.8667 376.388 78.8667Z" fill="#FF7B4D"/>
<path d="M128.989 11.803C126.51 11.803 124.493 13.8101 124.493 16.2772C124.493 18.7442 126.51 20.7513 128.989 20.7513C131.47 20.7513 133.488 18.7442 133.488 16.2772C133.488 13.8101 131.47 11.803 128.989 11.803ZM128.989 22.6492C125.458 22.6492 122.585 19.79 122.585 16.2772C122.585 12.7644 125.458 9.90639 128.989 9.90639C132.522 9.90639 135.395 12.7644 135.395 16.2772C135.395 19.79 132.522 22.6492 128.989 22.6492Z" fill="#FF7B4D"/>
<path d="M389.47 185.144C386.389 185.144 383.883 187.637 383.883 190.703C383.883 193.768 386.389 196.26 389.47 196.26C392.551 196.26 395.058 193.768 395.058 190.703C395.058 187.637 392.551 185.144 389.47 185.144ZM389.47 198.158C385.338 198.158 381.975 194.814 381.975 190.703C381.975 186.591 385.338 183.247 389.47 183.247C393.603 183.247 396.964 186.591 396.964 190.703C396.964 194.814 393.603 198.158 389.47 198.158Z" fill="#FF7B4D"/>
<path d="M76.5889 227.439C72.9071 227.439 69.911 230.418 69.911 234.081C69.911 237.743 72.9071 240.724 76.5889 240.724C80.2719 240.724 83.2668 237.743 83.2668 234.081C83.2668 230.418 80.2719 227.439 76.5889 227.439ZM76.5889 242.62C71.8558 242.62 68.0044 238.79 68.0044 234.081C68.0044 229.373 71.8558 225.541 76.5889 225.541C81.3231 225.541 85.1734 229.373 85.1734 234.081C85.1734 238.79 81.3231 242.62 76.5889 242.62Z" fill="#FF7B4D"/>
<path d="M129.02 67.4095H158.712V47.7992H129.02V67.4095ZM160.62 69.3062H127.113V45.9014H160.62V69.3062Z" fill="#FF7B4D"/>
<path d="M143.866 58.7537L127.529 47.6342C127.094 47.3383 126.982 46.7476 127.279 46.3151C127.578 45.8825 128.17 45.7732 128.605 46.0679L143.866 56.4554L159.128 46.0679C159.562 45.7732 160.155 45.8825 160.452 46.3151C160.75 46.7476 160.639 47.3383 160.204 47.6342L143.866 58.7537Z" fill="#FF7B4D"/>
<path d="M352.725 1.89673C343.575 1.89673 336.132 9.30255 336.132 18.4042C336.132 27.5047 343.575 34.9106 352.725 34.9106C361.874 34.9106 369.319 27.5047 369.319 18.4042C369.319 9.30255 361.874 1.89673 352.725 1.89673ZM352.725 36.8083C342.524 36.8083 334.225 28.5516 334.225 18.4042C334.225 8.25561 342.524 0.000115162 352.725 0.000115162C362.926 0.000115162 371.226 8.25561 371.226 18.4042C371.226 28.5516 362.926 36.8083 352.725 36.8083Z" fill="#FF7B4D"/>
<path d="M351.557 29.8743V26.8214C349.795 26.7905 347.972 26.2462 346.909 25.4916L347.637 23.4666C348.73 24.1915 350.312 24.7655 352.012 24.7655C354.17 24.7655 355.628 23.5273 355.628 21.8042C355.628 20.1428 354.443 19.1149 352.195 18.2081C349.096 16.9984 347.181 15.6092 347.181 12.9794C347.181 10.4707 348.974 8.56699 351.77 8.11422V5.06133H353.652V7.99301C355.476 8.05362 356.722 8.53727 357.603 9.05064L356.843 11.0447C356.205 10.6823 354.959 10.018 353.014 10.018C350.675 10.018 349.795 11.4084 349.795 12.6169C349.795 14.1879 350.919 14.9734 353.561 16.062C356.691 17.3311 358.272 18.9033 358.272 21.5926C358.272 23.98 356.599 26.2165 353.471 26.7311V29.8743H351.557" fill="#FF7B4D"/>
<path d="M209.003 12.2141H207.732V5.47609H209.003V12.2141Z" fill="#FF7B4D"/>
<path d="M209.003 28.2153H207.732V21.4785H209.003V28.2153Z" fill="#FF7B4D"/>
<path d="M203.712 17.4783H196.939V16.2139H203.712V17.4783Z" fill="#FF7B4D"/>
<path d="M219.798 17.4783H213.024V16.2139H219.798V17.4783Z" fill="#FF7B4D"/>
<path d="M212.11 14.0178L211.211 13.123L216 8.36L216.899 9.25365L212.11 14.0178" fill="#FF7B4D"/>
<path d="M200.735 25.3325L199.837 24.4389L204.625 19.6735L205.524 20.5683L200.735 25.3325" fill="#FF7B4D"/>
<path d="M204.625 14.0178L199.837 9.25365L200.735 8.36L205.524 13.123L204.625 14.0178" fill="#FF7B4D"/>
<path d="M216 25.3325L211.211 20.5683L212.11 19.6735L216.899 24.4389L216 25.3325" fill="#FF7B4D"/>
<path d="M397.8 237.921H396.529V231.183H397.8V237.921Z" fill="#FF7B4D"/>
<path d="M397.8 253.924H396.529V247.186H397.8V253.924Z" fill="#FF7B4D"/>
<path d="M392.509 243.187H385.735V241.922H392.509V243.187Z" fill="#FF7B4D"/>
<path d="M408.595 243.187H401.822V241.922H408.595V243.187Z" fill="#FF7B4D"/>
<path d="M400.908 239.725L400.009 238.832L404.798 234.066L405.697 234.961L400.908 239.725" fill="#FF7B4D"/>
<path d="M389.533 251.04L388.633 250.146L393.423 245.382L394.322 246.277L389.533 251.04Z" fill="#FF7B4D"/>
<path d="M393.423 239.725L388.633 234.961L389.533 234.066L394.322 238.832L393.423 239.725" fill="#FF7B4D"/>
<path d="M404.798 251.04L400.009 246.277L400.908 245.382L405.697 250.146L404.798 251.04Z" fill="#FF7B4D"/>
<path d="M58.304 121.649H57.0322V112.763H58.304V121.649Z" fill="#FF7B4D"/>
<path d="M58.304 142.754H57.0322V133.868H58.304V142.754Z" fill="#FF7B4D"/>
<path d="M51.5277 128.391H42.5952V127.126H51.5277V128.391Z" fill="#FF7B4D"/>
<path d="M72.7438 128.391H63.8105V127.126H72.7438V128.391Z" fill="#FF7B4D"/>
<path d="M62.4611 123.885L61.5615 122.992L67.8786 116.708L68.777 117.601L62.4611 123.885" fill="#FF7B4D"/>
<path d="M47.4594 138.809L46.5601 137.915L52.8766 131.631L53.7759 132.525L47.4594 138.809Z" fill="#FF7B4D"/>
<path d="M52.8766 123.885L46.5601 117.601L47.4594 116.708L53.7759 122.992L52.8766 123.885Z" fill="#FF7B4D"/>
<path d="M67.8786 138.809L61.5615 132.525L62.4611 131.631L68.777 137.915L67.8786 138.809" fill="#FF7B4D"/>
<path d="M67.4428 47.8924C57.2506 47.8924 48.9583 56.142 48.9583 66.2811C48.9583 76.4214 57.2506 84.6698 67.4428 84.6698C77.6352 84.6698 85.9282 76.4214 85.9282 66.2811C85.9282 56.142 77.6352 47.8924 67.4428 47.8924ZM67.4428 86.5664C56.1989 86.5664 47.0508 77.4671 47.0508 66.2811C47.0508 55.0963 56.1989 45.9958 67.4428 45.9958C78.6877 45.9958 87.8349 55.0963 87.8349 66.2811C87.8349 77.4671 78.6877 86.5664 67.4428 86.5664" fill="#FF7B4D"/>
<path d="M67.4434 47.8921C62.5228 47.8921 58.3656 56.1393 58.3656 65.8982C58.3656 75.6582 62.5228 83.9042 67.4434 83.9042C72.364 83.9042 76.5225 75.6582 76.5225 65.8982C76.5225 56.1393 72.364 47.8921 67.4434 47.8921ZM67.4434 85.802C61.284 85.802 56.458 77.0592 56.458 65.8982C56.458 54.7383 61.284 45.9955 67.4434 45.9955C73.6028 45.9955 78.4291 54.7383 78.4291 65.8982C78.4291 77.0592 73.6028 85.802 67.4434 85.802" fill="#FF7B4D"/>
<path d="M67.443 85.802C66.9174 85.802 66.4897 85.3766 66.4897 84.8537V46.9438C66.4897 46.4209 66.9174 45.9955 67.443 45.9955C67.9699 45.9955 68.3963 46.4209 68.3963 46.9438V84.8537C68.3963 85.3766 67.9699 85.802 67.443 85.802Z" fill="#FF7B4D"/>
<path d="M86.4972 66.8477H48.3895C47.8626 66.8477 47.4355 66.4222 47.4355 65.8982C47.4355 65.3753 47.8626 64.9498 48.3895 64.9498H86.4972C87.024 64.9498 87.4517 65.3753 87.4517 65.8982C87.4517 66.4222 87.024 66.8477 86.4972 66.8477Z" fill="#FF7B4D"/>
<path d="M174.127 448.198L178 447.852L168.872 433.095L150.171 426.47L149.691 429.597L166.936 436.001L174.127 448.198" fill="#7B8481"/>
<path d="M168.319 449.851C168.319 453.524 171.314 456.502 175.007 456.502C178.699 456.502 181.694 453.524 181.694 449.851C181.694 446.177 178.699 443.199 175.007 443.199C171.314 443.199 168.319 446.177 168.319 449.851Z" fill="#515455"/>
<path d="M167.716 448.427C168.384 445.025 171.393 442.457 175.008 442.457C178.623 442.457 181.632 445.025 182.3 448.427H167.716" fill="#7B8481"/>
<path d="M139.589 448.198L135.715 447.852L144.843 433.095L163.545 426.47L164.025 429.597L146.78 436.001L139.589 448.198Z" fill="#7B8481"/>
<path d="M145.395 449.851C145.395 453.524 142.401 456.502 138.708 456.502C135.015 456.502 132.021 453.524 132.021 449.851C132.021 446.177 135.015 443.199 138.708 443.199C142.401 443.199 145.395 446.177 145.395 449.851Z" fill="#515455"/>
<path d="M146 448.427C145.333 445.025 142.324 442.457 138.708 442.457C135.093 442.457 132.084 445.025 131.417 448.427H146" fill="#7B8481"/>
<path d="M206.834 449.51L198.477 436.001L159.862 430.133L160.344 427.006L200.413 433.095L209.541 447.852L206.834 449.51Z" fill="#7B8481"/>
<path d="M199.861 449.851C199.861 453.524 202.855 456.502 206.548 456.502C210.241 456.502 213.235 453.524 213.235 449.851C213.235 446.177 210.241 443.199 206.548 443.199C202.855 443.199 199.861 446.177 199.861 449.851Z" fill="#515455"/>
<path d="M199.257 448.427C199.923 445.025 202.933 442.457 206.549 442.457C210.164 442.457 213.173 445.025 213.839 448.427H199.257" fill="#7B8481"/>
<path d="M108.461 449.51L105.754 447.852L114.882 433.095L154.952 427.006L155.434 430.133L116.819 436.001L108.461 449.51Z" fill="#7B8481"/>
<path d="M206.03 216.238H109.456C103.58 216.238 98.8159 220.977 98.8159 226.822V350.329C98.8159 356.174 103.58 360.913 109.456 360.913H206.03C211.906 360.913 216.67 356.174 216.67 350.329V226.822C216.67 220.977 211.906 216.238 206.03 216.238Z" fill="#E32F5A"/>
<path d="M167 430.393H146.459V369.095H167V430.393Z" fill="#B6BCB7"/>
<path d="M168.698 430.727V417.472H144.762V430.727H168.698" fill="#7B8481"/>
<path d="M211.044 219.564H114.471C108.595 219.564 103.831 224.302 103.831 230.148V353.655C103.831 359.5 108.595 364.239 114.471 364.239H211.044C216.921 364.239 221.686 359.5 221.686 353.655V230.148C221.686 224.302 216.921 219.564 211.044 219.564Z" fill="#BA2736"/>
<path d="M226.441 381.633H109.458C101.879 381.633 95.6792 375.465 95.6792 367.926C95.6792 360.387 101.879 354.218 109.458 354.218H226.441C234.02 354.218 240.221 360.387 240.221 367.926C240.221 375.465 234.02 381.633 226.441 381.633Z" fill="#E32F5A"/>
<path d="M393.404 324.476H56.3744C52.2142 324.476 48.811 321.089 48.811 316.951C48.811 312.813 52.2142 309.428 56.3744 309.428H393.404C397.563 309.428 400.968 312.813 400.968 316.951C400.968 321.089 397.563 324.476 393.404 324.476Z" fill="#DE9418"/>
<path d="M115.434 449.851C115.434 453.524 112.441 456.502 108.747 456.502C105.054 456.502 102.061 453.524 102.061 449.851C102.061 446.177 105.054 443.199 108.747 443.199C112.441 443.199 115.434 446.177 115.434 449.851Z" fill="#515455"/>
<path d="M116.039 448.427C115.372 445.025 112.363 442.457 108.747 442.457C105.132 442.457 102.123 445.025 101.456 448.427H116.039" fill="#7B8481"/>
<path d="M171.8 434.96H171.438C168.349 434.96 165.821 437.475 165.821 440.548C165.821 443.621 168.349 446.134 171.438 446.134H171.8C174.889 446.134 177.418 443.621 177.418 440.548C177.418 437.475 174.889 434.96 171.8 434.96Z" fill="#C2E4F0"/>
<path d="M234.304 293.85L251.537 292.548L273.918 300.287L279.063 309.473H231.687L234.304 293.85Z" fill="#F8A092"/>
<path d="M135.131 240.612V341.827H202.27V228.907L151.05 226.841L135.131 240.612Z" fill="#424E48"/>
<path d="M225.75 288.121L211.101 232.649C209.113 226.905 204.256 222.611 198.29 221.32L184.632 218.367L187.135 233.726L201.377 285.52C201.543 285.956 201.53 286.399 201.396 286.797L193.094 297.398L196.173 305.371C197.701 307.408 200.133 308.777 202.987 308.777H247.808V288.121H225.75Z" fill="#424E48"/>
<path d="M159.806 213.766L144.822 219.956L146.206 255.76L153.128 257.826L146.206 264.023L168.933 323.915L159.806 213.766" fill="#64766F"/>
<path d="M178.173 213.766L193.158 219.956L191.773 255.76L184.852 257.826L191.773 264.023L169.047 323.915L178.173 213.766" fill="#64766F"/>
<path d="M160.427 219.743H152.169L168.785 323.926L188.106 220.139L178.355 219.743H160.427Z" fill="#F6EDEC"/>
<path d="M194.855 164.645C193.744 159.364 189.93 154.62 184.765 152.095C179.601 149.571 173.191 149.315 167.809 151.422C170.603 150.329 181.088 166.994 182.232 169.08C186.088 176.109 187.263 183.228 189.35 190.697C192.858 183.795 196.485 172.394 194.855 164.645Z" fill="#714523"/>
<path d="M157.966 198.614L160.427 220.108C160.427 220.108 169.92 225.942 178.356 220.108L179.411 200.764L157.966 198.614" fill="#EF9176"/>
<path d="M181.632 166.657C186.219 169.997 189.221 175.068 189.997 180.669C191.143 188.92 192.574 202.151 190.752 206.683C188.03 213.453 163.075 217.515 155.363 200.816C155.363 200.816 152.64 185.923 151.28 178.701C149.919 171.479 160.807 160.197 171.243 162.002C175.252 162.696 178.793 164.588 181.632 166.657" fill="#F8A092"/>
<path d="M152.357 188.481C154.759 183.767 155.647 178.304 154.865 173.076C159.874 170.959 166.113 170.653 171.465 171.641C173.158 171.953 174.852 172.436 176.286 173.385C178.189 174.646 179.486 176.626 181.238 178.085C183.814 180.229 187.383 181.135 190.676 180.482C191.207 172.043 191.29 162.949 186.024 156.311C184.638 154.563 182.911 153.085 180.962 151.991C173.039 147.545 163.171 149.997 154.444 152.558C152.224 153.211 149.907 153.917 148.254 155.528C146.599 157.141 145.885 159.958 147.322 161.764C145.336 161.181 142.858 162.482 141.987 164.353C141.117 166.223 141.224 168.385 141.46 170.432C142.104 175.978 143.588 181.427 145.847 186.537C146.585 185.021 148.588 184.259 150.156 184.899C151.723 185.539 152.903 186.886 152.357 188.481" fill="#714523"/>
<path d="M155.225 186.734L154.001 187.232C153.747 184.124 149.195 182.759 146.772 184.737C144.35 186.716 145.23 190.28 146.878 192.932C148.043 194.812 150.424 197.202 152.591 196.722C154.412 196.32 154.562 194.049 155.059 192.263C155.558 190.476 155.394 188.581 155.225 186.734" fill="#F8A092"/>
<path d="M151.955 184.829C148.556 184.829 145.803 187.568 145.803 190.949C145.803 194.329 148.556 197.068 151.955 197.068C155.352 197.068 158.107 194.329 158.107 190.949C158.107 187.568 155.352 184.829 151.955 184.829Z" fill="#374446"/>
<path d="M172.707 146.457H168.622C158.44 146.457 150.155 154.697 150.155 164.827V182.556C150.155 183.694 150.266 186.224 150.466 187.307C151.247 186.846 152.049 186.422 152.843 186.019C152.756 185.347 152.706 183.249 152.706 182.556V164.827C152.706 156.096 159.846 148.994 168.622 148.994H172.707C174.971 148.994 177.125 149.471 179.077 150.323C181.19 150.65 184.121 151.433 187.035 153.269C183.647 149.119 178.488 146.457 172.707 146.457" fill="#374446"/>
<path d="M169.911 223.073L159.805 213.766L152.169 219.743L159.431 234.613L169.911 223.073Z" fill="white"/>
<path d="M169.911 223.073L178.892 215.255L188.106 220.139L179.266 234.613L169.911 223.073" fill="white"/>
<path d="M172.531 236.847L176.274 230.146L169.911 223.073L163.549 230.146L167.292 236.847L164.049 294.827L168.687 323.318L168.682 323.734L168.722 323.53L168.786 323.926L168.933 323.915L174.438 293.99L172.531 236.847" fill="#EE2935"/>
<path d="M154.156 293.85L171.389 292.548L192.547 299.708L183.604 309.473H151.539L154.156 293.85" fill="#F8A092"/>
<path d="M147.325 218.367L133.667 221.32C127.7 222.611 122.842 226.905 120.856 232.649L103.717 297.55C101.814 303.049 105.921 308.777 111.767 308.777H156.589V288.121H132.39C131.037 288.121 130.103 286.777 130.58 285.52L144.822 233.726L147.325 218.367" fill="#424E48"/>
<path d="M248.264 438.922H247.901C244.812 438.922 242.285 441.531 242.285 444.72C242.285 447.908 244.812 450.517 247.901 450.517H248.264C251.353 450.517 253.881 447.908 253.881 444.72C253.881 441.531 251.353 438.922 248.264 438.922Z" fill="#C2E4F0"/>
<path d="M259.679 443.036C259.679 443.036 251.374 372.585 251.368 372.535C249.569 357.865 241.196 332.826 224.503 329.751C219.446 328.819 213.271 329.771 208.123 329.771C200.793 329.771 193.464 329.771 186.134 329.771C180.919 329.771 175.703 329.771 170.486 329.771C166.291 329.771 162.858 333.314 162.858 337.645V360.07C162.858 364.4 166.291 367.942 170.486 367.942H208.636L238.299 442.468L259.679 443.036" fill="#343734"/>
<path d="M172.108 438.922H171.746C168.657 438.922 166.129 441.531 166.129 444.72C166.129 447.908 168.657 450.517 171.746 450.517H172.108C175.197 450.517 177.725 447.908 177.725 444.72C177.725 441.531 175.197 438.922 172.108 438.922Z" fill="#C2E4F0"/>
<path d="M190.904 336.191C190.248 332.542 187.131 329.756 183.408 329.756H129.099C124.904 329.756 121.471 333.291 121.471 337.613V359.99C121.471 364.311 124.904 367.846 129.099 367.846H157.399L161.978 444.028H183.112L193.678 380.544C198.449 355.481 195.035 342.671 190.904 336.191" fill="#404241"/>
<path d="M193.149 444.823C187.968 444.823 185.08 442.891 183.546 441.204H173.421L171.619 447.262L169.016 441.204H160.929V454.97H203.659C203.659 454.97 202.345 444.823 193.149 444.823" fill="#5785A5"/>
<path d="M269.612 445.081C264.431 445.081 261.544 443.146 260.01 441.453H249.884L248.083 447.526L245.48 441.453H237.392V455.251H280.122C280.122 455.251 278.808 445.081 269.612 445.081Z" fill="#5785A5"/>
<path d="M203.332 454.644H161.236C160.678 454.644 160.227 455.11 160.227 455.683V457.356C160.227 457.931 160.678 458.395 161.236 458.395H203.332C203.89 458.395 204.341 457.931 204.341 457.356V455.683C204.341 455.11 203.89 454.644 203.332 454.644Z" fill="#383C3A"/>
<path d="M279.143 458.681H238.809C237.766 458.681 236.919 457.839 236.919 456.802C236.919 455.763 237.766 454.922 238.809 454.922H279.143C280.187 454.922 281.033 455.763 281.033 456.802C281.033 457.839 280.187 458.681 279.143 458.681Z" fill="#383C3A"/>
<path d="M168.191 190.793C170.639 190.793 170.644 187.01 168.191 187.01C165.745 187.01 165.74 190.793 168.191 190.793Z" fill="#DF7C71"/>
<path d="M185.703 189.571C188.151 189.571 188.154 185.787 185.703 185.787C183.255 185.787 183.252 189.571 185.703 189.571Z" fill="#DF7C71"/>
<path d="M173.296 202.006C173.296 204.771 175.551 207.013 178.33 207.013C181.109 207.013 183.363 204.771 183.363 202.006H173.296Z" fill="#DF7C71"/>
<path d="M178.39 208.182L158.336 205.376C155.634 204.998 153.324 203.198 152.308 200.677L150.632 196.176L152.902 196.691L154.202 199.921C154.946 201.769 156.639 203.088 158.621 203.366L178.675 206.171L178.39 208.182" fill="#374446"/>
<path d="M181.278 209.422H178.404C177.086 209.422 176.008 208.352 176.008 207.041C176.008 205.731 177.086 204.658 178.404 204.658H181.278C182.594 204.658 183.672 205.731 183.672 207.041C183.672 208.352 182.594 209.422 181.278 209.422Z" fill="#374446"/>
<path d="M161.413 183.735C163.743 180.64 168.163 179.53 171.695 181.136C172.615 181.554 173.42 180.198 172.494 179.776C168.112 177.784 162.932 179.107 160.046 182.94C159.434 183.751 160.808 184.537 161.413 183.735Z" fill="#714523"/>
<path d="M190.309 183.124C187.977 180.029 183.557 178.919 180.026 180.525C179.107 180.944 178.301 179.588 179.228 179.166C183.61 177.173 188.79 178.497 191.676 182.329C192.286 183.14 190.913 183.926 190.309 183.124Z" fill="#714523"/>
<path d="M259.039 309.512H163.258V298.465H259.039V309.512Z" fill="#858F8B"/>
<path d="M63.146 316.408V459.625H76.9892V316.408H63.146Z" fill="#B6BCB7"/>
<path d="M76.9892 350.842V316.408H63.146V350.842H76.9892Z" fill="#7F918A"/>
<path d="M302.635 316.408V459.625H316.478V316.408H302.635Z" fill="#8E9793"/>
<path d="M316.478 350.842V316.408H302.635V350.842H316.478Z" fill="#64766F"/>
<path d="M361.468 316.408V459.625H375.313V316.408H361.468Z" fill="#8E9793"/>
<path d="M375.313 350.842V316.408H361.468V350.842H375.313Z" fill="#64766F"/>
<path d="M124.633 316.408V459.625H138.477V316.408H124.633Z" fill="#B6BCB7"/>
<path d="M138.477 350.842V316.408H124.633V350.842H138.477" fill="#7F918A"/>
<path d="M393.404 309.428H149.163V324.476H393.404C397.563 324.476 400.968 321.089 400.968 316.951C400.968 312.813 397.563 309.428 393.404 309.428" fill="#DE9418"/>
<path d="M56.3744 309.428C52.2142 309.428 48.811 312.813 48.811 316.951C48.811 321.089 52.2142 324.476 56.3744 324.476H149.163V309.428H56.3744Z" fill="#FBBF58"/>
<path d="M338.899 279.573H220.322L244.574 198.582H363.151L338.899 279.573Z" fill="#687671"/>
<path d="M361.083 205.486L363.151 198.582H244.574L220.322 279.573H227.942L250.126 205.486H361.083Z" fill="#858F8B"/>
<path d="M361.083 205.486H250.126L227.942 279.573H338.899L361.083 205.486Z" fill="#687671"/>
<path d="M290.041 273.13L277.086 279.573H254.875L276.622 246.432L290.041 273.13" fill="#54615C"/>
<path d="M296.057 309.052H276.622V246.453H296.057V309.052" fill="#687671"/>
<path d="M319.192 309.512H249.785V303.069H319.192V309.512Z" fill="#687671"/>
<path d="M273.503 236.018H269.707L282.491 212.825H286.288L273.503 236.018Z" fill="#54615C"/>
<path d="M285.16 236.018H281.365L294.149 212.825H297.946L285.16 236.018Z" fill="#54615C"/>
<path d="M296.818 236.018H293.023L305.808 212.825H309.602L296.818 236.018Z" fill="#54615C"/>
<path d="M308.477 236.018H304.68L317.465 212.825H321.26L308.477 236.018" fill="#54615C"/>
<path d="M272.85 42.2535C254.077 42.2535 236.458 49.512 223.178 62.7302C209.758 76.085 202.457 93.8438 202.619 112.735C202.947 150.844 234.385 181.912 272.701 181.993C272.753 181.993 272.805 181.993 272.855 181.993C287.603 181.993 301.713 177.5 313.671 168.991L315.312 167.822L348.259 173.781C349.019 173.917 349.459 173.529 349.697 173.181C349.934 172.832 350.131 172.279 349.723 171.631L333.979 146.669L335.233 144.26C340.68 133.825 343.388 122.044 343.065 110.192C342.575 92.0993 335.086 75.0939 321.979 62.3071C308.873 49.5227 291.631 42.4009 273.433 42.2559C273.239 42.2547 273.044 42.2535 272.85 42.2535V42.2535ZM272.855 191.478C272.797 191.478 272.74 191.478 272.681 191.478C229.163 191.387 193.456 156.098 193.084 112.816C192.9 91.3613 201.192 71.1925 216.433 56.0243C231.672 40.8572 251.925 32.5957 273.51 32.7704C294.191 32.9356 313.777 41.02 328.656 55.5346C343.538 70.0516 352.04 89.372 352.598 109.935C352.939 122.47 350.29 134.94 344.925 146.176L357.8 166.589C360.143 170.303 360.065 174.867 357.592 178.499C355.121 182.131 350.891 183.899 346.554 183.113L317.541 177.867C304.322 186.781 288.919 191.478 272.855 191.478" fill="#FF7B4D"/>
<path d="M312.186 87.9363C311.223 83.4894 309.601 78.8501 306.937 75.2279C307.003 75.0295 307.066 74.8298 307.122 74.629C308.273 70.4721 307.551 65.9587 305.801 62.0134C304.82 59.803 303.524 57.7258 302.749 55.4358C301.838 52.7454 301.683 49.8695 301.163 47.0781C299.741 39.425 295.447 32.3353 289.312 27.5058C283.176 22.6763 275.252 20.1486 267.438 20.5301C263.022 20.7464 258.581 21.8967 254.916 24.3566C245.835 30.4541 248.756 38.9628 251.331 47.7531C252.574 51.9943 254.662 56.0906 257.936 59.0746C260.645 61.5428 264.138 63.2481 266.147 66.3045C267.379 68.1774 267.909 70.3271 268.273 72.5494C267.043 72.7752 265.814 73.0021 264.586 73.2279C260.293 74.017 253.918 73.8791 250.333 76.4139C242.151 82.1965 238.906 97.3017 238.249 106.45C238.022 111.499 239.047 117.347 243.431 119.902C246.063 121.436 249.297 121.392 252.347 121.304C264.515 120.95 276.686 120.597 288.854 120.243C293.973 120.094 299.33 119.883 303.776 117.358C308.547 114.649 311.61 109.537 312.762 104.194C313.914 98.8525 313.34 93.2791 312.186 87.9363" fill="#9F5138"/>
<path d="M209.857 116.758C208.544 114.494 207.23 112.23 205.916 109.966C204.262 107.117 203.563 103.692 201.211 101.378C198.859 99.0631 196.034 97.2912 193.234 95.536C192.064 94.804 190.582 94.0494 189.391 94.9121C188.645 95.4528 188.387 96.4273 188.591 97.3233C188.947 98.8955 190.249 99.8557 191.472 100.773C192.488 101.534 193.535 102.371 193.99 103.553C188.021 100.882 182.042 97.2698 177.547 92.4807C176.633 91.5063 175.013 92.1718 175.053 93.5039C175.163 97.2247 175.937 100.923 177.556 104.269C179.735 108.776 183.532 112.594 188.25 114.317C191.029 115.332 194.055 115.619 196.749 116.841C200.952 118.748 203.817 122.659 206.49 126.407C208.307 124.329 209.738 119.509 209.857 116.758" fill="#EFA972"/>
<path d="M273.796 91.4541C273.796 91.4541 297.521 98.0613 299.893 102.311C302.267 106.558 292.776 149.984 292.776 149.984L273.796 91.4541" fill="#EE1F52"/>
<path d="M295.589 178.757C295.362 169.468 295.247 156.507 294.718 147.832C293.631 129.985 293.995 118.662 290.135 103.057C279.693 95.6927 265.982 92.9345 253.63 96.2774C248.949 103.019 244.23 109.828 241.111 117.412C237.994 124.996 239.272 120.551 241.398 128.468C242.685 133.267 243.798 144.848 245.17 149.625C247.748 158.6 248.194 168.153 247.432 177.666C254.394 180.186 272.938 185.303 295.589 178.757" fill="#EE1F52"/>
<path d="M259.881 92.155L248.978 94.9191C244.835 95.9708 241.425 98.8894 239.762 102.809L226.634 133.752L209.496 113.977L198.186 119.772C198.186 119.772 217.379 163.757 228.69 162.393C240.002 161.029 259.196 121.478 259.196 121.478L259.881 92.155Z" fill="#EE1F52"/>
<path d="M258.076 82.0411V98.8349C258.076 98.8349 258.076 115.6 266.501 115.6C276.132 115.6 275.306 98.8349 275.306 98.8349V82.0411H258.076Z" fill="#EFA972"/>
<path d="M252.871 79.72C248.064 75.0675 243.801 69.7223 241.248 63.5535C238.693 57.3836 237.957 50.314 240.119 43.9979C242.282 37.6829 247.589 32.302 254.145 30.8927C253.982 47.8624 253.034 62.7502 252.871 79.72Z" fill="#9F5138"/>
<path d="M247.325 80.4355C249.154 85.0546 253.074 88.8087 257.782 90.4534C262.492 92.0969 267.91 91.6025 272.24 89.1331C278.015 85.8401 281.463 79.4515 282.733 72.9524C284.004 66.452 283.382 59.752 282.759 53.159C276.501 53.4989 270.097 53.8233 264.095 52.0337C258.092 50.2452 252.471 45.8922 250.965 39.8423C249.308 42.4329 245.369 46.5553 244.988 49.5999C244.835 50.8251 245.799 52.5827 246.014 53.8174C246.323 55.5952 246.403 57.4039 246.4 59.2042C246.385 66.2393 244.642 73.6618 247.325 80.4355" fill="#F8BB87"/>
<path d="M288.876 68.4387C288.049 71.6567 285.413 73.7673 282.987 73.1505C280.56 72.5349 279.263 69.4262 280.087 66.2081C280.914 62.99 283.549 60.8795 285.976 61.495C288.403 62.1106 289.7 65.2194 288.876 68.4387Z" fill="#F8BB87"/>
<path d="M298.771 64.432H283.661C283.024 64.432 282.453 64.8183 282.218 65.4065L271.221 92.9099C270.815 93.9248 271.566 95.0264 272.664 95.0264H287.775C288.412 95.0264 288.984 94.6401 289.219 94.0519L300.216 66.5485C300.622 65.5336 299.869 64.432 298.771 64.432Z" fill="#433650"/>
<path d="M281.323 104.969L279.809 95.3376C279.809 95.3376 272.245 83.8996 273.455 79.0844C273.455 79.0844 274.363 77.5799 275.573 77.8806C275.573 77.8806 275.271 74.8705 277.993 74.8705C277.993 74.8705 277.086 71.5597 280.415 71.8603C280.415 71.8603 279.809 67.6464 283.441 68.5496L291.005 79.0844C291.005 79.0844 295.845 72.1622 297.056 73.9673C298.266 75.7736 293.425 85.1046 293.425 85.1046L290.399 93.5325L292.517 103.765L281.323 104.969" fill="#EFA972"/>
<path d="M299.872 121.669L292.066 94.6589L278.383 95.2614C278.383 95.2614 277.244 146.861 288.921 150.594C289.155 150.669 289.4 150.729 289.654 150.777C292.682 151.352 295.727 149.799 297.206 147.106C303.988 134.757 299.872 121.669 299.872 121.669" fill="#EF2D75"/>
<path d="M246.483 58.4651C246.357 58.4651 246.23 58.4247 246.125 58.3391C245.88 58.1419 245.841 57.7842 246.038 57.5405C248.164 54.9226 252.344 54.2785 255.165 56.1359C255.427 56.3082 255.499 56.66 255.326 56.9214C255.151 57.1828 254.798 57.2554 254.535 57.0818C252.183 55.5346 248.698 56.0717 246.926 58.2536C246.814 58.3926 246.648 58.4651 246.483 58.4651Z" fill="#9F5138"/>
<path d="M276.475 58.4651C276.308 58.4651 276.144 58.3926 276.031 58.2536C274.258 56.0717 270.775 55.5346 268.422 57.0818C268.158 57.2554 267.805 57.1828 267.632 56.9214C267.457 56.66 267.53 56.3082 267.792 56.1359C270.613 54.2797 274.793 54.9226 276.919 57.5405C277.117 57.7842 277.079 58.1419 276.834 58.3391C276.727 58.4235 276.601 58.4651 276.475 58.4651" fill="#9F5138"/>
<path d="M252.115 62.5609C252.115 63.5556 251.307 64.3613 250.308 64.3613C249.309 64.3613 248.498 63.5556 248.498 62.5609C248.498 61.5675 249.309 60.7618 250.308 60.7618C251.307 60.7618 252.115 61.5675 252.115 62.5609Z" fill="#ED7955"/>
<path d="M273.46 62.5609C273.46 63.5556 272.65 64.3613 271.651 64.3613C270.652 64.3613 269.841 63.5556 269.841 62.5609C269.841 61.5675 270.652 60.7618 271.651 60.7618C272.65 60.7618 273.46 61.5675 273.46 62.5609Z" fill="#ED7955"/>
<path d="M254.045 75.637C254.205 75.637 254.367 75.637 254.528 75.637H264.901C264.497 78.331 261.818 80.7933 259.079 80.7957C256.341 80.798 254.454 78.3298 254.045 75.637Z" fill="#ED7955"/>
</svg>
