<svg width="68" height="52" viewBox="0 0 68 52" fill="none" xmlns="http://www.w3.org/2000/svg">
<path fill-rule="evenodd" clip-rule="evenodd" d="M22.6978 0.0360111C22.6978 0.0558172 22.6137 0.0720222 22.511 0.0720222C22.4082 0.0720222 22.3242 0.0882271 22.3242 0.108033C22.3242 0.127839 22.2611 0.144044 22.1841 0.144044C22.107 0.144044 22.044 0.160249 22.044 0.180055C22.044 0.199861 22.0019 0.216066 21.9505 0.216066C21.8992 0.216066 21.8571 0.232271 21.8571 0.252078C21.8571 0.271884 21.8151 0.288089 21.7637 0.288089C21.7124 0.288089 21.6703 0.304294 21.6703 0.3241C21.6703 0.343906 21.6283 0.360111 21.5769 0.360111C21.5255 0.360111 21.4835 0.376316 21.4835 0.396122C21.4835 0.415928 21.4461 0.432133 21.4004 0.432133C21.3547 0.432133 21.287 0.464543 21.25 0.504155C21.213 0.543767 21.1499 0.576177 21.1099 0.576177C21.0699 0.576177 21.0068 0.608587 20.9698 0.648199C20.9327 0.687812 20.8651 0.720222 20.8193 0.720222C20.7674 0.720222 20.7363 0.747194 20.7363 0.792244C20.7363 0.832648 20.7051 0.864266 20.6653 0.864266C20.5841 0.864266 19.989 1.31041 19.989 1.3713C19.989 1.39345 19.926 1.45697 19.8489 1.51247C19.7718 1.56796 19.7088 1.6393 19.7088 1.67095C19.7088 1.70264 19.6878 1.72853 19.6621 1.72853C19.6364 1.72853 19.6154 1.76094 19.6154 1.80055C19.6154 1.84017 19.5944 1.87258 19.5687 1.87258C19.543 1.87258 19.522 1.90499 19.522 1.9446C19.522 1.98421 19.501 2.01662 19.4753 2.01662C19.4496 2.01662 19.4286 2.04903 19.4286 2.08864C19.4286 2.12825 19.4076 2.16066 19.3819 2.16066C19.3562 2.16066 19.3352 2.19307 19.3352 2.23269C19.3352 2.2723 19.3141 2.30471 19.2885 2.30471C19.2628 2.30471 19.2418 2.35332 19.2418 2.41274C19.2418 2.47216 19.2207 2.52078 19.1951 2.52078C19.1694 2.52078 19.1484 2.56939 19.1484 2.62881C19.1484 2.68823 19.1273 2.73684 19.1016 2.73684C19.075 2.73684 19.0549 2.84488 19.0549 2.98892C19.0549 3.13296 19.0349 3.241 19.0082 3.241C18.9792 3.241 18.9615 3.44507 18.9615 3.78116C18.9615 4.11725 18.9792 4.32133 19.0082 4.32133C19.0339 4.32133 19.0549 4.40235 19.0549 4.50139C19.0549 4.60042 19.076 4.68144 19.1016 4.68144C19.1273 4.68144 19.1484 4.73006 19.1484 4.78947C19.1484 4.84889 19.1694 4.89751 19.1951 4.89751C19.2207 4.89751 19.2418 4.94612 19.2418 5.00554C19.2418 5.06496 19.2628 5.11357 19.2885 5.11357C19.3141 5.11357 19.3352 5.14598 19.3352 5.1856C19.3352 5.22521 19.3562 5.25762 19.3819 5.25762C19.4076 5.25762 19.4286 5.29003 19.4286 5.32964C19.4286 5.36925 19.4496 5.40166 19.4753 5.40166C19.501 5.40166 19.522 5.43407 19.522 5.47368C19.522 5.5133 19.543 5.54571 19.5687 5.54571C19.5944 5.54571 19.6154 5.57812 19.6154 5.61773C19.6154 5.65734 19.6364 5.68975 19.6621 5.68975C19.6878 5.68975 19.7088 5.7186 19.7088 5.75381C19.7088 5.78907 19.7508 5.84125 19.8022 5.86981C19.8536 5.89836 19.8956 5.94266 19.8956 5.96826C19.8956 6.02375 20.76 6.69806 20.8312 6.69806C20.8584 6.69806 20.9322 6.73785 20.9952 6.78647L21.1099 6.87484V26.0353V45.1958L20.9009 45.3569C20.786 45.4455 20.6699 45.518 20.6429 45.518C20.5774 45.518 20.1758 45.8293 20.1758 45.88C20.1758 45.9019 20.0918 45.982 19.989 46.0582C19.8863 46.1343 19.8022 46.2186 19.8022 46.2455C19.8022 46.2724 19.7602 46.3177 19.7088 46.3463C19.6574 46.3748 19.6154 46.427 19.6154 46.4622C19.6154 46.4975 19.5944 46.5263 19.5687 46.5263C19.543 46.5263 19.522 46.5587 19.522 46.5983C19.522 46.6379 19.501 46.6704 19.4753 46.6704C19.4496 46.6704 19.4286 46.7028 19.4286 46.7424C19.4286 46.782 19.4076 46.8144 19.3819 46.8144C19.3562 46.8144 19.3352 46.8468 19.3352 46.8864C19.3352 46.926 19.3141 46.9584 19.2885 46.9584C19.2628 46.9584 19.2418 47.0233 19.2418 47.1025C19.2418 47.1817 19.2207 47.2465 19.1951 47.2465C19.1694 47.2465 19.1484 47.2952 19.1484 47.3546C19.1484 47.414 19.1273 47.4626 19.1016 47.4626C19.0757 47.4626 19.0549 47.5586 19.0549 47.6787C19.0549 47.7987 19.0342 47.8947 19.0082 47.8947C18.9797 47.8947 18.9615 48.0628 18.9615 48.3269C18.9615 48.5909 18.9797 48.759 19.0082 48.759C19.0349 48.759 19.0549 48.867 19.0549 49.0111C19.0549 49.1551 19.075 49.2632 19.1016 49.2632C19.1273 49.2632 19.1484 49.328 19.1484 49.4072C19.1484 49.4864 19.1694 49.5512 19.1951 49.5512C19.2207 49.5512 19.2418 49.5837 19.2418 49.6233C19.2418 49.6629 19.2628 49.6953 19.2885 49.6953C19.3141 49.6953 19.3352 49.7439 19.3352 49.8033C19.3352 49.8627 19.3562 49.9114 19.3819 49.9114C19.4076 49.9114 19.4286 49.9438 19.4286 49.9834C19.4286 50.023 19.4496 50.0554 19.4753 50.0554C19.501 50.0554 19.522 50.0878 19.522 50.1274C19.522 50.167 19.543 50.1994 19.5687 50.1994C19.5944 50.1994 19.6154 50.2283 19.6154 50.2635C19.6154 50.2988 19.6574 50.3509 19.7088 50.3795C19.7602 50.4081 19.8022 50.4602 19.8022 50.4955C19.8022 50.5307 19.8232 50.5596 19.8489 50.5596C19.8746 50.5596 19.8956 50.584 19.8956 50.614C19.8956 50.6801 20.8506 51.4238 20.9356 51.4238C20.9688 51.4238 21.0262 51.4562 21.0632 51.4958C21.1002 51.5355 21.1633 51.5679 21.2033 51.5679C21.2433 51.5679 21.3064 51.6003 21.3434 51.6399C21.3804 51.6795 21.4481 51.7119 21.4938 51.7119C21.5395 51.7119 21.5769 51.7281 21.5769 51.7479C21.5769 51.7677 21.619 51.7839 21.6703 51.7839C21.7217 51.7839 21.7637 51.8001 21.7637 51.8199C21.7637 51.8397 21.8058 51.856 21.8571 51.856C21.9085 51.856 21.9505 51.8722 21.9505 51.892C21.9505 51.9118 22.0136 51.928 22.0907 51.928C22.1677 51.928 22.2308 51.9442 22.2308 51.964C22.2308 51.9873 22.8068 52 23.8654 52C24.924 52 25.5 51.9873 25.5 51.964C25.5 51.9442 25.563 51.928 25.6401 51.928C25.7172 51.928 25.7802 51.9118 25.7802 51.892C25.7802 51.8722 25.8223 51.856 25.8736 51.856C25.925 51.856 25.967 51.8397 25.967 51.8199C25.967 51.8001 26.0091 51.7839 26.0604 51.7839C26.1118 51.7839 26.1538 51.7677 26.1538 51.7479C26.1538 51.7281 26.1959 51.7119 26.2473 51.7119C26.2986 51.7119 26.3407 51.6957 26.3407 51.6759C26.3407 51.6561 26.3781 51.6399 26.4237 51.6399C26.4695 51.6399 26.5371 51.6075 26.5742 51.5679C26.6112 51.5283 26.6697 51.4958 26.7043 51.4958C26.7388 51.4958 26.8694 51.4148 26.9945 51.3158C27.1196 51.2168 27.2459 51.1357 27.2751 51.1357C27.3436 51.1357 27.4615 51.0448 27.4615 50.9919C27.4615 50.9694 27.5666 50.8721 27.6951 50.7756C27.8235 50.6792 27.9286 50.5749 27.9286 50.5439C27.9286 50.5129 27.9496 50.4875 27.9753 50.4875C28.001 50.4875 28.022 50.4587 28.022 50.4235C28.022 50.3882 28.064 50.336 28.1154 50.3075C28.1668 50.2789 28.2088 50.2267 28.2088 50.1915C28.2088 50.1563 28.2298 50.1274 28.2555 50.1274C28.2812 50.1274 28.3022 50.095 28.3022 50.0554C28.3022 50.0158 28.3232 49.9834 28.3489 49.9834C28.3746 49.9834 28.3956 49.951 28.3956 49.9114C28.3956 49.8717 28.4166 49.8393 28.4423 49.8393C28.468 49.8393 28.489 49.7907 28.489 49.7313C28.489 49.6719 28.51 49.6233 28.5357 49.6233C28.5614 49.6233 28.5824 49.5909 28.5824 49.5512C28.5824 49.5116 28.6034 49.4792 28.6291 49.4792C28.6548 49.4792 28.6758 49.3982 28.6758 49.2992C28.6758 49.2001 28.6968 49.1191 28.7225 49.1191C28.752 49.1191 28.7692 48.867 28.7692 48.4349C28.7692 48.0028 28.752 47.7507 28.7225 47.7507C28.6966 47.7507 28.6758 47.6547 28.6758 47.5346C28.6758 47.4146 28.6551 47.3186 28.6291 47.3186C28.6034 47.3186 28.5824 47.2699 28.5824 47.2105C28.5824 47.1511 28.5614 47.1025 28.5357 47.1025C28.51 47.1025 28.489 47.0539 28.489 46.9945C28.489 46.935 28.468 46.8864 28.4423 46.8864C28.4166 46.8864 28.3956 46.854 28.3956 46.8144C28.3956 46.7748 28.3746 46.7424 28.3489 46.7424C28.3232 46.7424 28.3022 46.71 28.3022 46.6704C28.3022 46.6307 28.2812 46.5983 28.2555 46.5983C28.2298 46.5983 28.2088 46.5695 28.2088 46.5343C28.2088 46.499 28.1668 46.4468 28.1154 46.4183C28.064 46.3897 28.022 46.3375 28.022 46.3023C28.022 46.2671 28.001 46.2382 27.9753 46.2382C27.9496 46.2382 27.9286 46.2137 27.9286 46.1838C27.9286 46.1229 26.9769 45.374 26.8995 45.374C26.8724 45.374 26.7986 45.3342 26.7355 45.2856L26.6209 45.1972V26.0556C26.6209 13.3186 26.6365 6.91413 26.6676 6.91413C26.6933 6.91413 26.7143 6.88172 26.7143 6.84211C26.7143 6.80181 26.7454 6.77008 26.7849 6.77008C26.865 6.77008 27.7418 6.10798 27.7418 6.04748C27.7418 6.02588 27.8258 5.94593 27.9286 5.86981C28.0313 5.79368 28.1154 5.70585 28.1154 5.67455C28.1154 5.6433 28.1364 5.61773 28.1621 5.61773C28.1878 5.61773 28.2088 5.58532 28.2088 5.54571C28.2088 5.50609 28.2298 5.47368 28.2555 5.47368C28.2812 5.47368 28.3022 5.44127 28.3022 5.40166C28.3022 5.36205 28.3232 5.32964 28.3489 5.32964C28.3746 5.32964 28.3956 5.28102 28.3956 5.22161C28.3956 5.16219 28.4166 5.11357 28.4423 5.11357C28.468 5.11357 28.489 5.08116 28.489 5.04155C28.489 5.00194 28.51 4.96953 28.5357 4.96953C28.5614 4.96953 28.5824 4.92091 28.5824 4.8615C28.5824 4.80208 28.6034 4.75346 28.6291 4.75346C28.6548 4.75346 28.6758 4.68864 28.6758 4.60942C28.6758 4.53019 28.6968 4.46537 28.7225 4.46537C28.7498 4.46537 28.7692 4.34535 28.7692 4.17729C28.7692 4.00922 28.7887 3.8892 28.8159 3.8892C28.8416 3.8892 28.8626 3.80817 28.8626 3.70914C28.8626 3.61011 28.8416 3.52909 28.8159 3.52909C28.7893 3.52909 28.7692 3.42105 28.7692 3.27701C28.7692 3.13296 28.7492 3.02493 28.7225 3.02493C28.6968 3.02493 28.6758 2.94391 28.6758 2.84488C28.6758 2.74584 28.6548 2.66482 28.6291 2.66482C28.6034 2.66482 28.5824 2.6162 28.5824 2.55679C28.5824 2.49737 28.5614 2.44875 28.5357 2.44875C28.51 2.44875 28.489 2.41634 28.489 2.37673C28.489 2.33712 28.468 2.30471 28.4423 2.30471C28.4166 2.30471 28.3956 2.25609 28.3956 2.19668C28.3956 2.13726 28.3746 2.08864 28.3489 2.08864C28.3232 2.08864 28.3022 2.05623 28.3022 2.01662C28.3022 1.97701 28.2812 1.9446 28.2555 1.9446C28.2298 1.9446 28.2088 1.91575 28.2088 1.88053C28.2088 1.84528 28.1668 1.7931 28.1154 1.76454C28.064 1.73599 28.022 1.68737 28.022 1.65651C28.022 1.62565 27.9799 1.57703 27.9286 1.54848C27.8772 1.51992 27.8352 1.47566 27.8352 1.45009C27.8352 1.38459 26.8706 0.648199 26.7849 0.648199C26.746 0.648199 26.7143 0.631994 26.7143 0.612188C26.7143 0.592382 26.6769 0.576177 26.6312 0.576177C26.5855 0.576177 26.5178 0.543767 26.4808 0.504155C26.4437 0.464543 26.3761 0.432133 26.3303 0.432133C26.2847 0.432133 26.2473 0.415928 26.2473 0.396122C26.2473 0.376316 26.2052 0.360111 26.1538 0.360111C26.1025 0.360111 26.0604 0.343906 26.0604 0.3241C26.0604 0.304294 26.0184 0.288089 25.967 0.288089C25.9157 0.288089 25.8736 0.271884 25.8736 0.252078C25.8736 0.232271 25.8316 0.216066 25.7802 0.216066C25.7288 0.216066 25.6868 0.199861 25.6868 0.180055C25.6868 0.160249 25.6238 0.144044 25.5467 0.144044C25.4696 0.144044 25.4066 0.127839 25.4066 0.108033C25.4066 0.0882271 25.3435 0.0720222 25.2665 0.0720222C25.1894 0.0720222 25.1264 0.0558172 25.1264 0.0360111C25.1264 0.012928 24.6905 0 23.9121 0C23.1337 0 22.6978 0.012928 22.6978 0.0360111ZM67.6264 6.30194C67.6264 6.3225 67.4863 6.33795 67.2994 6.33795C67.1126 6.33795 66.9725 6.3534 66.9725 6.37396C66.9725 6.39377 66.8674 6.40997 66.739 6.40997C66.6106 6.40997 66.5055 6.42618 66.5055 6.44598C66.5055 6.46601 66.3809 6.48199 66.2253 6.48199C66.0696 6.48199 65.9451 6.49798 65.9451 6.51801C65.9451 6.53803 65.8205 6.55402 65.6648 6.55402C65.5092 6.55402 65.3846 6.57001 65.3846 6.59003C65.3846 6.61005 65.2601 6.62604 65.1044 6.62604C64.9487 6.62604 64.8242 6.64203 64.8242 6.66205C64.8242 6.68261 64.6841 6.69806 64.4972 6.69806C64.3104 6.69806 64.1703 6.71351 64.1703 6.73407C64.1703 6.75409 64.0458 6.77008 63.8901 6.77008C63.7344 6.77008 63.6099 6.78607 63.6099 6.80609C63.6099 6.82612 63.4853 6.84211 63.3297 6.84211C63.174 6.84211 63.0494 6.85809 63.0494 6.87812C63.0494 6.89814 62.9249 6.91413 62.7692 6.91413C62.6136 6.91413 62.489 6.93012 62.489 6.95014C62.489 6.96994 62.3839 6.98615 62.2555 6.98615C62.1271 6.98615 62.022 7.00235 62.022 7.02216C62.022 7.04316 61.8663 7.05817 61.6484 7.05817C61.4304 7.05817 61.2747 7.07319 61.2747 7.09418C61.2747 7.11421 61.1502 7.13019 60.9945 7.13019C60.8388 7.13019 60.7143 7.14618 60.7143 7.1662C60.7143 7.18623 60.5897 7.20222 60.4341 7.20222C60.2784 7.20222 60.1538 7.21821 60.1538 7.23823C60.1538 7.25825 60.0293 7.27424 59.8736 7.27424C59.718 7.27424 59.5934 7.29023 59.5934 7.31025C59.5934 7.33027 59.4688 7.34626 59.3132 7.34626C59.1575 7.34626 59.033 7.36225 59.033 7.38227C59.033 7.40229 58.9084 7.41828 58.7527 7.41828C58.5971 7.41828 58.4725 7.43427 58.4725 7.45429C58.4725 7.47486 58.3324 7.4903 58.1456 7.4903C57.9588 7.4903 57.8187 7.50575 57.8187 7.52632C57.8187 7.54688 57.6786 7.56233 57.4918 7.56233C57.3049 7.56233 57.1648 7.57778 57.1648 7.59834C57.1648 7.61836 57.0403 7.63435 56.8846 7.63435C56.729 7.63435 56.6044 7.65034 56.6044 7.67036C56.6044 7.69038 56.4798 7.70637 56.3242 7.70637C56.1685 7.70637 56.044 7.72236 56.044 7.74238C56.044 7.7624 55.9194 7.77839 55.7637 7.77839C55.6081 7.77839 55.4835 7.79438 55.4835 7.8144C55.4835 7.83443 55.359 7.85042 55.2033 7.85042C55.0476 7.85042 54.9231 7.8664 54.9231 7.88643C54.9231 7.90699 54.783 7.92244 54.5962 7.92244C54.4093 7.92244 54.2692 7.93789 54.2692 7.95845C54.2692 7.97901 54.1291 7.99446 53.9423 7.99446C53.7555 7.99446 53.6154 8.00991 53.6154 8.03047C53.6154 8.05028 53.5103 8.06648 53.3819 8.06648C53.2534 8.06648 53.1484 8.08269 53.1484 8.10249C53.1484 8.12252 53.0238 8.1385 52.8681 8.1385C52.7125 8.1385 52.5879 8.15449 52.5879 8.17451C52.5879 8.19486 52.4545 8.21053 52.281 8.21053C52.0773 8.21053 51.9517 8.22781 51.9074 8.26199C51.8498 8.30639 51.8407 10.2896 51.8407 22.7745V37.2355H51.9808C52.0578 37.2355 52.1209 37.2193 52.1209 37.1994C52.1209 37.1794 52.2454 37.1634 52.4011 37.1634C52.5568 37.1634 52.6813 37.1474 52.6813 37.1274C52.6813 37.1076 52.7864 37.0914 52.9148 37.0914C53.0433 37.0914 53.1484 37.0752 53.1484 37.0554C53.1484 37.0348 53.2885 37.0194 53.4753 37.0194C53.6621 37.0194 53.8022 37.0039 53.8022 36.9834C53.8022 36.9634 53.9268 36.9474 54.0824 36.9474C54.2381 36.9474 54.3626 36.9314 54.3626 36.9114C54.3626 36.8908 54.5027 36.8753 54.6896 36.8753C54.8764 36.8753 55.0165 36.8599 55.0165 36.8393C55.0165 36.8188 55.1566 36.8033 55.3434 36.8033C55.5302 36.8033 55.6703 36.7879 55.6703 36.7673C55.6703 36.7475 55.7754 36.7313 55.9038 36.7313C56.0323 36.7313 56.1374 36.7151 56.1374 36.6953C56.1374 36.6747 56.2775 36.6593 56.4643 36.6593C56.6511 36.6593 56.7912 36.6438 56.7912 36.6233C56.7912 36.6032 56.9158 36.5873 57.0714 36.5873C57.2271 36.5873 57.3516 36.5713 57.3516 36.5512C57.3516 36.5312 57.4762 36.5152 57.6319 36.5152C57.7875 36.5152 57.9121 36.4992 57.9121 36.4792C57.9121 36.4592 58.0366 36.4432 58.1923 36.4432C58.348 36.4432 58.4725 36.4272 58.4725 36.4072C58.4725 36.3866 58.6126 36.3712 58.7995 36.3712C58.9863 36.3712 59.1264 36.3557 59.1264 36.3352C59.1264 36.3146 59.2665 36.2992 59.4533 36.2992C59.6401 36.2992 59.7802 36.2837 59.7802 36.2632C59.7802 36.2434 59.8853 36.2271 60.0137 36.2271C60.1422 36.2271 60.2473 36.2109 60.2473 36.1911C60.2473 36.1711 60.3718 36.1551 60.5275 36.1551C60.6831 36.1551 60.8077 36.1391 60.8077 36.1191C60.8077 36.0991 60.9322 36.0831 61.0879 36.0831C61.2436 36.0831 61.3681 36.0671 61.3681 36.0471C61.3681 36.0265 61.5082 36.0111 61.6951 36.0111C61.8819 36.0111 62.022 35.9956 62.022 35.9751C62.022 35.9545 62.1621 35.9391 62.3489 35.9391C62.5357 35.9391 62.6758 35.9236 62.6758 35.903C62.6758 35.8832 62.7809 35.867 62.9093 35.867C63.0378 35.867 63.1429 35.8508 63.1429 35.831C63.1429 35.811 63.2674 35.795 63.4231 35.795C63.5787 35.795 63.7033 35.779 63.7033 35.759C63.7033 35.739 63.8279 35.723 63.9835 35.723C64.1392 35.723 64.2637 35.707 64.2637 35.687C64.2637 35.666 64.4194 35.651 64.6374 35.651C64.8553 35.651 65.011 35.636 65.011 35.615C65.011 35.5949 65.1355 35.5789 65.2912 35.5789C65.4469 35.5789 65.5714 35.563 65.5714 35.5429C65.5714 35.5229 65.696 35.5069 65.8516 35.5069C66.0073 35.5069 66.1319 35.4909 66.1319 35.4709C66.1319 35.4504 66.272 35.4349 66.4588 35.4349C66.6456 35.4349 66.7857 35.4195 66.7857 35.3989C66.7857 35.3791 66.8908 35.3629 67.0192 35.3629C67.1477 35.3629 67.2527 35.3467 67.2527 35.3269C67.2527 35.3068 67.3773 35.2909 67.533 35.2909C67.6886 35.2909 67.8132 35.2749 67.8132 35.2548C67.8132 35.235 67.8552 35.2188 67.9066 35.2188C67.9989 35.2188 68 35.1948 68 33.0942C68 30.9935 67.9989 30.9695 67.9066 30.9695C67.8552 30.9695 67.8132 30.9857 67.8132 31.0055C67.8132 31.0261 67.6731 31.0416 67.4863 31.0416C67.2995 31.0416 67.1593 31.057 67.1593 31.0776C67.1593 31.0976 67.0348 31.1136 66.8791 31.1136C66.7235 31.1136 66.5989 31.1296 66.5989 31.1496C66.5989 31.1696 66.4743 31.1856 66.3187 31.1856C66.163 31.1856 66.0385 31.2016 66.0385 31.2216C66.0385 31.2422 65.8984 31.2576 65.7115 31.2576C65.5247 31.2576 65.3846 31.2731 65.3846 31.2936C65.3846 31.3137 65.2601 31.3296 65.1044 31.3296C64.9487 31.3296 64.8242 31.3456 64.8242 31.3657C64.8242 31.3857 64.6996 31.4017 64.544 31.4017C64.3883 31.4017 64.2637 31.4177 64.2637 31.4377C64.2637 31.4577 64.1392 31.4737 63.9835 31.4737C63.8279 31.4737 63.7033 31.4897 63.7033 31.5097C63.7033 31.5297 63.5787 31.5457 63.4231 31.5457C63.2674 31.5457 63.1429 31.5617 63.1429 31.5817C63.1429 31.6023 63.0027 31.6177 62.8159 31.6177C62.6291 31.6177 62.489 31.6332 62.489 31.6537C62.489 31.6735 62.3839 31.6897 62.2555 31.6897C62.1271 31.6897 62.022 31.706 62.022 31.7258C62.022 31.7463 61.8819 31.7618 61.6951 31.7618C61.5082 31.7618 61.3681 31.7772 61.3681 31.7978C61.3681 31.8176 61.2631 31.8338 61.1346 31.8338C61.0062 31.8338 60.9011 31.85 60.9011 31.8698C60.9011 31.8908 60.7454 31.9058 60.5275 31.9058C60.3095 31.9058 60.1538 31.9208 60.1538 31.9418C60.1538 31.9619 60.0293 31.9778 59.8736 31.9778C59.718 31.9778 59.5934 31.9938 59.5934 32.0138C59.5934 32.0339 59.4688 32.0499 59.3132 32.0499C59.1575 32.0499 59.033 32.0659 59.033 32.0859C59.033 32.1059 58.9084 32.1219 58.7527 32.1219C58.5971 32.1219 58.4725 32.1379 58.4725 32.1579C58.4725 32.1785 58.3324 32.1939 58.1456 32.1939C57.9588 32.1939 57.8187 32.2094 57.8187 32.2299C57.8187 32.2497 57.7136 32.2659 57.5852 32.2659H57.3516V28.1401C57.3516 23.4896 57.3124 23.9114 57.7453 23.9114C57.8884 23.9114 58.0055 23.8952 58.0055 23.8753C58.0055 23.8553 58.1301 23.8393 58.2857 23.8393C58.4414 23.8393 58.5659 23.8233 58.5659 23.8033C58.5659 23.7835 58.671 23.7673 58.7995 23.7673C58.9279 23.7673 59.033 23.7511 59.033 23.7313C59.033 23.7103 59.1886 23.6953 59.4066 23.6953C59.6246 23.6953 59.7802 23.6803 59.7802 23.6593C59.7802 23.6395 59.8853 23.6233 60.0137 23.6233C60.1422 23.6233 60.2473 23.6071 60.2473 23.5873C60.2473 23.5672 60.3718 23.5512 60.5275 23.5512C60.6831 23.5512 60.8077 23.5353 60.8077 23.5152C60.8077 23.4947 60.9478 23.4792 61.1346 23.4792C61.3214 23.4792 61.4615 23.4638 61.4615 23.4432C61.4615 23.4232 61.5861 23.4072 61.7418 23.4072C61.8974 23.4072 62.022 23.3912 62.022 23.3712C62.022 23.3506 62.1621 23.3352 62.3489 23.3352C62.5357 23.3352 62.6758 23.3197 62.6758 23.2992C62.6758 23.2794 62.7809 23.2632 62.9093 23.2632C63.0378 23.2632 63.1429 23.247 63.1429 23.2271C63.1429 23.2066 63.283 23.1911 63.4698 23.1911C63.6566 23.1911 63.7967 23.1757 63.7967 23.1551C63.7967 23.1353 63.9018 23.1191 64.0302 23.1191C64.1587 23.1191 64.2637 23.1029 64.2637 23.0831C64.2637 23.0621 64.4194 23.0471 64.6374 23.0471C64.8553 23.0471 65.011 23.0321 65.011 23.0111C65.011 22.9911 65.1355 22.9751 65.2912 22.9751C65.4469 22.9751 65.5714 22.9591 65.5714 22.9391C65.5714 22.919 65.696 22.903 65.8516 22.903C66.0073 22.903 66.1319 22.8871 66.1319 22.867C66.1319 22.8472 66.2279 22.831 66.3453 22.831C66.7148 22.831 66.6923 22.9652 66.6923 20.7629V18.7978H66.5055C66.4027 18.7978 66.3187 18.814 66.3187 18.8338C66.3187 18.8544 66.1786 18.8698 65.9918 18.8698C65.8049 18.8698 65.6648 18.8853 65.6648 18.9058C65.6648 18.9258 65.5403 18.9418 65.3846 18.9418C65.229 18.9418 65.1044 18.9578 65.1044 18.9778C65.1044 18.9979 64.9798 19.0138 64.8242 19.0138C64.6685 19.0138 64.544 19.0298 64.544 19.0499C64.544 19.0699 64.4194 19.0859 64.2637 19.0859C64.1081 19.0859 63.9835 19.1019 63.9835 19.1219C63.9835 19.1417 63.8784 19.1579 63.75 19.1579C63.6216 19.1579 63.5165 19.1741 63.5165 19.1939C63.5165 19.2149 63.3608 19.2299 63.1429 19.2299C62.9249 19.2299 62.7692 19.2449 62.7692 19.2659C62.7692 19.2857 62.6641 19.3019 62.5357 19.3019C62.4073 19.3019 62.3022 19.3181 62.3022 19.3379C62.3022 19.3585 62.1621 19.374 61.9753 19.374C61.7885 19.374 61.6484 19.3894 61.6484 19.41C61.6484 19.4305 61.5082 19.446 61.3214 19.446C61.1346 19.446 60.9945 19.4614 60.9945 19.482C60.9945 19.502 60.8699 19.518 60.7143 19.518C60.5586 19.518 60.4341 19.534 60.4341 19.554C60.4341 19.5738 60.329 19.59 60.2005 19.59C60.0721 19.59 59.967 19.6062 59.967 19.626C59.967 19.6466 59.8269 19.6621 59.6401 19.6621C59.4533 19.6621 59.3132 19.6775 59.3132 19.6981C59.3132 19.7186 59.1731 19.7341 58.9863 19.7341C58.7994 19.7341 58.6593 19.7495 58.6593 19.7701C58.6593 19.7906 58.5192 19.8061 58.3324 19.8061C58.1456 19.8061 58.0055 19.8215 58.0055 19.8421C58.0055 19.8627 57.8654 19.8781 57.6786 19.8781H57.3516V15.7368V11.5956H57.5385C57.6412 11.5956 57.7253 11.5794 57.7253 11.5596C57.7253 11.5395 57.8498 11.5235 58.0055 11.5235C58.1612 11.5235 58.2857 11.5076 58.2857 11.4875C58.2857 11.4675 58.4103 11.4515 58.5659 11.4515C58.7216 11.4515 58.8462 11.4355 58.8462 11.4155C58.8462 11.3955 58.9707 11.3795 59.1264 11.3795C59.282 11.3795 59.4066 11.3635 59.4066 11.3435C59.4066 11.3235 59.5312 11.3075 59.6868 11.3075C59.8425 11.3075 59.967 11.2915 59.967 11.2715C59.967 11.2514 60.0916 11.2355 60.2473 11.2355C60.4029 11.2355 60.5275 11.2195 60.5275 11.1994C60.5275 11.1785 60.6831 11.1634 60.9011 11.1634C61.1191 11.1634 61.2747 11.1484 61.2747 11.1274C61.2747 11.1076 61.3588 11.0914 61.4615 11.0914C61.5643 11.0914 61.6484 11.0752 61.6484 11.0554C61.6484 11.0348 61.7885 11.0194 61.9753 11.0194C62.1621 11.0194 62.3022 11.0039 62.3022 10.9834C62.3022 10.9634 62.4268 10.9474 62.5824 10.9474C62.7381 10.9474 62.8626 10.9314 62.8626 10.9114C62.8626 10.8908 63.0027 10.8753 63.1896 10.8753C63.3764 10.8753 63.5165 10.8599 63.5165 10.8393C63.5165 10.8193 63.641 10.8033 63.7967 10.8033C63.9524 10.8033 64.0769 10.7873 64.0769 10.7673C64.0769 10.7473 64.2015 10.7313 64.3571 10.7313C64.5128 10.7313 64.6374 10.7153 64.6374 10.6953C64.6374 10.6747 64.7775 10.6593 64.9643 10.6593C65.1511 10.6593 65.2912 10.6438 65.2912 10.6233C65.2912 10.6035 65.3963 10.5873 65.5247 10.5873C65.6532 10.5873 65.7582 10.5711 65.7582 10.5512C65.7582 10.5312 65.8828 10.5152 66.0385 10.5152C66.1941 10.5152 66.3187 10.4992 66.3187 10.4792C66.3187 10.4587 66.4588 10.4432 66.6456 10.4432C66.8324 10.4432 66.9725 10.4278 66.9725 10.4072C66.9725 10.3866 67.1126 10.3712 67.2994 10.3712C67.4863 10.3712 67.6264 10.3557 67.6264 10.3352C67.6264 10.3154 67.7104 10.2992 67.8132 10.2992H68V8.28255V6.26593H67.8132C67.7104 6.26593 67.6264 6.28213 67.6264 6.30194ZM49.0385 8.60665C49.0385 8.62645 48.9334 8.64266 48.8049 8.64266C48.6765 8.64266 48.5714 8.65886 48.5714 8.67867C48.5714 8.69967 48.4158 8.71468 48.1978 8.71468C47.9798 8.71468 47.8242 8.7297 47.8242 8.75069C47.8242 8.77071 47.6996 8.7867 47.544 8.7867C47.3883 8.7867 47.2637 8.80269 47.2637 8.82271C47.2637 8.84274 47.1392 8.85873 46.9835 8.85873C46.8279 8.85873 46.7033 8.87472 46.7033 8.89474C46.7033 8.91476 46.5787 8.93075 46.4231 8.93075C46.2674 8.93075 46.1429 8.94674 46.1429 8.96676C46.1429 8.98678 46.0183 9.00277 45.8626 9.00277C45.707 9.00277 45.5824 9.01876 45.5824 9.03878C45.5824 9.0588 45.4579 9.07479 45.3022 9.07479C45.1465 9.07479 45.022 9.09078 45.022 9.1108C45.022 9.13137 44.8819 9.14681 44.6951 9.14681C44.5082 9.14681 44.3681 9.16226 44.3681 9.18283C44.3681 9.20339 44.228 9.21884 44.0412 9.21884C43.8544 9.21884 43.7143 9.23429 43.7143 9.25485C43.7143 9.27465 43.6512 9.29086 43.5742 9.29086H43.4341V9.50692C43.4341 9.62695 43.4133 9.72299 43.3874 9.72299C43.3614 9.72299 43.3407 9.81903 43.3407 9.93906C43.3407 10.0591 43.3199 10.1551 43.294 10.1551C43.2673 10.1551 43.2473 10.2632 43.2473 10.4072C43.2473 10.5512 43.2272 10.6593 43.2006 10.6593C43.1746 10.6593 43.1538 10.7553 43.1538 10.8753C43.1538 10.9954 43.1331 11.0914 43.1071 11.0914C43.0805 11.0914 43.0604 11.1994 43.0604 11.3435C43.0604 11.4875 43.0404 11.5956 43.0137 11.5956C42.988 11.5956 42.967 11.6766 42.967 11.7756C42.967 11.8747 42.946 11.9557 42.9203 11.9557C42.8937 11.9557 42.8736 12.0637 42.8736 12.2078C42.8736 12.3518 42.8536 12.4598 42.8269 12.4598C42.801 12.4598 42.7802 12.5559 42.7802 12.6759C42.7802 12.7959 42.7595 12.892 42.7335 12.892C42.7068 12.892 42.6868 13 42.6868 13.144C42.6868 13.2881 42.6668 13.3961 42.6401 13.3961C42.6141 13.3961 42.5934 13.4922 42.5934 13.6122C42.5934 13.7322 42.5727 13.8283 42.5467 13.8283C42.521 13.8283 42.5 13.9093 42.5 14.0083C42.5 14.1073 42.479 14.1884 42.4533 14.1884C42.4273 14.1884 42.4066 14.2844 42.4066 14.4044C42.4066 14.5245 42.3859 14.6205 42.3599 14.6205C42.3332 14.6205 42.3132 14.7285 42.3132 14.8726C42.3132 15.0166 42.2931 15.1247 42.2665 15.1247C42.2405 15.1247 42.2198 15.2207 42.2198 15.3407C42.2198 15.4607 42.199 15.5568 42.1731 15.5568C42.1471 15.5568 42.1264 15.6528 42.1264 15.7729C42.1264 15.8929 42.1056 15.9889 42.0797 15.9889C42.053 15.9889 42.033 16.097 42.033 16.241C42.033 16.385 42.0129 16.4931 41.9863 16.4931C41.9603 16.4931 41.9396 16.5891 41.9396 16.7091C41.9396 16.8292 41.9188 16.9252 41.8929 16.9252C41.8672 16.9252 41.8462 17.0062 41.8462 17.1053C41.8462 17.2043 41.8251 17.2853 41.7995 17.2853C41.7735 17.2853 41.7527 17.3814 41.7527 17.5014C41.7527 17.6214 41.732 17.7175 41.706 17.7175C41.6794 17.7175 41.6593 17.8255 41.6593 17.9695C41.6593 18.1136 41.6393 18.2216 41.6126 18.2216C41.5867 18.2216 41.5659 18.3176 41.5659 18.4377C41.5659 18.5577 41.5452 18.6537 41.5192 18.6537C41.4933 18.6537 41.4725 18.7498 41.4725 18.8698C41.4725 18.9898 41.4518 19.0859 41.4258 19.0859C41.4001 19.0859 41.3791 19.1669 41.3791 19.2659C41.3791 19.365 41.3581 19.446 41.3324 19.446C41.3057 19.446 41.2857 19.554 41.2857 19.6981C41.2857 19.8421 41.2657 19.9501 41.239 19.9501C41.213 19.9501 41.1923 20.0462 41.1923 20.1662C41.1923 20.2862 41.1716 20.3823 41.1456 20.3823C41.1189 20.3823 41.0989 20.4903 41.0989 20.6343C41.0989 20.7784 41.0789 20.8864 41.0522 20.8864C41.0262 20.8864 41.0055 20.9825 41.0055 21.1025C41.0055 21.2225 40.9848 21.3186 40.9588 21.3186C40.9331 21.3186 40.9121 21.3996 40.9121 21.4986C40.9121 21.5976 40.8911 21.6787 40.8654 21.6787C40.8394 21.6787 40.8187 21.7747 40.8187 21.8947C40.8187 22.0148 40.7979 22.1108 40.772 22.1108C40.7453 22.1108 40.7253 22.2188 40.7253 22.3629C40.7253 22.5069 40.7052 22.615 40.6786 22.615C40.6526 22.615 40.6319 22.711 40.6319 22.831C40.6319 22.9511 40.6111 23.0471 40.5852 23.0471C40.5592 23.0471 40.5385 23.1431 40.5385 23.2632C40.5385 23.3832 40.5177 23.4792 40.4918 23.4792C40.4658 23.4792 40.4451 23.5753 40.4451 23.6953C40.4451 23.8153 40.4243 23.9114 40.3984 23.9114C40.3717 23.9114 40.3516 24.0194 40.3516 24.1634C40.3516 24.3075 40.3316 24.4155 40.3049 24.4155C40.2793 24.4155 40.2582 24.4965 40.2582 24.5956C40.2582 24.6946 40.2372 24.7756 40.2115 24.7756C40.1856 24.7756 40.1648 24.8717 40.1648 24.9917C40.1648 25.1117 40.1441 25.2078 40.1181 25.2078C40.0915 25.2078 40.0714 25.3158 40.0714 25.4598C40.0714 25.6039 40.0514 25.7119 40.0247 25.7119C39.9988 25.7119 39.978 25.808 39.978 25.928C39.978 26.048 39.9573 26.144 39.9313 26.144C39.9047 26.144 39.8846 26.2521 39.8846 26.3961C39.8846 26.5402 39.8646 26.6482 39.8379 26.6482C39.8122 26.6482 39.7912 26.7292 39.7912 26.8283C39.7912 26.9273 39.7702 27.0083 39.7445 27.0083C39.7178 27.0083 39.6978 27.1163 39.6978 27.2604C39.6978 27.4044 39.6778 27.5125 39.6511 27.5125C39.6244 27.5125 39.6044 27.6205 39.6044 27.7645C39.6044 27.9086 39.5844 28.0166 39.5577 28.0166C39.5317 28.0166 39.511 28.1127 39.511 28.2327C39.511 28.3527 39.4903 28.4488 39.4643 28.4488C39.4383 28.4488 39.4176 28.5448 39.4176 28.6648C39.4176 28.7848 39.3968 28.8809 39.3709 28.8809C39.3449 28.8809 39.3242 28.9769 39.3242 29.097C39.3242 29.217 39.3034 29.313 39.2775 29.313C39.2502 29.313 39.2308 29.433 39.2308 29.6011C39.2308 29.7692 39.2113 29.8892 39.1841 29.8892C39.1584 29.8892 39.1374 29.8244 39.1374 29.7452C39.1374 29.6659 39.1163 29.6011 39.0907 29.6011C39.0647 29.6011 39.044 29.5051 39.044 29.385C39.044 29.265 39.0232 29.169 38.9973 29.169C38.9706 29.169 38.9506 29.0609 38.9506 28.9169C38.9506 28.7729 38.9305 28.6648 38.9038 28.6648C38.8779 28.6648 38.8571 28.5688 38.8571 28.4488C38.8571 28.3287 38.8364 28.2327 38.8104 28.2327C38.7848 28.2327 38.7637 28.1517 38.7637 28.0526C38.7637 27.9536 38.7427 27.8726 38.717 27.8726C38.6913 27.8726 38.6703 27.7916 38.6703 27.6925C38.6703 27.5935 38.6493 27.5125 38.6236 27.5125C38.597 27.5125 38.5769 27.4044 38.5769 27.2604C38.5769 27.1163 38.5569 27.0083 38.5302 27.0083C38.5036 27.0083 38.4835 26.9003 38.4835 26.7562C38.4835 26.6122 38.4635 26.5042 38.4368 26.5042C38.4108 26.5042 38.3901 26.4081 38.3901 26.2881C38.3901 26.1681 38.3694 26.072 38.3434 26.072C38.3177 26.072 38.2967 26.0072 38.2967 25.928C38.2967 25.8488 38.2757 25.7839 38.25 25.7839C38.224 25.7839 38.2033 25.6879 38.2033 25.5679C38.2033 25.4478 38.1826 25.3518 38.1566 25.3518C38.1306 25.3518 38.1099 25.2558 38.1099 25.1357C38.1099 25.0157 38.0892 24.9197 38.0632 24.9197C38.0365 24.9197 38.0165 24.8116 38.0165 24.6676C38.0165 24.5235 37.9964 24.4155 37.9698 24.4155C37.9438 24.4155 37.9231 24.3195 37.9231 24.1994C37.9231 24.0794 37.9023 23.9834 37.8764 23.9834C37.8504 23.9834 37.8297 23.8873 37.8297 23.7673C37.8297 23.6473 37.8089 23.5512 37.783 23.5512C37.757 23.5512 37.7363 23.4552 37.7363 23.3352C37.7363 23.2152 37.7155 23.1191 37.6896 23.1191C37.6636 23.1191 37.6429 23.0231 37.6429 22.903C37.6429 22.783 37.6221 22.687 37.5962 22.687C37.5705 22.687 37.5495 22.606 37.5495 22.5069C37.5495 22.4079 37.5284 22.3269 37.5027 22.3269C37.4768 22.3269 37.456 22.2308 37.456 22.1108C37.456 21.9908 37.4353 21.8947 37.4093 21.8947C37.3827 21.8947 37.3626 21.7867 37.3626 21.6427C37.3626 21.4986 37.3426 21.3906 37.3159 21.3906C37.29 21.3906 37.2692 21.2945 37.2692 21.1745C37.2692 21.0545 37.2485 20.9584 37.2225 20.9584C37.1966 20.9584 37.1758 20.8624 37.1758 20.7424C37.1758 20.6224 37.1551 20.5263 37.1291 20.5263C37.1034 20.5263 37.0824 20.4453 37.0824 20.3463C37.0824 20.2472 37.0614 20.1662 37.0357 20.1662C37.0097 20.1662 36.989 20.0702 36.989 19.9501C36.989 19.8301 36.9683 19.7341 36.9423 19.7341C36.9156 19.7341 36.8956 19.626 36.8956 19.482C36.8956 19.338 36.8756 19.2299 36.8489 19.2299C36.8229 19.2299 36.8022 19.1339 36.8022 19.0138C36.8022 18.8938 36.7815 18.7978 36.7555 18.7978C36.7295 18.7978 36.7088 18.7017 36.7088 18.5817C36.7088 18.4617 36.6881 18.3657 36.6621 18.3657C36.6364 18.3657 36.6154 18.2846 36.6154 18.1856C36.6154 18.0866 36.5944 18.0055 36.5687 18.0055C36.5427 18.0055 36.522 17.9095 36.522 17.7895C36.522 17.6694 36.5012 17.5734 36.4753 17.5734C36.4493 17.5734 36.4286 17.4774 36.4286 17.3573C36.4286 17.2373 36.4078 17.1413 36.3819 17.1413C36.3559 17.1413 36.3352 17.0452 36.3352 16.9252C36.3352 16.8052 36.3144 16.7091 36.2885 16.7091C36.2625 16.7091 36.2418 16.6131 36.2418 16.4931C36.2418 16.3731 36.221 16.277 36.1951 16.277C36.1684 16.277 36.1484 16.169 36.1484 16.0249C36.1484 15.8809 36.1283 15.7729 36.1016 15.7729C36.0757 15.7729 36.0549 15.6768 36.0549 15.5568C36.0549 15.4368 36.0342 15.3407 36.0082 15.3407C35.9826 15.3407 35.9615 15.2597 35.9615 15.1607C35.9615 15.0616 35.9405 14.9806 35.9148 14.9806C35.8889 14.9806 35.8681 14.8846 35.8681 14.7645C35.8681 14.6445 35.8474 14.5485 35.8214 14.5485C35.7955 14.5485 35.7747 14.4524 35.7747 14.3324C35.7747 14.2124 35.754 14.1163 35.728 14.1163C35.7021 14.1163 35.6813 14.0203 35.6813 13.9003C35.6813 13.7803 35.6606 13.6842 35.6346 13.6842C35.6079 13.6842 35.5879 13.5762 35.5879 13.4321C35.5879 13.2881 35.5679 13.1801 35.5412 13.1801C35.5155 13.1801 35.4945 13.099 35.4945 13C35.4945 12.901 35.4735 12.8199 35.4478 12.8199C35.4218 12.8199 35.4011 12.7239 35.4011 12.6039C35.4011 12.4839 35.3804 12.3878 35.3544 12.3878C35.3284 12.3878 35.3077 12.2918 35.3077 12.1717C35.3077 12.0517 35.287 11.9557 35.261 11.9557C35.2343 11.9557 35.2143 11.8476 35.2143 11.7036C35.2143 11.5596 35.1942 11.4515 35.1676 11.4515C35.1416 11.4515 35.1209 11.3555 35.1209 11.2355C35.1209 11.1154 35.1001 11.0194 35.0742 11.0194C35.0485 11.0194 35.0275 10.9384 35.0275 10.8393C35.0275 10.7403 35.0065 10.6593 34.9808 10.6593C34.9551 10.6593 34.9341 10.5945 34.9341 10.5152V10.3712H34.7006C34.5721 10.3712 34.467 10.3874 34.467 10.4072C34.467 10.4272 34.3425 10.4432 34.1868 10.4432C34.0312 10.4432 33.9066 10.4592 33.9066 10.4792C33.9066 10.4992 33.782 10.5152 33.6264 10.5152C33.4707 10.5152 33.3462 10.5312 33.3462 10.5512C33.3462 10.5713 33.2216 10.5873 33.0659 10.5873C32.9103 10.5873 32.7857 10.6032 32.7857 10.6233C32.7857 10.6438 32.6456 10.6593 32.4588 10.6593C32.272 10.6593 32.1319 10.6747 32.1319 10.6953C32.1319 10.7153 32.0073 10.7313 31.8516 10.7313C31.696 10.7313 31.5714 10.7473 31.5714 10.7673C31.5714 10.7873 31.4469 10.8033 31.2912 10.8033C31.1355 10.8033 31.011 10.8193 31.011 10.8393C31.011 10.8599 30.8709 10.8753 30.6841 10.8753C30.4973 10.8753 30.3571 10.8908 30.3571 10.9114C30.3571 10.9312 30.2521 10.9474 30.1236 10.9474C29.9952 10.9474 29.8901 10.9636 29.8901 10.9834C29.8901 11.0034 29.7656 11.0194 29.6099 11.0194C29.4542 11.0194 29.3297 11.0354 29.3297 11.0554C29.3297 11.0752 29.2666 11.0914 29.1896 11.0914C29.1125 11.0914 29.0494 11.1076 29.0494 11.1274C29.0494 11.1472 29.0705 11.1634 29.0962 11.1634C29.1218 11.1634 29.1429 11.2445 29.1429 11.3435C29.1429 11.4425 29.1639 11.5235 29.1896 11.5235C29.2152 11.5235 29.2363 11.6046 29.2363 11.7036C29.2363 11.8026 29.2573 11.8837 29.283 11.8837C29.3087 11.8837 29.3297 11.9647 29.3297 12.0637C29.3297 12.1627 29.3507 12.2438 29.3764 12.2438C29.4021 12.2438 29.4231 12.3086 29.4231 12.3878C29.4231 12.467 29.4441 12.5319 29.4698 12.5319C29.4955 12.5319 29.5165 12.6129 29.5165 12.7119C29.5165 12.8109 29.5375 12.892 29.5632 12.892C29.5889 12.892 29.6099 12.973 29.6099 13.072C29.6099 13.1711 29.6309 13.2521 29.6566 13.2521C29.6823 13.2521 29.7033 13.3331 29.7033 13.4321C29.7033 13.5312 29.7243 13.6122 29.75 13.6122C29.7757 13.6122 29.7967 13.677 29.7967 13.7562C29.7967 13.8355 29.8177 13.9003 29.8434 13.9003C29.8691 13.9003 29.8901 13.9813 29.8901 14.0803C29.8901 14.1794 29.9111 14.2604 29.9368 14.2604C29.9625 14.2604 29.9835 14.3414 29.9835 14.4404C29.9835 14.5395 30.0045 14.6205 30.0302 14.6205C30.0559 14.6205 30.0769 14.7015 30.0769 14.8006C30.0769 14.8996 30.0979 14.9806 30.1236 14.9806C30.1493 14.9806 30.1703 15.0616 30.1703 15.1607C30.1703 15.2597 30.1913 15.3407 30.217 15.3407C30.2427 15.3407 30.2637 15.4217 30.2637 15.5208C30.2637 15.6198 30.2848 15.7008 30.3104 15.7008C30.3361 15.7008 30.3571 15.7657 30.3571 15.8449C30.3571 15.9241 30.3782 15.9889 30.4038 15.9889C30.4295 15.9889 30.4506 16.0537 30.4506 16.133C30.4506 16.2122 30.4716 16.277 30.4973 16.277C30.5229 16.277 30.544 16.358 30.544 16.4571C30.544 16.5561 30.565 16.6371 30.5907 16.6371C30.6163 16.6371 30.6374 16.7181 30.6374 16.8172C30.6374 16.9162 30.6584 16.9972 30.6841 16.9972C30.71 16.9972 30.7308 17.0933 30.7308 17.2133C30.7308 17.3333 30.7515 17.4294 30.7775 17.4294C30.8032 17.4294 30.8242 17.478 30.8242 17.5374C30.8242 17.5968 30.8452 17.6454 30.8709 17.6454C30.8966 17.6454 30.9176 17.7265 30.9176 17.8255C30.9176 17.9245 30.9386 18.0055 30.9643 18.0055C30.99 18.0055 31.011 18.0866 31.011 18.1856C31.011 18.2846 31.032 18.3657 31.0577 18.3657C31.0837 18.3657 31.1044 18.4617 31.1044 18.5817C31.1044 18.7017 31.1251 18.7978 31.1511 18.7978C31.1768 18.7978 31.1978 18.8626 31.1978 18.9418C31.1978 19.0211 31.2188 19.0859 31.2445 19.0859C31.2702 19.0859 31.2912 19.1507 31.2912 19.2299C31.2912 19.3091 31.3122 19.374 31.3379 19.374C31.3636 19.374 31.3846 19.455 31.3846 19.554C31.3846 19.653 31.4056 19.7341 31.4313 19.7341C31.457 19.7341 31.478 19.8151 31.478 19.9141C31.478 20.0132 31.499 20.0942 31.5247 20.0942C31.5504 20.0942 31.5714 20.1752 31.5714 20.2742C31.5714 20.3733 31.5924 20.4543 31.6181 20.4543C31.6438 20.4543 31.6648 20.5353 31.6648 20.6343C31.6648 20.7334 31.6859 20.8144 31.7115 20.8144C31.7372 20.8144 31.7582 20.8792 31.7582 20.9584C31.7582 21.0377 31.7793 21.1025 31.8049 21.1025C31.8306 21.1025 31.8516 21.1835 31.8516 21.2825C31.8516 21.3816 31.8727 21.4626 31.8984 21.4626C31.924 21.4626 31.9451 21.5274 31.9451 21.6066C31.9451 21.6859 31.9661 21.7507 31.9918 21.7507C32.0174 21.7507 32.0385 21.8317 32.0385 21.9307C32.0385 22.0298 32.0595 22.1108 32.0852 22.1108C32.1108 22.1108 32.1319 22.1918 32.1319 22.2909C32.1319 22.3899 32.1529 22.4709 32.1786 22.4709C32.2043 22.4709 32.2253 22.5519 32.2253 22.651C32.2253 22.75 32.2463 22.831 32.272 22.831C32.2977 22.831 32.3187 22.912 32.3187 23.0111C32.3187 23.1101 32.3397 23.1911 32.3654 23.1911C32.3911 23.1911 32.4121 23.256 32.4121 23.3352C32.4121 23.4144 32.4331 23.4792 32.4588 23.4792C32.4848 23.4792 32.5055 23.5753 32.5055 23.6953C32.5055 23.8153 32.5262 23.9114 32.5522 23.9114C32.5779 23.9114 32.5989 23.9762 32.5989 24.0554C32.5989 24.1346 32.6199 24.1994 32.6456 24.1994C32.6713 24.1994 32.6923 24.2805 32.6923 24.3795C32.6923 24.4785 32.7133 24.5596 32.739 24.5596C32.7647 24.5596 32.7857 24.6244 32.7857 24.7036C32.7857 24.7828 32.8067 24.8476 32.8324 24.8476C32.8581 24.8476 32.8791 24.9287 32.8791 25.0277C32.8791 25.1267 32.9001 25.2078 32.9258 25.2078C32.9515 25.2078 32.9725 25.2888 32.9725 25.3878C32.9725 25.4868 32.9935 25.5679 33.0192 25.5679C33.0449 25.5679 33.0659 25.6489 33.0659 25.7479C33.0659 25.847 33.087 25.928 33.1126 25.928C33.1383 25.928 33.1593 25.9928 33.1593 26.072C33.1593 26.1512 33.1804 26.2161 33.206 26.2161C33.232 26.2161 33.2527 26.3121 33.2527 26.4321C33.2527 26.5522 33.2735 26.6482 33.2995 26.6482C33.3251 26.6482 33.3462 26.713 33.3462 26.7922C33.3462 26.8715 33.3672 26.9363 33.3929 26.9363C33.4185 26.9363 33.4396 27.0011 33.4396 27.0803C33.4396 27.1596 33.4606 27.2244 33.4863 27.2244C33.5119 27.2244 33.533 27.3054 33.533 27.4044C33.533 27.5035 33.554 27.5845 33.5797 27.5845C33.6054 27.5845 33.6264 27.6655 33.6264 27.7645C33.6264 27.8636 33.6474 27.9446 33.6731 27.9446C33.6988 27.9446 33.7198 28.0094 33.7198 28.0886C33.7198 28.1679 33.7408 28.2327 33.7665 28.2327C33.7922 28.2327 33.8132 28.3137 33.8132 28.4127C33.8132 28.5118 33.8342 28.5928 33.8599 28.5928C33.8856 28.5928 33.9066 28.6738 33.9066 28.7729C33.9066 28.8719 33.9276 28.9529 33.9533 28.9529C33.979 28.9529 34 29.0339 34 29.133C34 29.232 34.021 29.313 34.0467 29.313C34.0724 29.313 34.0934 29.394 34.0934 29.4931C34.0934 29.5921 34.1144 29.6731 34.1401 29.6731C34.1658 29.6731 34.1868 29.7379 34.1868 29.8172C34.1868 29.8964 34.2078 29.9612 34.2335 29.9612C34.2592 29.9612 34.2802 30.0422 34.2802 30.1413C34.2802 30.2403 34.3012 30.3213 34.3269 30.3213C34.3526 30.3213 34.3736 30.3862 34.3736 30.4654C34.3736 30.5446 34.3946 30.6094 34.4203 30.6094C34.446 30.6094 34.467 30.6904 34.467 30.7895C34.467 30.8885 34.488 30.9695 34.5137 30.9695C34.5394 30.9695 34.5604 31.0506 34.5604 31.1496C34.5604 31.2486 34.5815 31.3296 34.6071 31.3296C34.6331 31.3296 34.6538 31.4257 34.6538 31.5457C34.6538 31.6657 34.6746 31.7618 34.7006 31.7618C34.7262 31.7618 34.7473 31.8266 34.7473 31.9058C34.7473 31.985 34.7683 32.0499 34.794 32.0499C34.8196 32.0499 34.8407 32.1147 34.8407 32.1939C34.8407 32.2731 34.8617 32.338 34.8874 32.338C34.913 32.338 34.9341 32.419 34.9341 32.518C34.9341 32.617 34.9551 32.6981 34.9808 32.6981C35.0065 32.6981 35.0275 32.7791 35.0275 32.8781C35.0275 32.9771 35.0485 33.0582 35.0742 33.0582C35.0999 33.0582 35.1209 33.123 35.1209 33.2022C35.1209 33.2814 35.1419 33.3463 35.1676 33.3463C35.1933 33.3463 35.2143 33.4273 35.2143 33.5263C35.2143 33.6253 35.2353 33.7064 35.261 33.7064C35.2867 33.7064 35.3077 33.7874 35.3077 33.8864C35.3077 33.9855 35.3287 34.0665 35.3544 34.0665C35.3801 34.0665 35.4011 34.1475 35.4011 34.2465C35.4011 34.3456 35.4221 34.4266 35.4478 34.4266C35.4735 34.4266 35.4945 34.5076 35.4945 34.6066C35.4945 34.7057 35.5155 34.7867 35.5412 34.7867C35.5669 34.7867 35.5879 34.8515 35.5879 34.9307C35.5879 35.01 35.6089 35.0748 35.6346 35.0748C35.6603 35.0748 35.6813 35.1558 35.6813 35.2548C35.6813 35.3539 35.7023 35.4349 35.728 35.4349C35.7537 35.4349 35.7747 35.4997 35.7747 35.5789C35.7747 35.6582 35.7957 35.723 35.8214 35.723C35.8471 35.723 35.8681 35.804 35.8681 35.903C35.8681 36.0021 35.8891 36.0831 35.9148 36.0831C35.9405 36.0831 35.9615 36.1641 35.9615 36.2632C35.9615 36.3622 35.9826 36.4432 36.0082 36.4432C36.0339 36.4432 36.0549 36.5242 36.0549 36.6233C36.0549 36.7223 36.076 36.8033 36.1016 36.8033C36.1273 36.8033 36.1484 36.8843 36.1484 36.9834C36.1484 37.0824 36.1694 37.1634 36.1951 37.1634C36.2207 37.1634 36.2418 37.2283 36.2418 37.3075C36.2418 37.3867 36.2628 37.4515 36.2885 37.4515C36.3141 37.4515 36.3352 37.5163 36.3352 37.5956C36.3352 37.6748 36.3562 37.7396 36.3819 37.7396C36.4078 37.7396 36.4286 37.8357 36.4286 37.9557C36.4286 38.0757 36.4493 38.1717 36.4753 38.1717C36.501 38.1717 36.522 38.2528 36.522 38.3518C36.522 38.4508 36.543 38.5319 36.5687 38.5319C36.5944 38.5319 36.6154 38.5967 36.6154 38.6759C36.6154 38.7551 36.6364 38.8199 36.6621 38.8199C36.6878 38.8199 36.7088 38.8686 36.7088 38.928V39.036H37.0824C37.3004 39.036 37.456 39.021 37.456 39C37.456 38.9794 37.5962 38.964 37.783 38.964C37.9698 38.964 38.1099 38.9485 38.1099 38.928C38.1099 38.9074 38.25 38.892 38.4368 38.892C38.6236 38.892 38.7637 38.8765 38.7637 38.856C38.7637 38.8361 38.8688 38.8199 38.9973 38.8199C39.1257 38.8199 39.2308 38.8037 39.2308 38.7839C39.2308 38.7634 39.3709 38.7479 39.5577 38.7479C39.7445 38.7479 39.8846 38.7325 39.8846 38.7119C39.8846 38.6919 40.0092 38.6759 40.1648 38.6759C40.3205 38.6759 40.4451 38.6599 40.4451 38.6399C40.4451 38.6199 40.5696 38.6039 40.7253 38.6039C40.8809 38.6039 41.0055 38.5879 41.0055 38.5679C41.0055 38.5478 41.1301 38.5319 41.2857 38.5319C41.5348 38.5319 41.5659 38.5239 41.5659 38.4598C41.5659 38.4202 41.5869 38.3878 41.6126 38.3878C41.6383 38.3878 41.6593 38.3068 41.6593 38.2078C41.6593 38.1087 41.6804 38.0277 41.706 38.0277C41.7317 38.0277 41.7527 37.9467 41.7527 37.8476C41.7527 37.7486 41.7738 37.6676 41.7995 37.6676C41.8251 37.6676 41.8462 37.6028 41.8462 37.5235C41.8462 37.4443 41.8672 37.3795 41.8929 37.3795C41.9185 37.3795 41.9396 37.2985 41.9396 37.1994C41.9396 37.1004 41.9606 37.0194 41.9863 37.0194C42.0122 37.0194 42.033 36.9233 42.033 36.8033C42.033 36.6833 42.0537 36.5873 42.0797 36.5873C42.1054 36.5873 42.1264 36.5224 42.1264 36.4432C42.1264 36.364 42.1474 36.2992 42.1731 36.2992C42.1988 36.2992 42.2198 36.2181 42.2198 36.1191C42.2198 36.0201 42.2408 35.9391 42.2665 35.9391C42.2922 35.9391 42.3132 35.858 42.3132 35.759C42.3132 35.66 42.3342 35.5789 42.3599 35.5789C42.3859 35.5789 42.4066 35.4829 42.4066 35.3629C42.4066 35.2429 42.4273 35.1468 42.4533 35.1468C42.479 35.1468 42.5 35.0658 42.5 34.9668C42.5 34.8677 42.521 34.7867 42.5467 34.7867C42.5724 34.7867 42.5934 34.7057 42.5934 34.6066C42.5934 34.5076 42.6144 34.4266 42.6401 34.4266C42.6658 34.4266 42.6868 34.3618 42.6868 34.2825C42.6868 34.2033 42.7078 34.1385 42.7335 34.1385C42.7592 34.1385 42.7802 34.0575 42.7802 33.9584C42.7802 33.8594 42.8012 33.7784 42.8269 33.7784C42.8526 33.7784 42.8736 33.6974 42.8736 33.5983C42.8736 33.4993 42.8946 33.4183 42.9203 33.4183C42.9463 33.4183 42.967 33.3222 42.967 33.2022C42.967 33.0822 42.9878 32.9862 43.0137 32.9862C43.0394 32.9862 43.0604 32.9051 43.0604 32.8061C43.0604 32.7071 43.0815 32.626 43.1071 32.626C43.1328 32.626 43.1538 32.545 43.1538 32.446C43.1538 32.347 43.1749 32.2659 43.2006 32.2659C43.2262 32.2659 43.2473 32.2011 43.2473 32.1219C43.2473 32.0427 43.2683 31.9778 43.294 31.9778C43.3196 31.9778 43.3407 31.8968 43.3407 31.7978C43.3407 31.6988 43.3617 31.6177 43.3874 31.6177C43.4133 31.6177 43.4341 31.5217 43.4341 31.4017C43.4341 31.2816 43.4548 31.1856 43.4808 31.1856C43.5065 31.1856 43.5275 31.1208 43.5275 31.0416C43.5275 30.9623 43.5485 30.8975 43.5742 30.8975C43.5999 30.8975 43.6209 30.8165 43.6209 30.7175C43.6209 30.6184 43.6419 30.5374 43.6676 30.5374C43.6933 30.5374 43.7143 30.4564 43.7143 30.3573C43.7143 30.2583 43.7353 30.1773 43.761 30.1773C43.787 30.1773 43.8077 30.0812 43.8077 29.9612C43.8077 29.8412 43.8284 29.7452 43.8544 29.7452C43.8801 29.7452 43.9011 29.6641 43.9011 29.5651C43.9011 29.4661 43.9221 29.385 43.9478 29.385C43.9735 29.385 43.9945 29.304 43.9945 29.205C43.9945 29.106 44.0155 29.0249 44.0412 29.0249C44.0669 29.0249 44.0879 28.9601 44.0879 28.8809C44.0879 28.8017 44.1089 28.7368 44.1346 28.7368C44.1603 28.7368 44.1813 28.6558 44.1813 28.5568C44.1813 28.4578 44.2023 28.3767 44.228 28.3767C44.2537 28.3767 44.2747 28.2957 44.2747 28.1967C44.2747 28.0976 44.2957 28.0166 44.3214 28.0166C44.3474 28.0166 44.3681 27.9206 44.3681 27.8006C44.3681 27.6805 44.3889 27.5845 44.4148 27.5845C44.4405 27.5845 44.4615 27.5035 44.4615 27.4044C44.4615 27.3054 44.4826 27.2244 44.5082 27.2244C44.5339 27.2244 44.5549 27.1434 44.5549 27.0443C44.5549 26.9453 44.576 26.8643 44.6016 26.8643C44.6273 26.8643 44.6484 26.7994 44.6484 26.7202C44.6484 26.641 44.6694 26.5762 44.6951 26.5762C44.7207 26.5762 44.7418 26.4952 44.7418 26.3961C44.7418 26.2971 44.7628 26.2161 44.7885 26.2161C44.8144 26.2161 44.8352 26.12 44.8352 26C44.8352 25.88 44.8559 25.7839 44.8819 25.7839C44.9076 25.7839 44.9286 25.7191 44.9286 25.6399C44.9286 25.5607 44.9496 25.4958 44.9753 25.4958C45.001 25.4958 45.022 25.4148 45.022 25.3158C45.022 25.2168 45.043 25.1357 45.0687 25.1357C45.0944 25.1357 45.1154 25.0547 45.1154 24.9557C45.1154 24.8566 45.1364 24.7756 45.1621 24.7756C45.1881 24.7756 45.2088 24.6796 45.2088 24.5596C45.2088 24.4395 45.2295 24.3435 45.2555 24.3435C45.2812 24.3435 45.3022 24.2625 45.3022 24.1634C45.3022 24.0644 45.3232 23.9834 45.3489 23.9834C45.3746 23.9834 45.3956 23.9024 45.3956 23.8033C45.3956 23.7043 45.4166 23.6233 45.4423 23.6233C45.468 23.6233 45.489 23.5584 45.489 23.4792C45.489 23.4 45.51 23.3352 45.5357 23.3352C45.5614 23.3352 45.5824 23.2542 45.5824 23.1551C45.5824 23.0561 45.6034 22.9751 45.6291 22.9751C45.6548 22.9751 45.6758 22.894 45.6758 22.795C45.6758 22.696 45.6968 22.615 45.7225 22.615C45.7485 22.615 45.7692 22.5189 45.7692 22.3989C45.7692 22.2789 45.79 22.1828 45.8159 22.1828C45.8416 22.1828 45.8626 22.1018 45.8626 22.0028C45.8626 21.9037 45.8837 21.8227 45.9093 21.8227C45.935 21.8227 45.956 21.7417 45.956 21.6427C45.956 21.5436 45.9771 21.4626 46.0027 21.4626C46.0284 21.4626 46.0495 21.3978 46.0495 21.3186C46.0495 21.2393 46.0705 21.1745 46.0962 21.1745C46.1221 21.1745 46.1429 21.0785 46.1429 20.9584C46.1429 20.8384 46.1636 20.7424 46.1896 20.7424C46.2152 20.7424 46.2363 20.6614 46.2363 20.5623C46.2363 20.4633 46.2573 20.3823 46.283 20.3823C46.3087 20.3823 46.3297 20.3175 46.3297 20.2382C46.3297 20.159 46.3507 20.0942 46.3764 20.0942C46.4021 20.0942 46.4231 20.0132 46.4231 19.9141C46.4231 19.8151 46.4441 19.7341 46.4698 19.7341C46.4955 19.7341 46.5165 19.653 46.5165 19.554C46.5165 19.455 46.5375 19.374 46.5632 19.374C46.5892 19.374 46.6099 19.2779 46.6099 19.1579C46.6099 19.0379 46.6306 18.9418 46.6566 18.9418C46.6823 18.9418 46.7033 18.8608 46.7033 18.7618C46.7033 18.6627 46.7243 18.5817 46.75 18.5817C46.7757 18.5817 46.7967 18.5007 46.7967 18.4017C46.7967 18.3026 46.8177 18.2216 46.8434 18.2216C46.8691 18.2216 46.8901 18.1406 46.8901 18.0416C46.8901 17.9425 46.9111 17.8615 46.9368 17.8615C46.9625 17.8615 46.9835 17.7805 46.9835 17.6814C46.9835 17.5824 47.0045 17.5014 47.0302 17.5014C47.0559 17.5014 47.0769 17.4204 47.0769 17.3213C47.0769 17.2223 47.0979 17.1413 47.1236 17.1413C47.1493 17.1413 47.1703 17.0602 47.1703 16.9612C47.1703 16.8622 47.1913 16.7812 47.217 16.7812C47.2427 16.7812 47.2637 16.7001 47.2637 16.6011C47.2637 16.5021 47.2848 16.4211 47.3104 16.4211C47.3361 16.4211 47.3571 16.34 47.3571 16.241C47.3571 16.142 47.3782 16.0609 47.4038 16.0609C47.4295 16.0609 47.4506 15.9799 47.4506 15.8809C47.4506 15.7819 47.4716 15.7008 47.4973 15.7008C47.5229 15.7008 47.544 15.6198 47.544 15.5208C47.544 15.4217 47.565 15.3407 47.5907 15.3407C47.6163 15.3407 47.6374 15.2597 47.6374 15.1607C47.6374 15.0616 47.6584 14.9806 47.6841 14.9806C47.7098 14.9806 47.7308 14.8996 47.7308 14.8006C47.7308 14.7015 47.7518 14.6205 47.7775 14.6205C47.8032 14.6205 47.8242 14.5395 47.8242 14.4404C47.8242 14.3414 47.8452 14.2604 47.8709 14.2604C47.8966 14.2604 47.9176 14.1794 47.9176 14.0803C47.9176 13.9813 47.9386 13.9003 47.9643 13.9003C47.9903 13.9003 48.011 13.8042 48.011 13.6842C48.011 13.5642 48.0317 13.4681 48.0577 13.4681C48.0834 13.4681 48.1044 13.3871 48.1044 13.2881C48.1044 13.1891 48.1254 13.108 48.1511 13.108C48.1768 13.108 48.1978 13.0432 48.1978 12.964C48.1978 12.8848 48.2188 12.8199 48.2445 12.8199C48.2702 12.8199 48.2912 12.7389 48.2912 12.6399C48.2912 12.5409 48.3122 12.4598 48.3379 12.4598C48.3636 12.4598 48.3846 12.3788 48.3846 12.2798C48.3846 12.1807 48.4056 12.0997 48.4313 12.0997C48.4573 12.0997 48.478 12.0037 48.478 11.8837C48.478 11.7636 48.4988 11.6676 48.5247 11.6676C48.5504 11.6676 48.5714 11.5866 48.5714 11.4875C48.5714 11.3885 48.5924 11.3075 48.6181 11.3075C48.6438 11.3075 48.6648 11.2265 48.6648 11.1274C48.6648 11.0284 48.6859 10.9474 48.7115 10.9474C48.7372 10.9474 48.7582 10.8663 48.7582 10.7673C48.7582 10.6683 48.7793 10.5873 48.8049 10.5873C48.8306 10.5873 48.8516 10.5224 48.8516 10.4432C48.8516 10.364 48.8727 10.2992 48.8984 10.2992C48.924 10.2992 48.9451 10.2181 48.9451 10.1191C48.9451 10.0201 48.9661 9.93906 48.9918 9.93906C49.0177 9.93906 49.0385 9.84302 49.0385 9.72299C49.0385 9.60297 49.0592 9.50692 49.0852 9.50692C49.1108 9.50692 49.1319 9.44211 49.1319 9.36288C49.1319 9.28366 49.1529 9.21884 49.1786 9.21884C49.2043 9.21884 49.2253 9.13781 49.2253 9.03878C49.2253 8.93975 49.2463 8.85873 49.272 8.85873C49.3429 8.85873 49.3278 8.68054 49.2519 8.6221C49.1754 8.56307 49.0385 8.55317 49.0385 8.60665ZM15.8791 12.7119C15.8791 12.7325 15.739 12.7479 15.5522 12.7479C15.3654 12.7479 15.2253 12.7634 15.2253 12.7839C15.2253 12.804 15.1007 12.8199 14.9451 12.8199C14.7894 12.8199 14.6648 12.8359 14.6648 12.856C14.6648 12.8758 14.5598 12.892 14.4313 12.892C14.3029 12.892 14.1978 12.9082 14.1978 12.928C14.1978 12.949 14.0421 12.964 13.8242 12.964C13.6062 12.964 13.4505 12.979 13.4505 13C13.4505 13.02 13.326 13.036 13.1703 13.036C13.0147 13.036 12.8901 13.052 12.8901 13.072C12.8901 13.092 12.7656 13.108 12.6099 13.108C12.4542 13.108 12.3297 13.124 12.3297 13.144C12.3297 13.1641 12.2051 13.1801 12.0495 13.1801C11.8938 13.1801 11.7692 13.196 11.7692 13.2161C11.7692 13.2366 11.6291 13.2521 11.4423 13.2521C11.2555 13.2521 11.1154 13.2675 11.1154 13.2881C11.1154 13.3079 11.0313 13.3241 10.9286 13.3241H10.7418V13.8253C10.7418 14.191 10.7575 14.3321 10.8001 14.3474C10.8468 14.3642 10.8468 14.3726 10.8001 14.3894C10.7558 14.4054 10.7418 14.6173 10.7418 15.2687C10.7418 15.9201 10.7558 16.132 10.8001 16.148C10.8468 16.1648 10.8468 16.1732 10.8001 16.19C10.7309 16.2149 10.7211 16.349 10.7885 16.349C10.8141 16.349 10.8352 16.3814 10.8352 16.4211C10.8352 16.4607 10.8141 16.4931 10.7885 16.4931C10.7211 16.4931 10.7309 16.6272 10.8001 16.6521C10.8468 16.6689 10.8468 16.6773 10.8001 16.6941C10.7681 16.7057 10.7418 16.7449 10.7418 16.7812C10.7418 16.8175 10.7681 16.8566 10.8001 16.8682C10.8468 16.885 10.8468 16.8934 10.8001 16.9102C10.7541 16.9268 10.7418 17.5702 10.7418 19.9501C10.7418 22.3301 10.7541 22.9735 10.8001 22.9901C10.8468 23.0069 10.8468 23.0153 10.8001 23.0321C10.7558 23.048 10.7418 23.26 10.7418 23.9114C10.7418 24.5628 10.7558 24.7747 10.8001 24.7906C10.8468 24.8074 10.8468 24.8158 10.8001 24.8326C10.7309 24.8575 10.7211 24.9917 10.7885 24.9917C10.8141 24.9917 10.8352 25.0241 10.8352 25.0637C10.8352 25.1033 10.8141 25.1357 10.7885 25.1357C10.7211 25.1357 10.7309 25.2699 10.8001 25.2948C10.8468 25.3116 10.8468 25.32 10.8001 25.3368C10.7246 25.364 10.7246 25.4837 10.8001 25.5109C10.8468 25.5276 10.8468 25.5361 10.8001 25.5529C10.7541 25.5694 10.7418 26.2129 10.7418 28.5928C10.7418 30.9727 10.7541 31.6162 10.8001 31.6327C10.8468 31.6495 10.8468 31.658 10.8001 31.6747C10.7256 31.7015 10.7142 33.7064 10.7885 33.7064C10.8165 33.7064 10.8352 33.8504 10.8352 34.0665C10.8352 34.2825 10.8165 34.4266 10.7885 34.4266C10.759 34.4266 10.7418 34.6667 10.7418 35.0748C10.7418 35.4829 10.7245 35.723 10.6951 35.723C10.6691 35.723 10.6484 35.819 10.6484 35.9391C10.6484 36.0591 10.6276 36.1551 10.6016 36.1551C10.576 36.1551 10.5549 36.2199 10.5549 36.2992C10.5549 36.3784 10.5339 36.4432 10.5082 36.4432C10.4826 36.4432 10.4615 36.4756 10.4615 36.5152C10.4615 36.5548 10.4405 36.5873 10.4148 36.5873C10.3891 36.5873 10.3681 36.6359 10.3681 36.6953C10.3681 36.7547 10.3471 36.8033 10.3214 36.8033C10.2957 36.8033 10.2747 36.8357 10.2747 36.8753C10.2747 36.915 10.2537 36.9474 10.228 36.9474C10.2023 36.9474 10.1813 36.9798 10.1813 37.0194C10.1813 37.059 10.1603 37.0914 10.1346 37.0914C10.1089 37.0914 10.0879 37.1203 10.0879 37.1555C10.0879 37.1907 10.0459 37.2429 9.99451 37.2715C9.94313 37.3 9.9011 37.3486 9.9011 37.3795C9.9011 37.4104 9.85907 37.459 9.80769 37.4875C9.75632 37.5161 9.71429 37.5683 9.71429 37.6035C9.71429 37.6387 9.68127 37.6676 9.64091 37.6676C9.55535 37.6676 9.43407 37.7521 9.43407 37.8116C9.43407 37.8649 9.31614 37.9557 9.24693 37.9557C9.21741 37.9557 9.11247 38.0205 9.01374 38.0997C8.91501 38.1789 8.8011 38.2438 8.76051 38.2438C8.71997 38.2438 8.68681 38.26 8.68681 38.2798C8.68681 38.2996 8.6494 38.3158 8.60373 38.3158C8.55801 38.3158 8.49033 38.3482 8.4533 38.3878C8.41626 38.4274 8.34859 38.4598 8.30287 38.4598C8.25719 38.4598 8.21978 38.476 8.21978 38.4958C8.21978 38.5157 8.15673 38.5319 8.07967 38.5319C8.00261 38.5319 7.93956 38.5481 7.93956 38.5679C7.93956 38.5877 7.87651 38.6039 7.79945 38.6039C7.72239 38.6039 7.65934 38.6201 7.65934 38.6399C7.65934 38.6597 7.59629 38.6759 7.51923 38.6759C7.44217 38.6759 7.37912 38.6921 7.37912 38.7119C7.37912 38.7342 7.13005 38.7479 6.72527 38.7479C6.3205 38.7479 6.07143 38.7342 6.07143 38.7119C6.07143 38.6921 6.00838 38.6759 5.93132 38.6759C5.85426 38.6759 5.79121 38.6597 5.79121 38.6399C5.79121 38.6201 5.70714 38.6039 5.6044 38.6039C5.50165 38.6039 5.41758 38.5877 5.41758 38.5679C5.41758 38.5481 5.37555 38.5319 5.32418 38.5319C5.2728 38.5319 5.23077 38.5157 5.23077 38.4958C5.23077 38.476 5.18874 38.4598 5.13736 38.4598C5.08599 38.4598 5.04396 38.4436 5.04396 38.4238C5.04396 38.404 5.00192 38.3878 4.95055 38.3878C4.89918 38.3878 4.85714 38.3716 4.85714 38.3518C4.85714 38.332 4.82356 38.3158 4.78246 38.3158C4.74141 38.3158 4.64889 38.2672 4.57692 38.2078C4.50495 38.1483 4.41421 38.0997 4.37526 38.0997C4.33635 38.0997 4.29591 38.0798 4.2854 38.0556C4.27471 38.0308 4.12035 38.1255 3.93349 38.2716C3.75041 38.4148 3.57766 38.5319 3.54959 38.5319C3.48365 38.5319 3.26923 38.6968 3.26923 38.7475C3.26923 38.7975 2.9609 39.036 2.89616 39.036C2.86908 39.036 2.49055 39.3115 2.05494 39.6482C1.61934 39.9849 1.24128 40.2604 1.2148 40.2604C1.15194 40.2604 0 41.1486 0 41.1971C0 41.247 0.498044 41.6288 0.563102 41.6288C0.591357 41.6288 0.695225 41.6936 0.793956 41.7729C0.892687 41.8521 0.99819 41.9169 1.02841 41.9169C1.05867 41.9169 1.14232 41.9655 1.21429 42.0249C1.28626 42.0843 1.37877 42.133 1.41983 42.133C1.46093 42.133 1.49451 42.1492 1.49451 42.169C1.49451 42.1888 1.53191 42.205 1.57759 42.205C1.62331 42.205 1.69099 42.2374 1.72802 42.277C1.76506 42.3166 1.83273 42.349 1.87845 42.349C1.92413 42.349 1.96154 42.3652 1.96154 42.385C1.96154 42.4048 2.00357 42.4211 2.05494 42.4211C2.10632 42.4211 2.14835 42.4373 2.14835 42.4571C2.14835 42.4769 2.19038 42.4931 2.24176 42.4931C2.29313 42.4931 2.33516 42.5093 2.33516 42.5291C2.33516 42.5489 2.39821 42.5651 2.47527 42.5651C2.55234 42.5651 2.61538 42.5813 2.61538 42.6011C2.61538 42.6209 2.65742 42.6371 2.70879 42.6371C2.76016 42.6371 2.8022 42.6533 2.8022 42.6731C2.8022 42.6929 2.84423 42.7091 2.8956 42.7091C2.94698 42.7091 2.98901 42.7253 2.98901 42.7452C2.98901 42.765 3.05206 42.7812 3.12912 42.7812C3.20618 42.7812 3.26923 42.7974 3.26923 42.8172C3.26923 42.837 3.33228 42.8532 3.40934 42.8532C3.4864 42.8532 3.54945 42.8694 3.54945 42.8892C3.54945 42.909 3.63352 42.9252 3.73626 42.9252C3.83901 42.9252 3.92308 42.9414 3.92308 42.9612C3.92308 42.9812 4.04763 42.9972 4.2033 42.9972C4.35896 42.9972 4.48352 43.0132 4.48352 43.0332C4.48352 43.0563 4.9194 43.0693 5.6978 43.0693C6.47621 43.0693 6.91209 43.0563 6.91209 43.0332C6.91209 43.0132 7.03665 42.9972 7.19231 42.9972C7.34797 42.9972 7.47253 42.9812 7.47253 42.9612C7.47253 42.9414 7.57761 42.9252 7.70604 42.9252C7.83448 42.9252 7.93956 42.909 7.93956 42.8892C7.93956 42.8694 8.00261 42.8532 8.07967 42.8532C8.15673 42.8532 8.21978 42.837 8.21978 42.8172C8.21978 42.7974 8.32486 42.7812 8.4533 42.7812C8.58173 42.7812 8.68681 42.765 8.68681 42.7452C8.68681 42.7253 8.74986 42.7091 8.82692 42.7091C8.90398 42.7091 8.96703 42.6929 8.96703 42.6731C8.96703 42.6533 9.00907 42.6371 9.06044 42.6371C9.11181 42.6371 9.15385 42.6209 9.15385 42.6011C9.15385 42.5813 9.2169 42.5651 9.29396 42.5651C9.37102 42.5651 9.43407 42.5489 9.43407 42.5291C9.43407 42.5093 9.49711 42.4931 9.57418 42.4931C9.65124 42.4931 9.71429 42.4769 9.71429 42.4571C9.71429 42.4373 9.75632 42.4211 9.80769 42.4211C9.85907 42.4211 9.9011 42.4048 9.9011 42.385C9.9011 42.3652 9.94313 42.349 9.99451 42.349C10.0459 42.349 10.0879 42.3328 10.0879 42.313C10.0879 42.2932 10.1299 42.277 10.1813 42.277C10.2327 42.277 10.2747 42.2608 10.2747 42.241C10.2747 42.2212 10.3168 42.205 10.3681 42.205C10.4195 42.205 10.4615 42.1888 10.4615 42.169C10.4615 42.1492 10.5036 42.133 10.5549 42.133C10.6063 42.133 10.6484 42.1168 10.6484 42.097C10.6484 42.0771 10.6904 42.0609 10.7418 42.0609C10.7931 42.0609 10.8352 42.0447 10.8352 42.0249C10.8352 42.0051 10.8772 41.9889 10.9286 41.9889C10.9799 41.9889 11.022 41.9727 11.022 41.9529C11.022 41.9331 11.0594 41.9169 11.1051 41.9169C11.1508 41.9169 11.2185 41.8845 11.2555 41.8449C11.2925 41.8053 11.3556 41.7729 11.3956 41.7729C11.4356 41.7729 11.4987 41.7404 11.5357 41.7008C11.5727 41.6612 11.632 41.6288 11.6674 41.6288C11.7028 41.6288 11.7907 41.5802 11.8626 41.5208C11.9346 41.4614 12.0183 41.4127 12.0485 41.4127C12.0787 41.4127 12.1842 41.3479 12.283 41.2687C12.3817 41.1895 12.4853 41.1247 12.5133 41.1247C12.5793 41.1247 13.6374 40.3093 13.6374 40.2584C13.6374 40.2371 13.7424 40.1408 13.8709 40.0443C13.9993 39.9478 14.1044 39.8501 14.1044 39.827C14.1044 39.804 14.1674 39.7397 14.2445 39.6842C14.3216 39.6287 14.3846 39.5609 14.3846 39.5337C14.3846 39.5064 14.4266 39.4607 14.478 39.4321C14.5294 39.4036 14.5714 39.355 14.5714 39.3241C14.5714 39.2932 14.6135 39.2446 14.6648 39.2161C14.7162 39.1875 14.7582 39.1353 14.7582 39.1001C14.7582 39.0649 14.7793 39.036 14.8049 39.036C14.8306 39.036 14.8516 39.0036 14.8516 38.964C14.8516 38.9244 14.8727 38.892 14.8984 38.892C14.924 38.892 14.9451 38.8631 14.9451 38.8279C14.9451 38.7926 14.9871 38.7405 15.0385 38.7119C15.0898 38.6834 15.1319 38.6312 15.1319 38.5959C15.1319 38.5607 15.1529 38.5319 15.1786 38.5319C15.2043 38.5319 15.2253 38.4994 15.2253 38.4598C15.2253 38.4202 15.2463 38.3878 15.272 38.3878C15.2977 38.3878 15.3187 38.3554 15.3187 38.3158C15.3187 38.2762 15.3397 38.2438 15.3654 38.2438C15.3911 38.2438 15.4121 38.1952 15.4121 38.1357C15.4121 38.0763 15.4331 38.0277 15.4588 38.0277C15.4845 38.0277 15.5055 37.9953 15.5055 37.9557C15.5055 37.9161 15.5265 37.8837 15.5522 37.8837C15.5779 37.8837 15.5989 37.835 15.5989 37.7756C15.5989 37.7162 15.6199 37.6676 15.6456 37.6676C15.6713 37.6676 15.6923 37.619 15.6923 37.5596C15.6923 37.5001 15.7133 37.4515 15.739 37.4515C15.7647 37.4515 15.7857 37.4029 15.7857 37.3435C15.7857 37.2841 15.8067 37.2355 15.8324 37.2355C15.8581 37.2355 15.8791 37.1868 15.8791 37.1274C15.8791 37.068 15.9001 37.0194 15.9258 37.0194C15.9515 37.0194 15.9725 36.9546 15.9725 36.8753C15.9725 36.7961 15.9935 36.7313 16.0192 36.7313C16.0452 36.7313 16.0659 36.6353 16.0659 36.5152C16.0659 36.3952 16.0867 36.2992 16.1126 36.2992C16.1386 36.2992 16.1593 36.2031 16.1593 36.0831C16.1593 35.9631 16.1801 35.867 16.206 35.867C16.2333 35.867 16.2527 35.747 16.2527 35.5789C16.2527 35.4109 16.2722 35.2909 16.2994 35.2909C16.3305 35.2909 16.3462 31.4977 16.3462 23.9834V12.6759H16.1126C15.9842 12.6759 15.8791 12.6921 15.8791 12.7119Z" fill="#625E60"/>
</svg>
