<svg width="113" height="38" viewBox="0 0 113 38" fill="none" xmlns="http://www.w3.org/2000/svg">
<path fill-rule="evenodd" clip-rule="evenodd" d="M6.41126 0.358491C6.41126 0.55566 6.0596 0.716981 5.6298 0.716981C5.19999 0.716981 4.84833 0.878302 4.84833 1.07547C4.84833 1.27264 4.58458 1.43396 4.26223 1.43396C3.93987 1.43396 3.67613 1.58381 3.67613 1.767C3.67613 1.94983 3.45419 2.31298 3.18302 2.5736C2.91185 2.83387 2.47228 3.49851 2.20619 4.04987C0.626449 7.3236 3.38737 12.397 7.66513 14.0815C10.4077 15.1616 11.8682 15.4151 15.3458 15.4151C18.6518 15.4151 19.0296 15.3423 19.9092 14.535C20.7676 13.7478 20.8684 13.3541 20.8684 10.792C20.8684 9.21751 20.6926 7.82943 20.4777 7.70755C20.2628 7.58566 20.0869 7.17053 20.0869 6.78515C20.0869 6.39977 19.8674 5.73477 19.5985 5.30709C18.7983 4.03302 15.8553 1.43396 15.2129 1.43396C14.8851 1.43396 14.6167 1.27264 14.6167 1.07547C14.6167 0.878302 14.265 0.716981 13.8352 0.716981C13.4054 0.716981 13.0537 0.55566 13.0537 0.358491C13.0537 0.147698 11.6862 0 9.7325 0C7.77883 0 6.41126 0.147698 6.41126 0.358491ZM23.7989 4.24524C21.6186 5.46806 21.4502 5.88534 21.5034 9.93485C21.5475 13.295 21.6401 13.7463 22.4505 14.5379C22.9448 15.0204 23.7243 15.4151 24.183 15.4151C24.6417 15.4151 25.3583 15.6521 25.7756 15.9414C26.7927 16.6472 27.4847 16.6196 29.5282 15.7901C30.7262 15.304 31.5182 14.6583 32.1176 13.68C33.0167 12.212 33.2277 10.4726 32.6361 9.40536C32.4462 9.063 32.0559 8.29906 31.7687 7.70755C31.0947 6.31947 28.7886 4.30189 27.8754 4.30189C27.4855 4.30189 27.0576 4.14057 26.9248 3.9434C26.5469 3.38272 25.0848 3.52396 23.7989 4.24524ZM40.0144 19V30.8302H42.317C44.0561 30.8302 44.6778 30.6915 44.8567 30.2631C44.9872 29.9512 45.0939 24.6276 45.0939 18.4329V7.16981H42.5541H40.0144V19ZM49.7827 8.15243C48.7969 8.50411 48.2448 9.4387 48.2448 10.7547C48.2448 12.5927 49.0048 13.3043 50.9952 13.3294C52.3877 13.347 52.825 13.176 53.5701 12.3217C54.0636 11.7556 54.4684 11.0272 54.4696 10.7031C54.4707 10.3787 53.9612 9.61257 53.338 9.00026C52.2475 7.92909 51.1456 7.66632 49.7827 8.15243ZM65.6074 15.0566C65.4746 15.2538 65.0248 15.4151 64.6075 15.4151C64.1902 15.4151 63.8491 15.5764 63.8491 15.7736C63.8491 15.9708 63.4975 16.1321 63.0677 16.1321C62.6378 16.1321 62.2862 15.9632 62.2862 15.7571C62.2862 15.523 61.2968 15.4223 59.6487 15.4882L57.0113 15.5943L56.9054 22.6925C56.8183 28.5097 56.9015 29.8845 57.3657 30.3104C57.7224 30.6377 58.7235 30.8302 60.0676 30.8302C61.654 30.8302 62.2635 30.6846 62.4397 30.2631C62.5703 29.9512 62.6976 27.9752 62.723 25.8715C62.7844 20.8222 63.0063 19.9299 64.2422 19.7704C64.7783 19.7012 65.346 19.4592 65.5039 19.2327C65.7125 18.933 65.7926 18.943 65.7969 19.2689C65.8001 19.5155 66.1357 19.717 66.5425 19.717C66.9492 19.717 67.3888 19.9722 67.5193 20.2841C67.6498 20.596 67.7565 22.9029 67.7565 25.4105C67.7565 28.4785 67.9096 30.1103 68.2253 30.4C68.4832 30.6366 69.6074 30.8302 70.7233 30.8302C72.2132 30.8302 72.8153 30.6796 72.9896 30.2631C73.2932 29.5375 73.3002 20.1439 72.9985 18.7595C72.5343 16.6304 69.6199 14.6981 66.8726 14.6981C66.3096 14.6981 65.7403 14.8594 65.6074 15.0566ZM81.0414 15.0566C80.7191 15.2477 80.0552 15.4065 79.566 15.4097C78.4012 15.4169 75.5196 18.0855 74.8874 19.7424C74.2251 21.4786 74.2716 24.7272 74.9811 26.2856C75.5032 27.4317 76.3436 28.3512 78.0499 29.6429C78.3594 29.8773 79.6426 30.2641 80.9015 30.5022C82.9752 30.8944 83.3448 30.8668 84.8311 30.2071C85.7333 29.8067 86.5687 29.5679 86.6871 29.6766C87.0775 30.0347 86.8868 31.716 86.3937 32.2641C84.9007 33.924 81.9862 34.1495 79.1393 32.8259C77.2872 31.9648 77.2544 31.9627 76.6124 32.6506C76.2545 33.0342 75.9619 33.4769 75.9619 33.6347C75.9619 33.7924 75.6004 34.2771 75.1589 34.7119C74.4493 35.4106 74.4236 35.5644 74.9358 36.0344C75.2546 36.3269 75.7915 36.566 76.1295 36.566C76.4671 36.566 76.7433 36.7274 76.7433 36.9245C76.7433 37.1217 77.2708 37.283 77.9155 37.283C78.5602 37.283 79.0877 37.4443 79.0877 37.6415C79.0877 37.8541 80.5206 38 82.6043 38C84.6881 38 86.1209 37.8541 86.1209 37.6415C86.1209 37.4443 86.5605 37.283 87.0978 37.283C87.635 37.283 88.0746 37.1217 88.0746 36.9245C88.0746 36.7274 88.2583 36.566 88.4829 36.566C89.078 36.566 90.6324 35.0525 91.356 33.7687C91.8792 32.8406 91.9819 31.2428 91.9819 24.0368V15.4151H89.8329C87.9445 15.4151 87.6839 15.5018 87.6839 16.1321C87.6839 16.5264 87.508 16.8491 87.2932 16.8491C87.0782 16.8491 86.9008 16.7282 86.8993 16.5802C86.895 16.1794 84.9233 15.4151 83.8941 15.4151C83.3995 15.4151 82.9951 15.2538 82.9951 15.0566C82.9951 14.6013 81.8092 14.6013 81.0414 15.0566ZM102.532 15.0426C102.209 15.2416 101.462 15.4065 100.871 15.4097C100.28 15.4126 99.7966 15.5764 99.7966 15.7736C99.7966 15.9708 99.527 16.1321 99.1976 16.1321C98.4373 16.1321 95.8893 18.4465 95.8893 19.1373C95.8893 19.4234 95.6853 19.7195 95.436 19.7958C94.748 20.0063 94.8015 25.1449 95.5052 26.4003C96.4508 28.0877 98.4041 29.688 100.228 30.2709C101.173 30.5728 103.001 30.8184 104.29 30.8166C106.104 30.8141 107.073 30.5921 108.574 29.8361C111.151 28.5366 112.669 26.5125 112.95 23.9991C113.069 22.9255 112.968 21.3707 112.725 20.5444C112.247 18.9229 109.65 16.1321 108.619 16.1321C108.279 16.1321 108.002 15.9876 108.002 15.8112C108.002 15.6348 107.343 15.4058 106.537 15.3025C105.731 15.1989 104.632 15.0168 104.095 14.8978C103.557 14.7788 102.854 14.8437 102.532 15.0426ZM48.7004 23.033L48.8059 30.6509L51.248 30.7578L53.69 30.8642V23.1398V15.4151H51.1425H48.5949L48.7004 23.033ZM8.75566 16.4906C8.75566 16.6877 8.31609 16.8491 7.77883 16.8491C7.24157 16.8491 6.802 16.9709 6.802 17.1201C6.802 17.2692 6.23074 17.6212 5.53211 17.9027C4.09421 18.4816 2.27261 20.1253 1.91157 21.1692C1.77872 21.5535 1.50599 21.8679 1.30554 21.8679C1.1051 21.8679 0.94099 22.1769 0.94099 22.5552C0.94099 22.933 0.738981 23.304 0.491646 23.3797C0.201331 23.4682 0.0286268 24.6642 0.00322911 26.7602C-0.0397516 30.3218 0.326366 31.3364 2.31129 33.1579C5.10074 35.7168 9.28784 36.2732 13.5422 34.6499C14.1333 34.4244 14.6167 34.1183 14.6167 33.9691C14.6167 33.82 14.8851 33.6981 15.2129 33.6981C15.9971 33.6981 18.9644 30.9345 19.6442 29.5712C19.9377 28.9822 20.3335 28.22 20.5234 27.8777C20.7133 27.5353 20.8684 25.1406 20.8684 22.5562C20.8684 18.1852 20.8149 17.8446 20.0998 17.6729C19.6771 17.5718 19.2258 17.1835 19.0968 16.8103C18.8823 16.1909 18.4228 16.1321 13.809 16.1321C10.7007 16.1321 8.75566 16.2701 8.75566 16.4906ZM23.0174 16.8491C22.8811 17.2434 22.5001 17.566 22.1711 17.566C21.6772 17.566 21.6128 17.9252 21.7995 19.6274C21.9242 20.7609 22.1395 22.8179 22.2778 24.1981C22.4161 25.5783 22.7787 27.1564 23.0831 27.7045C23.3871 28.253 24.1826 29.1808 24.85 29.7658C25.9026 30.6889 26.3543 30.8295 28.2525 30.8245C30.1011 30.8198 30.6387 30.6588 31.7113 29.7913C32.4099 29.2263 32.9812 28.5835 32.9812 28.3631C32.9812 28.1426 33.157 27.9623 33.3719 27.9623C33.5868 27.9623 33.7626 27.5912 33.7626 27.1377C33.7626 26.6842 33.9576 26.1343 34.1956 25.916C34.6152 25.531 34.5203 23.7909 33.9416 21.2571C33.7974 20.6254 32.9241 19.375 32.0012 18.4788L30.3234 16.8491H27.3773C25.7569 16.8491 24.3225 16.6877 24.1896 16.4906C23.8028 15.9163 23.2855 16.0747 23.0174 16.8491ZM84.558 19.3585C84.558 19.5557 84.8343 19.717 85.1719 19.717C85.9615 19.717 86.9024 20.5802 86.9024 21.3047C86.9024 21.6145 87.0782 21.8679 87.2932 21.8679C87.8976 21.8679 87.7022 23.3628 86.9415 24.5566C86.5648 25.1481 85.8302 25.8393 85.3094 26.0927C83.9946 26.7323 82.0249 26.3878 80.8542 25.3137C79.559 24.1253 79.496 21.9084 80.721 20.6161C81.1899 20.1214 81.8053 19.717 82.0886 19.717C82.3722 19.717 82.6043 19.5557 82.6043 19.3585C82.6043 19.1613 83.0439 19 83.5812 19C84.1184 19 84.558 19.1613 84.558 19.3585ZM105.267 19.3585C105.267 19.5557 105.597 19.717 106.001 19.717C106.941 19.717 107.791 21.5503 107.711 23.4055C107.677 24.1719 107.441 25.0298 107.186 25.3116C106.382 26.2006 104.161 26.9796 103.116 26.7391C101.642 26.3996 99.7966 24.4566 99.7966 23.2438C99.7966 21.6478 101.172 19.717 102.309 19.717C102.646 19.717 102.923 19.5557 102.923 19.3585C102.923 19.1613 103.45 19 104.095 19C104.739 19 105.267 19.1613 105.267 19.3585ZM14.6167 20.0755C14.6167 20.2726 14.9535 20.434 15.3653 20.434C15.8217 20.434 16.3168 20.8541 16.6329 21.5094C16.9185 22.1009 17.2846 22.5849 17.4471 22.5849C17.9301 22.5849 17.7828 25.9475 17.2541 26.9918C16.9857 27.5224 16.634 27.958 16.4727 27.9594C16.3113 27.9608 16.1796 28.1351 16.1796 28.3462C16.1796 29.4597 13.0365 30.9542 10.6796 30.9621C9.43945 30.9664 8.51028 30.7187 7.64559 30.1537C5.40942 28.6929 4.72876 26.5448 5.69544 24.0002C6.22097 22.6175 8.44542 20.434 9.32887 20.434C9.65826 20.434 9.92787 20.2726 9.92787 20.0755C9.92787 19.8762 10.97 19.717 12.2723 19.717C13.5746 19.717 14.6167 19.8762 14.6167 20.0755Z" fill="#625E60"/>
</svg>
