<svg width="123" height="27" viewBox="0 0 123 27" fill="none" xmlns="http://www.w3.org/2000/svg">
<path d="M19.8787 18.6853L16.605 16.9232L15.5795 16.3726C15.1851 16.0972 14.9287 15.6384 14.9287 15.1428C14.9287 14.6472 15.1851 14.1883 15.5795 13.913L16.605 13.3624L13.3313 11.6003C12.2467 12.463 11.5762 13.7295 11.5762 15.1611C11.5762 16.5745 12.2467 17.8409 13.3313 18.7036C13.5088 18.8505 13.706 18.9789 13.9033 19.0891L16.605 20.5391L25.6373 25.4031C26.3867 25.807 27.2347 26.0456 28.1615 26.0456C30.9422 26.0456 33.1904 23.9531 33.1904 21.3651V8.92048C33.1904 6.33244 30.9422 4.23999 28.1615 4.23999C27.2347 4.23999 26.3669 4.4786 25.6175 4.88241L16.5853 9.74645L19.2871 11.1965C19.4843 11.3066 19.6815 11.4535 19.859 11.5819L27.2938 7.56222C27.5502 7.41538 27.846 7.34196 28.1418 7.34196C29.0687 7.34196 29.8181 8.03945 29.8181 8.90212V21.3467C29.8181 22.2094 29.0687 22.9069 28.1418 22.9069C27.8263 22.9069 27.5502 22.8335 27.2938 22.6866L19.8787 18.6853Z" fill="#625E60"/>
<path d="M84.761 19.5478V10.3887H89.4546V7.37854H84.761V3.2854H81.3887V19.5662C81.3887 24.4486 84.7215 27.0917 89.5137 26.5777V23.6777C86.9697 23.8061 84.761 22.9435 84.761 19.5478Z" fill="#625E60"/>
<path d="M75.5315 1.37671C74.3876 1.37671 73.4805 2.23939 73.4805 3.28561C73.4805 4.33184 74.4074 5.19452 75.5315 5.19452C76.6753 5.19452 77.5824 4.33184 77.5824 3.28561C77.5824 2.23939 76.6556 1.37671 75.5315 1.37671Z" fill="#625E60"/>
<path d="M117.754 20.2271V0.183594H114.303V20.2455C114.303 23.7696 117.379 26.6329 121.166 26.6329V23.4208C119.292 23.4025 117.754 21.9892 117.754 20.2271Z" fill="#625E60"/>
<path d="M65.0199 1.68848L56.7765 20.1902L48.5923 1.68848H43.7212V26.284H47.1526V6.03858L56.106 26.284H57.4667L66.4595 6.03858V26.284H69.8318V1.68848H65.0199Z" fill="#625E60"/>
<path d="M16.6051 13.3624L17.6306 13.913C18.025 14.2067 18.2814 14.6472 18.2814 15.1428C18.2814 15.6384 18.025 16.0972 17.6306 16.3726L16.6051 16.9232L19.8788 18.6853C20.9437 17.8226 21.634 16.5561 21.634 15.1428C21.634 13.7295 20.9437 12.4446 19.8788 11.5819C19.7013 11.4351 19.5041 11.3066 19.3069 11.1965L16.6051 9.74645L7.57287 4.88241C6.82347 4.4786 5.95575 4.23999 5.02886 4.23999C2.2482 4.23999 0 6.33244 0 8.92048V21.3651C0 23.9531 2.2482 26.0456 5.02886 26.0456C5.95575 26.0456 6.80375 25.807 7.55315 25.4031L16.5854 20.5391L13.8836 19.0891C13.6864 18.9789 13.4892 18.8321 13.3117 18.7036L5.87686 22.6866C5.62049 22.8151 5.3444 22.9069 5.02886 22.9069C4.10197 22.9069 3.35257 22.2094 3.35257 21.3467V8.90212C3.35257 8.03945 4.10197 7.34196 5.02886 7.34196C5.3444 7.34196 5.64021 7.43374 5.87686 7.56222L13.3117 11.5819L16.6051 13.3624Z" fill="#625E60"/>
<path d="M121.087 0C122.132 0 123 0.770905 123 1.76207C123 2.78994 122.132 3.54249 121.087 3.54249C120.042 3.54249 119.154 2.77158 119.154 1.76207C119.154 0.770905 120.042 0 121.087 0ZM121.087 3.30387C121.974 3.30387 122.665 2.6431 122.665 1.78042C122.665 0.9361 121.974 0.275323 121.087 0.275323C120.2 0.275323 119.509 0.9361 119.509 1.78042C119.509 2.6431 120.2 3.30387 121.087 3.30387ZM120.338 0.75255H121.205C121.738 0.75255 121.994 0.954456 121.994 1.33991C121.994 1.72536 121.738 1.87219 121.402 1.9089L122.034 2.82665H121.659L121.048 1.92726H120.673V2.82665H120.318V0.75255H120.338ZM120.693 1.67029H121.048C121.363 1.67029 121.639 1.65194 121.639 1.32155C121.639 1.04623 121.383 1.00952 121.146 1.00952H120.693V1.67029Z" fill="#625E60"/>
<path d="M77.2472 7.08496H73.8354V26.3025H77.2472V7.08496Z" fill="#625E60"/>
<path d="M101.327 24.1366C97.9151 24.1366 94.6414 21.7872 94.2075 17.8042H111.542C111.582 10.9762 106.454 6.88306 101.13 6.88306C95.4105 6.88306 90.7563 11.4351 90.7563 16.9782C90.7563 22.6132 95.4105 27 101.327 27C106.099 27 109.61 24.6873 111.049 20.5941H107.46C106.336 22.8334 104.246 24.1366 101.327 24.1366ZM101.09 9.74642C104.088 9.74642 106.888 11.8389 107.736 14.9592H94.3653C95.2527 11.692 98.2503 9.74642 101.09 9.74642Z" fill="#625E60"/>
</svg>
