<svg width="113" height="32" viewBox="0 0 113 32" fill="none" xmlns="http://www.w3.org/2000/svg">
<path d="M50.7534 5.99986C50.7534 9.31352 48.1149 11.9998 44.8602 11.9998C41.6055 11.9998 38.9668 9.31352 38.9668 5.99986C38.9668 2.6862 41.6055 -3.28541e-05 44.8602 -3.28541e-05C48.1149 -3.28541e-05 50.7534 2.6862 50.7534 5.99986Z" fill="#B7B7B7"/>
<path d="M11.1317 13.3332H0V32H5.23853V17.3332H9.82203C10.9071 17.3332 11.7866 18.2288 11.7866 19.3333V32H17.0249V19.3333C17.0249 16.0197 14.3864 13.3332 11.1317 13.3332Z" fill="#625E60"/>
<path d="M68.7603 28H65.341V27.9939C64.3241 27.9179 63.522 27.0546 63.522 25.9999V17.3332H68.7603V13.3332H63.522V6.66663H58.2835V13.3332H55.9871L53.0449 17.3332H58.2835V25.9999C58.2835 29.3138 60.9221 32 64.1768 32C64.1768 32 64.177 32 64.1772 32H68.7603V29.7696V28Z" fill="#625E60"/>
<path d="M54.6885 13.3332H48.7953L44.8665 18.6666L40.9376 13.3332H35.0444L41.9198 22.6666L35.0444 32H40.9376L44.8665 26.6666L48.7953 32H54.6885L47.8131 22.6666L54.6885 13.3332Z" fill="#625E60"/>
<path d="M91.0182 13.3332L86.4343 25.212L81.8508 13.3332H76.6123L83.8152 32H89.0537L96.2564 13.3332H91.0182Z" fill="#625E60"/>
<path d="M75.3028 13.3332H70.0645V32H75.3028V13.3332Z" fill="#625E60"/>
<path d="M70.0645 6.66656H75.3028V11.9998H70.0645V6.66656Z" fill="#625E60"/>
<path d="M27.5019 17.3332C29.1505 17.3332 30.561 18.7122 31.1439 20.6667H23.8596C24.4426 18.7122 25.8532 17.3332 27.5019 17.3332ZM27.5019 28C25.8532 28 24.4426 26.6208 23.8596 24.6667H36.4575C36.5956 24.0222 36.669 23.3531 36.669 22.6666C36.669 17.5117 32.5648 13.3332 27.5019 13.3332C22.4389 13.3332 18.3345 17.5117 18.3345 22.6666C18.3345 27.8213 22.4389 32 27.5019 32C27.5019 32 27.502 32 27.5022 32H33.727L36.669 28H27.5019Z" fill="#625E60"/>
<path d="M101.214 24.7C101.305 24.681 101.399 24.6703 101.495 24.6679V24.6667H107.762H107.762L107.762 28H107.762H105.552H101.495V27.9988C101.399 27.996 101.305 27.9853 101.214 27.9667C100.467 27.812 99.9041 27.1397 99.9041 26.3332C99.9041 25.527 100.467 24.8544 101.214 24.7ZM107.107 13.3332H97.5655L96.0233 17.3332H105.797C106.882 17.3332 107.762 18.2288 107.762 19.3333V20.6667H99.9041V20.6772C96.9825 20.8498 94.6655 23.3157 94.6655 26.3332C94.6655 29.3509 96.9825 31.8167 99.9041 31.9893V32H113V19.3333C113 16.0197 110.362 13.3332 107.107 13.3332Z" fill="#625E60"/>
</svg>
