<?xml version="1.0" ?><svg id="Calque_1" style="enable-background:new 0 0 512 512;" version="1.1" viewBox="0 0 512 512" xml:space="preserve" xmlns="http://www.w3.org/2000/svg" xmlns:xlink="http://www.w3.org/1999/xlink"><style type="text/css">
	.st0{fill:#6F707E;}
</style><g id="XMLID_1_"><path class="st0" d="M437.1,74.9C337.2-25,174.8-25,74.9,74.9s-99.9,262.4,0,362.2C124.8,487,190.4,512,256,512   s131.2-25,181.1-74.9C537,337.2,537,174.8,437.1,74.9z M419.9,419.9c-90.4,90.4-237.4,90.3-327.7,0c-90.4-90.4-90.4-237.4,0-327.7   C137.3,47,196.7,24.4,256,24.4c59.3,0,118.7,22.6,163.9,67.8C510.2,182.5,510.2,329.5,419.9,419.9z" id="XMLID_9_"/><path class="st0" d="M256,109.6c-37.8,0-68.6,30.8-68.6,68.6c0,6.7,5.5,12.2,12.2,12.2s12.2-5.5,12.2-12.2   c0-24.4,19.9-44.2,44.3-44.2c24.4,0,44.2,19.9,44.2,44.2v5.2c0,16.6-9.1,31.7-23.9,39.3c-20.1,10.4-32.5,32.4-32.5,57.4v3.2   c0,6.7,5.5,12.2,12.2,12.2c6.7,0,12.2-5.5,12.2-12.2v-3.2c0-15.6,7.6-29.7,19.4-35.8c22.9-11.8,37.1-35.2,37.1-61v-5.2   C324.6,140.4,293.8,109.6,256,109.6z" id="XMLID_10_"/><path class="st0" d="M256,344.4c-6.7,0-12.2,5.5-12.2,12.2v33.5c0,6.7,5.5,12.2,12.2,12.2c6.7,0,12.2-5.5,12.2-12.2   v-33.5C268.2,349.9,262.7,344.4,256,344.4z" id="XMLID_11_"/></g></svg>