<svg width="113" height="16" viewBox="0 0 113 16" fill="none" xmlns="http://www.w3.org/2000/svg">
<g clip-path="url(#clip0)">
<path fill-rule="evenodd" clip-rule="evenodd" d="M5.07113 8.47071L4.30567 12.9884H0L2.29636 0.0942383H8.51566C9.47248 0.0942383 10.3336 0.188356 11.0034 0.282474C11.6732 0.376591 12.2472 0.564826 12.63 0.847179C13.0127 1.03541 13.3954 1.41189 13.5868 1.69424C13.7782 2.07071 13.8738 2.44718 13.8738 2.91777C13.8738 3.20012 13.8738 3.48247 13.7782 3.76483C13.6825 4.51777 13.3954 5.17659 12.917 5.7413C12.4386 6.306 11.8645 6.68247 11.0034 6.96483C11.2904 7.05894 11.4818 7.15306 11.7688 7.24718C11.9602 7.3413 12.1516 7.43542 12.3429 7.62365C12.5343 7.81189 12.63 8.00012 12.7257 8.18836C12.8213 8.37659 12.8213 8.75306 12.8213 9.03542C12.8213 9.41189 12.8213 9.88247 12.7257 10.3531C12.63 10.8237 12.5343 11.2001 12.5343 11.4825C12.4386 11.7648 12.4386 12.0472 12.4386 12.1413C12.4386 12.4236 12.5343 12.6119 12.7257 12.6119L12.63 12.9884H8.13294C8.13294 12.8942 8.13294 12.706 8.13294 12.6119C8.13294 12.4236 8.13294 12.1413 8.13294 11.8589C8.13294 11.5766 8.22862 11.2001 8.3243 10.8237C8.41998 10.4472 8.41998 10.0707 8.41998 9.78836C8.41998 9.31777 8.22862 9.03541 7.94158 8.84718C7.75021 8.56483 7.17612 8.47071 6.41067 8.47071H5.07113ZM5.64522 5.64718H7.36749C8.03726 5.64718 8.51567 5.55306 8.89839 5.36483C9.28112 5.17659 9.47248 4.89424 9.56816 4.42365C9.56816 4.32953 9.56816 4.23541 9.56816 4.1413C9.56816 3.76483 9.47248 3.48247 9.18544 3.38836C8.89839 3.20012 8.51566 3.106 8.03726 3.106H6.02794L5.64522 5.64718Z" fill="#625E60"/>
<path fill-rule="evenodd" clip-rule="evenodd" d="M19.8063 3.57654H23.2508L22.9638 5.08242C23.5379 4.51772 24.0163 4.04713 24.5904 3.76478C25.1644 3.48242 25.7385 3.29419 26.504 3.29419C27.5565 3.29419 28.3219 3.57654 28.896 4.04713C29.3744 4.51772 29.6615 5.27066 29.6615 6.21184C29.6615 6.58831 29.6615 6.96478 29.5658 7.34125L28.609 12.9883H24.7817L25.6428 8.00007C25.6428 7.81184 25.7385 7.52948 25.7385 7.34125C25.7385 7.0589 25.6429 6.77654 25.5472 6.49419C25.3558 6.30595 25.0688 6.21184 24.686 6.21184C24.1119 6.21184 23.6335 6.40007 23.4422 6.68242C23.1551 7.0589 22.9638 7.52948 22.8681 8.09419L22.007 12.9883H18.1797L19.8063 3.57654Z" fill="#625E60"/>
<path fill-rule="evenodd" clip-rule="evenodd" d="M33.297 13.2707C33.297 13.4589 33.3927 13.553 33.4884 13.6471C33.584 13.8354 33.8711 13.8354 34.2538 13.8354C34.8279 13.8354 35.2106 13.7412 35.4977 13.4589C35.7847 13.1765 35.9761 12.706 36.0718 12.0471L36.2631 11.2942C35.9761 11.5765 35.5934 11.7648 35.1149 12.0471C34.6365 12.2354 34.0624 12.3295 33.3927 12.3295C32.8186 12.3295 32.3402 12.2354 31.8618 12.0471C31.3834 11.8589 31.0963 11.5765 30.8093 11.2942C30.5222 11.0118 30.3309 10.6354 30.1395 10.1648C29.9481 9.69419 29.9481 9.31772 29.9481 8.75301C29.9481 8.56478 29.9481 8.47066 29.9481 8.28243C29.9481 8.09419 29.9481 8.00007 30.0438 7.81184C30.1395 7.24713 30.3309 6.68243 30.5222 6.11772C30.8093 5.55302 31.0963 4.98831 31.5747 4.61184C31.9574 4.14125 32.5315 3.76478 33.1056 3.48243C33.6797 3.20007 34.3495 3.10596 35.2106 3.10596C35.7847 3.10596 36.3588 3.20007 36.7415 3.48243C37.2199 3.76478 37.6027 4.14125 37.794 4.61184L37.9854 3.38831H41.3342L39.9947 11.0118C39.899 11.6707 39.7077 12.4236 39.5163 12.9883C39.3249 13.553 39.0379 14.1177 38.6552 14.5883C38.2724 15.0589 37.6983 15.4354 36.9329 15.6236C36.1674 15.906 35.3063 16.0001 34.0624 16.0001C33.2013 16.0001 32.5315 15.906 31.9575 15.8118C31.3834 15.6236 30.905 15.4354 30.5222 15.2471C30.1395 14.9648 29.9481 14.7765 29.7568 14.4001C29.5654 14.1177 29.4697 13.7412 29.4697 13.4589V13.3648H33.297V13.2707ZM35.5934 5.74125C35.3063 5.74125 35.1149 5.83537 34.8279 5.92949C34.6365 6.0236 34.4452 6.21184 34.2538 6.40007C34.0624 6.58831 33.9668 6.77654 33.8711 7.0589C33.7754 7.34125 33.6797 7.6236 33.6797 7.90596C33.6797 8.00007 33.6797 8.09419 33.6797 8.18831C33.6797 8.28243 33.6797 8.37654 33.6797 8.37654C33.6797 8.75301 33.7754 9.03537 33.9668 9.31772C34.1581 9.60007 34.4452 9.69419 34.9236 9.78831H35.0193C35.3063 9.78831 35.4977 9.69419 35.7847 9.60007C35.9761 9.50596 36.1674 9.31772 36.3588 9.12949C36.5502 8.94125 36.6458 8.75301 36.7415 8.47066C36.8372 8.28243 36.9329 8.00007 36.9329 7.71772C36.9329 7.52949 37.0286 7.34125 37.0286 7.15302C37.0286 6.77654 36.9329 6.40007 36.7415 6.11772C36.4545 5.92949 36.0718 5.74125 35.5934 5.74125Z" fill="#625E60"/>
<path fill-rule="evenodd" clip-rule="evenodd" d="M50.2329 5.08247V4.98836V4.89424C50.2329 4.32953 50.0415 3.85894 49.7544 3.57659C49.4674 3.29424 48.989 3.106 48.3192 3.106C47.5538 3.106 46.9797 3.38836 46.5013 3.95306C46.0229 4.51777 45.6401 5.45894 45.4488 6.58836C45.4488 6.77659 45.3531 7.05895 45.3531 7.24718C45.3531 7.43542 45.3531 7.62365 45.3531 7.81189C45.3531 8.09424 45.3531 8.37659 45.4488 8.65895C45.5445 8.9413 45.6401 9.12953 45.7358 9.31777C45.9272 9.506 46.1186 9.69424 46.3099 9.78836C46.597 9.88247 46.884 9.97659 47.2667 9.97659C47.9365 9.97659 48.4149 9.78836 48.8933 9.41189C49.276 9.03542 49.5631 8.56483 49.7544 7.906H53.6774C53.486 8.65894 53.1033 9.41189 52.7206 10.0707C52.2422 10.7295 51.7638 11.2001 51.1897 11.6707C50.6156 12.1413 49.9458 12.4237 49.1804 12.706C48.4149 12.8942 47.6495 13.0825 46.884 13.0825C46.0229 13.0825 45.1617 12.9884 44.492 12.706C43.8222 12.5178 43.2481 12.1413 42.7697 11.7648C42.2913 11.2942 41.9086 10.8237 41.7172 10.1648C41.4302 9.506 41.3345 8.84718 41.3345 8.09424C41.3345 7.906 41.3345 7.62365 41.3345 7.3413C41.3345 7.05895 41.4302 6.87071 41.4302 6.58836C41.6215 5.64718 41.9086 4.706 42.387 3.95306C42.8654 3.20012 43.4395 2.44718 44.1092 1.88247C44.779 1.31777 45.5445 0.941297 46.3099 0.564827C47.171 0.282474 47.9365 0.0942383 48.7976 0.0942383C50.6156 0.0942383 51.9551 0.470709 52.8163 1.22365C53.6774 1.97659 54.1558 3.106 54.1558 4.51777C54.1558 4.61189 54.1558 4.706 54.1558 4.80012C54.1558 4.89424 54.1558 4.98836 54.1558 5.08247H50.2329Z" fill="#B7B7B7"/>
<path fill-rule="evenodd" clip-rule="evenodd" d="M58.0787 8.84713C58.0787 8.94125 58.0787 8.94125 58.0787 9.03537C58.0787 9.12949 58.0787 9.12949 58.0787 9.2236C58.0787 9.69419 58.2701 10.0707 58.5572 10.353C58.8442 10.6354 59.2269 10.7295 59.7053 10.7295C59.9924 10.7295 60.2794 10.6354 60.5665 10.5413C60.8535 10.4471 61.0449 10.1648 61.2362 9.88243H64.8721C64.5851 10.4471 64.298 10.9177 63.8196 11.3883C63.3412 11.7648 62.8628 12.1413 62.3844 12.3295C61.906 12.6118 61.3319 12.706 60.7578 12.8942C60.1837 12.9883 59.6096 13.0824 59.0356 13.0824C58.3658 13.0824 57.696 12.9883 57.1219 12.8001C56.5478 12.6118 56.0694 12.4236 55.6867 12.0471C55.304 11.6707 54.9213 11.2942 54.7299 10.8236C54.5385 10.353 54.3472 9.78831 54.3472 9.12949C54.3472 8.94125 54.3472 8.84713 54.3472 8.6589C54.3472 8.47066 54.3472 8.37654 54.4429 8.18831C54.5385 7.43537 54.8256 6.68243 55.2083 6.11772C55.591 5.4589 56.0694 4.98831 56.6435 4.51772C57.2176 4.04713 57.8874 3.76478 58.5572 3.48243C59.2269 3.20007 59.9924 3.10596 60.7578 3.10596C61.5233 3.10596 62.193 3.20007 62.7671 3.38831C63.3412 3.57655 63.8196 3.8589 64.298 4.32949C64.6808 4.70596 64.9678 5.17655 65.2548 5.74125C65.4462 6.30596 65.5419 6.87066 65.5419 7.52949C65.5419 7.90596 65.4462 8.37654 65.3505 8.94125H58.0787V8.84713ZM61.8103 6.96478C61.8103 6.87066 61.8103 6.77655 61.8103 6.68243C61.8103 6.30596 61.7146 5.92949 61.4276 5.74125C61.1405 5.4589 60.8535 5.36478 60.3751 5.36478C59.801 5.36478 59.3226 5.55302 58.9399 5.83537C58.5572 6.11772 58.3658 6.49419 58.2701 7.0589H61.8103V6.96478Z" fill="#B7B7B7"/>
<path fill-rule="evenodd" clip-rule="evenodd" d="M66.6901 3.57654H70.1346L69.8476 5.08242C70.4216 4.51772 70.9 4.04713 71.4741 3.76478C72.0482 3.48242 72.6223 3.29419 73.3878 3.29419C74.4403 3.29419 75.2057 3.57654 75.7798 4.04713C76.2582 4.51772 76.5453 5.27066 76.5453 6.21184C76.5453 6.58831 76.5453 6.96478 76.4496 7.34125L75.4928 12.9883H71.6655L72.5266 8.00007C72.5266 7.81184 72.6223 7.52948 72.6223 7.34125C72.6223 7.0589 72.5266 6.77654 72.431 6.49419C72.2396 6.30595 71.9526 6.21184 71.5698 6.21184C70.9957 6.21184 70.5173 6.40007 70.326 6.68242C70.0389 7.0589 69.8476 7.52948 69.7519 8.09419L68.8907 12.9883H65.0635L66.6901 3.57654Z" fill="#B7B7B7"/>
<path fill-rule="evenodd" clip-rule="evenodd" d="M82.5734 12.9882C82.1907 12.9882 81.7123 12.9882 81.4252 13.0823C81.0425 13.0823 80.7555 13.0823 80.4684 13.0823C79.8943 13.0823 79.4159 13.0823 79.0332 12.9882C78.6505 12.8941 78.3634 12.8 78.0764 12.7059C77.885 12.6118 77.6936 12.4235 77.598 12.1412C77.5023 11.9529 77.4066 11.6706 77.4066 11.2941C77.4066 11.1059 77.4066 10.8235 77.4066 10.5412C77.4066 10.2588 77.5023 9.97646 77.5023 9.69411L78.1721 5.64705H76.8325L77.2152 3.48234H78.6505L79.2246 0.564697H82.9561L82.382 3.48234H84.2L83.8173 5.64705H81.9993L81.4252 9.1294C81.4252 9.22352 81.4252 9.31764 81.3295 9.41176C81.3295 9.50587 81.3295 9.59999 81.3295 9.69411C81.3295 9.88235 81.4252 10.0706 81.5209 10.1647C81.7123 10.2588 81.9036 10.3529 82.382 10.3529H82.9561L82.5734 12.9882Z" fill="#B7B7B7"/>
<path fill-rule="evenodd" clip-rule="evenodd" d="M84.9655 3.57654H88.41L88.123 5.4589C88.8884 4.04713 90.0366 3.29419 91.4718 3.29419C91.5675 3.29419 91.6632 3.29419 91.7589 3.29419C91.8546 3.29419 91.9502 3.29419 92.0459 3.29419L91.3761 7.0589C91.2805 7.0589 91.0891 6.96478 90.9934 6.96478C90.8977 6.96478 90.7064 6.96478 90.6107 6.96478C89.8452 6.96478 89.1755 7.15301 88.7927 7.6236C88.3143 8.00007 88.0273 8.75301 87.8359 9.78831L87.2618 13.0824H83.4346L84.9655 3.57654Z" fill="#B7B7B7"/>
<path fill-rule="evenodd" clip-rule="evenodd" d="M97.1171 13.0824V11.7648C96.543 12.2354 95.8733 12.6118 95.2992 12.8001C94.7251 12.9883 94.0553 13.0824 93.2899 13.0824C92.9071 13.0824 92.5244 13.0824 92.1417 12.9883C91.759 12.8942 91.4719 12.8001 91.1849 12.5177C90.8978 12.3295 90.7065 12.0471 90.5151 11.7648C90.3237 11.4824 90.3237 11.106 90.3237 10.7295C90.3237 10.5413 90.3237 10.353 90.4194 10.1648C90.5151 9.41185 90.8021 8.94126 91.1849 8.47067C91.5676 8.0942 92.046 7.81185 92.6201 7.52949C93.1942 7.34126 93.7683 7.15302 94.3424 7.0589C94.9164 6.96479 95.4905 6.87067 96.0646 6.87067C96.543 6.77655 97.0214 6.68243 97.4042 6.58832C97.7869 6.4942 97.9783 6.30596 97.9783 5.92949C97.9783 5.92949 97.9783 5.92949 97.9783 5.83537C97.9783 5.83537 97.9783 5.83537 97.9783 5.74126C97.9783 5.55302 97.9783 5.4589 97.8826 5.36479C97.7869 5.27067 97.6912 5.17655 97.5955 5.17655C97.4998 5.17655 97.4042 5.08243 97.2128 5.08243C97.1171 5.08243 96.9258 5.08243 96.9258 5.08243C96.8301 5.08243 96.6387 5.08243 96.543 5.08243C96.3517 5.08243 96.256 5.17655 96.1603 5.17655C96.0646 5.27067 95.8733 5.36479 95.7776 5.4589C95.6819 5.55302 95.5862 5.74126 95.4905 5.92949H91.8546C91.9503 5.4589 92.1417 4.98832 92.333 4.61185C92.6201 4.23537 92.9071 3.8589 93.3855 3.57655C93.8639 3.2942 94.438 3.10596 95.1078 2.91773C95.7776 2.72949 96.6387 2.72949 97.5955 2.72949C98.4567 2.72949 99.1264 2.82361 99.7005 2.91773C100.275 3.01184 100.657 3.20008 101.04 3.38832C101.327 3.57655 101.614 3.8589 101.71 4.14126C101.806 4.42361 101.901 4.80008 101.901 5.17655C101.901 5.36479 101.901 5.64714 101.901 5.83537C101.901 6.11773 101.806 6.30596 101.806 6.58832L101.04 11.0118C101.04 11.2001 100.944 11.3883 100.944 11.4824C100.944 11.5766 100.944 11.7648 101.04 11.8589C101.136 11.953 101.136 12.0471 101.327 12.2354V12.706H97.1171V13.0824ZM95.2992 10.9177C95.5862 10.9177 95.8733 10.8236 96.1603 10.7295C96.4473 10.6354 96.6387 10.4471 96.8301 10.2589C97.0214 10.0707 97.1171 9.78832 97.2128 9.50596C97.3085 9.22361 97.4042 8.94126 97.4042 8.56479C97.0214 8.75302 96.7344 8.84714 96.3517 8.84714C95.9689 8.94126 95.6819 8.94126 95.3948 9.03538C95.1078 9.12949 94.8208 9.22361 94.6294 9.41185C94.438 9.60008 94.2467 9.78832 94.2467 10.0707V10.1648C94.2467 10.353 94.3424 10.5413 94.5337 10.6354C94.7251 10.8236 95.0121 10.9177 95.2992 10.9177Z" fill="#B7B7B7"/>
<path fill-rule="evenodd" clip-rule="evenodd" d="M101.709 12.9884L104.006 0.0942383H107.833L105.537 12.9884H101.709Z" fill="#B7B7B7"/>
<path fill-rule="evenodd" clip-rule="evenodd" d="M13.2998 12.9883L15.4048 5.36475H18.1796L17.0314 12.9883H13.2998Z" fill="#625E60"/>
<path fill-rule="evenodd" clip-rule="evenodd" d="M19.519 1.97647C19.519 1.88235 19.519 1.88235 19.519 1.97647C19.4233 1.78824 19.3276 1.69412 19.1362 1.6C18.8492 1.41176 18.4665 1.12941 17.701 0.941176C17.3183 0.847059 17.0312 0.847059 16.8399 0.941176C16.2658 1.03529 15.8831 1.22353 15.6917 1.31765H15.596C15.4046 1.50588 15.1176 1.50588 14.9262 1.31765C14.7349 1.12941 14.7349 0.847059 14.9262 0.658823C14.9262 0.658823 15.5003 0.0941176 16.6485 0C17.0312 0 17.414 0 17.7967 0.0941176C19.519 0.376471 20.1887 1.50588 20.1887 1.6C20.2844 1.78824 20.1887 2.07059 19.9974 2.16471C19.9017 2.16471 19.9017 2.16471 19.806 2.16471C19.806 2.16471 19.6146 2.07059 19.519 1.97647Z" fill="#B7B7B7"/>
<path fill-rule="evenodd" clip-rule="evenodd" d="M18.4667 2.91762C18.371 2.82351 18.371 2.82351 18.2753 2.72939C18.1796 2.63527 17.8926 2.44704 17.5099 2.35292C17.3185 2.35292 17.1271 2.35292 17.0314 2.35292C16.6487 2.35292 16.4574 2.54115 16.4574 2.54115C16.266 2.72939 16.0746 2.72939 15.8833 2.54115C15.6919 2.35292 15.6919 2.16468 15.8833 1.97645C15.8833 1.97645 16.266 1.59998 16.9358 1.50586C17.1271 1.50586 17.4142 1.50586 17.6055 1.50586C18.658 1.69409 19.0408 2.35292 19.1364 2.44704C19.2321 2.63527 19.1364 2.82351 18.9451 2.91762H18.8494C18.658 3.19998 18.4667 3.10586 18.4667 2.91762Z" fill="#B7B7B7"/>
<path fill-rule="evenodd" clip-rule="evenodd" d="M18.0836 3.85878C18.0836 4.32937 17.6051 4.70584 17.1267 4.70584C16.5526 4.70584 16.1699 4.32937 16.1699 3.85878C16.1699 3.38819 16.6483 3.01172 17.1267 3.01172C17.7008 3.01172 18.0836 3.38819 18.0836 3.85878Z" fill="#B7B7B7"/>
<path d="M108.886 1.50588C108.981 1.22353 109.173 1.03529 109.364 0.847056C109.555 0.658821 109.747 0.470585 110.034 0.376468C110.321 0.28235 110.608 0.188232 110.895 0.188232C111.182 0.188232 111.469 0.28235 111.756 0.376468C112.043 0.470585 112.235 0.658821 112.426 0.847056C112.617 1.03529 112.809 1.22353 112.904 1.50588C113 1.78823 113.096 2.07059 113.096 2.35294C113.096 2.63529 113 2.91764 112.904 3.2C112.809 3.48235 112.617 3.67058 112.426 3.85882C112.235 4.04706 112.043 4.23529 111.756 4.32941C111.469 4.42353 111.182 4.51764 110.895 4.51764C110.608 4.51764 110.321 4.42353 110.034 4.32941C109.747 4.23529 109.555 4.04706 109.364 3.85882C109.173 3.67058 108.981 3.48235 108.886 3.2C108.79 2.91764 108.694 2.63529 108.694 2.35294C108.694 1.97647 108.79 1.78823 108.886 1.50588ZM109.173 3.01176C109.268 3.2 109.364 3.38823 109.555 3.57647C109.747 3.7647 109.938 3.85882 110.13 3.95294C110.321 4.04706 110.608 4.04706 110.799 4.04706C111.086 4.04706 111.278 4.04706 111.469 3.95294C111.66 3.85882 111.852 3.7647 112.043 3.57647C112.235 3.38823 112.33 3.2 112.426 3.01176C112.522 2.82353 112.522 2.54117 112.522 2.25882C112.522 1.97647 112.522 1.78823 112.426 1.6C112.33 1.41176 112.235 1.22353 112.043 1.03529C111.852 0.847056 111.66 0.752938 111.469 0.658821C111.278 0.564703 110.991 0.564703 110.799 0.564703C110.512 0.564703 110.321 0.564703 110.13 0.658821C109.938 0.752938 109.747 0.847056 109.555 1.03529C109.364 1.22353 109.268 1.41176 109.173 1.6C109.077 1.78823 109.077 2.07059 109.077 2.35294C109.077 2.54117 109.077 2.82353 109.173 3.01176ZM110.991 1.12941C111.278 1.12941 111.469 1.22353 111.66 1.31764C111.756 1.41176 111.852 1.6 111.852 1.88235C111.852 2.07059 111.756 2.25882 111.66 2.35294C111.565 2.44706 111.373 2.54117 111.182 2.54117L111.852 3.67059H111.469L110.799 2.63529H110.417V3.67059H110.034V1.12941H110.991ZM110.799 2.1647C110.895 2.1647 110.991 2.1647 111.086 2.1647C111.182 2.1647 111.278 2.1647 111.278 2.07059C111.373 2.07059 111.373 1.97647 111.469 1.97647C111.469 1.88235 111.565 1.88235 111.565 1.78823C111.565 1.69411 111.565 1.6 111.469 1.6C111.469 1.50588 111.373 1.50588 111.373 1.50588C111.278 1.50588 111.278 1.50588 111.182 1.41176C111.086 1.41176 111.086 1.41176 110.991 1.41176H110.512V2.1647H110.799Z" fill="#B7B7B7"/>
</g>
<defs>
<clipPath id="clip0">
<rect width="113" height="16" fill="white"/>
</clipPath>
</defs>
</svg>
