<svg width="113" height="19" viewBox="0 0 113 19" fill="none" xmlns="http://www.w3.org/2000/svg">
<path d="M91.0592 11.1645C89.8915 10.8661 87.1418 10.395 87.1418 9.24876C87.1418 8.40083 87.9328 7.69421 89.5902 7.69421C91.4923 7.69421 92.6412 8.30661 93.5075 9.01322L95.485 7.39587C93.79 6.06116 91.7748 5.46446 89.5902 5.46446C86.8217 5.46446 84.2038 6.90909 84.2038 9.42149C84.2038 11.6983 87.1983 12.4364 88.7427 12.9231L91.5865 13.7554C92.5282 14.0694 92.9802 14.462 92.9802 15.0744C92.9802 16.1579 91.5865 16.8331 89.6843 16.7545C89.6843 16.7545 87.3113 16.8174 85.654 15.4355L83.7142 17.0215C86.1813 19.0628 89.2323 18.9843 89.5713 18.9843C92.6035 18.9843 96.0123 17.5554 96.0123 15.0273C96.05 12.4207 92.6412 11.5727 91.0592 11.1645ZM71.0393 10.9132L71.1712 10.3479C71.3783 9.76694 71.7738 9.26446 72.3765 8.79339C73.224 8.14959 74.241 7.81983 75.4087 7.81983C76.4633 7.81983 77.3485 8.13388 78.1207 8.77769C78.6668 9.24876 79.0058 9.76694 79.1565 10.3636L79.2507 10.8975H71.0393V10.9132ZM75.3898 5.44876C73.2617 5.44876 71.4725 6.09256 70.0977 7.34876C68.7228 8.60496 68.026 10.2694 68.026 12.295V12.3893C68.026 14.3678 68.7228 15.9851 70.0788 17.1785C71.4537 18.3876 73.2617 19 75.4652 19C77.744 19 79.6838 18.3091 81.1905 16.943L79.3072 15.4355C78.0077 16.3463 77.0283 16.676 75.4652 16.676C73.0357 16.676 71.3407 15.624 70.964 13.5198L70.9075 13.1901H82.1698L82.2075 12.876C82.2452 12.6091 82.2452 12.3421 82.2452 12.0752C82.2452 10.3008 81.6048 8.57355 80.343 7.34876C79.0623 6.09256 77.405 5.44876 75.3898 5.44876ZM57.7053 16.5033C55.144 16.5033 53.0723 14.6818 53.0723 12.2793C53.0723 9.87686 55.144 7.94546 57.7053 7.94546C60.2667 7.94546 62.6962 9.60992 62.6962 12.0124C62.6773 14.3992 60.2478 16.5033 57.7053 16.5033ZM62.602 7.33306C62.602 7.33306 62.376 6.9562 61.02 6.21818C60.0218 5.73141 58.8918 5.46446 57.7053 5.46446C53.675 5.46446 50.398 8.51075 50.398 12.2793C50.398 16.0479 53.675 18.9843 57.7053 18.9843C58.8353 18.9843 59.9088 18.7959 60.8693 18.419C62.3195 17.7752 62.602 17.0215 62.602 17.0215V18.3405H65.54V0.0157034H62.602V7.33306ZM8.09833 16.2364C6.328 16.205 5.83833 15.2314 5.83833 14.1322V7.88265H9.75567V5.46446H5.83833V1.68017H2.91917V5.46446H0V7.88265H2.91917V14.1322C2.91917 16.6289 4.48233 18.1678 6.42217 18.4975C7.9665 18.7488 9.605 18.3719 9.7745 18.3719V16.1893C8.55033 16.2678 8.49383 16.2521 8.09833 16.2364ZM16.0837 16.7545C14.7653 16.7074 14.0497 15.9066 14.0497 15.043C14.0497 14.1793 15.0102 13.6141 16.0648 13.3628C17.289 13.0645 21.018 12.8446 21.018 12.8446C21.018 15.6554 17.9293 16.8174 16.0837 16.7545ZM17.176 5.46446C15.1043 5.54297 13.4093 6.28099 12.091 7.50578L13.9743 9.01322C14.69 8.52645 15.8765 7.67851 18.0423 7.81983C19.549 7.92975 21.0368 8.68347 21.0368 10.2537V10.6306C21.0368 10.6306 18.193 10.8347 16.0083 11.0702C12.9762 11.4 11.2623 12.8603 11.2623 15.043C11.2623 17.2413 13.2775 19 16.3473 19C18.3813 19 20.0763 18.0893 21.018 17.0372V18.3719H23.9372V10.2694C23.956 7.64711 21.8278 5.29173 17.176 5.46446ZM105.09 11.8711L112.077 6.12397H107.859L101.681 11.2273V0.0157034H98.762V18.3719H101.681V14.6661L103 13.5826L108.781 18.3719H113L105.09 11.8711ZM49.4752 6.12397H45.2565L39.098 11.2273V0.0157034H36.16V18.3719H39.0792V14.6661L40.3975 13.5826L46.1793 18.3719H50.398L42.488 11.8711L49.4752 6.12397ZM32.2803 16.2364C30.51 16.205 30.0203 15.2314 30.0203 14.1322V0H27.1012V14.1322C27.1012 16.6289 28.6643 18.1678 30.6042 18.4975C32.1485 18.7488 33.7305 18.3719 33.9 18.3719V16.1893C32.657 16.2678 32.6758 16.2521 32.2803 16.2364Z" fill="#625E60"/>
</svg>
