<svg width="113" height="24" viewBox="0 0 113 24" fill="none" xmlns="http://www.w3.org/2000/svg">
<path d="M17.2959 4.00038C17.2959 6.20988 15.3593 8 12.9714 8C10.5846 8 8.64795 6.20988 8.64795 4.00038C8.64795 1.79175 10.5846 4.76837e-07 12.9714 4.76837e-07C15.3593 4.76837e-07 17.2959 1.79175 17.2959 4.00038Z" fill="#B7B7B7"/>
<path d="M0.0725515 2.44288C-0.348944 0.798884 1.18827 0.728647 1.54532 1.49039C5.64437 8.80483 10.9531 17.5679 13.0151 17.5679C15.0574 17.5679 20.3322 8.75601 24.3726 1.46681C24.709 0.656691 26.3103 0.870668 25.8669 2.34733C22.5833 11.3656 17.5351 23 13.0151 23C8.49147 23 3.40731 11.4615 0.0725515 2.44288Z" fill="#625E60"/>
<path d="M38.3732 13.697C38.3732 10.9472 36.3567 9.81293 34.0147 9.81293C31.6501 9.81293 29.6588 10.9472 29.6588 13.697C29.6588 16.1827 31.2512 17.6885 34.0147 17.6885C36.7794 17.6885 38.3732 16.1827 38.3732 13.697ZM26.5205 13.7397C26.5205 10.5982 28.6865 7.5 34.0147 7.5C39.3443 7.5 41.5103 10.5982 41.5103 13.7397C41.5103 18.4067 37.6771 20 34.0147 20C30.3556 20 26.5205 18.4067 26.5205 13.7397Z" fill="#625E60"/>
<path d="M45.5459 7.90666H48.5806V9.41558C49.5512 8.55872 50.8698 7.5 53.5815 7.5C56.3675 7.5 58.8061 8.55872 58.8061 12.2534V20H55.7213V13.2895C55.7213 10.9026 54.9245 9.88817 52.8604 9.88817C50.3979 9.88817 49.4026 10.8124 48.6305 11.6682V20H45.5459V7.90666Z" fill="#625E60"/>
<path d="M73.3304 13.697C71.5323 13.7609 69.9589 13.9798 68.5099 14.2872C66.5862 14.6781 65.6864 15.2448 65.6621 16.2702C65.6363 17.2741 66.3863 17.9043 67.9103 17.9043C70.2574 17.9043 72.1325 17.0109 73.3304 16.3793V13.697ZM76.4289 17.7092C76.4289 18.4956 76.4801 19.279 76.6784 19.6062H73.5065C73.406 19.215 73.3304 18.8233 73.3304 18.4298C72.0314 19.0823 70.1089 20 67.4604 20C65.6864 20 62.2651 19.3448 62.2651 16.4665C62.2651 12.5177 69.0101 11.951 73.3304 11.7337V11.2095C73.3304 10.3153 72.4067 9.68305 69.8584 9.68305C67.0105 9.68305 66.4111 10.5982 66.2353 11.2326H63.0143C63.763 8.04639 67.3349 7.5 69.8336 7.5C76.3037 7.5 76.4289 10.2498 76.4289 11.8624V17.7092Z" fill="#625E60"/>
<path d="M91.1767 11.6591C91.1767 9.83925 89.147 9.29485 87.514 9.29485C85.8309 9.29485 83.9504 9.83925 83.9504 11.6824C83.9504 13.5894 85.8553 14.0667 87.4886 14.0667C89.1225 14.0667 91.1767 13.4525 91.1767 11.6591ZM85.2615 19.9763C84.5435 19.9763 83.5035 20.1586 83.5035 20.8622C83.5035 21.8624 84.9395 21.9767 87.364 21.9767C89.7655 21.9767 92.3393 21.7255 92.3393 20.7498C92.3393 19.9092 91.795 19.9541 88.4036 19.9763H85.2615ZM95.6813 9.59088C95.4096 9.52223 94.9124 9.36301 94.5672 9.40816C94.2211 9.40816 93.7748 9.54585 93.5772 9.63642C93.7748 9.88616 94.1953 10.6141 94.1953 11.6591C94.1953 14.9768 90.978 16.1586 87.4649 16.1586C86.2256 16.1586 85.2615 15.9788 84.6665 15.7726C84.3203 15.9788 83.8258 16.3176 83.8258 16.7506C83.8258 17.181 84.1241 17.4757 86.7954 17.4538H90.978C93.9731 17.5457 95.704 18.3417 95.704 20.2496C95.704 23.1577 91.0773 24 87.0673 24C83.3539 24 80.1377 23.3187 80.1377 21.2944C80.1377 19.8405 81.5487 19.6364 82.8111 19.409V19.3627C81.6729 19.2707 80.8072 18.7042 80.8072 17.4757C80.8072 16.2496 82.0675 15.3183 83.1315 15.1826V15.1358C81.6477 14.3863 80.9293 13.181 80.9293 11.6352C80.9293 8.04514 84.5179 7.20283 87.7857 7.20283C90.1121 7.20283 91.473 7.74912 92.3884 8.31795C92.8592 7.86203 93.8493 7 95.1856 7H95.6813V9.59088Z" fill="#625E60"/>
<path d="M109.686 12.4088C109.209 10.4247 107.651 9.68305 105.417 9.68305C103.784 9.68305 101.903 10.1619 101.273 12.4088H109.686ZM112.751 16.0954C112.523 17.0539 110.716 20 105.72 20C100.898 20 98.0103 17.3829 98.0103 13.7176C98.0103 10.4011 100.521 7.5 105.492 7.5C110.565 7.54534 113 10.2708 113 14.5032H101.174C101.299 15.2448 101.776 17.6885 105.617 17.8189C107.576 17.8189 108.882 17.0109 109.334 16.0954H112.751Z" fill="#625E60"/>
</svg>
