<svg width="200" height="34" viewBox="0 0 200 34" fill="none" xmlns="http://www.w3.org/2000/svg">
<path d="M3.248 0.983997L1.184 17.976C1.04 19.272 0.8 21.576 0.8 23.016C0.8 25.992 1.616 28.44 3.632 30.408C6.56 33.336 10.592 33.72 13.76 33.72C16.4 33.72 21.056 33.576 24.272 30.264C27.152 27.336 27.584 23.448 28.064 19.608L30.368 0.983997H22.976L20.768 19.128C20.528 20.952 20.192 23.64 18.608 25.224C17.792 26.04 16.304 26.808 13.904 26.808C11.936 26.808 10.544 26.184 9.68 25.368C8.48 24.168 8.288 22.536 8.288 21.24C8.288 19.896 8.384 19.464 8.528 18.456L10.64 0.983997H3.248ZM51.4381 12.264C49.3741 11.256 47.3581 10.872 45.1981 10.872C40.9741 10.872 38.1421 12.408 36.3181 14.28C34.1581 16.488 32.9581 19.56 32.9581 23.016C32.9581 26.328 34.1101 28.872 35.8381 30.744C38.0461 33.096 40.4461 33.72 43.2781 33.72C44.8141 33.72 46.6861 33.576 48.9421 32.472L49.7101 26.136C48.7021 27.048 47.2141 27.864 45.3421 27.864C43.9021 27.864 42.6541 27.432 41.5981 26.424C40.7341 25.608 40.0621 24.36 40.0621 22.632C40.0621 21.192 40.5901 19.512 41.6461 18.36C42.1261 17.88 43.4221 16.728 45.8221 16.728C48.3661 16.728 50.0461 18.024 50.6221 18.552L51.4381 12.264ZM72.062 14.184C71.102 12.84 69.95 12.072 69.134 11.688C67.742 11.016 66.206 10.872 64.958 10.872C61.982 10.872 59.294 11.736 57.086 13.992C55.022 16.104 53.63 19.272 53.63 23.208C53.63 26.904 54.926 29.4 56.51 31.08C58.382 33.048 60.494 33.72 63.134 33.72C63.95 33.72 65.63 33.624 67.118 32.952C68.27 32.424 69.374 31.464 70.142 30.552L69.614 33H76.526L79.166 11.592H72.254L72.062 14.184ZM66.446 16.824C68.318 16.824 69.422 17.448 70.046 18.024C70.958 18.84 71.534 20.184 71.534 21.72C71.534 23.304 70.958 25.128 69.71 26.328C68.99 27 67.742 27.768 65.774 27.768C64.382 27.768 63.134 27.384 62.126 26.328C61.454 25.608 60.734 24.456 60.734 22.68C60.734 20.904 61.406 19.368 62.366 18.408C63.422 17.352 64.718 16.824 66.446 16.824ZM100.75 14.184C99.7895 12.84 98.6375 12.072 97.8215 11.688C96.4295 11.016 94.8935 10.872 93.6455 10.872C90.6695 10.872 87.9815 11.736 85.7735 13.992C83.7095 16.104 82.3175 19.272 82.3175 23.208C82.3175 26.904 83.6135 29.4 85.1975 31.08C87.0695 33.048 89.1815 33.72 91.8215 33.72C92.6375 33.72 94.3175 33.624 95.8055 32.952C96.9575 32.424 98.0615 31.464 98.8295 30.552L98.3015 33H105.214L107.854 11.592H100.942L100.75 14.184ZM95.1335 16.824C97.0055 16.824 98.1095 17.448 98.7335 18.024C99.6455 18.84 100.222 20.184 100.222 21.72C100.222 23.304 99.6455 25.128 98.3975 26.328C97.6775 27 96.4295 27.768 94.4615 27.768C93.0695 27.768 91.8215 27.384 90.8135 26.328C90.1415 25.608 89.4215 24.456 89.4215 22.68C89.4215 20.904 90.0935 19.368 91.0535 18.408C92.1095 17.352 93.4055 16.824 95.1335 16.824ZM134.717 3.432C131.357 0.792 128.189 0.263998 125.453 0.263998C122.717 0.263998 119.405 0.743998 116.813 3.288C115.277 4.824 113.933 7.224 113.933 10.536C113.933 12.552 114.509 14.376 116.045 15.96C117.581 17.544 120.029 18.6 120.557 18.792L122.429 19.56C124.109 20.232 124.733 20.76 124.973 21C125.357 21.384 125.885 22.056 125.885 23.208C125.885 24.408 125.405 25.512 124.541 26.184C123.629 26.856 122.093 27.192 120.989 27.192C119.597 27.192 118.253 26.76 117.245 26.136C116.285 25.512 115.229 24.504 114.557 23.592L110.429 28.872C111.581 30.12 113.117 31.416 114.701 32.28C116.861 33.432 118.733 33.72 121.085 33.72C124.349 33.72 127.661 33.144 130.253 30.6C132.125 28.728 133.469 25.752 133.469 22.392C133.469 20.328 132.989 18.84 131.837 17.4C130.589 15.864 129.149 15.048 127.613 14.328L125.741 13.464C124.157 12.744 123.293 12.36 122.621 11.784C121.949 11.256 121.517 10.584 121.517 9.624C121.517 8.76 121.949 7.848 122.621 7.32C123.437 6.648 124.733 6.504 125.645 6.504C127.085 6.504 129.005 6.984 131.021 8.808L134.717 3.432Z" fill="white"/>
<path d="M138.404 16.992L136.436 33H138.812H140.18C141.716 33 143.876 32.904 145.316 31.392C145.964 30.72 146.588 29.592 146.588 27.888C146.588 27.144 146.444 26.4 145.892 25.68C145.724 25.464 145.172 24.792 144.14 24.432C144.908 24.024 145.34 23.448 145.556 23.04C145.94 22.32 146.012 21.552 146.012 20.952C146.012 19.944 145.772 19.032 145.004 18.24C144.02 17.256 142.604 16.992 140.828 16.992H138.404ZM140.564 19.296H141.236C141.788 19.296 142.652 19.368 143.18 19.896C143.444 20.16 143.708 20.616 143.708 21.288C143.708 22.104 143.372 22.824 142.916 23.232C142.556 23.544 141.908 23.88 140.756 23.88H140.012L140.564 19.296ZM139.748 25.896H141.284C142.004 25.896 142.868 25.968 143.492 26.472C143.852 26.76 144.212 27.24 144.212 28.032C144.212 28.8 143.9 29.472 143.468 29.88C142.7 30.6 141.572 30.696 140.66 30.696H139.172L139.748 25.896ZM148.636 33H150.988L151.636 27.768C151.708 27.264 151.9 26.112 152.5 25.488C152.836 25.152 153.34 24.888 154.06 24.888C154.54 24.888 154.948 25.008 155.308 25.248L156.46 23.112C155.788 22.704 155.212 22.632 154.732 22.632C154.252 22.632 153.724 22.68 153.196 22.944C152.62 23.232 152.236 23.664 152.116 23.808L152.236 22.896H149.884L148.636 33ZM162.395 22.632C160.667 22.632 159.323 23.136 158.219 24.192C157.163 25.2 156.467 26.664 156.467 28.416C156.467 30.048 157.115 31.176 157.859 31.944C158.963 33.072 160.163 33.312 161.459 33.312C163.091 33.312 164.387 32.928 165.611 31.752C167.099 30.312 167.363 28.632 167.363 27.48C167.363 25.8 166.643 24.648 165.995 23.976C164.843 22.824 163.451 22.632 162.395 22.632ZM161.771 31.2C160.523 31.2 159.851 30.576 159.611 30.312C159.131 29.76 158.867 28.992 158.867 28.224C158.867 27.192 159.275 26.232 159.971 25.584C160.427 25.152 161.171 24.744 162.251 24.744C163.019 24.744 163.667 24.984 164.171 25.512C164.843 26.208 164.963 27.072 164.963 27.624C164.963 28.704 164.579 29.616 164.003 30.24C163.355 30.936 162.587 31.2 161.771 31.2ZM171.351 15.504L169.191 33H171.543L172.023 29.112L172.503 28.68L175.287 33H178.215L174.279 27.12L179.199 22.896H176.079L172.359 26.28L173.703 15.504H171.351ZM187.134 29.592C186.894 30.024 186.486 30.48 186.078 30.744C185.622 31.032 185.022 31.2 184.47 31.2C183.678 31.2 183.126 30.888 182.814 30.552C182.334 30.048 182.07 29.232 182.07 28.512H189.294C189.39 28.056 189.414 27.648 189.414 27.336C189.414 25.872 188.934 24.6 188.166 23.808C187.23 22.824 186.054 22.632 185.118 22.632C183.606 22.632 182.406 23.16 181.422 24.12C180.318 25.2 179.67 26.712 179.67 28.44C179.67 30.024 180.246 31.248 181.038 32.04C181.95 32.976 183.03 33.312 184.278 33.312C185.622 33.312 186.534 32.928 187.11 32.592C187.782 32.184 188.478 31.536 188.982 30.696L187.134 29.592ZM182.43 26.592C182.622 26.112 182.958 25.584 183.366 25.248C183.87 24.84 184.47 24.648 185.07 24.648C185.646 24.648 186.198 24.84 186.534 25.2C186.822 25.512 187.062 26.088 187.134 26.592H182.43ZM191.316 33H193.668L194.316 27.768C194.388 27.264 194.58 26.112 195.18 25.488C195.516 25.152 196.02 24.888 196.74 24.888C197.22 24.888 197.628 25.008 197.988 25.248L199.14 23.112C198.468 22.704 197.892 22.632 197.412 22.632C196.932 22.632 196.404 22.68 195.876 22.944C195.3 23.232 194.916 23.664 194.796 23.808L194.916 22.896H192.564L191.316 33Z" fill="#FF7B4D"/>
</svg>
